<?xml version="1.0" encoding="UTF-8" standalone="no"?>
<!-- Created with Inkscape (http://www.inkscape.org/) -->

<svg
   xmlns:dc="http://purl.org/dc/elements/1.1/"
   xmlns:cc="http://creativecommons.org/ns#"
   xmlns:rdf="http://www.w3.org/1999/02/22-rdf-syntax-ns#"
   xmlns:svg="http://www.w3.org/2000/svg"
   xmlns="http://www.w3.org/2000/svg"
   xmlns:sodipodi="http://sodipodi.sourceforge.net/DTD/sodipodi-0.dtd"
   xmlns:inkscape="http://www.inkscape.org/namespaces/inkscape"
   width="69.606903mm"
   height="40.93055mm"
   viewBox="0 0 246.63863 145.0295"
   id="svg25048"
   version="1.1"
   inkscape:version="0.91 r13725"
   sodipodi:docname="badDream.svg">
  <defs
     id="defs25050">
    <clipPath
       clipPathUnits="userSpaceOnUse"
       id="clipPath24261">
      <path
         d="m 0,482.65 497.796,0 L 497.796,0 0,0 0,482.65 Z"
         id="path24263"
         inkscape:connector-curvature="0" />
    </clipPath>
    <clipPath
       clipPathUnits="userSpaceOnUse"
       id="clipPath24285">
      <path
         d="m 223.308,391.295 70,0 0,-18.473 -70,0 0,18.473 z"
         id="path24287"
         inkscape:connector-curvature="0" />
    </clipPath>
    <radialGradient
       fx="0"
       fy="0"
       cx="0"
       cy="0"
       r="1"
       gradientUnits="userSpaceOnUse"
       gradientTransform="matrix(25.637692,0,0,-25.637692,258.3082,381.7998)"
       spreadMethod="pad"
       id="radialGradient24293">
      <stop
         style="stop-opacity:1;stop-color:#ffffff"
         offset="0"
         id="stop24295" />
      <stop
         style="stop-opacity:1;stop-color:#ffffff"
         offset="0.14985505"
         id="stop24297" />
      <stop
         style="stop-opacity:1;stop-color:#868484"
         offset="1"
         id="stop24299" />
    </radialGradient>
    <clipPath
       clipPathUnits="userSpaceOnUse"
       id="clipPath24015">
      <path
         d="m 339.684,340.914 c 0.106,4.046 -3.288,4.06 -3.288,4.06 l 0,0 c 1.711,-2.972 -3.886,-7.707 -8.927,-3.591 l 0,0 c -5.039,4.116 -6.318,4.081 -7.678,3.407 l 0,0 c -1.36,-0.673 -0.529,-2.322 -0.529,-2.322 l 0,0 c -6.786,5.22 -8.64,4.351 -9.711,3.836 l 0,0 c -1.072,-0.514 -0.612,-2.444 -0.612,-2.444 l 0,0 c 0,0 -4.564,3.508 -8.143,2.216 l 0,0 c -3.578,-1.291 -0.386,-3.674 -0.386,-3.674 l 0,0 c -0.181,-3.637 -7.928,-7.737 -14.166,-4.195 l 0,0 c -3.661,2.078 -5.673,-0.921 -3.884,-1.977 l 0,0 c 3.131,-11.295 7.403,-12.631 8.55,-12.527 l 0,0 c 1.146,0.104 0.695,2.565 0.695,2.565 l 0,0 c 0,0 2.116,-5.759 7.631,-8.669 l 0,0 c 5.515,-2.91 4.268,0.995 4.268,0.995 l 0,0 c 2.272,-3.717 6.574,-5.789 7.486,-4.986 l 0,0 c 0.912,0.802 -0.565,3.076 -0.565,3.076 l 0,0 c 4.285,-3.136 9.311,-3.38 10.195,-1.84 l 0,0 c 0.883,1.539 -1.217,3.167 -1.217,3.167 l 0,0 c 4.301,-2.071 6.75,0.179 6.729,1.447 l 0,0 c -0.021,1.268 1.946,1.522 1.946,1.522 l 0,0 c 6.366,1.698 4.283,4.389 4.283,4.389 l 0,0 c 7.298,1.233 6.416,4.886 6.416,4.886 l 0,0 c 6.646,1.325 4.199,4.268 4.199,4.268 l 0,0 c 4.017,0.63 3.357,5.385 3.357,5.385 l 0,0 c -0.92,-1.335 -2.72,-1.347 -2.72,-1.347 l 0,0 c 0.921,1.334 1.721,2.752 1.11,5.503 l 0,0 c -0.61,2.749 -2.522,3.352 -2.522,3.352 l 0,0 c 1.351,-5.051 -2.517,-6.502 -2.517,-6.502"
         id="path24017"
         inkscape:connector-curvature="0" />
    </clipPath>
    <clipPath
       clipPathUnits="userSpaceOnUse"
       id="clipPath24023">
      <path
         d="m 277.337,338.465 62.608,0 0,-37.411 -62.608,0 0,37.411 z"
         id="path24025"
         inkscape:connector-curvature="0" />
    </clipPath>
    <linearGradient
       x1="0"
       y1="0"
       x2="1"
       y2="0"
       gradientUnits="userSpaceOnUse"
       gradientTransform="matrix(62.291653,-14.975812,-14.975812,-62.291653,275.10562,327.14069)"
       spreadMethod="pad"
       id="linearGradient24031">
      <stop
         style="stop-opacity:1;stop-color:#50b1cd"
         offset="0"
         id="stop24033" />
      <stop
         style="stop-opacity:1;stop-color:#80d3b7"
         offset="0.43903596"
         id="stop24035" />
      <stop
         style="stop-opacity:1;stop-color:#80d3b7"
         offset="0.502503"
         id="stop24037" />
      <stop
         style="stop-opacity:1;stop-color:#80d3b7"
         offset="0.52846614"
         id="stop24039" />
      <stop
         style="stop-opacity:1;stop-color:#c8e9b0"
         offset="0.994842"
         id="stop24041" />
      <stop
         style="stop-opacity:1;stop-color:#c8e9b0"
         offset="1"
         id="stop24043" />
    </linearGradient>
    <clipPath
       clipPathUnits="userSpaceOnUse"
       id="clipPath24063">
      <path
         d="m 263.492,344.396 64.677,0 0,-33.98 -64.677,0 0,33.98 z"
         id="path24065"
         inkscape:connector-curvature="0" />
    </clipPath>
    <linearGradient
       x1="0"
       y1="0"
       x2="1"
       y2="0"
       gradientUnits="userSpaceOnUse"
       gradientTransform="matrix(63.015812,11.555752,11.555752,-63.015812,265.67371,322.27368)"
       spreadMethod="pad"
       id="linearGradient24071">
      <stop
         style="stop-opacity:1;stop-color:#50b1cd"
         offset="0"
         id="stop24073" />
      <stop
         style="stop-opacity:1;stop-color:#80d3b7"
         offset="0.43903596"
         id="stop24075" />
      <stop
         style="stop-opacity:1;stop-color:#80d3b7"
         offset="0.502503"
         id="stop24077" />
      <stop
         style="stop-opacity:1;stop-color:#80d3b7"
         offset="0.52846614"
         id="stop24079" />
      <stop
         style="stop-opacity:1;stop-color:#c8e9b0"
         offset="0.994842"
         id="stop24081" />
      <stop
         style="stop-opacity:1;stop-color:#c8e9b0"
         offset="1"
         id="stop24083" />
    </linearGradient>
    <clipPath
       clipPathUnits="userSpaceOnUse"
       id="clipPath24103">
      <path
         d="m 279.651,358.319 44.577,0 0,-46.574 -44.577,0 0,46.574 z"
         id="path24105"
         inkscape:connector-curvature="0" />
    </clipPath>
    <linearGradient
       x1="0"
       y1="0"
       x2="1"
       y2="0"
       gradientUnits="userSpaceOnUse"
       gradientTransform="matrix(36.200729,-14.892098,-14.892098,-36.200729,282.71655,339.30508)"
       spreadMethod="pad"
       id="linearGradient24111">
      <stop
         style="stop-opacity:1;stop-color:#50b1cd"
         offset="0"
         id="stop24113" />
      <stop
         style="stop-opacity:1;stop-color:#80d3b7"
         offset="0.43903596"
         id="stop24115" />
      <stop
         style="stop-opacity:1;stop-color:#80d3b7"
         offset="0.502503"
         id="stop24117" />
      <stop
         style="stop-opacity:1;stop-color:#80d3b7"
         offset="0.52846614"
         id="stop24119" />
      <stop
         style="stop-opacity:1;stop-color:#c8e9b0"
         offset="0.994842"
         id="stop24121" />
      <stop
         style="stop-opacity:1;stop-color:#c8e9b0"
         offset="1"
         id="stop24123" />
    </linearGradient>
    <clipPath
       clipPathUnits="userSpaceOnUse"
       id="clipPath23863">
      <path
         d="m 207.013,339.475 c 0,0 0.361,1.951 -0.736,2.41 l 0,0 c -1.096,0.459 -2.992,1.234 -9.504,-4.326 l 0,0 c 0,0 0.747,1.69 -0.645,2.293 l 0,0 c -1.393,0.603 -2.671,0.573 -7.496,-3.795 l 0,0 c -4.824,-4.367 -10.654,0.078 -9.097,3.132 l 0,0 c 0,0 -3.389,-0.186 -3.077,-4.222 l 0,0 c 0,0 -3.936,1.252 -2.845,6.366 l 0,0 c 0,0 -1.88,-0.7 -2.348,-3.477 l 0,0 c -0.47,-2.777 0.401,-4.153 1.388,-5.439 l 0,0 c 0,0 -1.797,-0.079 -2.785,1.207 l 0,0 c 0,0 -0.417,-4.782 3.628,-5.207 l 0,0 c 0,0 -2.294,-3.063 4.41,-4.048 l 0,0 c 0,0 -0.695,-3.694 6.657,-4.553 l 0,0 c 0,0 -1.943,-2.795 4.501,-4.165 l 0,0 c 0,0 1.976,-0.154 2.02,-1.421 l 0,0 c 0.044,-1.268 2.605,-3.391 6.795,-1.102 l 0,0 c 0,0 -2.015,-1.733 -1.054,-3.226 l 0,0 c 0.961,-1.493 5.967,-0.993 10.087,2.357 l 0,0 c 0,0 -1.359,-2.346 -0.407,-3.102 l 0,0 c 0.952,-0.755 5.143,1.534 7.222,5.361 l 0,0 c 0,0 -1.046,-3.962 4.313,-0.775 l 0,0 c 5.36,3.187 7.18,9.046 7.18,9.046 l 0,0 c 0,0 -0.325,-2.481 0.825,-2.527 l 0,0 c 1.15,-0.046 5.35,1.507 7.901,12.947 l 0,0 c 1.732,1.145 -0.429,4.038 -3.98,1.776 l 0,0 c -6.049,-3.855 -13.996,-0.154 -14.361,3.468 l 0,0 c 0,0 3.066,2.542 -0.572,3.65 l 0,0 c -0.471,0.143 -0.954,0.205 -1.438,0.205 l 0,0 c -3.261,0 -6.582,-2.833 -6.582,-2.833"
         id="path23865"
         inkscape:connector-curvature="0" />
    </clipPath>
    <clipPath
       clipPathUnits="userSpaceOnUse"
       id="clipPath23871">
      <path
         d="m 176.779,335.605 62.512,0 0,-38.592 -62.512,0 0,38.592 z"
         id="path23873"
         inkscape:connector-curvature="0" />
    </clipPath>
    <linearGradient
       x1="0"
       y1="0"
       x2="1"
       y2="0"
       gradientUnits="userSpaceOnUse"
       gradientTransform="matrix(-61.448273,-18.127981,18.127981,-61.448273,241.65369,324.50021)"
       spreadMethod="pad"
       id="linearGradient23879">
      <stop
         style="stop-opacity:1;stop-color:#50b1cd"
         offset="0"
         id="stop23881" />
      <stop
         style="stop-opacity:1;stop-color:#80d3b7"
         offset="0.43903596"
         id="stop23883" />
      <stop
         style="stop-opacity:1;stop-color:#80d3b7"
         offset="0.502503"
         id="stop23885" />
      <stop
         style="stop-opacity:1;stop-color:#80d3b7"
         offset="0.52846614"
         id="stop23887" />
      <stop
         style="stop-opacity:1;stop-color:#c8e9b0"
         offset="0.994842"
         id="stop23889" />
      <stop
         style="stop-opacity:1;stop-color:#c8e9b0"
         offset="1"
         id="stop23891" />
    </linearGradient>
    <clipPath
       clipPathUnits="userSpaceOnUse"
       id="clipPath23911">
      <path
         d="m 188.191,340.219 64.699,0 0,-33.294 -64.699,0 0,33.294 z"
         id="path23913"
         inkscape:connector-curvature="0" />
    </clipPath>
    <linearGradient
       x1="0"
       y1="0"
       x2="1"
       y2="0"
       gradientUnits="userSpaceOnUse"
       gradientTransform="matrix(-63.522446,8.3322735,-8.3322735,-63.522446,251.3212,320.11972)"
       spreadMethod="pad"
       id="linearGradient23919">
      <stop
         style="stop-opacity:1;stop-color:#50b1cd"
         offset="0"
         id="stop23921" />
      <stop
         style="stop-opacity:1;stop-color:#80d3b7"
         offset="0.43903596"
         id="stop23923" />
      <stop
         style="stop-opacity:1;stop-color:#80d3b7"
         offset="0.502503"
         id="stop23925" />
      <stop
         style="stop-opacity:1;stop-color:#80d3b7"
         offset="0.52846614"
         id="stop23927" />
      <stop
         style="stop-opacity:1;stop-color:#c8e9b0"
         offset="0.994842"
         id="stop23929" />
      <stop
         style="stop-opacity:1;stop-color:#c8e9b0"
         offset="1"
         id="stop23931" />
    </linearGradient>
    <clipPath
       clipPathUnits="userSpaceOnUse"
       id="clipPath23951">
      <path
         d="m 191.994,354.815 45.025,0 0,-46.762 -45.025,0 0,46.762 z"
         id="path23953"
         inkscape:connector-curvature="0" />
    </clipPath>
    <linearGradient
       x1="0"
       y1="0"
       x2="1"
       y2="0"
       gradientUnits="userSpaceOnUse"
       gradientTransform="matrix(-35.395527,-16.715962,16.715962,-35.395527,233.43329,336.26129)"
       spreadMethod="pad"
       id="linearGradient23959">
      <stop
         style="stop-opacity:1;stop-color:#50b1cd"
         offset="0"
         id="stop23961" />
      <stop
         style="stop-opacity:1;stop-color:#80d3b7"
         offset="0.43903596"
         id="stop23963" />
      <stop
         style="stop-opacity:1;stop-color:#80d3b7"
         offset="0.502503"
         id="stop23965" />
      <stop
         style="stop-opacity:1;stop-color:#80d3b7"
         offset="0.52846614"
         id="stop23967" />
      <stop
         style="stop-opacity:1;stop-color:#c8e9b0"
         offset="0.994842"
         id="stop23969" />
      <stop
         style="stop-opacity:1;stop-color:#c8e9b0"
         offset="1"
         id="stop23971" />
    </linearGradient>
    <clipPath
       clipPathUnits="userSpaceOnUse"
       id="clipPath24249">
      <path
         d="m 223.308,381.667 c 0,-5.318 15.67,-9.628 35,-9.628 l 0,0 c 19.33,0 35,4.31 35,9.628 l 0,0 c 0,5.318 -15.67,9.629 -35,9.629 l 0,0 c -19.33,0 -35,-4.311 -35,-9.629 m 3.512,1.544 c 0,3.161 13.908,5.723 31.064,5.723 l 0,0 c 17.157,0 31.065,-2.562 31.065,-5.723 l 0,0 c 0,-3.16 -13.908,-5.722 -31.065,-5.722 l 0,0 c -17.156,0 -31.064,2.562 -31.064,5.722"
         id="path24251"
         inkscape:connector-curvature="0" />
    </clipPath>
    <clipPath
       clipPathUnits="userSpaceOnUse"
       id="clipPath24143">
      <path
         d="m 0,482.65 497.796,0 L 497.796,0 0,0 0,482.65 Z"
         id="path24145"
         inkscape:connector-curvature="0" />
    </clipPath>
    <clipPath
       clipPathUnits="userSpaceOnUse"
       id="clipPath24155">
      <path
         d="m 181.842,410.564 152.933,0 0,-152.933 -152.933,0 0,152.933 z"
         id="path24157"
         inkscape:connector-curvature="0" />
    </clipPath>
    <clipPath
       clipPathUnits="userSpaceOnUse"
       id="clipPath24159">
      <path
         d="m 334.775,334.098 c 0,-42.231 -34.236,-76.467 -76.466,-76.467 -42.232,0 -76.467,34.236 -76.467,76.467 0,42.231 34.235,76.466 76.467,76.466 42.23,0 76.466,-34.235 76.466,-76.466"
         id="path24161"
         inkscape:connector-curvature="0" />
    </clipPath>
    <mask
       maskUnits="userSpaceOnUse"
       x="0"
       y="0"
       width="1"
       height="1"
       id="mask24181">
      <g
         id="g24183">
        <g
           id="g24185">
          <g
             id="g24187">
            <g
               id="g24189">
              <path
                 d="m -32768,32767 65535,0 0,-65535 -65535,0 0,65535 z"
                 style="fill:url(#radialGradient24167);stroke:none"
                 id="path24191"
                 inkscape:connector-curvature="0" />
            </g>
          </g>
        </g>
      </g>
    </mask>
    <radialGradient
       fx="0"
       fy="0"
       cx="0"
       cy="0"
       r="1"
       gradientUnits="userSpaceOnUse"
       gradientTransform="matrix(76.466522,0,0,-76.466522,258.3082,334.09769)"
       spreadMethod="pad"
       id="radialGradient24167">
      <stop
         style="stop-opacity:0.95001144;stop-color:#ffffff"
         offset="0"
         id="stop24169" />
      <stop
         style="stop-opacity:0.95001144;stop-color:#ffffff"
         offset="0.0903351"
         id="stop24171" />
      <stop
         style="stop-opacity:0.6512398;stop-color:#ffffff"
         offset="0.202287"
         id="stop24173" />
      <stop
         style="stop-opacity:0;stop-color:#ffffff"
         offset="0.64820484"
         id="stop24175" />
      <stop
         style="stop-opacity:0;stop-color:#ffffff"
         offset="0.736559"
         id="stop24177" />
      <stop
         style="stop-opacity:0;stop-color:#ffffff"
         offset="1"
         id="stop24179" />
    </radialGradient>
    <radialGradient
       fx="0"
       fy="0"
       cx="0"
       cy="0"
       r="1"
       gradientUnits="userSpaceOnUse"
       gradientTransform="matrix(76.466522,0,0,-76.466522,258.3082,334.09769)"
       spreadMethod="pad"
       id="radialGradient24193">
      <stop
         style="stop-opacity:1;stop-color:#f9a72c"
         offset="0"
         id="stop24195" />
      <stop
         style="stop-opacity:1;stop-color:#f9a72c"
         offset="0.0903351"
         id="stop24197" />
      <stop
         style="stop-opacity:1;stop-color:#f9a72c"
         offset="0.202287"
         id="stop24199" />
      <stop
         style="stop-opacity:1;stop-color:#f9a72c"
         offset="0.64820484"
         id="stop24201" />
      <stop
         style="stop-opacity:1;stop-color:#f9a72c"
         offset="0.736559"
         id="stop24203" />
      <stop
         style="stop-opacity:1;stop-color:#f9a72c"
         offset="1"
         id="stop24205" />
    </radialGradient>
    <linearGradient
       x1="0"
       y1="0"
       x2="1"
       y2="0"
       gradientUnits="userSpaceOnUse"
       gradientTransform="matrix(63.015827,11.555755,11.555755,-63.015827,283.87839,325.29404)"
       spreadMethod="pad"
       id="linearGradient23999">
      <stop
         style="stop-opacity:1;stop-color:#d4daf1"
         offset="0"
         id="stop24001" />
      <stop
         style="stop-opacity:1;stop-color:#c4ead6"
         offset="0.86919165"
         id="stop24003" />
      <stop
         style="stop-opacity:1;stop-color:#c4ead6"
         offset="0.994842"
         id="stop24005" />
      <stop
         style="stop-opacity:1;stop-color:#c4ead6"
         offset="1"
         id="stop24007" />
    </linearGradient>
    <linearGradient
       x1="0"
       y1="0"
       x2="1"
       y2="0"
       gradientUnits="userSpaceOnUse"
       gradientTransform="matrix(-63.522469,8.3322763,-8.3322763,-63.522469,232.98628,322.20929)"
       spreadMethod="pad"
       id="linearGradient23847">
      <stop
         style="stop-opacity:1;stop-color:#d4daf1"
         offset="0"
         id="stop23849" />
      <stop
         style="stop-opacity:1;stop-color:#c4ead6"
         offset="0.86919165"
         id="stop23851" />
      <stop
         style="stop-opacity:1;stop-color:#c4ead6"
         offset="0.994842"
         id="stop23853" />
      <stop
         style="stop-opacity:1;stop-color:#c4ead6"
         offset="1"
         id="stop23855" />
    </linearGradient>
    <clipPath
       clipPathUnits="userSpaceOnUse"
       id="clipPath23561">
      <path
         d="m 0,482.65 497.796,0 L 497.796,0 0,0 0,482.65 Z"
         id="path23563"
         inkscape:connector-curvature="0" />
    </clipPath>
  </defs>
  <sodipodi:namedview
     id="base"
     pagecolor="#ffffff"
     bordercolor="#666666"
     borderopacity="1.0"
     inkscape:pageopacity="0.0"
     inkscape:pageshadow="2"
     inkscape:zoom="0.98994949"
     inkscape:cx="-28.375791"
     inkscape:cy="72.799752"
     inkscape:document-units="px"
     inkscape:current-layer="layer1"
     showgrid="false"
     fit-margin-top="0"
     fit-margin-left="0"
     fit-margin-right="0"
     fit-margin-bottom="0"
     inkscape:window-width="1366"
     inkscape:window-height="744"
     inkscape:window-x="0"
     inkscape:window-y="24"
     inkscape:window-maximized="1" />
  <metadata
     id="metadata25053">
    <rdf:RDF>
      <cc:Work
         rdf:about="">
        <dc:format>image/svg+xml</dc:format>
        <dc:type
           rdf:resource="http://purl.org/dc/dcmitype/StillImage" />
        <dc:title></dc:title>
      </cc:Work>
    </rdf:RDF>
  </metadata>
  <g
     inkscape:label="Layer 1"
     inkscape:groupmode="layer"
     id="layer1"
     transform="translate(437.78101,-248.87325)">
    <g
       id="g24139"
       transform="matrix(1.25,0,0,-1.25,-642.64324,744.26979)">
      <g
         id="g24141"
         clip-path="url(#clipPath24143)" />
    </g>
    <g
       id="g23557"
       transform="matrix(1.25,0,0,-1.25,-639.35201,564.599)">
      <g
         id="g23559"
         clip-path="url(#clipPath23561)">
        <g
           id="g23565"
           transform="translate(293.9077,199.7318)">
          <path
             d="m 0,0 c 1.163,2.047 2.572,3.942 3.988,5.823 5.538,7.36 11.395,14.765 19.225,19.615 7.831,4.85 18.12,6.724 26.295,2.482 7.904,-4.101 12.191,-12.809 15.152,-21.207 -2.506,4.604 -5.904,8.831 -10.351,11.606 -4.447,2.775 -10.025,3.97 -15.057,2.504 -2.215,-0.646 -4.379,-1.882 -5.513,-3.891 -1.831,-3.243 -0.486,-7.284 0.887,-10.746 1.057,-2.667 2.114,-5.333 3.171,-8 C 35.281,0.91 32.599,3.731 29.076,4.888 24.263,6.467 18.568,4.287 15.799,0.046 c -2.769,-4.242 -2.561,-10.136 0.26,-14.342 -1.854,2.695 -5.174,4.127 -8.441,4.304 -3.267,0.176 -6.499,-0.762 -9.521,-2.014 -1.349,2.597 2.152,5.428 1.752,8.327 -0.103,0.749 -0.471,1.469 -0.405,2.223 0.046,0.521 0.297,1 0.556,1.456"
             style="fill:#24265d;fill-opacity:1;fill-rule:nonzero;stroke:none"
             id="path23567"
             inkscape:connector-curvature="0" />
        </g>
        <g
           id="g23569"
           transform="translate(330.9685,221.4722)">
          <path
             d="m 0,0 c -2.585,-1.542 -4.601,-4.124 -5.054,-7.099 -0.454,-2.975 0.53,-6.366 1.192,-9.301 -1.52,2.876 -2.537,6.155 -2.054,9.372 C -5.433,-3.81 -3.172,-0.724 0,0"
             style="fill:#2c3792;fill-opacity:1;fill-rule:nonzero;stroke:none"
             id="path23571"
             inkscape:connector-curvature="0" />
        </g>
        <g
           id="g23573"
           transform="translate(337.7588,223.0517)">
          <path
             d="m 0,0 c -1.063,-0.046 -2.099,-0.345 -3.103,-0.697 7.202,0.97 14.813,-2.058 19.381,-7.709 -0.674,0.781 -1.347,1.563 -2.021,2.344 C 12.82,-4.394 11.3,-2.666 9.253,-1.854 8.03,-1.369 6.7,-1.246 5.413,-0.976 3.613,-0.598 1.838,0.08 0,0"
             style="fill:#2c3792;fill-opacity:1;fill-rule:nonzero;stroke:none"
             id="path23575"
             inkscape:connector-curvature="0" />
        </g>
        <g
           id="g23577"
           transform="translate(321.7837,226.6855)">
          <path
             d="m 0,0 c -1.176,-0.54 -8.651,-5.661 -10.961,-7.964 l -2.662,-2.652 c 4.822,4.247 9.795,8.585 15.829,10.796 2.353,0.862 4.828,1.38 7.326,1.582 4.84,0.389 9.925,-0.489 13.884,-3.299 C 20.356,1.236 10.98,5.041 0,0"
             style="fill:#2c3792;fill-opacity:1;fill-rule:nonzero;stroke:none"
             id="path23579"
             inkscape:connector-curvature="0" />
        </g>
        <g
           id="g23581"
           transform="translate(307.3504,189.5845)">
          <path
             d="m 0,0 c -1.492,2.676 -1.365,6 -0.467,8.929 0.487,1.589 1.204,3.138 2.335,4.355 1.131,1.217 2.718,2.074 4.379,2.074 C 5.369,14.943 4.535,14.435 3.764,13.846 4.548,14.128 5.332,14.41 6.117,14.692 1.421,11.589 -1.106,5.518 0,0"
             style="fill:#2c3792;fill-opacity:1;fill-rule:nonzero;stroke:none"
             id="path23583"
             inkscape:connector-curvature="0" />
        </g>
        <g
           id="g23585"
           transform="translate(225.9168,199.7318)">
          <path
             d="m 0,0 c -1.163,2.047 -2.572,3.942 -3.988,5.823 -5.538,7.36 -11.395,14.765 -19.225,19.615 -7.831,4.85 -18.12,6.724 -26.295,2.482 -7.904,-4.101 -12.191,-12.809 -15.152,-21.207 2.506,4.604 5.904,8.831 10.351,11.606 4.447,2.775 10.025,3.97 15.057,2.504 2.215,-0.646 4.379,-1.882 5.513,-3.891 1.831,-3.243 0.486,-7.284 -0.887,-10.746 -1.057,-2.667 -2.114,-5.333 -3.171,-8 2.516,2.724 5.198,5.545 8.721,6.702 4.813,1.579 10.508,-0.601 13.277,-4.842 2.769,-4.242 2.561,-10.136 -0.26,-14.342 1.854,2.695 5.174,4.127 8.441,4.304 3.267,0.176 6.499,-0.762 9.521,-2.014 1.349,2.597 -2.152,5.428 -1.752,8.327 0.103,0.749 0.471,1.469 0.405,2.223 C 0.51,-0.935 0.259,-0.456 0,0"
             style="fill:#24265d;fill-opacity:1;fill-rule:nonzero;stroke:none"
             id="path23587"
             inkscape:connector-curvature="0" />
        </g>
        <g
           id="g23589"
           transform="translate(188.856,221.4722)">
          <path
             d="m 0,0 c 2.585,-1.542 4.601,-4.124 5.054,-7.099 0.453,-2.975 -0.53,-6.366 -1.192,-9.301 1.52,2.876 2.537,6.155 2.054,9.372 C 5.433,-3.81 3.172,-0.724 0,0"
             style="fill:#2c3792;fill-opacity:1;fill-rule:nonzero;stroke:none"
             id="path23591"
             inkscape:connector-curvature="0" />
        </g>
        <g
           id="g23593"
           transform="translate(182.0657,223.0517)">
          <path
             d="m 0,0 c 1.063,-0.046 2.099,-0.345 3.103,-0.697 -7.201,0.97 -14.813,-2.058 -19.381,-7.709 0.674,0.781 1.347,1.563 2.021,2.344 1.437,1.668 2.957,3.396 5.004,4.208 1.223,0.485 2.553,0.608 3.84,0.878 C -3.613,-0.598 -1.838,0.08 0,0"
             style="fill:#2c3792;fill-opacity:1;fill-rule:nonzero;stroke:none"
             id="path23595"
             inkscape:connector-curvature="0" />
        </g>
        <g
           id="g23597"
           transform="translate(198.0408,226.6855)">
          <path
             d="m 0,0 c 1.176,-0.54 8.651,-5.661 10.961,-7.964 0.887,-0.884 1.774,-1.768 2.662,-2.652 C 8.801,-6.369 3.828,-2.031 -2.206,0.18 -4.559,1.042 -7.034,1.56 -9.532,1.762 -14.372,2.151 -19.457,1.273 -23.416,-1.537 -20.356,1.236 -10.98,5.041 0,0"
             style="fill:#2c3792;fill-opacity:1;fill-rule:nonzero;stroke:none"
             id="path23599"
             inkscape:connector-curvature="0" />
        </g>
        <g
           id="g23601"
           transform="translate(212.4741,189.5845)">
          <path
             d="m 0,0 c 1.492,2.676 1.365,6 0.467,8.929 -0.487,1.589 -1.204,3.138 -2.335,4.355 -1.131,1.217 -2.718,2.074 -4.379,2.074 0.878,-0.415 1.712,-0.923 2.483,-1.512 -0.784,0.282 -1.568,0.564 -2.353,0.846 C -1.421,11.589 1.106,5.518 0,0"
             style="fill:#2c3792;fill-opacity:1;fill-rule:nonzero;stroke:none"
             id="path23603"
             inkscape:connector-curvature="0" />
        </g>
        <g
           id="g23605"
           transform="translate(297.5238,184.781)">
          <path
             d="m 0,0 c 0,-22.396 -17.133,-48.224 -38.268,-48.224 -21.135,0 -38.268,25.828 -38.268,48.224 0,22.396 17.133,40.552 38.268,40.552 C -17.133,40.552 0,22.396 0,0"
             style="fill:#6e122a;fill-opacity:1;fill-rule:nonzero;stroke:none"
             id="path23607"
             inkscape:connector-curvature="0" />
        </g>
        <g
           id="g23609"
           transform="translate(296.8785,192.2224)">
          <path
             d="m 0,0 c 2.444,-10.856 -0.408,-20.039 -4.582,-30.354 -1.322,-3.267 -2.808,-6.496 -4.866,-9.356 -3.777,-5.25 -9.258,-8.974 -14.622,-12.587 -0.432,-0.291 -1.237,-0.425 -1.278,0.094 3.018,3.423 5.836,7.022 8.434,10.773 2.364,3.413 4.554,6.969 6.187,10.786 3.452,8.068 4.291,16.986 4.78,25.748 0.367,6.584 0.51,13.45 -2.206,19.46 -3.088,6.83 -9.396,11.554 -15.451,15.973 C -21.911,29.239 -5.397,23.977 0,0"
             style="fill:#8b1533;fill-opacity:1;fill-rule:nonzero;stroke:none"
             id="path23611"
             inkscape:connector-curvature="0" />
        </g>
        <g
           id="g23613"
           transform="translate(288.5057,224.2496)">
          <path
             d="m 0,0 c -0.514,-0.775 -1.081,-1.546 -1.699,-2.313 -2.072,-2.57 -4.287,-5.063 -6.809,-7.202 -1.101,-0.933 -1.896,-1.236 -1.603,-2.816 0.227,-1.225 1.366,-2.342 2.543,-2.663 2.003,-0.547 4.126,0.406 5.765,1.681 5.277,4.103 9.589,10.986 11.078,17.502 1.921,8.402 -6.662,17.64 -8.095,18.766 -2.803,2.201 -5.8,4.243 -9.178,5.376 2.423,-0.603 3.933,-2.855 5.687,-4.632 C 5.016,16.279 5.283,7.959 0,0"
             style="fill:#6e122a;fill-opacity:1;fill-rule:nonzero;stroke:none"
             id="path23615"
             inkscape:connector-curvature="0" />
        </g>
        <g
           id="g23617"
           transform="translate(227.4061,221.8314)">
          <path
             d="m 0,0 c 0.655,-0.778 1.395,-1.526 2.222,-2.235 1.59,-1.364 3.402,-2.445 5.037,-3.754 2.289,-1.833 6.352,-6.757 1.456,-8.382 -1.971,-0.654 -4.142,0.183 -5.848,1.367 -5.491,3.812 -10.169,10.452 -12.008,16.878 -2.372,8.286 5.698,17.974 7.069,19.176 2.679,2.349 5.561,4.55 8.873,5.864 C 4.415,28.181 3.029,25.851 1.373,23.982 -4.907,16.894 -6.013,7.141 0,0"
             style="fill:#6e122a;fill-opacity:1;fill-rule:nonzero;stroke:none"
             id="path23619"
             inkscape:connector-curvature="0" />
        </g>
        <g
           id="g23621"
           transform="translate(295.5341,229.3158)">
          <path
             d="M 0,0 C 0.154,0.541 0.336,1.12 0.786,1.458 1.474,-0.35 0.783,-2.367 0.02,-4.145 -2.374,-9.722 -5.713,-15.161 -10.834,-18.42 c -0.19,-0.121 -0.403,-0.244 -0.627,-0.218 -0.225,0.027 -0.428,0.283 -0.314,0.479 0.053,0.092 0.156,0.142 0.253,0.188 1.705,0.819 3.015,2.263 4.278,3.671 1.1,1.227 2.204,2.46 3.118,3.831 C -2.037,-7.334 -1.032,-3.623 0,0"
             style="fill:#8b1533;fill-opacity:1;fill-rule:nonzero;stroke:none"
             id="path23623"
             inkscape:connector-curvature="0" />
        </g>
        <g
           id="g23625"
           transform="translate(286.6462,206.877)">
          <path
             d="M 0,0 C 0.251,-0.574 0.485,-1.191 0.4,-1.813 0.123,-1.928 -0.167,-1.682 -0.341,-1.437 -0.849,-0.724 -1.088,0.14 -1.318,0.985 -1.531,1.764 -1.743,2.543 -1.955,3.322 -1.55,2.979 -1.27,2.514 -1.013,2.049 -0.644,1.383 -0.305,0.698 0,0"
             style="fill:#8b1533;fill-opacity:1;fill-rule:nonzero;stroke:none"
             id="path23627"
             inkscape:connector-curvature="0" />
        </g>
        <g
           id="g23629"
           transform="translate(231.8961,216.3465)">
          <path
             d="m 0,0 c -2.442,1.809 -4.744,3.859 -6.489,6.347 -1.745,2.487 -2.912,5.448 -2.919,8.487 0.424,-0.647 0.608,-1.417 0.825,-2.16 C -6.972,7.149 -3.105,2.319 1.935,-0.461 1.338,-0.841 0.568,-0.421 0,0"
             style="fill:#8b1533;fill-opacity:1;fill-rule:nonzero;stroke:none"
             id="path23631"
             inkscape:connector-curvature="0" />
        </g>
        <g
           id="g23633"
           transform="translate(238.0166,191.2036)">
          <path
             d="m 0,0 c -2.852,-5.946 -3.825,-12.776 -2.747,-19.282 0.481,-2.903 1.586,-6.029 4.181,-7.418 2.669,-1.428 6.112,-0.461 8.407,1.514 2.295,1.975 3.696,4.766 5.039,7.479 1.399,2.828 2.799,5.656 4.198,8.484 C 12.924,-6.077 6.77,-2.93 0.615,0.217 0.506,0.273 0.383,0.33 0.264,0.296 0.133,0.258 0.059,0.123 0,0"
             style="fill:#511121;fill-opacity:1;fill-rule:nonzero;stroke:none"
             id="path23635"
             inkscape:connector-curvature="0" />
        </g>
        <g
           id="g23637"
           transform="translate(280.8961,191.2036)">
          <path
             d="m 0,0 c 2.852,-5.946 3.825,-12.776 2.747,-19.282 -0.481,-2.903 -1.586,-6.029 -4.181,-7.418 -2.669,-1.428 -6.112,-0.461 -8.407,1.514 -2.295,1.975 -3.696,4.766 -5.039,7.479 l -4.198,8.484 c 6.154,3.146 12.308,6.293 18.463,9.44 0.109,0.056 0.232,0.113 0.351,0.079 C -0.133,0.258 -0.059,0.123 0,0"
             style="fill:#511121;fill-opacity:1;fill-rule:nonzero;stroke:none"
             id="path23639"
             inkscape:connector-curvature="0" />
        </g>
        <g
           id="g23641"
           transform="translate(278.2887,177.7175)">
          <path
             d="m 0,0 c -1.627,-1.059 -3.556,-1.795 -5.497,-1.785 -4.378,0.021 -10.974,5.2 -10.974,5.2 0,0 12.517,8.116 17.932,11.617 1.31,-1.648 2.16,-3.657 2.431,-5.745 C 4.347,5.776 2.967,1.93 0,0"
             style="fill:#ed1c24;fill-opacity:1;fill-rule:nonzero;stroke:none"
             id="path23643"
             inkscape:connector-curvature="0" />
        </g>
        <g
           id="g23645"
           transform="translate(276.6721,180.1133)">
          <path
             d="m 0,0 c -1.232,-0.801 -2.692,-1.391 -4.161,-1.352 -3.598,0.096 -6.667,2.532 -7.366,3.111 -0.169,0.14 -1.003,0.785 -1.003,0.785 0,0 9.537,6.185 13.636,8.836 C 2.098,10.133 2.741,8.611 2.946,7.031 3.291,4.373 2.246,1.461 0,0"
             style="fill:#100f0d;fill-opacity:1;fill-rule:nonzero;stroke:none"
             id="path23647"
             inkscape:connector-curvature="0" />
        </g>
        <g
           id="g23649"
           transform="translate(276.7281,188.8325)">
          <path
             d="M 0,0 C -0.017,0.202 -0.026,0.43 0.112,0.579 0.284,0.766 0.611,0.719 0.797,0.544 0.982,0.37 1.057,0.11 1.111,-0.138 1.21,-0.597 1.263,-1.065 1.268,-1.534 1.271,-1.855 1.249,-2.191 1.086,-2.468 0.959,-2.684 0.683,-2.857 0.464,-2.735 0.289,-2.638 0.246,-2.41 0.223,-2.21 0.138,-1.475 0.064,-0.738 0,0"
             style="fill:#ffffff;fill-opacity:1;fill-rule:nonzero;stroke:none"
             id="path23651"
             inkscape:connector-curvature="0" />
        </g>
        <g
           id="g23653"
           transform="translate(276.7302,182.8972)">
          <path
             d="M 0,0 C -0.237,0.221 -0.204,0.599 -0.153,0.919 -0.11,1.185 -0.062,1.462 0.1,1.677 0.262,1.892 0.577,2.017 0.809,1.881 1.007,1.763 1.072,1.511 1.104,1.282 1.155,0.915 1.161,0.514 0.957,0.203 0.753,-0.107 0.272,-0.253 0,0"
             style="fill:#ffffff;fill-opacity:1;fill-rule:nonzero;stroke:none"
             id="path23655"
             inkscape:connector-curvature="0" />
        </g>
        <g
           id="g23657"
           transform="translate(240.9704,177.0737)">
          <path
             d="m 0,0 c 1.69,-0.955 3.661,-1.569 5.598,-1.438 4.368,0.295 10.627,5.875 10.627,5.875 0,0 -12.999,7.318 -18.622,10.475 C -3.602,13.185 -4.325,11.126 -4.464,9.026 -4.699,5.494 -3.082,1.741 0,0"
             style="fill:#ed1c24;fill-opacity:1;fill-rule:nonzero;stroke:none"
             id="path23659"
             inkscape:connector-curvature="0" />
        </g>
        <g
           id="g23661"
           transform="translate(242.4343,179.5658)">
          <path
             d="m 0,0 c 1.28,-0.723 2.774,-1.22 4.238,-1.089 3.584,0.32 6.495,2.943 7.156,3.565 0.161,0.15 0.953,0.846 0.953,0.846 0,0 -9.905,5.577 -14.162,7.967 C -2.727,9.982 -3.274,8.423 -3.38,6.833 -3.557,4.159 -2.333,1.318 0,0"
             style="fill:#100f0d;fill-opacity:1;fill-rule:nonzero;stroke:none"
             id="path23663"
             inkscape:connector-curvature="0" />
        </g>
        <g
           id="g23665"
           transform="translate(241.8338,188.2645)">
          <path
             d="M 0,0 C 0.005,0.203 -0.001,0.431 -0.147,0.571 -0.331,0.747 -0.655,0.68 -0.829,0.494 -1.003,0.308 -1.062,0.044 -1.1,-0.208 -1.17,-0.671 -1.194,-1.142 -1.17,-1.61 c 0.017,-0.321 0.061,-0.655 0.24,-0.921 0.14,-0.207 0.427,-0.363 0.638,-0.228 0.168,0.108 0.197,0.339 0.207,0.539 C -0.046,-1.48 -0.017,-0.74 0,0"
             style="fill:#ffffff;fill-opacity:1;fill-rule:nonzero;stroke:none"
             id="path23667"
             inkscape:connector-curvature="0" />
        </g>
        <g
           id="g23669"
           transform="translate(242.2024,182.3406)">
          <path
             d="M 0,0 C 0.223,0.235 0.166,0.611 0.095,0.927 0.036,1.189 -0.029,1.463 -0.204,1.668 -0.38,1.872 -0.702,1.978 -0.924,1.826 -1.115,1.697 -1.164,1.441 -1.182,1.211 -1.21,0.841 -1.19,0.44 -0.967,0.143 -0.745,-0.154 -0.256,-0.269 0,0"
             style="fill:#ffffff;fill-opacity:1;fill-rule:nonzero;stroke:none"
             id="path23671"
             inkscape:connector-curvature="0" />
        </g>
        <g
           id="g23673"
           transform="translate(277.9805,212.9076)">
          <path
             d="m 0,0 c 2.483,-2.753 3.915,-6.314 4.736,-9.93 0.34,-1.497 0.582,-3.073 0.183,-4.556 -0.399,-1.483 -1.588,-2.848 -3.115,-3.012 -1.635,-0.175 -3.158,1.077 -3.817,2.583 -0.66,1.507 -0.642,3.213 -0.571,4.856 0.071,1.643 0.179,3.329 -0.323,4.895 -0.779,2.431 -2.874,4.162 -4.825,5.808 -0.706,0.596 -1.43,1.23 -1.795,2.08 -0.364,0.849 -0.255,1.977 0.496,2.517 1.029,0.741 2.439,0.009 3.48,-0.715 C -3.587,3.16 -1.603,1.777 0,0"
             style="fill:#8b1533;fill-opacity:1;fill-rule:nonzero;stroke:none"
             id="path23675"
             inkscape:connector-curvature="0" />
        </g>
      </g>
    </g>
  </g>
</svg>
