<?xml version="1.0" encoding="UTF-8" standalone="no"?>
<!-- Created with Inkscape (http://www.inkscape.org/) -->
<svg id="svg4320" xmlns:rdf="http://www.w3.org/1999/02/22-rdf-syntax-ns#" xmlns="http://www.w3.org/2000/svg" height="561.02" viewBox="0 0 186.03091 561.01562" width="186.03" version="1.1" xmlns:cc="http://creativecommons.org/ns#" xmlns:dc="http://purl.org/dc/elements/1.1/">
 <metadata id="metadata4326">
  <rdf:RDF>
   <cc:Work rdf:about="">
    <dc:format>image/svg+xml</dc:format>
    <dc:type rdf:resource="http://purl.org/dc/dcmitype/StillImage"/>
    <dc:title/>
   </cc:Work>
  </rdf:RDF>
 </metadata>
 <path id="path4870" d="m2.9511 370.12c0-168.76-0.17392-190.96-1.5-191.47-1.9071-0.73184-1.9422-4.0265-0.0594-5.5891 0.86667-0.71928 3.9543-1.0928 7.75-0.93767l6.3094 0.25794 0.26679-25.641c0.25835-24.829 0.20293-25.675-1.75-26.72-2.7516-1.4726-2.609-4.8328 0.23321-5.4957 1.2375-0.28865 8.1-0.63473 15.25-0.76905l13-0.24422v-11.251-11.251l13.718 0.001 13.718 0.001 0.28173-11.75 0.28174-11.75 10-0.5 10-0.5 0.71636-32.883c0.394-18.086 0.9565-33.123 1.25-33.417 0.2935-0.2935 0.78031-0.28696 1.0818 0.01452 0.30149 0.30149 0.82319 15.451 1.1593 33.667l0.61117 33.119h10.341 10.341v12 12h14 14v11.5 11.5h13.418c7.38 0 14.13 0.27314 15 0.60699 2.2227 0.85294 1.9698 4.115-0.41821 5.393-1.9196 1.0274-2 2.0938-2 26.535v25.465l4.25 0.11515c2.3375 0.0633 5.0198 0.038 5.9607-0.0562 4.4362-0.44437 8.0695 5.1288 4.2893 6.5794-1.3261 0.50887-1.5 22.708-1.5 191.47v190.89h-33.348-33.348l-0.60651-12.25c-0.76098-15.37-2.1523-22.195-5.5576-27.263-6.7399-10.03-23.808-11.354-32.239-2.4998-4.6782 4.9128-6.8528 13.399-7.6258 29.759l-0.579 12.254h-33.348-33.348v-190.89zm28 117.89v-9h-5-5v9 9h5 5v-9zm12 0v-9h-5-5v9 9h5 5v-9zm22-138.5v-147.5h-3-3v147.5 147.5h3 3v-147.5zm27 138.5v-9h-5-5v9 9h5 5v-9zm12 0v-9h-5-5v9 9h5 5v-9zm23-138.57v-147.57l-2.75 0.31642-2.75 0.31642-0.25694 146c-0.14132 80.3-0.043 146.56 0.21861 147.25 0.26156 0.6875 1.6147 1.25 3.007 1.25h2.5314v-147.57zm25 138.57v-9h-5-5v9 9h5 5v-9zm12 0v-9h-5-5v9 9h5 5v-9zm-133-20v-9h-5-5v9 9h5 5v-9zm12 0v-9h-5-5v9 9h5 5v-9zm49 0v-9h-5-5v9 9h5 5v-9zm12 0v-9h-5-5v9 9h5 5v-9zm48 0v-9h-5-5v9 9h5 5v-9zm12 0v-9h-5-5v9 9h5 5v-9zm-133-31v-9h-5-5v9 9h5 5v-9zm12 0v-9h-5-5v9 9h5 5v-9zm49 0v-9h-5-5v9 9h5 5v-9zm12 0v-9h-5-5v9 9h5 5v-9zm48 0v-9h-5-5v9 9h5 5v-9zm12 0v-9h-5-5v9 9h5 5v-9zm-133-20.5v-9.5h-5-5v9.5 9.5h5 5v-9.5zm12 0v-9.5h-5-5v9.5 9.5h5 5v-9.5zm48.788-0.25 0.28752-9.25h-5.0375-5.0375v9.5548 9.5548l4.75-0.30479 4.75-0.30479 0.28753-9.25zm12.212 0.25v-9.5h-5-5v8.8333c0 4.8583 0.3 9.1333 0.66667 9.5 0.36666 0.36667 2.6167 0.66667 5 0.66667h4.3333v-9.5zm47.788-0.25 0.28752-9.25h-5.0375-5.0375v9.5548 9.5548l4.75-0.30479 4.75-0.30479 0.28753-9.25zm12.212 0.19521v-9.5548l-4.75 0.30479-4.75 0.30479-0.29497 7.9116c-0.16224 4.3514-0.0639 8.5139 0.21861 9.25 0.32441 0.84539 2.1828 1.3384 5.045 1.3384h4.5314v-9.5548zm-133-30.945v-9.5h-5-5v9.5 9.5h5 5v-9.5zm12 0v-9.5h-5-5v9.5 9.5h5 5v-9.5zm48.788-0.25 0.28752-9.25h-5.0375-5.0375v9.5548 9.5548l4.75-0.30479 4.75-0.30479 0.28753-9.25zm12.212 0.25v-9.5h-5-5v9.5 9.5h5 5v-9.5zm47.5 0v-9l-4.75-0.30479-4.75-0.30479v9.6096 9.6096l4.75-0.30479 4.75-0.30479v-9zm12.5 0v-9.5h-5-5v8.8333c0 4.8583 0.3 9.1333 0.66667 9.5 0.36666 0.36667 2.6167 0.66667 5 0.66667h4.3333v-9.5zm-133-20.5v-9h-5-5v9 9h5 5v-9zm12 0v-9h-5-5v9 9h5 5v-9zm49 0v-9h-5-5v9 9h5 5v-9zm12 0v-9h-5-5v9 9h5 5v-9zm48 0v-9h-5-5v9 9h5 5v-9zm12 0v-9h-5-5v9 9h5 5v-9zm-133-31v-9h-5-5v9 9h5 5v-9zm12 0v-9h-5-5v9 9h5 5v-9zm49 0v-9h-5-5v9 9h5 5v-9zm12 0v-9h-5-5v9 9h5 5v-9zm48 0v-9h-5-5v9 9h5 5v-9zm12 0v-9h-5-5v9 9h5 5v-9zm-133-19.903v-8.9035l-5.0006-0.34652-5.0006-0.34651 0.00062 9.25 0.00062 9.25h5 5v-8.9035zm12.001-0.34651 0.00062-9.25-5.0006 0.34651-5.0006 0.34652v8.9035 8.9035h5 5l0.00062-9.25zm48.999 0.25v-9h-5-5v9 9h5 5v-9zm12 0v-9h-5-5v9 9h5 5v-9zm48 0.0965v-8.9035l-5.0006-0.34652-5.0006-0.34651 0.00062 9.25 0.00062 9.25h5 5v-8.9035zm12.001-0.34651 0.00062-9.25-5.0006 0.34651-5.0006 0.34652v8.9035 8.9035h5 5l0.00062-9.25zm-133-31 0.0006-9.25-3.7506 0.17767c-2.0628 0.0977-4.3131 0.21021-5.0006 0.25-0.90205 0.0522-1.25 2.5776-1.25 9.0723v9h5 5l0.0006-9.25zm11.999 0.25001v-9h-5-5v9 9h5 5v-9zm49 0v-9h-5-5v9 9h5 5v-9zm12 0.0695c0-9.8211-0.26393-10.157-7.25-9.2137l-2.75 0.37114v8.8865 8.8865h5 5v-8.9304zm48 0.027v-8.9035l-5.0006-0.34652-5.0006-0.34651 0.00062 9.25 0.00062 9.25h5 5v-8.9035zm12-0.0965v-9h-5-5v9 9h5 5v-9zm-133.75-11.92c0.4125-0.0447 0.75-4.1312 0.75-9.0812v-9h-5-5v8.9267c0 10.191-0.0317 10.16 9.25 9.1546zm73.75-9.2526v-8.9382l-4.75 0.30479-4.75 0.30479-0.28791 8.6799-0.28791 8.6799 2.7879 0.32556c7.0211 0.81988 7.2879 0.47731 7.2879-9.3568zm47.5 0.67137v-9h-4.5-4.5l-0.28571 9.113-0.28572 9.113 4.7857-0.11297 4.7857-0.11297v-9zm12.288 0.25-0.28753-9.25-4.75-0.30479-4.75-0.30479v9.5548 9.5548h5.0375 5.0375l-0.28752-9.25zm-120.79-0.80479v-9.0548l-4.75 0.30479-4.75 0.30479-0.28893 8.75-0.28894 8.75h5.0389 5.0389v-9.0548zm48.789 0.30479-0.28893-8.75-4.75-0.30479-4.75-0.30479v9.0548 9.0548h5.0389 5.0389l-0.28894-8.75zm-61.002-31.036 0.28653-9.0622-5.0365 0.10858-5.0365 0.10858v8.649c0 4.7569 0.18683 8.8365 0.41519 9.0656 0.22835 0.22917 2.3658 0.36628 4.75 0.30468l4.3348-0.11198 0.28652-9.0622zm61.006-0.30677-0.29298-8.407-4.75-0.30479-4.75-0.30479v8.9973 8.9973l4.25 0.30777c2.3375 0.16928 4.6068 0.0408 5.043-0.28548 0.43614-0.32629 0.66114-4.3764 0.5-9.0003zm-49.004 0.34298-0.28893-8.75-4.75-0.30479-4.75-0.30479v9.0548 9.0548h5.0389 5.0389l-0.28894-8.75zm61.211-0.30479v-9.0548l-4.75 0.30479-4.75 0.30479-0.28893 8.75-0.28894 8.75h5.0389 5.0389v-9.0548zm47.789 0.30479-0.28893-8.75-4.75-0.30479-4.75-0.30479v9.0548 9.0548h5.0389 5.0389l-0.28894-8.75zm12.211-0.25v-9h-5-5v9 9h5 5v-9zm-133-20v-9h-5-5v9 9h5 5v-9zm12 0v-9h-5-5v9 9h5 5v-9zm49 0v-9h-5-5v9 9h5 5v-9zm12 0v-9h-5-5v9 9h5 5v-9zm48 0v-9h-5-5v9 9h5 5v-9zm12 0v-9h-5-5v9 9h5 5v-9zm-105-61.25 0.00077-22.75h-18-18v22.333c0 12.283 0.18701 22.521 0.41558 22.75 0.22857 0.22917 8.3282 0.41667 17.999 0.41667h17.584l0.00076-22.75zm104 0.25v-23h-18-18v22.477 22.477l17.75 0.29767c9.7625 0.16372 17.862 0.39911 18 0.52308 0.1375 0.12397 0.25-10.125 0.25-22.775zm-40-0.5v-22.5h-30-30v22.5 22.5h30 30v-22.5z"/>
</svg>
