<?xml version="1.0" encoding="iso-8859-1"?>
<!-- Generator: Adobe Illustrator 16.0.0, SVG Export Plug-In . SVG Version: 6.00 Build 0)  -->
<!DOCTYPE svg PUBLIC "-//W3C//DTD SVG 1.1//EN" "http://www.w3.org/Graphics/SVG/1.1/DTD/svg11.dtd">
<svg version="1.1" id="Capa_1" xmlns="http://www.w3.org/2000/svg" xmlns:xlink="http://www.w3.org/1999/xlink" x="0px" y="0px"
	 width="28.884px" height="28.884px" viewBox="0 0 28.884 28.884" style="enable-background:new 0 0 28.884 28.884;"
	 xml:space="preserve">
<g>
	<g>
		<path d="M24.91,8.163c-0.385-3.056-2.963-5.427-6.118-5.427c-1.509,0-2.872,0.559-3.945,1.453c-1.011-1.29-2.565-2.137-4.33-2.137
			c-2.636,0-4.832,1.851-5.38,4.321C2.271,6.573,0,8.936,0,11.852c0,3.045,2.471,5.516,5.519,5.516c0.647,0,1.262-0.131,1.839-0.338
			c1.005,1.381,2.62,2.287,4.456,2.287c1.123,0,2.165-0.342,3.037-0.918c0.994,0.967,2.346,1.567,3.842,1.567
			c2.203,0,4.09-1.303,4.975-3.169c0.27,0.053,0.548,0.084,0.834,0.084c2.419,0,4.382-1.962,4.382-4.38
			C28.882,10.223,27.133,8.373,24.91,8.163z"/>
		<circle cx="13.045" cy="22.332" r="2.5"/>
		<circle cx="9.045" cy="25.332" r="1.5"/>
		<circle cx="6.045" cy="26.332" r="0.5"/>
	</g>
</g>
<g>
</g>
<g>
</g>
<g>
</g>
<g>
</g>
<g>
</g>
<g>
</g>
<g>
</g>
<g>
</g>
<g>
</g>
<g>
</g>
<g>
</g>
<g>
</g>
<g>
</g>
<g>
</g>
<g>
</g>
</svg>
