<?xml version="1.0" encoding="UTF-8" standalone="no"?>
<!-- Created with Inkscape (http://www.inkscape.org/) -->
<svg id="svg4209" xmlns:rdf="http://www.w3.org/1999/02/22-rdf-syntax-ns#" xmlns="http://www.w3.org/2000/svg" height="1302.5" viewBox="0 0 599.68634 1302.4921" width="599.69" version="1.1" xmlns:cc="http://creativecommons.org/ns#" xmlns:dc="http://purl.org/dc/elements/1.1/">
 <metadata id="metadata4215">
  <rdf:RDF>
   <cc:Work rdf:about="">
    <dc:format>image/svg+xml</dc:format>
    <dc:type rdf:resource="http://purl.org/dc/dcmitype/StillImage"/>
    <dc:title/>
   </cc:Work>
  </rdf:RDF>
 </metadata>
 <path id="path4219" d="m212.83 1294.8c-12.38-13.256-20.808-29.664-26.883-52.337-3.2174-12.007-7.2057-35.705-12.202-72.5-0.59745-4.4-1.736-12.725-2.5301-18.5-4.517-32.848-5.2533-121.01-1.4407-172.5 3.3399-45.102 9.0224-80.761 18.963-119 5.96-22.926 9.0051-30.682 16.294-41.5 1.6675-2.475 4.2024-7.425 5.6332-11 2.3705-5.9229 2.5951-7.6985 2.5301-20-0.0792-14.991-1.1374-19.713-5.5569-24.794-3.2801-3.7712-3.1498-5.7861 0.86108-13.316l2.4556-4.6101-2.7114-5.1854c-2.4221-4.6322-2.661-5.9703-2.2392-12.542 0.32585-5.0775 1.1402-8.4891 2.6286-11.012 2.7424-4.6481 2.7072-5.5892-0.34232-9.1351-3.3895-3.9412-3.1481-6.82 1.0876-12.97l3.5888-5.2108-0.044-46.097c-0.0365-38.156 0.20664-46.697 1.4112-49.58 0.80037-1.9155 1.4552-3.6853 1.4552-3.9328s-3.7125-1.6588-8.25-3.1363c-12.022-3.9146-38.145-15.739-54.254-24.558-22.064-12.079-39.621-24.467-53.996-38.098-3.3-3.1291-6.3812-5.3155-6.847-4.8587-1.7609 1.7268 2.8754 28.932 7.6002 44.597 0.83938 2.783 2.9587 7.8978 4.7096 11.366 2.794 5.5349 3.041 6.6504 2.019 9.1178-0.64047 1.5462-2.0694 3.6303-3.1755 4.6313-3.5756 3.2359-4.9665 7.0734-4.2633 11.763 0.73833 4.9235-1.6179 10.301-7.2098 16.454-1.7418 1.9166-4.1772 5.5078-5.4121 7.9803-2.0555 4.1157-2.1468 4.972-1.0808 10.133 0.68992 3.3403 0.90637 8.69 0.53118 13.128-0.58448 6.9144-0.43355 7.8073 1.9608 11.6 1.4267 2.26 3.9708 4.9224 5.6536 5.9165 1.6828 0.99405 4.1206 3.3918 5.4173 5.3283 3.2397 4.8383 9.5956 15.974 9.6031 16.825 0.003 0.38303 0.67525 1.9793 1.493 3.5473 1.9253 3.6914 7.9528 22.297 9.9295 30.649 5.6543 23.893 9.9857 53.364 12.566 85.5 0.57408 7.15 1.2198 15.025 1.4349 17.5 0.21511 2.475 0.95628 21.825 1.647 43 3.1641 96.994-5.4035 193.74-21.43 242-1.37 4.125-3.4863 10.875-4.7028 15-2.8297 9.5946-3.8792 11.604-9.1293 17.482-4.6598 5.2166-10.535 8.4705-15.314 8.4811-4.2451 0.01-5.0976-0.7777-8.5404-7.8848-2.7921-5.7639-13.025-31.093-14.979-37.078-2.2497-6.8892-6.3694-20.421-8.5246-28-1.3294-4.675-2.8397-9.85-3.3563-11.5-1.2054-3.8504-6.8645-29.4-8.0928-36.537-8.3229-48.362-10.968-79.995-10.992-131.46-0.025-53.875 3.8357-102.37 11.942-150 3.3914-19.927 2.8957-21.973-4.9572-20.456-6.218 1.2011-6.6448 1.1687-8.4554-0.64197-2.5106-2.5106-1.0857-7.3559 6.8822-23.402 10.663-21.473 16.033-28.553 26.629-35.113 7.5233-4.657 8.834-8.5055 9.5356-27.999 0.56144-15.599 0.48374-16.582-1.6117-20.389-1.2109-2.2-2.9255-5.35-3.8103-7-1.1441-2.1336-1.5336-5.0862-1.3487-10.224 0.24662-6.8513-1.0496-11.155-4.0089-13.312-0.40388-0.29427-1.4567-2.2639-2.3396-4.3769-2.3227-5.559-1.1901-10.607 3.4533-15.392l3.7621-3.8766-0.43509-7.9097-0.43509-7.9097 6.0912-5.7948c3.3502-3.1871 6.1297-6.3371 6.1768-7 0.0471-0.66286 0.18806-6.8988 0.31332-13.858 0.17063-9.4793 0.61791-13.24 1.7834-14.996 1.4993-2.258 1.352-2.5781-4.0633-8.828-3.0904-3.5668-6.454-7.3938-7.4745-8.5045-2.8314-3.0815-11.636-15.193-16.735-23.019-8.632-13.24-10.139-15.8-16.426-27.92-21.071-40.59-32.733-84.22-35.049-131.09-1.0222-20.697 1.774-51.557 6.7009-73.954 1.0795-4.9075 7.0254-26.068 8.4296-30 6.3947-17.906 16.208-39.047 25.48-54.892 3.9328-6.7209 14.925-23.61 16.017-24.608 0.30065-0.275 2.7703-3.425 5.4881-7 10.091-13.274 16.157-20.068 29.299-32.818 24.567-23.841 47.937-40.664 75.937-54.673 29.7-14.857 56.91-23.709 88.23-28.703 12.655-2.0177 18.063-2.311 42.5-2.304 27.874 0.0079 33.826 0.49986 56 4.6283 31.12 5.7941 72.423 21.444 98 37.132 12.344 7.5714 31.844 20.796 33.5 22.719 0.275 0.31935 2.7312 2.3654 5.4582 4.5467 9.67 7.7352 14.559 12.36 29.097 27.522 43.862 45.748 71.182 106.78 78.532 175.44 1.7117 15.99 0.56539 55.273-2.0992 71.94-2.5329 15.843-7.1159 36.503-10.328 46.56-7.2368 22.655-20.099 51.023-30.254 66.725-7.4749 11.558-12.917 19.786-13.409 20.275-0.27724 0.275-3.1886 3.875-6.4696 8s-7.387 9.075-9.1245 11c-1.7374 1.925-5.1807 5.7265-7.6518 8.4477-4.4294 4.8777-4.5023 5.0723-5.158 13.758-0.99774 13.217 1.8567 21.437 8.971 25.834 4.7459 2.9331 5.4347 4.6048 4.3195 10.483-1.2021 6.3363-0.72694 8.1335 3.584 13.557 3.1684 3.986 3.5151 5.0357 3.5238 10.671 0.01 6.3574-0.17785 6.7398-5.4186 11.039-1.1021 0.90416-1.5717 3.0332-1.5717 7.1256 0 4.1119-0.76809 7.5717-2.5998 11.711-3.0485 6.8882-4.0779 16.438-3.8916 36.1l0.1253 13.226 4.4331 3.1945c13.012 9.3766 23.58 23.01 33.105 42.708 8.5769 17.738 7.7877 22.145-3.9653 22.145h-6.4839l0.63452 5.75c0.34898 3.1625 1.2947 9.575 2.1016 14.25 2.7318 15.828 8.4251 62.392 10.087 82.5 2.5666 31.052 3.0931 90.411 1.03 116.12-4.4344 55.267-9.3212 87.628-19.008 125.88-3.5697 14.095-12.749 41.477-17.201 51.309-3.5498 7.8406-13.245 27.752-14.088 28.933-0.69107 0.9681-1.652 0.8518-4.3574-0.5275-12.276-6.2586-20.532-17.886-25.767-36.287-13.594-47.788-15.283-57.528-21.142-121.93-0.52535-5.775-1.5202-16.35-2.2108-23.5-2.5012-25.897-0.79117-132.72 2.7842-173.93 4.3746-50.418 13.214-86.56 29.244-119.57 1.4688-3.025 2.8956-5.725 3.1706-6s1.3094-2.0965 2.2986-4.0478c1.0217-2.0153 3.9642-4.9656 6.8121-6.8299 2.7574-1.8052 5.2876-3.9965 5.6227-4.8697 0.33507-0.87319 0.12452-3.8985-0.46791-6.7229-0.67046-3.1965-0.77756-7.8644-0.28365-12.364 0.43641-3.9756 0.42904-8.8443-0.0164-10.819-0.81277-3.6037-6.3565-10.347-8.5066-10.347-0.63186 0-1.8936-0.82293-2.8038-1.8287-1.2662-1.3991-1.655-3.8215-1.655-10.311 0-6.7089-0.36922-8.8881-1.7657-10.421-4.7591-5.2249-6.2343-7.9063-6.2343-11.331 0-3.7891 4.076-12.717 6.7776-14.845 1.67-1.3155 1.9704-5.5075 0.80702-11.262-0.60202-2.978-0.17638-4.3152 2.8539-8.9663 3.1948-4.9034 3.5615-6.1648 3.5615-12.25 0-4.4081-0.39891-6.7837-1.1391-6.7837-0.6265 0-3.889 2.3988-7.25 5.3305-6.6152 5.7705-24.177 18.74-34.611 25.562-14.753 9.6444-52.207 26.442-69.364 31.109l-4.8637 1.3228 0.78325 4.5882c0.43079 2.5235 0.86522 23.938 0.96541 47.588s0.52216 44.575 0.93772 46.5c0.41555 1.925 1.7887 5.525 3.0514 8 4.0403 7.9192 3.9518 9.8772-0.64592 14.289-2.5753 2.4711-2.3469 4.0919 1.1356 8.0583 2.6081 2.9704 2.9987 4.1834 2.9902 9.2848-0.007 4.1385-0.74372 7.4446-2.5 11.217-3.1123 6.6856-3.111 8.2594 0.01 11.968 3.2724 3.8891 3.1595 5.301-0.84311 10.545l-3.3431 4.3797-0.66007 15.379c-0.7135 16.624-0.21724 19.995 4.6191 31.379 2.2956 5.4036 8.0727 16.787 11.165 22 2.2704 3.8273 6.5839 17.07 9.1204 28 9.3532 40.304 13.326 64.241 16.917 101.92 3.1298 32.839 3.3235 36.356 4.1094 74.582 1.0655 51.828-1.5169 96.368-8.1462 140.5-7.251 48.271-9.2823 58.72-14.677 75.5-4.7318 14.717-16.392 33.604-27.143 43.965-4.596 4.4294-4.6485 4.4494-6.5543 2.5-1.0566-1.0808-5.3021-8.7151-9.4344-16.965-15.232-30.409-25.036-61.87-32.722-105-0.58806-3.3-1.4989-8.2333-2.024-10.963-4.0941-21.28-8.8026-76.202-9.562-111.54-0.92391-42.987 2.8955-98.616 9.7495-142 1.0861-6.875 2.4761-15.875 3.0888-20 0.61273-4.125 1.6844-9.8624 2.3816-12.75 0.81609-3.3801 0.91697-5.4664 0.28324-5.858-0.54134-0.33457-3.7611-0.31268-7.155 0.0486-4.5957 0.48926-6.6652 0.29384-8.1081-0.76561-1.7972-1.3196-1.8462-1.8302-0.67691-7.0551 1.1483-5.1313 6.9644-17.806 12.215-26.62 5.5755-9.359 15.926-20.991 25.132-28.244 6.1133-4.8162 7.4983-6.375 6.6127-7.4421-0.7677-0.92501-0.96232-5.986-0.61845-16.082 0.52706-15.475 0.67716-14.525-4.6904-29.684-1.6879-4.7673-1.6736-9.1708 0.0523-16.047 0.46327-1.8458 0.2297-2.5007-0.89188-2.5007-2.5272 0-6.5341-5.729-7.2238-10.328-0.72869-4.8592 0.95797-9.9263 5.1209-15.384 2.7883-3.6557 2.9101-4.435 1.866-11.945-0.6645-4.7798-0.47818-5.4904 2.5427-9.6969l3.2598-4.5392 0.11859-47.643 0.11859-47.643-3.5 0.5853c-31.518 5.2707-55.499 7.0324-76.25 5.6016-16.814-1.1594-32.359-3.1107-43.565-5.4687-4.0234-0.84659-7.3984-1.5392-7.5-1.5392-0.10154 0.00003-0.16289 21.081-0.13633 46.847l0.0483 46.847 3.8384 7.8717c3.4906 7.1584 3.7276 8.1464 2.6159 10.903-2.404 5.9612-2.3617 6.399 0.88351 9.1296 3.5985 3.028 7.0702 9.2334 7.0558 12.612-0.0112 2.631-3.8874 10.771-7.4033 15.548-2.343 3.1829-2.3622 3.37-0.83662 8.1407 1.4979 4.684 1.474 5.0197-0.58675 8.2422-4.7775 7.4709-4.9922 8.6436-5.3343 29.139-0.18109 10.848 0.005 19.722 0.41314 19.722 2.8188-0.004 24.445 22.095 29.846 30.499 5.3799 8.3705 10.293 18.316 12.796 25.901 1.4461 4.3835 1.5908 6.0185 0.69216 7.8205-0.99081 1.9867-1.941 2.2934-7.4244 2.3964-3.4585 0.0649-6.761 0.59094-7.339 1.1689-0.73454 0.73454-0.3773 4.462 1.1867 12.382 1.2307 6.2321 2.8282 15.606 3.5501 20.831 0.72189 5.225 2.03 14.675 2.9069 21 7.3068 52.702 9.1028 124.84 4.4937 180.5-2.2923 27.682-3.8314 38.942-8.5092 62.255-9.3597 46.646-18.873 81.132-27.654 100.25-5.2887 11.512-16.214 29-18.117 29-0.25996 0-3.693-3.4483-7.629-7.6629zm10.386-51.448c0.90463-2.2609 2.0669-8.4484 2.5828-13.75 1.0381-10.668 1.3884-399.89 0.3646-405.01-0.76847-3.8424-2.752-4.0054-5.102-0.41924-1.681 2.5652-1.7875 13.63-2.0506 213-0.23891 181.05-0.0802 210.29 1.1414 210.29 0.78041 0 2.1591-1.8498 3.0637-4.1107zm155.4-206.16c-0.0405-220.27 0.0491-215.73-4.2566-215.73-0.84259 0-1.7788 1.0125-2.0804 2.25-0.30164 1.2375-0.42271 94.95-0.26905 208.25l0.27939 206 2.2419 4.814c1.233 2.6477 2.6652 4.5524 3.1825 4.2327 0.58285-0.3602 0.92601-80.165 0.9022-209.81zm133.7 56.517c0.96441-4.8813 2.2022-416.77 1.2601-419.31-1.0168-2.7475-3.655-2.4041-4.807 0.62569-1.0788 2.8374-1.4222 413.95-0.35025 419.31 0.85516 4.2758 2.9967 3.9324 3.8971-0.625zm-427.15 0.5c1.029-3.8396 0.72145-415.38-0.31243-418.1-0.83755-2.2029-4.558-4.4833-5.6055-3.4358-0.21862 0.21863-0.43712 91.528-0.48555 202.91-0.063 144.89 0.23017 204.48 1.0303 209.44 1.2431 7.7048 2.5033 11.432 3.8654 11.432 0.49764 0 1.1762-1.0125 1.5078-2.25zm240.62-537.15c26.304-3.2003 34.261-4.686 46.752-8.7299 7.8588-2.5442 9.3459-3.3701 9.8767-5.485 1.0976-4.3733-9.6821-18.419-31.838-41.483-0.94003-0.97859-4.0136-4.9476-6.8302-8.8201s-5.6475-7.0942-6.2908-7.1593c-4.8767-0.49395-8.0244 2.74-10.159 10.437-1.9685 7.0982-13.539 36.827-16.976 43.618-5.2151 10.304-5.7184 17.504-1.2834 18.358 3.874 0.74635 4.9611 0.69861 16.748-0.73549zm-34-1.559c2.5515-2.5515 2.5572-2.4953-1-9.8387-1.65-3.4062-3-6.6226-3-7.1476 0-0.52494-1.125-3.4139-2.5-6.42-1.375-3.006-2.5-6.0794-2.5-6.8296 0-0.75025-0.38946-1.7916-0.86548-2.3141-0.47601-0.5225-2.1027-4.325-3.6149-8.45-7.2228-19.703-13.802-36.587-14.576-37.406-0.8161-0.86383-5.4836 2.5316-12.471 9.0723-1.6652 1.5587-6.5856 7.109-10.934 12.334-4.3486 5.225-11.137 12.875-15.085 17-8.3587 8.7331-16.453 20.739-16.453 24.405 0 3.0411 4.4357 5.626 13 7.5759 3.025 0.68871 10.45 2.5869 16.5 4.2181 12.777 3.4451 27.934 5.5069 41.75 5.6794 8.5133 0.10632 10.004-0.13193 11.75-1.8782zm120-22.815c13.848-6.9756 44.297-26.343 46.611-29.647 3.3654-4.8047 0.66674-8.7555-8.8577-12.968-3.1494-1.3928-9.2198-4.6124-13.49-7.1547-4.2701-2.5423-10.239-6.0943-13.264-7.8934s-6.9841-4.0252-8.7979-4.9468c-1.8138-0.92168-6.4025-3.941-10.197-6.7095-7.1237-5.1976-10.041-5.7241-11.51-2.0773-0.85429 2.121-0.73029 57.393 0.13957 62.21 1.3745 7.6108 5.3636 12.02 10.838 11.98 1.6651-0.0123 5.5025-1.2692 8.5275-2.793zm-212.9-0.48c1.8688-1.2588 4.4832-4.2546 5.8096-6.6574 2.4032-4.3531 2.4117-4.4781 2.3869-34.992-0.0137-16.843-0.34181-31.622-0.72915-32.843-1.1317-3.5657-5.5647-2.8286-13.375 2.224-3.7774 2.4436-11.779 7.0156-17.781 10.16-20.317 10.643-30.413 19.634-30.413 27.081 0 6.7385 4.0894 12.376 15.5 21.37 19.103 15.056 30.526 19.098 38.602 13.658zm104.03-8.9613c1.1942-2.3375 4.5974-11.225 7.5626-19.75s7.0144-19.445 8.9982-24.266l3.6068-8.7663-6.3779-8.2337c-8.6254-11.135-9.6274-12.335-15.627-18.705l-5.2066-5.5286-7.085 7c-8.5046 8.4025-11.995 13.973-12.019 19.178-0.01 2.2301 2.2591 9.8611 5.448 18.322 3.0058 7.975 7.3522 19.675 9.6587 26 4.1518 11.385 7.5225 19 8.4103 19 0.25264 0 1.4364-1.9125 2.6307-4.25zm74.706-19.5c0.4988-0.9625 0.83399-13.085 0.74487-26.94-0.18436-28.661 0.17489-27.393-9.0814-32.033-2.75-1.3782-5.675-3.0921-6.5-3.8086-0.825-0.71648-3.8893-2.2071-6.8096-3.3126-4.8909-1.8514-5.3548-1.8777-5.8829-0.33333-0.31533 0.92211-2.368 5.7266-4.5614 10.677-2.1935 4.95-4.2184 10.691-4.4999 12.758-0.86653 6.3636 2.2043 12.308 11.231 21.742 4.4734 4.675 9.6385 10.75 11.478 13.5 1.8396 2.75 4.2556 6.0125 5.369 7.25 2.4497 2.7229 7.2152 3.0028 8.5122 0.5zm-156.46-3.5c1.3696-1.2375 6.1754-6.75 10.68-12.25 4.5042-5.5 10.875-12.857 14.158-16.349 7.6214-8.1069 9.2079-11.809 8.4224-19.651-0.72195-7.2087-4.0948-18.242-6.3325-20.714-0.88881-0.98212-2.5199-1.7857-3.6246-1.7857-3.329 0-22.346 10.059-25.848 13.672l-3.2669 3.3706-0.31363 26.679c-0.17249 14.673-0.0891 27.264 0.18529 27.979 0.74975 1.9538 3.1518 1.5697 5.9403-0.94986zm261.37-19.5c5.4784-5.3625 11.903-12.45 14.277-15.75 2.3738-3.3 6.5436-8.5987 9.2664-11.775 8.7301-10.184 10.053-15.175 5.2231-19.712-1.7699-1.6627-5.0648-2.5638-14.649-4.006-11.04-1.6614-21.941-3.5177-41.619-7.0873-8.4719-1.5368-11.246-0.7642-11.246 3.1317 0 1.6572 0.72098 4.6861 1.6022 6.731 0.8812 2.0448 4.2013 11.143 7.3779 20.218 3.1767 9.075 6.9928 19.65 8.4804 23.5s2.956 7.9 3.2631 9c0.87587 3.1366 3.3788 5.5 5.8248 5.5 1.4837 0 5.5967-3.2873 12.199-9.75zm-352.67 2.4117c9.0213-7.952 14.337-17.878 20.429-38.146 1.4852-4.9412 4.228-12.017 6.0951-15.725 3.8945-7.7334 4.2212-10.964 1.3947-13.791-2.64-2.64-4.8653-2.543-23.076 1.0053-8.4831 1.6529-17.899 3.4767-20.924 4.0528-9.0604 1.7256-17.201 5.0552-22.5 9.2028-5.7319 4.4864-7.5885 7.3256-6.5774 10.059 1.0218 2.7622 13.341 18.267 30.577 38.486 6.7775 7.9501 9.8932 8.9876 14.581 4.8554zm317.18-11.91c0.53451-1.5709-0.89205-7.1722-2.9925-11.75-1.5698-3.4212-5.297-13.531-9.383-25.451-5.1203-14.937-8.5643-18.247-21.91-21.054-9.5288-2.0044-16.82-1.9433-19.145 0.16056-1.5733 1.4238-1.8287 3.2905-1.8287 13.364 0 11.679 0.008 11.72 3.25 15.925 2.171 2.8162 5.906 5.6392 11.25 8.5031 13.712 7.3486 19.096 10.414 28.193 16.056 8.9262 5.5356 11.797 6.5059 12.566 4.2466zm-275.38-13.25c3.8415-1.9279 8.2576-4.5765 9.8135-5.8857s5.7312-3.6019 9.2786-5.095c6.698-2.8192 13.634-8.0263 15.742-11.819 1.4774-2.6574 1.7247-22.425 0.32656-26.102-0.53055-1.3954-1.993-2.7867-3.25-3.0917-2.8993-0.70349-19.564 1.7725-22.495 3.3423-3.8401 2.0566-6.9244 7.3461-10.265 17.604-1.7815 5.471-4.9912 13.929-7.1326 18.795-2.1414 4.8662-3.8934 10.402-3.8934 12.303 0 2.9981 0.32343 3.4551 2.445 3.4551 1.3448 0 5.5881-1.5774 9.4296-3.5053zm158.36-8.7447c0.80516-1.7875 2.0342-4.825 2.7312-6.75 0.69699-1.925 1.9314-5.0062 2.7431-6.8472 2.3201-5.2622 1.0301-9.5822-3.4866-11.676-2.048-0.94941-5.1874-2.8189-6.9764-4.1544-5.8364-4.3571-8.8202-4.8728-12.722-2.1989-3.8456 2.6351-5.5249 5.6246-5.5249 9.8357 0 2.18 2.2849 5.5159 9.5572 13.953 5.2564 6.0984 10.155 11.088 10.886 11.088 0.73088 0 1.9876-1.4625 2.7928-3.25zm-52.147-10.411c8.6907-9.5304 9.0783-14.804 1.5869-21.589-3.6502-3.3061-7.647-3.5491-12.19-0.74116-5.6241 3.4759-6.1742 6.6008-2.9219 16.599 3.4484 10.601 4.5354 11.915 8.2502 9.9743 1.4773-0.77182 3.8511-2.681 5.2751-4.2426zm98.677-8.963c2.1177-2.1177 2.892-12.372 1.2361-16.37-2.7592-6.6612-13.443-9.3597-17.972-4.5392-3.2741 3.4851-3.9506 11.199-1.2532 14.29 2.0563 2.3564 12.753 8.208 15.044 8.23 0.72678 0.007 2.0521-0.718 2.9451-1.611zm-140.25-12.58c2.8083-2.209 3.3081-6.8398 1.2421-11.508-2.0569-4.6479-3.6577-5.3805-11.017-5.0419-10.021 0.46109-11.259 2.0288-11.197 14.18 0.0682 13.244 0.57106 13.645 10.587 8.4339 4.3479-2.262 9.0212-4.9906 10.385-6.0634zm289.79 2.1645c2.5808-2.0301 9.689-14.983 9.689-17.655 0-0.77914 1.7435-5.5562 3.8744-10.616 6.4754-15.374 8.1256-21.158 8.1256-28.48 0-7.6274-1.2921-10.269-6.3107-12.904-4.0568-2.13-16.912-2.1327-24.809-0.005-3.0911 0.83272-11.866 2.451-19.5 3.5961-22.621 3.3934-26.403 4.5365-26.359 7.9674 0.0218 1.6883 11.361 16.287 21.584 27.788 3.2312 3.6353 8.0317 9.3613 10.668 12.725 10.898 13.904 16.254 19.182 19.842 19.552 0.33833 0.0349 1.7764-0.85009 3.1958-1.9666zm-440.95-5.94c8.0183-3.8748 12.173-7.9861 20.094-19.885 3.5843-5.384 9.6741-13.061 13.533-17.06 10.017-10.381 9.6118-12.803-2.5077-14.996-3.287-0.59477-16.551-3.1142-29.476-5.5987s-24.703-4.5116-26.173-4.5046c-3.7113 0.0176-8.6264 4.4282-9.3737 8.4113-0.38979 2.0778-0.007 4.7104 1.0455 7.1897 0.91328 2.1514 3.1636 8.6367 5.0008 14.412 4.845 15.23 10.93 28.937 14.592 32.867 2.6927 2.8903 5.9842 2.6829 13.266-0.83591zm406.11 1.0088c2.7754-3.0668 0.3134-9.2035-6.428-16.022-0.84453-0.85424-4.3847-5.1452-7.867-9.5355-20.696-26.093-21.177-26.482-32.689-26.482-9.2433 0-15.909 2.5889-18.422 7.1546-2.3166 4.2093-0.27187 20.09 3.5485 27.56 3.8289 7.4869 7.2203 9.6306 18.593 11.753 5.1155 0.95454 14.926 2.7957 21.801 4.0915s13.85 2.5326 15.5 2.7486c1.65 0.21596 3.2678 0.46007 3.595 0.54248 0.32726 0.0824 1.3931-0.73204 2.3685-1.8099zm-191.08-2.62c1.081-2.8171 0.64954-4.9954-1.432-7.2296-2.4269-2.605-5.6125-2.814-8.1323-0.53357-2.382 2.1557-2.3148 4.4462 0.21022 7.1564 2.465 2.6459 8.4232 3.0324 9.354 0.60677zm42.429 0.71277c0.72727-0.46112 1.6964-2.4972 2.1537-4.5247 0.71983-3.1916 0.54238-3.8663-1.3223-5.0273-2.9797-1.8553-14.573-2.8912-16.301-1.4566-2.3096 1.9168-1.535 3.2886 3.8932 6.8936 7.7367 5.1384 9.1629 5.6453 11.577 4.115zm-210.94-6.09c1.9888-0.5269 9.241-2.158 16.116-3.6246 14.207-3.0306 18.407-4.974 22.096-10.224 2.6288-3.7408 4.9041-10.984 4.9041-15.611 0-2.9778-2.769-4.6006-11-6.4469-3.025-0.67855-7.3945-1.7152-9.7101-2.3036-7.9557-2.0217-10.468-0.76584-22.897 11.445-13.857 13.614-20.765 25.195-16.143 27.06 2.1959 0.88605 12.891 0.69591 16.634-0.29572zm128.43-0.1917c4.4268-2.3301 5.042-6.9146 1.2605-9.3923-2.2198-1.4545-2.6919-1.4495-5.6086 0.0588-2.8092 1.4527-3.1126 2.0079-2.5727 4.7074 0.33665 1.6832 1.398 3.6571 2.3586 4.3863 2.1561 1.6369 1.9306 1.625 4.5623 0.23982zm161.51-7.1626c0.19456-1.697-1.0395-5.6628-3.1118-10-1.8888-3.9532-3.7382-8.8557-4.1096-10.894-0.91324-5.012-4.5898-7.7933-10.302-7.7933-5.8993 0-8.098 1.3432-10.362 6.3307-4.4765 9.8593 0.11634 22.611 8.1804 22.712 1.8605 0.0233 5.8577 0.66956 8.8827 1.4361 8.0342 2.036 10.429 1.6396 10.822-1.7908zm-219.46-7.7391c4.3076-2.5416 6.1576-6.108 4.6396-8.9445-1.5976-2.9852-6.3758-5.8803-10.899-6.6036-4.7132-0.75367-5.7464 0.0492-9.1362 7.0995-2.412 5.0168-2.496 9.0731-0.21711 10.484 2.6334 1.6305 11.318 0.49818 15.613-2.0356zm175.07-0.51998c2.0961-2.0961 1.9572-9.048-0.26392-13.213l-1.7515-3.2843-2.0504 2.2843c-3.9473 4.3976-5.3627 7.2586-5.3627 10.84 0 1.986 0.3 3.9108 0.66667 4.2775 1.271 1.271 7.1981 0.659 8.7619-0.90476zm-152.99-2.4038c5.5062-2.0934 1.7877-7.4652-4.7311-6.8347-2.7865 0.26954-3.2438 0.72224-3.5109 3.4756-0.23021 2.3733 0.14524 3.2829 1.5 3.634 3.0224 0.78327 4.0712 0.7405 6.742-0.27493zm126.53-0.004c1.006-0.53839 2.2845-2.2853 2.8411-3.8819 0.90352-2.5918 0.74784-3.0234-1.4521-4.0258-1.3553-0.6175-3.6758-0.83766-5.1568-0.48925-2.726 0.64133-8.1927 5.042-8.1927 6.5952 0 2.2509 8.6786 3.5583 11.961 1.8018zm-33.957-10.904c10.807-3.1319 16.531-5.6526 23.679-10.429 14.261-9.528 22.963-19.674 30.676-35.766 6.0803-12.686 7.9256-20.746 7.8809-34.423-0.0514-15.717-2.8596-24.247-13.025-39.564-11.039-16.633-26.988-28.874-45.214-34.702-7.682-2.4564-9.9436-2.7187-23.5-2.7259-13.622-0.007-15.796 0.24522-23.665 2.7482-23.042 7.3292-41.819 24.34-50.409 45.665-9.3558 23.226-9.9048 37.668-2.17 57.079 4.7329 11.878 7.593 17.017 13.532 24.315 10.318 12.679 22.678 21.16 38.098 26.142 9.8355 3.1771 10.345 3.2462 25.117 3.4071 9.5909 0.10446 14.016-0.30236 19-1.7466zm-90.1-12c1.3678-2.6143-0.4995-6.1324-3.2549-6.1324-3.1696 0-5.0314 2.3629-4.2657 5.4138 0.93149 3.7113 5.7156 4.1684 7.5206 0.71853zm-21.844-2.1675c2.5684-1.3746 2.6844-8.8405 0.18426-11.849-2.2886-2.7541-5.1369-1.954-8.0192 2.2525-3.0205 4.4081-2.8589 7.2272 0.51923 9.0599 3.309 1.7951 4.7649 1.902 7.3157 0.53679zm-26.419-3.4302c5.3982-3.7811 7.3231-16.358 3.1029-20.274-2.7564-2.5575-4.2054-2.8695-8.9454-1.9262-3.0934 0.61561-4.651 1.9923-9.5608 8.4504-3.226 4.2432-6.1399 8.4464-6.4754 9.3405-0.76369 2.0351 2.8015 3.8184 9.7317 4.8678 7.8528 1.1891 9.9051 1.1116 12.147-0.45875zm226-5.1164c1.2141-1.8383 1.07-2.6568-1.2318-7-3.2167-6.0692-2.851-5.7316-5.3495-4.9387-4.075 1.2934-6.7009 10.484-3.8189 13.366 1.954 1.954 8.7864 1.0164 10.4-1.4273zm24.921-2.4563c11.117-1.9448 12.607-3.9798 7.2925-9.962-1.7101-1.925-4.1713-5.1682-5.4694-7.207-2.8484-4.4738-5.5108-6.0263-10.562-6.1588-7.7881-0.20421-11.256 8.7855-6.817 17.673 3.2952 6.5979 5.5267 7.4091 15.555 5.6547zm-291.09-2.0774c6.1532-1.7083 20.523-17.96 20.523-23.211 0-3.1552-3.8499-7.3974-9.3087-10.257-12.854-6.7341-14.865-7.4741-18.52-6.8129-4.282 0.77468-8.4336 2.7076-12.753 5.9376-3.336 2.4946-5.7626 3.9097-17.949 10.467-11.401 6.1345-18.9 11.273-19.272 13.206-0.5028 2.6109 4.7309 4.6814 16.054 6.3512 5.6365 0.83122 12.948 2.1503 16.248 2.9313 11.398 2.6974 18.785 3.1081 24.977 1.3888zm333.33-5.3195c3.6836-0.78917 12.322-2.3859 19.197-3.5483 17.923-3.0303 21-3.9239 21-6.0988 0-2.1897-4.62-5.4068-20-13.927-6.325-3.5038-14.556-8.363-18.291-10.798-6.4604-4.2123-7.0794-4.4068-12.724-3.9985-4.6401 0.33563-6.7565 1.0696-9.7092 3.3672-2.0767 1.6159-5.4523 3.7905-7.5014 4.8324s-4.4494 2.6942-5.3341 3.6717c-1.4713 1.6258-1.4733 2.062-0.024 5.1162 0.87143 1.8364 2.5968 4.4608 3.8341 5.8319 1.2373 1.3712 4.6962 5.3495 7.6864 8.8407 7.4791 8.7323 9.5135 9.3567 21.866 6.7103zm-414.71-7.59c2.844-1.121 8.3732-4.1298 12.287-6.6862s12.741-8.0622 19.616-12.235c17.054-10.352 27.996-17.427 27.998-18.106 0.001-0.31122-1.9106-1.6163-4.248-2.9001-6.0814-3.3401-16.162-9.414-16.75-10.093-0.275-0.31726-4.775-3.0108-10-5.9857s-14.096-8.4174-19.712-12.094c-20.053-13.128-21.872-11.165-22.996 24.82-0.64499 20.647 0.77649 39.05 3.3267 43.069 1.7635 2.7794 3.8569 2.8218 10.478 0.21179zm493.96-5.9914c1.0582-0.56631 2.7005-2.4788 3.6498-4.25 3.9312-7.3355 2.2886-61.018-1.9576-63.974-0.68615-0.47771-5.2976-0.61535-10.248-0.30586-7.8217 0.48904-10.106 1.0927-17.45 4.611-4.6475 2.2265-10.658 5.6346-13.357 7.5734-6.2296 4.4755-12.361 8.1435-16.175 9.6766-7.2234 2.9037-13.065 6.4024-14.891 8.9196-3.209 4.4218-1.2256 7.0573 8.795 11.687 8.0966 3.7406 13.44 6.8978 25.578 15.112 14.114 9.5522 29.779 14.31 36.055 10.95zm-357.09-7.1589c2.4368-2.6156 2.6022-5.5623 0.48226-8.5889-2.6755-3.8198-8.6804-2.3984-9.8687 2.3362-0.94184 3.7526 0.12151 6.1606 3.2212 7.2943 3.8257 1.3993 3.9035 1.3862 6.1653-1.0415zm216.23-5.0614c2.3498-1.8636 2.691-3.9346 1.1508-6.9855-1.3854-2.7443-5.3107-4.5215-7.2878-3.2996-0.58126 0.35924-1.0568 2.4011-1.0568 4.5374 0 2.8803 0.57446 4.2866 2.2225 5.441 2.6835 1.8796 2.9661 1.897 4.9713 0.3067zm-236.64-8.3415c5.8534-2.7776 7.2851-13.45 2.4935-18.588-4.4681-4.7906-21.768-1.9429-25.012 4.117-3.7899 7.0814 4.1958 14.035 18.315 15.947 0.46688 0.0632 2.3581-0.60116 4.2026-1.4765zm266.2-8.731c4.8395-3.0775 5.505-5.9534 2.1987-9.5023-2.2947-2.4631-15.052-9.1753-17.438-9.1753-3.2627 0-8.3066 11.691-7.1066 16.472 1.5066 6.003 14.377 7.2731 22.346 2.2052zm-299.9-12.93c1.8466-1.2354 6.3466-3.8647 10-5.8427 10.703-5.7948 10.823-9.8847 0.61768-21.005-3.5614-3.8808-6.4752-7.4771-6.4752-7.9918 0-1.6862-6.4268-4.899-9.8077-4.9028-1.8192-0.002-11.719 1.5188-22 3.3797s-21.548 3.8666-25.038 4.4572c-3.4902 0.59054-6.9587 1.5823-7.7076 2.2038-1.9084 1.5838 0.29845 3.6994 9.0535 8.6796 3.85 2.19 14.417 8.323 23.483 13.629 18.37 10.752 21.582 11.603 27.875 7.3934zm55.169-4.3157c2.0845-5.4826-1.7506-11.246-6.3257-9.5069-5.1324 1.9514-6.0624 9.1885-1.4207 11.056 4.1806 1.6822 6.7102 1.1763 7.7465-1.5493zm274.53 0.0766c1.6784-0.68165 6.8297-3.5826 11.447-6.4466 4.6176-2.864 12.244-7.258 16.948-9.7645 9.9306-5.2916 12.577-7.4884 11.717-9.7278-0.89182-2.324-4.6452-3.4694-18.665-5.6957-6.875-1.0918-15.292-2.6347-18.706-3.4288-10.729-2.4962-15.183-2.0056-20.938 2.3062-12.994 9.7357-16.513 19.059-9.5937 25.414 9.7704 8.9736 18.255 11.215 27.789 7.3432zm-58.752-3.7072c2.804-2.804-0.0176-8.0789-3.7934-7.0915-2.4767 0.64767-3.6855 4.7686-1.9959 6.8045 1.4894 1.7946 4.1498 1.9265 5.7892 0.28701zm-231.01-15.2c7.0145-3.6273 8.2683-9.3819 4.0688-18.674-2.5151-5.565-5.3411-6.9237-14.371-6.9091-6.9983 0.0113-8.9084 0.70933-10.826 3.9563-2.5308 4.2842-2.0712 6.3659 2.5765 11.672 10.588 12.089 12.471 13.099 18.552 9.9546zm249.13-7.7757c8.55-8.63 9.2265-12.609 2.6134-15.372-7.2452-3.0272-12.918-0.59643-16.039 6.8729-2.0098 4.81-1.8953 7.5239 0.48153 11.422 3.0284 4.967 5.7313 4.3566 12.944-2.9233zm-223.76-8.4817c2.2274-2.0157 2.4775-8.8391 0.40017-10.916-2.3428-2.3428-7.2892-1.7889-9.1313 1.0225-1.7978 2.7438-1.355 5.1162 1.6737 8.9665 2.3492 2.9865 4.4738 3.2657 7.0575 0.92747zm198.54 0.85463c1.8696-1.1881 4.2465-7.6454 3.6516-9.9202-0.96926-3.7064-10.343-5.8994-13.163-3.0795-2.4886 2.4886-0.34701 11.772 3.029 13.131 1.9566 0.78721 5.1385 0.72287 6.4822-0.13107zm-330.71-3.13c14.348-2.5926 28.001-5.4234 39.5-8.1896 4.4-1.0585 9.3363-2.1603 10.97-2.4486 1.6333-0.28822 3.1616-0.716 3.3962-0.95063 0.23463-0.23463-1.3267-2.3593-3.4696-4.7216-2.1429-2.3622-6.5962-7.8312-9.8962-12.153-15.564-20.385-26.021-32.461-32.657-37.717-6.7052-5.3106-7.109-4.8137-17.809 21.916-8.3465 20.85-13.491 40.969-11.681 45.685 0.7919 2.0636 3.2601 1.9016 21.647-1.4208zm468.22-1.6158c6.6874-2.2786 8.3036-4.5171 8.159-11.3-0.13635-6.396-4.6738-19.52-12.322-35.64-2.6096-5.5-5.3219-11.8-6.0274-14-2.6864-8.377-5.8159-9.293-14.795-4.3306-10.423 5.7604-17.007 11.84-26.017 24.024-7.2475 9.8005-12.311 15.805-16.968 20.122-4.5167 4.1868-5.573 8.219-2.8632 10.929 0.76273 0.76274 6.5206 2.1585 12.795 3.1018 6.2747 0.94324 15.888 2.8542 21.363 4.2466 17.891 4.55 29.121 5.4221 36.675 2.8482zm-314.91-7.2273c1.7782-1.9648 1.3109-5.762-0.80922-6.5756-4.444-1.7053-8.6793 4.2942-4.9542 7.018 2.4606 1.7992 3.8299 1.6941 5.7635-0.44247zm-58.545-9.2675c3.5061-1.726 6.6022-3.7312 6.8804-4.456 0.51117-1.3321-5.2932-18.261-8.3052-24.222-2.3298-4.6113-7.9765-6.9148-21.337-8.7041-10.333-1.3838-18.531-2.789-31.932-5.4736-10.075-2.0182-9.6577 0.70475 2.2483 14.672 5.6008 6.5704 13.108 15.436 16.683 19.701 9.8664 11.771 11.529 12.662 22.444 12.026 5.1955-0.30272 8.5486-1.1947 13.318-3.5428zm286-1.4231c6.0378-4.5387 14.247-13.312 24.349-26.023 7.5801-9.5371 8.3711-11.155 6.9648-14.241-1.1102-2.4365-1.2937-2.4734-8.8529-1.7762-11.383 1.0498-31.092 7.7682-37.388 12.745-6.1138 4.8327-10.055 10.867-11.772 18.024-1.1548 4.8137-1.1055 5.8488 0.43259 9.0902 0.95468 2.0118 2.3595 3.6579 3.1218 3.6579 0.76233 0 1.3861 0.417 1.3861 0.92668 0 1.3056 2.5534 1.8235 9.6509 1.9573 5.8091 0.10955 6.4819-0.13279 12.107-4.3615zm-254.14-3.6578c2.7631-0.69576 5.1016-2.0406 6.0408-3.474 1.9892-3.036 2.2279-11.347 0.42282-14.725-2.2216-4.1574-8.541-6.6654-16.795-6.6654-7.9091 0-8.2913 0.33096-8.2913 7.1807 0 5.057 2.3417 10.043 7.0326 14.974 3.987 4.1912 4.8789 4.3997 11.59 2.7098zm215.01-2.0956c3.2024-2.1943 4.3215-4.3165 4.3607-8.2692 0.0109-1.1 0.69204-3.2889 1.5136-4.8643 1.965-3.7677 1.9213-8.2577-0.088-9.0287-5.5053-2.1126-23.178 1.7836-25.933 5.7174-0.89511 1.278-1.4854 4.4022-1.4854 7.8621 0 5.51 0.15045 5.8437 3.7321 8.2775 5.0153 3.408 13.169 3.547 17.9 0.30528zm-186.98-4.31c2.6332-2.0084 3.3444-3.2718 3.3444-5.941 0-3.8886-0.23026-4.1094-5.0862-4.8778-1.9724-0.31208-4.2224-0.80185-5-1.0884-1.7774-0.65496-3.2908 0.34322-4.7641 3.1423-1.682 3.1956-1.4148 5.709 0.92288 8.6809 2.6525 3.3721 6.2348 3.4005 10.583 0.084zm149.12-0.006c1.538-1.0773 2.2225-2.5795 2.2225-4.8776 0-4.2406-1.8941-5.7752-6.6407-5.3803-3.0723 0.25562-3.8984 0.78274-4.4109 2.8145-0.67949 2.6937 1.2127 7.4987 3.2806 8.3307 2.1987 0.88463 3.2612 0.7147 5.5485-0.88741zm-110.71-18.47c2.3208-1.2421 2.5258-5.5985 0.39597-8.4148-1.9862-2.6264-8.175-2.6625-10.079-0.0589-2.2473 3.0734-1.6958 6.2752 1.3672 7.9369 3.2832 1.7812 5.6992 1.9371 8.3157 0.53679zm76.284 0.0925c1.3637-0.51849 2.757-1.8168 3.096-2.8851 0.87215-2.7479-1.3804-7.1178-4.0091-7.7775-2.8183-0.70736-8.1029 1.9796-8.9129 4.5318-0.7875 2.4812 1.3009 5.8702 3.9414 6.3959 1.1194 0.22288 2.3435 0.46652 2.7202 0.54142s1.8007-0.28804 3.1644-0.80654zm31.114-5.4059c3.3395-1.0068 4.09-1.7425 4.7676-4.6732 1.1125-4.8118-0.083-18.973-1.7418-20.632-3.7481-3.7481-15.086 0.9833-18.529 7.7323-1.988 3.8967-2.685 13.232-1.1663 15.621 1.9898 3.1303 9.7472 4.0383 16.67 1.9512zm-135.57-2.2116c3.2504-2.735 4.7759-7.6533 3.7016-11.934-0.48951-1.9504-2.9011-3.6728-10.86-7.7566-11.606-5.9553-13.83-6.3674-14.836-2.7495-1.265 4.5478-0.93757 15.962 0.56081 19.548 1.7719 4.2408 4.1875 5.3062 12.218 5.3887 5.2179 0.0536 6.6442-0.33284 9.216-2.4969zm67.282 0.90529c2.2574-2.0429 2.3282-4.6531 0.21373-7.8802-3.3961-5.1831-11.385-2.0974-11.385 4.3974 0 4.6643 7.3378 6.952 11.171 3.4828zm105.26-4.7753c3.3351-0.78666 8.3892-1.9476 11.231-2.5799 2.842-0.63228 5.9083-1.9684 6.8139-2.969 0.9056-1.0007 2.9991-5.5772 4.6522-10.17 11.264-31.295 13.935-39.257 13.659-40.709-0.60812-3.1929-4.4057-2.134-14.292 3.985-5.5 3.4041-13.375 8.1073-17.5 10.452-22.483 12.778-21.991 12.129-21.996 28.971-0.002 8.0434 0.39525 12.449 1.1963 13.25 1.6165 1.6165 8.8407 1.5141 16.236-0.2303zm-204.95-1.12c1.5334-1.1592 2.1303-3.2214 2.6681-9.2182 0.38099-4.2487 0.43915-10.117 0.12924-13.041-0.51534-4.8616-1.002-5.7022-5.6973-9.8419-2.8236-2.4895-9.1707-6.6321-14.105-9.2059-9.8678-5.1476-20.652-11.486-24.356-14.315-2.9819-2.2777-6.973-2.3555-7.8184-0.15247-0.35229 0.91804 0.84701 5.7555 2.6651 10.75s5.5187 15.371 8.2236 23.059c6.2654 17.808 6.763 18.38 18.815 21.603 8.2132 2.1966 16.836 2.3569 19.475 0.36207zm78.867-8.4386c6.8623-6.0252 6.966-10.878 0.38465-18.005-1.7777-1.925-4.4914-5.1875-6.0303-7.25-1.539-2.0625-3.4135-3.75-4.1656-3.75-3.1575 0-9.8554 15.543-9.3426 21.681 0.2556 3.0596 1.0936 4.3287 4.6397 7.0265 5.6547 4.302 9.855 4.388 14.514 0.29708zm46.522 0.27434c1.4497-1.0675 3.5077-3.533 4.5734-5.4788l1.9376-3.5378-2.556-5.8936c-1.4058-3.2415-2.8768-7.3542-3.2689-9.1395-0.86566-3.9414-3.686-5.7623-6.5504-4.2294-1.1 0.5887-2 1.4094-2 1.8238 0 0.41439-2.7 3.7951-6 7.5126-7.5305 8.4833-7.7675 10.791-1.776 17.291 4.0214 4.3627 4.4345 4.5587 8.6142 4.0876 2.4146-0.27217 5.5764-1.3683 7.026-2.4358zm121.64 1.7863c16.78-3.5556 30.204-6.1203 37-7.0693 4.4-0.61436 10.353-2.2434 13.23-3.6201 4.9503-2.3694 11.27-8.5124 11.27-10.955 0-0.61767-2.348-4.2247-5.2178-8.0156s-6.5823-8.9611-8.25-11.489c-5.2372-7.9397-25.694-28.916-28.2-28.916-2.0106 0-7.3319 5.3944-7.3319 7.4326 0 0.40912-1.3367 3.6319-2.9705 7.1617s-5.5372 13.503-8.6744 22.162c-3.1371 8.6591-7.4254 18.602-9.5295 22.096-6.7105 11.142-4.4966 14.004 8.6743 11.213zm-297.99-12.81c-2.3525-6.4643-5.9702-16.973-8.0393-23.352-4.9416-15.236-14.143-33.282-17.192-33.715-2.879-0.40946-6.8393 3.2864-19.602 18.294-15.544 18.277-22.636 27.466-23.329 30.225-0.93663 3.7318 2.0476 9.1562 5.9008 10.726 1.7819 0.72595 6.6148 1.6324 10.74 2.0143 4.125 0.38191 11.325 1.5213 16 2.532 15.731 3.4008 36.668 6.223 39.149 5.2772 0.35714-0.13613-1.2754-5.5364-3.628-12.001zm96.332-7.7391c3.6343-4.1392 6.1465-11.905 6.1465-18.999 0-8.5861-4.0006-14.643-23.458-35.515-2.3072-2.475-5.8921-6.865-7.9664-9.7555-3.5255-4.9128-7.6945-7.4783-9.3725-5.7676-0.38689 0.39442-0.56974 7.986-0.40633 16.87 0.1634 8.8842-0.22266 19.599-0.85793 23.811-1.2667 8.3982-0.45999 12.78 3.3525 18.211 2.4645 3.5107 13.591 10.83 19.708 12.965 7.0463 2.4591 9.3875 2.1276 12.853-1.82zm114.15-0.1695c6.129-2.9238 10.534-6.5825 12.455-10.345 0.95974-1.8798 1.2113-8.95 1.014-28.5-0.14432-14.3-0.30887-26.369-0.36566-26.82-0.29612-2.3504-5.014 0.46293-8.9208 5.3196-2.4334 3.025-7.3837 8.796-11.001 12.824-17.466 19.453-19.036 23.226-15.097 36.278 1.6732 5.5442 3.1962 8.3679 6.0797 11.271 4.4507 4.4814 6.3871 4.4778 15.835-0.0292zm-56.42-10.1c3.2037-3.7125 6.6333-7.5547 7.6213-8.5382 2.4053-2.3943 5.798-9.163 5.798-11.567 0-1.0643-1.3016-5.0198-2.8924-8.7898-1.5908-3.7701-4.2762-10.905-5.9675-15.855-9.7517-28.54-11.864-33.186-14.075-30.957-0.52228 0.52643-2.7928 6.5822-5.0456 13.457-3.9366 12.013-5.2164 15.463-7.1357 19.236-0.48583 0.95504-0.88333 2.1813-0.88333 2.725 0 0.54369-1.35 3.9361-3 7.5386-3.6343 7.935-3.899 14.011-0.882 20.244 2.726 5.6312 15.89 19.256 18.604 19.256 1.2685 0 4.2248-2.5393 7.8584-6.75zm97.831-11.905c10.617-6.3722 36.293-22.61 41.637-26.332 1.4019-0.9763 4.8894-2.9611 7.75-4.4107 7.6011-3.8518 7.1963-5.3295-4.4226-16.144-11.533-10.735-18.513-15.54-27.876-19.191-3.85-1.5013-9.8452-4.2004-13.323-5.9981-7.7918-4.028-10.428-4.13-13.01-0.50358-2.9635 4.1619-5.3898 24.722-4.5711 38.735 0.36161 6.1895 0.13384 16.569-0.52082 23.733-1.1686 12.79-0.66545 16.767 2.1215 16.767 0.61959 0 6.1163-2.9948 12.215-6.6552zm-198.44 2.191c0.86042-1.0367 1.028-3.8833 0.57418-9.75-0.35257-4.5572-0.77194-21.04-0.93195-36.627-0.23651-23.04-0.55483-28.52-1.7017-29.293-4.299-2.9002-17.875 2.5784-34.703 14.005-4.5606 3.0966-11.734 7.7994-15.941 10.451-4.2071 2.6512-8.2239 5.5762-8.9263 6.5-1.8273 2.4034-1.5926 8.3063 0.43165 10.855 0.95027 1.1967 7.1278 5.1727 13.728 8.8357 18.967 10.526 29.711 17.04 33.603 20.371 6.781 5.8039 11.577 7.4135 13.868 4.6536zm134.29-27.79c2.5346-3.9875 9.3264-12.068 15.093-17.956 11.007-11.24 17.124-19.17 22.761-29.505 3.3826-6.2025 3.3845-6.2139 1.3873-8.1539-2.4547-2.3844-22.347-8.6382-33.666-10.584-11.788-2.0263-33.662-3.0152-37.084-1.6764-2.444 0.95627-2.75 1.5864-2.75 5.6637 0 3.0239 1.056 6.8672 3.0977 11.275 1.7038 3.6778 3.5008 7.587 3.9934 8.687 1.8491 4.1288 10.624 31.166 11.321 34.885 0.39953 2.1297 1.7954 6.2893 3.102 9.2437 2.0796 4.7024 2.7344 5.3716 5.256 5.3716 2.4854 0 3.5126-0.99452 7.4888-7.25zm-73.327 4.3767c0.55141-1.0303 1.479-4.0678 2.0614-6.75 0.58235-2.6822 1.34-5.5517 1.6837-6.3767 0.34367-0.825 0.74026-1.95 0.88129-2.5 0.4404-1.7174 10.141-25.585 14.022-34.5 4.489-10.312 5.253-15.079 2.9738-18.558-2.7434-4.187-5.5593-4.6386-18.417-2.9534-19.866 2.6036-49.556 8.1127-53.124 9.8573-2.952 1.4435-4.5532 5.3663-3.6536 8.9508 0.35581 1.4177 3.2931 5.1934 6.5273 8.3904 5.8865 5.8189 30.704 34.064 36.958 42.063 3.7319 4.7729 8.2367 5.8343 10.087 2.3767z"/>
</svg>
