<?xml version="1.0" encoding="UTF-8" standalone="no"?>
<!-- Created with Inkscape (http://www.inkscape.org/) -->

<svg
   xmlns:dc="http://purl.org/dc/elements/1.1/"
   xmlns:cc="http://creativecommons.org/ns#"
   xmlns:rdf="http://www.w3.org/1999/02/22-rdf-syntax-ns#"
   xmlns:svg="http://www.w3.org/2000/svg"
   xmlns="http://www.w3.org/2000/svg"
   xmlns:sodipodi="http://sodipodi.sourceforge.net/DTD/sodipodi-0.dtd"
   xmlns:inkscape="http://www.inkscape.org/namespaces/inkscape"
   id="svg2"
   xml:space="preserve"
   height="905"
   viewBox="0 0 647.61422 904.99713"
   width="647.61"
   version="1.1"
   inkscape:version="0.91 r13725"
   sodipodi:docname="endGameHighScore.svg"><sodipodi:namedview
     pagecolor="#ffffff"
     bordercolor="#666666"
     borderopacity="1"
     objecttolerance="10"
     gridtolerance="10"
     guidetolerance="10"
     inkscape:pageopacity="0"
     inkscape:pageshadow="2"
     inkscape:window-width="1366"
     inkscape:window-height="744"
     id="namedview34310"
     showgrid="false"
     inkscape:zoom="1.0430939"
     inkscape:cx="203.27839"
     inkscape:cy="355.89247"
     inkscape:window-x="0"
     inkscape:window-y="24"
     inkscape:window-maximized="1"
     inkscape:current-layer="svg2" /><metadata
     id="metadata8"><rdf:RDF><cc:Work
         rdf:about=""><dc:format>image/svg+xml</dc:format><dc:type
           rdf:resource="http://purl.org/dc/dcmitype/StillImage" /><dc:title /></cc:Work></rdf:RDF></metadata><defs
     id="defs6"><clipPath
       id="clipPath20490"
       clipPathUnits="userSpaceOnUse"><path
         id="path20492"
         d="m1002 121.16c15.216-6.438 28.675-0.586 28.675-0.586-3.511 8.778-11.704 55.595-11.704 55.595l-6.437 1.171-10.534-56.18z" /></clipPath><clipPath
       id="clipPath20514"
       clipPathUnits="userSpaceOnUse"><path
         id="path20516"
         d="m0 831.8h1728v-831.8h-1728v831.8z" /></clipPath><clipPath
       id="clipPath20546"
       clipPathUnits="userSpaceOnUse"><path
         id="path20548"
         d="m769.33 116.3s-8.293-47.385-11.846-56.27c0 0 13.622-5.923 29.023 0.592l-10.661 56.862-6.516-1.184z" /></clipPath><clipPath
       id="clipPath20570"
       clipPathUnits="userSpaceOnUse"><path
         id="path20572"
         d="m0 831.8h1728v-831.8h-1728v831.8z" /></clipPath><clipPath
       id="clipPath20614"
       clipPathUnits="userSpaceOnUse"><path
         id="path20616"
         d="m0 831.8h1728v-831.8h-1728v831.8z" /></clipPath><clipPath
       id="clipPath20780"
       clipPathUnits="userSpaceOnUse"><path
         id="path20782"
         d="m0 831.8h1728v-831.8h-1728v831.8z" /></clipPath><linearGradient
       id="linearGradient20800"
       gradientUnits="userSpaceOnUse"
       gradientTransform="matrix(-73.306 9.6156 -9.6156 -73.306 848.6 539.39)"><stop
         id="stop20802"
         stop-color="#d4daf1"
         offset="0" /><stop
         id="stop20804"
         stop-color="#c4ead6"
         offset=".86919" /><stop
         id="stop20806"
         stop-color="#c4ead6"
         offset=".99484" /><stop
         id="stop20808"
         stop-color="#c4ead6"
         offset="1" /></linearGradient><clipPath
       id="clipPath20816"
       clipPathUnits="userSpaceOnUse"><path
         id="path20818"
         d="m818.63 559.32s0.416 2.251-0.849 2.781c-1.266 0.53-3.453 1.423-10.968-4.993 0 0 0.862 1.95-0.745 2.646-1.607 0.697-3.082 0.663-8.65-4.378-5.568-5.04-12.295 0.089-10.499 3.614 0 0-3.91-0.215-3.55-4.872 0 0-4.543 1.445-3.284 7.346 0 0-2.168-0.808-2.71-4.013-0.541-3.205 0.463-4.792 1.603-6.276 0 0-2.074-0.092-3.215 1.392 0 0-0.48-5.518 4.187-6.008 0 0-2.648-3.536 5.09-4.672 0 0-0.802-4.263 7.682-5.255 0 0-2.243-3.223 5.194-4.806 0 0 2.282-0.178 2.332-1.64 0.051-1.463 3.005-3.912 7.841-1.272 0 0-2.325-2-1.216-3.722 1.108-1.723 6.887-1.147 11.64 2.72 0 0-1.568-2.707-0.469-3.579s5.934 1.769 8.334 6.187c0 0-1.207-4.573 4.978-0.896 6.184 3.678 8.285 10.439 8.285 10.439s-0.375-2.863 0.952-2.916c1.328-0.052 6.173 1.739 9.118 14.941 2 1.321-0.496 4.661-4.593 2.05-6.981-4.448-16.151-0.178-16.573 4.003 0 0 3.539 2.933-0.661 4.212-0.542 0.165-1.099 0.237-1.657 0.237-3.764 0-7.597-3.27-7.597-3.27" /></clipPath><clipPath
       id="clipPath20824"
       clipPathUnits="userSpaceOnUse"><path
         id="path20826"
         d="m783.74 554.85h72.14v-44.536h-72.14v44.536z" /></clipPath><linearGradient
       id="linearGradient20832"
       gradientUnits="userSpaceOnUse"
       gradientTransform="matrix(-70.912 -20.92 20.92 -70.912 858.6 542.04)"><stop
         id="stop20834"
         stop-color="#50b1cd"
         offset="0" /><stop
         id="stop20836"
         stop-color="#80d3b7"
         offset=".43904" /><stop
         id="stop20838"
         stop-color="#80d3b7"
         offset=".50250" /><stop
         id="stop20840"
         stop-color="#80d3b7"
         offset=".52847" /><stop
         id="stop20842"
         stop-color="#c8e9b0"
         offset=".99484" /><stop
         id="stop20844"
         stop-color="#c8e9b0"
         offset="1" /></linearGradient><clipPath
       id="clipPath20864"
       clipPathUnits="userSpaceOnUse"><path
         id="path20866"
         d="m796.9 560.18h74.664v-38.422h-74.664v38.422z" /></clipPath><linearGradient
       id="linearGradient20872"
       gradientUnits="userSpaceOnUse"
       gradientTransform="matrix(-73.306 9.6156 -9.6156 -73.306 869.76 536.98)"><stop
         id="stop20874"
         stop-color="#50b1cd"
         offset="0" /><stop
         id="stop20876"
         stop-color="#80d3b7"
         offset=".43904" /><stop
         id="stop20878"
         stop-color="#80d3b7"
         offset=".50250" /><stop
         id="stop20880"
         stop-color="#80d3b7"
         offset=".52847" /><stop
         id="stop20882"
         stop-color="#c8e9b0"
         offset=".99484" /><stop
         id="stop20884"
         stop-color="#c8e9b0"
         offset="1" /></linearGradient><clipPath
       id="clipPath20904"
       clipPathUnits="userSpaceOnUse"><path
         id="path20906"
         d="m801.29 577.02h51.96v-53.963h-51.96v53.963z" /></clipPath><linearGradient
       id="linearGradient20912"
       gradientUnits="userSpaceOnUse"
       gradientTransform="matrix(-40.847 -19.291 19.291 -40.847 849.12 555.61)"><stop
         id="stop20914"
         stop-color="#50b1cd"
         offset="0" /><stop
         id="stop20916"
         stop-color="#80d3b7"
         offset=".43904" /><stop
         id="stop20918"
         stop-color="#80d3b7"
         offset=".50250" /><stop
         id="stop20920"
         stop-color="#80d3b7"
         offset=".52847" /><stop
         id="stop20922"
         stop-color="#c8e9b0"
         offset=".99484" /><stop
         id="stop20924"
         stop-color="#c8e9b0"
         offset="1" /></linearGradient><linearGradient
       id="linearGradient20952"
       gradientUnits="userSpaceOnUse"
       gradientTransform="matrix(72.721 13.336 13.336 -72.721 907.33 542.95)"><stop
         id="stop20954"
         stop-color="#d4daf1"
         offset="0" /><stop
         id="stop20956"
         stop-color="#c4ead6"
         offset=".86919" /><stop
         id="stop20958"
         stop-color="#c4ead6"
         offset=".99484" /><stop
         id="stop20960"
         stop-color="#c4ead6"
         offset="1" /></linearGradient><clipPath
       id="clipPath20968"
       clipPathUnits="userSpaceOnUse"><path
         id="path20970"
         d="m971.73 560.98c0.122 4.669-3.794 4.686-3.794 4.686 1.973-3.43-4.485-8.895-10.302-4.145s-7.292 4.71-8.861 3.932c-1.57-0.777-0.61-2.679-0.61-2.679-7.831 6.024-9.971 5.02-11.207 4.426-1.237-0.593-0.707-2.82-0.707-2.82s-5.267 4.049-9.397 2.557c-4.129-1.49-0.445-4.24-0.445-4.24-0.209-4.196-9.15-8.928-16.349-4.84-4.224 2.399-6.546-1.064-4.482-2.281 3.614-13.036 8.544-14.578 9.867-14.458 1.324 0.121 0.803 2.961 0.803 2.961s2.441-6.646 8.805-10.004c6.365-3.358 4.927 1.148 4.927 1.148 2.621-4.29 7.585-6.682 8.638-5.755s-0.651 3.55-0.651 3.55c4.944-3.619 10.744-3.9 11.763-2.123 1.02 1.777-1.403 3.656-1.403 3.656 4.963-2.392 7.789 0.205 7.766 1.668-0.025 1.464 2.245 1.758 2.245 1.758 7.346 1.958 4.942 5.064 4.942 5.064 8.423 1.422 7.405 5.639 7.405 5.639 7.669 1.529 4.846 4.925 4.846 4.925 4.636 0.727 3.874 6.214 3.874 6.214-1.063-1.541-3.139-1.554-3.139-1.554 1.063 1.54 1.985 3.177 1.282 6.349-0.705 3.174-2.912 3.869-2.912 3.869 1.559-5.829-2.904-7.503-2.904-7.503" /></clipPath><clipPath
       id="clipPath20976"
       clipPathUnits="userSpaceOnUse"><path
         id="path20978"
         d="m899.78 558.15h72.25v-43.173h-72.25v43.173z" /></clipPath><linearGradient
       id="linearGradient20984"
       gradientUnits="userSpaceOnUse"
       gradientTransform="matrix(71.886 -17.282 -17.282 -71.886 897.21 545.08)"><stop
         id="stop20986"
         stop-color="#50b1cd"
         offset="0" /><stop
         id="stop20988"
         stop-color="#80d3b7"
         offset=".43904" /><stop
         id="stop20990"
         stop-color="#80d3b7"
         offset=".50250" /><stop
         id="stop20992"
         stop-color="#80d3b7"
         offset=".52847" /><stop
         id="stop20994"
         stop-color="#c8e9b0"
         offset=".99484" /><stop
         id="stop20996"
         stop-color="#c8e9b0"
         offset="1" /></linearGradient><clipPath
       id="clipPath21016"
       clipPathUnits="userSpaceOnUse"><path
         id="path21018"
         d="m883.8 565h74.638v-39.213h-74.638v39.213z" /></clipPath><linearGradient
       id="linearGradient21024"
       gradientUnits="userSpaceOnUse"
       gradientTransform="matrix(72.721 13.336 13.336 -72.721 886.32 539.47)"><stop
         id="stop21026"
         stop-color="#50b1cd"
         offset="0" /><stop
         id="stop21028"
         stop-color="#80d3b7"
         offset=".43904" /><stop
         id="stop21030"
         stop-color="#80d3b7"
         offset=".50250" /><stop
         id="stop21032"
         stop-color="#80d3b7"
         offset=".52847" /><stop
         id="stop21034"
         stop-color="#c8e9b0"
         offset=".99484" /><stop
         id="stop21036"
         stop-color="#c8e9b0"
         offset="1" /></linearGradient><clipPath
       id="clipPath21056"
       clipPathUnits="userSpaceOnUse"><path
         id="path21058"
         d="m902.45 581.06h51.443v-53.748h-51.443v53.748z" /></clipPath><linearGradient
       id="linearGradient21064"
       gradientUnits="userSpaceOnUse"
       gradientTransform="matrix(41.776 -17.186 -17.186 -41.776 905.99 559.12)"><stop
         id="stop21066"
         stop-color="#50b1cd"
         offset="0" /><stop
         id="stop21068"
         stop-color="#80d3b7"
         offset=".43904" /><stop
         id="stop21070"
         stop-color="#80d3b7"
         offset=".50250" /><stop
         id="stop21072"
         stop-color="#80d3b7"
         offset=".52847" /><stop
         id="stop21074"
         stop-color="#c8e9b0"
         offset=".99484" /><stop
         id="stop21076"
         stop-color="#c8e9b0"
         offset="1" /></linearGradient><clipPath
       id="clipPath21096"
       clipPathUnits="userSpaceOnUse"><path
         id="path21098"
         d="m0 831.8h1728v-831.8h-1728v831.8z" /></clipPath><clipPath
       id="clipPath21108"
       clipPathUnits="userSpaceOnUse"><path
         id="path21110"
         d="m789.58 641.36h176.49v-176.49h-176.49v176.49z" /></clipPath><clipPath
       id="clipPath21112"
       clipPathUnits="userSpaceOnUse"><path
         id="path21114"
         d="m966.06 553.11c0-48.735-39.508-88.244-88.243-88.244-48.736 0-88.245 39.509-88.245 88.244s39.509 88.243 88.245 88.243c48.735 0 88.243-39.508 88.243-88.243" /></clipPath><mask
       id="mask21134"
       height="1"
       width="1"
       y="0"
       x="0"
       maskUnits="userSpaceOnUse"><g
         id="g21136"><g
           id="g21138"><g
             id="g21140"><g
               id="g21142"><path
                 id="path21144"
                 fill="url(#radialGradient21120)"
                 d="m-32768 32767h65535v-65535h-65535v65535z" /></g></g></g></g></mask><radialGradient
       id="radialGradient21120"
       gradientUnits="userSpaceOnUse"
       cy="0"
       cx="0"
       gradientTransform="matrix(88.244 0 0 -88.244 877.82 553.11)"
       r="1"><stop
         id="stop21122"
         stop-opacity=".95001"
         stop-color="#fff"
         offset="0" /><stop
         id="stop21124"
         stop-opacity=".95001"
         stop-color="#fff"
         offset=".090335" /><stop
         id="stop21126"
         stop-opacity=".65124"
         stop-color="#fff"
         offset=".20229" /><stop
         id="stop21128"
         stop-opacity="0"
         stop-color="#fff"
         offset=".64820" /><stop
         id="stop21130"
         stop-opacity="0"
         stop-color="#fff"
         offset=".73656" /><stop
         id="stop21132"
         stop-opacity="0"
         stop-color="#fff"
         offset="1" /></radialGradient><radialGradient
       id="radialGradient21146"
       gradientUnits="userSpaceOnUse"
       cy="0"
       cx="0"
       gradientTransform="matrix(88.244 0 0 -88.244 877.82 553.11)"
       r="1"><stop
         id="stop21148"
         stop-color="#f9a72c"
         offset="0" /><stop
         id="stop21150"
         stop-color="#f9a72c"
         offset=".090335" /><stop
         id="stop21152"
         stop-color="#f9a72c"
         offset=".20229" /><stop
         id="stop21154"
         stop-color="#f9a72c"
         offset=".64820" /><stop
         id="stop21156"
         stop-color="#f9a72c"
         offset=".73656" /><stop
         id="stop21158"
         stop-color="#f9a72c"
         offset="1" /></radialGradient><clipPath
       id="clipPath21202"
       clipPathUnits="userSpaceOnUse"><path
         id="path21204"
         d="m837.43 608.01c0-6.138 18.084-11.112 40.391-11.112 22.308 0 40.391 4.974 40.391 11.112 0 6.136-18.083 11.11-40.391 11.11-22.307 0-40.391-4.974-40.391-11.11m4.054 1.782c0 3.646 16.05 6.603 35.849 6.603 19.798 0 35.847-2.957 35.847-6.603 0-3.648-16.049-6.605-35.847-6.605-19.799 0-35.849 2.957-35.849 6.605" /></clipPath><clipPath
       id="clipPath21214"
       clipPathUnits="userSpaceOnUse"><path
         id="path21216"
         d="m0 831.8h1728v-831.8h-1728v831.8z" /></clipPath><clipPath
       id="clipPath21238"
       clipPathUnits="userSpaceOnUse"><path
         id="path21240"
         d="m837.43 619.12h80.782v-21.319h-80.782v21.319z" /></clipPath><radialGradient
       id="radialGradient21246"
       gradientUnits="userSpaceOnUse"
       cy="0"
       cx="0"
       gradientTransform="matrix(29.586 0 0 -29.586 877.82 608.16)"
       r="1"><stop
         id="stop21248"
         stop-color="#fff"
         offset="0" /><stop
         id="stop21250"
         stop-color="#fff"
         offset=".14986" /><stop
         id="stop21252"
         stop-color="#868484"
         offset="1" /></radialGradient><clipPath
       id="clipPath21332"
       clipPathUnits="userSpaceOnUse"><path
         id="path21334"
         d="m749.8 670.24-0.51-2.321-1.106-5.026-1.195 4.774-0.536 2.14c-10.423-1.527-22.551-4.944-34.499-10.904l0.511-0.914 5.53-9.898-8.117 8.629-0.705 0.748c-0.992-0.53-1.983-1.076-2.97-1.642l0.696-0.696 7.044-7.039-8.608 6.144-0.833 0.594c-3.896-2.33-7.729-4.953-11.43-7.893-2.716-2.157-5.284-4.31-7.71-6.454l1.066-0.889 9.485-7.921-11.457 5.997-1.402 0.734c-3.419-3.133-6.526-6.24-9.324-9.299l1.833-1.155 9.208-5.805-11.273 3.279-2.412 0.701c-0.908-1.058-1.779-2.11-2.612-3.154l2.639-0.609 10.619-2.447-12.057 0.521-3.063 0.133c-12.633-16.805-15.334-31.396-8.577-39.769 7.414-9.188 23.17-6.815 34.515 3.455 2.414 2.186 5.173 5.233 8.158 8.752l-1.557 1.672-7.079 7.61 8.51-5.928 1.858-1.293c2.402 2.888 4.932 6.023 7.533 9.223l-1.771 1.312-6.203 4.592 7.453-3.052 2.132-0.873c0.748 0.917 1.499 1.835 2.256 2.752l-1.827 1.293-5.558 3.934 6.786-2.413 2.267-0.806c3.944 4.724 7.958 9.311 11.869 13.176l-1.368 3.062-3.146 7.047 4.555-5.564 2.07-2.529c0.741 0.687 1.478 1.352 2.208 1.974l-1.79 2.631-2.788 4.097 3.826-3.345 2.36-2.064c1.39 1.097 2.754 2.058 4.082 2.845 2.928 1.737 6.346 3.811 9.912 6.082l-0.635 2.78-1.108 4.853 2.503-4.055 1.365-2.211c13.671 8.871 28.513 20.179 26.048 26.336-1.134 2.831-7.381 4.637-16.48 4.637-2.813 0-5.899-0.172-9.191-0.541" /></clipPath><clipPath
       id="clipPath21340"
       clipPathUnits="userSpaceOnUse"><path
         id="path21342"
         d="m651.45 599.75h29.592v-27.653h-29.592v27.653z" /></clipPath><clipPath
       id="clipPath21356"
       clipPathUnits="userSpaceOnUse"><path
         id="path21358"
         d="m733.19 676.64h47.532v-39.948h-47.532v39.948z" /></clipPath></defs><style
     id="style28455">
     @font-face {
       font-family: Hero;
       src: url(&quot;../font/Hero.otf&quot;) format(&quot;opentype&quot;);
     }
     @font-face {
       font-family: Hero;
       font-weight: 100;
       src: url(&quot;../font/Hero Light.otf&quot;) format(&quot;opentype&quot;);
     }

    #restart-btn:hover, #fb-btn:hover, #leader-board:hover, #pledge-project:hover {
      cursor: pointer;
    }
  </style><g
     id="g20474"
     transform="matrix(1.25 0 0 -1.25 319.21 704.22)"><path
       id="path20476"
       d="m0 0c-29.628 0-53.732 10.717-71.643 31.852-30.44 35.921-37.587 96.237-38.222 140.51-0.686 47.797 5.853 87.714 5.919 88.112 0.177 1.067 1.196 1.79 2.253 1.61 1.068-0.177 1.789-1.186 1.611-2.253-0.261-1.574-25.516-158.26 31.431-225.45 17.13-20.213 40.228-30.462 68.649-30.462 42.056 0 75.709 14.191 100.02 42.18 61.676 70.996 44.519 209.09 43.571 216.28-4.573 9.703-12.335 9.395-12.669 9.375-1.047-0.061-2.003 0.76-2.07 1.834-0.066 1.075 0.74 2.001 1.813 2.075 0.434 0.03 10.887 0.606 16.609-11.914l0.119-0.259 0.039-0.282c0.051-0.361 5.079-36.736 2.143-81.691-2.71-41.61-13-99.326-46.59-137.99-25.091-28.885-59.739-43.53-102.98-43.53"
       fill="#b19861" /></g><g
     id="g20478"
     transform="matrix(1.25 0 0 -1.25 510.98 691.18)"><path
       id="path20480"
       d="m0 0c0.033 0 0.067 0.001 0.102 0.003 0.968 0.055 1.707 0.885 1.653 1.853-0.715 12.503-2.257 25.93-4.208 42.928-2.367 20.612-5.311 46.264-8.281 82.736-5.381 66.12 16.344 197.9 16.563 199.23l0.142 0.853-0.59 0.633c-7.201 7.715-5.783 12.521-5.769 12.569 0.291 0.909-0.193 1.902-1.096 2.212-0.904 0.311-1.88-0.138-2.21-1.035-0.242-0.657-2.083-6.559 5.922-15.501-1.866-11.47-21.651-135.48-16.462-199.24 2.974-36.535 5.923-62.219 8.293-82.857 1.944-16.942 3.481-30.324 4.19-42.727 0.053-0.934 0.826-1.656 1.751-1.656"
       fill="#b19861" /></g><g
     id="g20482"
     transform="matrix(1.25 0 0 -1.25 515.37 708.74)"><path
       id="path20484"
       d="m0 0s8.193-46.817 11.704-55.595c0 0-13.46-5.852-28.675 0.585l10.534 56.18 6.437-1.17z"
       fill="#a18455" /></g><g
     id="g20486"
     transform="matrix(1.25 0 0 -1.25 -758.36 928.96)"><g
       id="g20488"
       clip-path="url(#clipPath20490)"><g
         id="g20494"
         transform="translate(1019 176.17)"><path
           id="path20496"
           d="m0 0 6.642-61.206 2.322 0.297-8.964 60.909z"
           fill="#e5bc65" /></g><g
         id="g20498"
         transform="translate(1017 177.93)"><path
           id="path20500"
           d="m0 0 1.171-61.687 2.339 0.089-3.51 61.598z"
           fill="#e5bc65" /></g><g
         id="g20502"
         transform="translate(1015.9 177.54)"><path
           id="path20504"
           d="m0 0-3.12-63.167 2.339-0.072 0.781 63.239z"
           fill="#e5bc65" /></g><g
         id="g20506"
         transform="translate(1013.9 178.32)"><path
           id="path20508"
           d="m0 0-9.353-61.097 2.32-0.311l7.033 61.408z"
           fill="#e5bc65" /></g></g></g><g
     id="g20510"
     transform="matrix(1.25 0 0 -1.25 -758.36 928.96)"><g
       id="g20512"
       clip-path="url(#clipPath20514)"><g
         id="g20518"
         transform="translate(1025.9 179.81)"><path
           id="path20520"
           d="m0 0c0.456 1.249 0.883 2.771 1.159 4.547 0.632 4.069-1.745 8.02-5.622 9.409-2.508 0.898-5.813 1.527-9.903 1.17-3.941-0.345-7.158-3.378-7.726-7.294-0.27-1.863-0.345-4.039 0.041-6.375 0.597-3.625 3.487-6.436 7.11-7.042 2.444-0.409 5.51-0.582 8.708 0.089 2.889 0.605 5.222 2.723 6.233 5.496"
           fill="#384e94" /></g><g
         id="g20522"
         transform="translate(1015.9 193.14)"><path
           id="path20524"
           d="m0 0s-9.363 0.975-10.729-6.437c-1.081-5.87-0.195-9.364 7.023-10.534 0 0-3.512 3.706-2.536 8.778 0.975 5.072 6.242 8.193 6.242 8.193"
           fill="#2e417c" /></g><g
         id="g20526"
         transform="translate(1022.6 190.46)"><path
           id="path20528"
           d="m0 0c-3.923 1.471-5.121-5.998-1.024-7.169 4.096-1.17 4.535 5.852 1.024 7.169"
           fill="#536dbe" /></g><g
         id="g20530"
         transform="translate(1021.6 182.27)"><path
           id="path20532"
           d="m0 0c-2.087 0.696-3.511-2.633-1.17-3.365 2.34-0.731 2.487 2.926 1.17 3.365"
           fill="#536dbe" /></g><g
         id="g20534"
         transform="translate(774.46 122.62)"><path
           id="path20536"
           d="m0 0c-0.766 0-1.473 0.499-1.702 1.271-8.77 29.499-9.568 87.818-10.34 144.22-0.78 56.925-4.692 100.52-4.731 100.95-0.088 0.977 0.631 1.842 1.609 1.93 0.955 0.091 1.84-0.63 1.931-1.609 0.039-0.435 3.963-44.165 4.745-101.22 0.768-56.16 1.563-114.23 10.192-143.26 0.28-0.937-0.256-1.926-1.196-2.206-0.169-0.05-0.34-0.074-0.508-0.074"
           fill="#b19861" /></g><g
         id="g20538"
         transform="translate(769.33 116.3)"><path
           id="path20540"
           d="m0 0s-8.292-47.385-11.846-56.27c0 0 13.623-5.923 29.023 0.593l-10.662 56.862-6.515-1.185z"
           fill="#a18455" /></g></g></g><g
     id="g20542"
     transform="matrix(1.25 0 0 -1.25 -758.36 928.96)"><g
       id="g20544"
       clip-path="url(#clipPath20546)"><g
         id="g20550"
         transform="translate(769.33 116.3)"><path
           id="path20552"
           d="m0 0-6.723-61.948-2.35 0.3l9.073 61.648z"
           fill="#e5bc65" /></g><g
         id="g20554"
         transform="translate(771.31 118.08)"><path
           id="path20556"
           d="m0 0-1.185-62.435-2.368 0.09l3.553 62.345z"
           fill="#e5bc65" /></g><g
         id="g20558"
         transform="translate(772.49 117.68)"><path
           id="path20560"
           d="m0 0 3.158-63.933-2.368-0.073-0.79 64.006z"
           fill="#e5bc65" /></g><g
         id="g20562"
         transform="translate(774.47 118.47)"><path
           id="path20564"
           d="m0 0 9.467-61.838-2.349-0.314-7.118 62.152z"
           fill="#e5bc65" /></g></g></g><g
     id="g20566"
     transform="matrix(1.25 0 0 -1.25 -758.36 928.96)"><g
       id="g20568"
       clip-path="url(#clipPath20570)"><g
         id="g20574"
         transform="translate(762.37 119.98)"><path
           id="path20576"
           d="m0 0c-0.461 1.265-0.894 2.804-1.173 4.602-0.64 4.119 1.766 8.118 5.69 9.523 2.538 0.909 5.883 1.545 10.023 1.184 3.99-0.348 7.245-3.419 7.82-7.382 0.273-1.885 0.349-4.088-0.041-6.453-0.605-3.668-3.529-6.514-7.196-7.127-2.474-0.414-5.578-0.589-8.815 0.09-2.924 0.613-5.285 2.756-6.308 5.563"
           fill="#384e94" /></g><g
         id="g20578"
         transform="translate(772.49 133.48)"><path
           id="path20580"
           d="m0 0s9.477 0.987 10.859-6.515c1.094-5.941 0.197-9.477-7.108-10.662 0 0 3.554 3.751 2.567 8.885-0.987 5.133-6.318 8.292-6.318 8.292"
           fill="#2e417c" /></g><g
         id="g20582"
         transform="translate(765.68 130.76)"><path
           id="path20584"
           d="m0 0c3.97 1.489 5.183-6.071 1.037-7.256-4.147-1.184-4.591 5.923-1.037 7.256"
           fill="#536dbe" /></g><g
         id="g20586"
         transform="translate(766.72 122.47)"><path
           id="path20588"
           d="m0 0c2.112 0.704 3.554-2.665 1.185-3.406-2.37-0.74-2.518 2.962-1.185 3.406"
           fill="#536dbe" /></g><g
         id="g20590"
         transform="translate(865.81 158.99)"><path
           id="path20592"
           d="m0 0c-27.991-0.001-50.898 10.227-68.109 30.417-32.593 38.234-39.051 106.28-38.73 156.64 0.349 54.362 8.443 100.38 8.525 100.84 0.19 1.066 1.218 1.773 2.271 1.585 1.066-0.19 1.776-1.208 1.586-2.272-0.323-1.83-31.692-182.67 29.334-254.25 16.828-19.743 39.366-29.503 67.085-29.025 40.659 0.709 72.712 15.216 95.272 43.119 32.833 40.612 39.952 102.97 40.142 148.14 0.206 49.081-7.499 88.97-7.576 89.367-0.208 1.062 0.483 2.091 1.545 2.3 1.06 0.203 2.092-0.485 2.299-1.546 0.079-0.401 7.857-40.672 7.649-90.138-0.19-45.79-7.46-109.08-41.01-150.58-23.323-28.846-56.379-43.842-98.25-44.573-0.679-0.011-1.357-0.017-2.03-0.017"
           fill="#b19861" /></g><g
         id="g20594"
         transform="translate(686.67 635.61)"><path
           id="path20596"
           d="m0 0c10.074 12.522 23.989 13.343 36.86 13.697 92.319 2.542 184.59 9.549 276.63 21.01 11.177 1.391 22.563 2.827 33.49-1.102 10.927-3.928 21.527-14.174 26.023-30.224 3.175-11.336 3.015-24.168 2.883-36.54-0.933-87.59 2.328-175.29 9.746-262.12 1.707-19.972 2.846-39.978 5.136-60.104 0.644-5.666 1.231-11.694-1.283-16.812-2.733-5.563-8.726-8.939-14.81-10.125-6.084-1.187-12.356-0.514-18.528 0.067-40.839 3.841-81.943 3.46-122.96 3.075-10.994-0.103-22.038-0.211-32.891-1.964-11.938-1.929-23.487-5.825-35.41-7.842-13.246-2.241-26.761-2.133-40.194-2.019-16.288 0.139-32.576 0.277-48.863 0.415-14.155 0.12-28.386 0.133-42.488 1.5-7.673 0.744-20.897 1.037-24.918 8.705-2.174 4.145-2.607 9.813-2.954 15.144-6.069 93.306-12.138 186.61-18.206 279.92-1.986 30.384-2.567 66.308 12.729 85.32"
           fill="#3871c1" /></g><g
         id="g20598"
         transform="translate(1068.8 304.2)"><path
           id="path20600"
           d="m0 0c0.301-7.907 0.232-15.948-1.369-22.984-1.873-8.235-7.206-16.196-15.225-18.847-4.472-1.478-9.308-1.198-14.008-0.901-10.156 0.64-20.318 1.281-30.416 2.537-7.908 0.984-15.77 2.345-23.706 3.079-10.833 1.001-21.741 0.826-32.613 0.405-39.314-1.52-78.444-6.243-117.23-12.74-36.804-6.166-73.75-11.803-111.22-7.119-7.973 0.997-16.911 3.318-21.508 13.544-2.794 6.216-3.367 14.145-3.855 21.702-4.698 72.778-9.397 145.56-14.095 218.34-0.879 13.608-1.758 27.294-1.146 40.937 0.389 8.662 1.377 17.386 0.54 25.97-0.685 7.018-2.567 13.655-3.186 20.688-1.871 21.262 8.524 41.413 21.062 50.179s26.765 8.757 40.5 8.636c94.44-0.832 189.06 0.276 283.01 15.366 9.055 1.454 19.458 2.343 25.894-7.715 3.51-5.485 5.082-13.237 6.343-20.738 14.801-88.045 3-181.43 8.691-272.03 0.92-14.29 2.264-28.531 2.802-42.819 0.183-4.875 0.556-10.162 0.76-15.511"
           fill="#6acee8" /></g><g
         id="g20602"
         transform="translate(1004.5 584.57)"><path
           id="path20604"
           d="m0 0c-8.77 5.132-15.262 13.948-24.749 17.586-17.085 6.551-38.563-5.596-53.737 4.628-7.61 5.127-11.27 14.665-18.741 19.993-8.786 6.267-20.053 5.152-30.244 5.145-4.6-0.003-9.922-0.589-14.389-0.179-2.441 0.224-10.657 5.673-11.156 5.559 24.256 5.539 48.598 11.092 73.373 13.383 17.023 1.574 33.861 0.871 50.865 2.212 17.926 1.414 35.823 3.2 53.675 5.358 3.102 0.375 6.261 0.76 9.332 0.189 7.26-1.35 12.643-7.895 14.908-14.923 2.265-7.029 2.021-14.579 1.988-21.963-0.24-54.441 12.189-109.27 2.975-162.93-1.052-6.127-3.545-13.412-9.658-14.548-4.804-0.893-9.494 2.95-11.171 7.54-1.676 4.59-1.047 9.672-0.171 14.48 2.066 11.347 5.387 22.496 6.351 33.989 0.964 11.494-0.703 23.746-7.651 32.952-2.001 2.652-4.431 5.048-5.775 8.086-3.593 8.126 1.611 18.008-1.537 26.317-3.617 9.56-15.663 11.964-24.484 17.126"
           fill="#8dd9e6" /></g></g></g><g
     id="g20610"
     transform="matrix(1.25 0 0 -1.25 -758.36 928.96)"><g
       id="g20612"
       clip-path="url(#clipPath20614)"><g
         id="g20618"
         transform="translate(788.81 489.73)"><path
           id="path20620"
           d="m0 0 9.506 2.055c0.184-1.002 0.509-2.377 0.972-4.13 1.201-4.189 2.359-7.822 3.473-10.902 0.675-1.812 1.365-3.223 2.072-4.234l-0.823 17.961 9.56 2.004c-0.747-12.522-0.533-23.258 0.643-32.213l-8.599-2.481c-0.041 0.136-0.45 0.675-1.222 1.613l-4.79 6.614c-0.778 1.043-1.264 1.751-1.454 2.126 0.172-3.749 0.474-7.301 0.906-10.654l-8.598-2.534-1.646 34.775z"
           fill="#40bb6a" /></g><g
         id="g20622"
         transform="translate(830.35 483.86)"><path
           id="path20624"
           d="m0 0c-1.69-0.286-3.313-0.552-4.867-0.797-0.055-1.08-0.088-1.865-0.101-2.352l-0.051-2.298 3.879 0.752 3.819 0.905 0.512-3.211 0.619-3.258c-2.549-0.535-4.204-0.871-4.961-1.011-1.344-0.305-2.531-0.569-3.565-0.79l0.094-4.326 5.226 0.97 5.172 0.969 0.768-4.244 0.717-4.245c-2.699-0.297-5.721-0.784-9.063-1.459-3.376-0.746-7.09-1.647-11.146-2.703-0.121 1.874-0.281 4.614-0.482 8.222l-0.487 8.377c-0.404 7.286-0.709 12.802-0.915 16.55l9.27 1.52 9.32 1.522 0.765-4.189 0.769-4.244c-1.868-0.225-3.632-0.445-5.292-0.66"
           fill="#40bb6a" /></g><g
         id="g20626"
         transform="translate(871.74 492.65)"><path
           id="path20628"
           d="m0 0c-2.559-9.439-4.332-20.059-5.321-31.86l-9.332-2.411-2.671 15.008-1.369-14.514-8.462-0.911c-1.765 10.389-4.579 20.955-8.446 31.699l9.127 2.349 3.592-15.747 1.151 17.008 7.624 0.976 3.09-18.484 1.977 18.35 9.04-1.463z"
           fill="#40bb6a" /></g><g
         id="g20630"
         transform="translate(893.69 495.17)"><path
           id="path20632"
           d="m0 0c-0.344-6.139-0.468-11.396-0.372-15.773l4.547 0.991-0.721 13.427 10.291 1.985c-0.627-12.898-0.335-23.806 0.874-32.725l-9.478-2.625-0.644 12.908c-1.033-0.254-2.581-0.622-4.645-1.1 0.28-3.846 0.62-7.118 1.023-9.813l-9.375-2.621-1.738 33.363 10.238 1.983z"
           fill="#40bb6a" /></g><g
         id="g20634"
         transform="translate(909.85 494.34)"><path
           id="path20636"
           d="m0 0 4.806 1.003 4.705 0.946c-0.34-6.241-0.44-12.037-0.299-17.387 0.141-5.351 0.488-10.255 1.041-14.717l-4.321-1.346-4.38-1.192-1.552 32.693z"
           fill="#40bb6a" /></g><g
         id="g20638"
         transform="translate(929.55 462.9)"><path
           id="path20640"
           d="m0 0c-1.708 0.826-3.19 2.046-4.446 3.658-0.633 0.909-1.215 1.822-1.742 2.737-0.431 1.024-0.791 2.033-1.079 3.029-0.258 1.066-0.43 2.153-0.515 3.262-0.089 1.179-0.109 2.361-0.058 3.545 0.148 2.094 0.54 4.129 1.181 6.107 0.744 1.981 1.701 3.869 2.871 5.662 1.532 2.227 3.265 3.906 5.194 5.038 1.931 1.132 4.075 1.752 6.437 1.86 2.047 0.094 3.924-0.254 5.63-1.046 1.671-0.794 3.173-2.08 4.507-3.863l-2.423-2.875-2.531-2.882c-1.793 1.935-3.8 2.487-6.022 1.655-1.946-0.786-3.626-2.463-5.039-5.032-1.608-2.891-2.097-5.87-1.468-8.937 0.387-1.617 1.069-2.855 2.048-3.715 1.158-0.989 2.707-1.388 4.646-1.195 1.628 0.144 3.042 0.783 4.243 1.917 1.133 1.06 1.872 2.416 2.213 4.067-1.206-0.265-2.599-0.59-4.181-0.975-1.031-0.256-2.32-0.629-3.862-1.117l-0.001 3.444 0.001 3.391 7.848 1.769 7.857 1.612c0.289-0.995 0.443-2.084 0.462-3.266 0.051-1.111-0.014-2.33-0.197-3.66-0.261-1.127-0.577-2.218-0.945-3.278-0.369-1.061-0.827-2.073-1.373-3.037-1.507-2.817-3.392-4.955-5.653-6.417-2.298-1.495-4.956-2.312-7.974-2.451-2.014-0.092-3.891 0.238-5.629 0.993"
           fill="#40bb6a" /></g><g
         id="g20642"
         transform="translate(961.63 498.28)"><path
           id="path20644"
           d="m0 0c-0.344-6.139-0.469-11.396-0.372-15.773l4.546 0.99-0.72 13.428 10.291 1.985c-0.627-12.899-0.335-23.806 0.874-32.725l-9.478-2.626-0.644 12.909c-1.033-0.254-2.582-0.622-4.645-1.1 0.28-3.846 0.62-7.118 1.023-9.813l-9.375-2.621-1.739 33.363 10.239 1.983z"
           fill="#40bb6a" /></g><g
         id="g20646"
         transform="translate(821.27 444.17)"><path
           id="path20648"
           d="m0 0c0.393-1.629 0.742-3.47 1.05-5.527-1.253-0.484-3.287-1.267-6.106-2.352l-6.109-2.272c-0.524 2.153-1.634 3.192-3.329 3.114-2.067-0.095-3.958-1.138-5.671-3.127-1.096-1.591-1.374-3.038-0.837-4.341 0.409-0.832 1.7-1.196 3.874-1.097 1.113 0.051 2.458 0.246 4.036 0.584 2.525 0.54 4.792 0.857 6.807 0.95 4.875 0.222 8.064-1.013 9.569-3.704 0.517-0.827 0.927-1.709 1.237-2.652 0.772-2.939 0.151-6.206-1.861-9.803-2.386-4.729-6.475-8.767-12.269-12.113-2.946-1.781-6.114-2.748-9.504-2.904-3.074-0.141-6.259 0.376-9.55 1.553 0.662 2.898 1.926 7.177 3.791 12.839 2.173-1.069 4.293-1.555 6.359-1.461 0.901 0.042 1.847 0.27 2.836 0.688 1.735 0.398 3.326 1.001 4.777 1.813 1.97 1.044 2.824 2.092 2.564 3.143-0.271 1.263-1.625 1.837-4.062 1.726-1.59-0.074-3.882-0.445-6.879-1.112-2.989-0.828-5.305-1.279-6.948-1.355-2.172-0.1-3.887 0.222-5.141 0.961-2.704 1.043-4.169 2.887-4.397 5.533-0.658 5.119 1.873 11.264 7.599 18.43 5.877 7.331 11.616 11.287 17.219 11.861 5.498 0.518 9.147-2.607 10.945-9.375"
           fill="#40bb6a" /></g><g
         id="g20650"
         transform="translate(829.54 413.17)"><path
           id="path20652"
           d="m0 0c-2.386 4.562-3.67 9.417-3.853 14.56-0.118 4.879 0.654 9.456 2.318 13.726 1.657 4.378 3.97 7.803 6.936 10.277 3.277 2.645 6.916 3.768 10.918 3.367 4.424-0.382 9.04-2.612 13.848-6.693l-3.434-5.016-3.514-5.021c-4.698 2.863-8.391 2.906-11.077 0.13-2.336-2.339-3.34-5.917-3.013-10.733 0.481-4.704 1.964-8.088 4.448-10.151 2.931-2.522 6.519-2.039 10.768 1.45l7.319-8.507c-3.384-4.988-7.254-8.007-11.613-9.055-3.78-0.916-7.557-0.215-11.327 2.108-3.551 2.121-6.457 5.306-8.724 9.558"
           fill="#40bb6a" /></g><g
         id="g20654"
         transform="translate(885.2 438.02)"><path
           id="path20656"
           d="m0 0c-1.47 3.117-3.346 4.626-5.623 4.521-2.65-0.122-4.652-2.205-6.007-6.25-1.081-3.077-1.68-6.209-1.799-9.403 0.017-1.539 0.295-2.961 0.834-4.263 0.569-1.992 1.432-3.439 2.588-4.342 1.325-1.107 2.968-1.616 4.93-1.526 2.702 0.124 4.687 1.41 5.956 3.857 1.02 2.065 1.487 4.636 1.397 7.713-0.102 3.392-0.86 6.623-2.276 9.693m-21.718 8.084c3.789 6.546 9.048 9.975 15.779 10.283 5.776 0.265 10.693-2.138 14.748-7.21 2.251-2.764 3.844-5.667 4.78-8.702 0.936-3.038 1.434-6.387 1.497-10.048 0.072-6.211-1.521-12.018-4.776-17.425-3.84-6.602-9.099-10.056-15.777-10.363-5.882-0.269-10.826 2.187-14.834 7.366-1.907 2.195-3.412 4.942-4.519 8.237-0.999 3.246-1.501 6.674-1.508 10.286 0.026 6.373 1.562 12.231 4.61 17.576"
           fill="#40bb6a" /></g><g
         id="g20658"
         transform="translate(914.06 440.94)"><path
           id="path20660"
           d="m0 0-0.004-5.098c1.816 0.933 3.541 2.075 5.179 3.424 2.709 2.302 3.868 4.24 3.477 5.816-0.319 1.152-1.302 1.744-2.949 1.776-1.433-0.014-3.331-0.339-5.69-0.978-0.079-1.755-0.083-3.404-0.013-4.94m7.855 18.044c8.054 0.37 12.833-2.518 14.337-8.662 0.922-7.393-2.242-13.644-9.496-18.756 1.249-1.748 5.842-6.955 13.781-15.618-2.949-2.897-6.711-6.494-11.294-10.793l-14.669 19.4c0.24-6.414 0.691-12.235 1.357-17.463l-12.962-3.939c-0.428 25.523-1.318 42.635-2.674 51.335 8.638 2.732 15.843 4.231 21.62 4.496"
           fill="#40bb6a" /></g><g
         id="g20662"
         transform="translate(961.58 446.86)"><path
           id="path20664"
           d="m0 0c-2.582-0.437-5.06-0.843-7.432-1.217-0.084-1.65-0.136-2.847-0.154-3.592l-0.077-3.507 5.92 1.147 5.832 1.382 0.783-4.902 0.944-4.975c-3.892-0.815-6.419-1.33-7.575-1.542-2.051-0.467-3.864-0.868-5.441-1.206l0.142-6.605 7.978 1.481 7.898 1.477 1.174-6.477 1.093-6.483c-4.121-0.455-8.735-1.196-13.837-2.226-5.153-1.141-10.825-2.516-17.018-4.127-0.184 2.859-0.428 7.043-0.734 12.553l-0.745 12.79c-0.617 11.124-1.084 19.546-1.397 25.266l14.151 2.321 14.231 2.325 1.169-6.398 1.173-6.478c-2.851-0.343-5.545-0.679-8.078-1.007"
           fill="#40bb6a" /></g><g
         id="g20666"
         transform="translate(796.95 490.23)"><path
           id="path20668"
           d="m0 0 8.785 1.898c0.171-0.925 0.471-2.197 0.899-3.816 1.109-3.872 2.18-7.229 3.211-10.076 0.623-1.676 1.261-2.981 1.915-3.915l-0.762 16.602 8.837 1.851c-0.692-11.573-0.493-21.497 0.594-29.773l-7.949-2.293c-0.038 0.126-0.414 0.624-1.129 1.491l-4.426 6.113c-0.72 0.963-1.168 1.618-1.345 1.964 0.159-3.464 0.437-6.748 0.838-9.846l-7.946-2.342-1.522 32.142z"
           fill="#fff200" /></g><g
         id="g20670"
         transform="translate(835.34 484.81)"><path
           id="path20672"
           d="m0 0c-1.563-0.265-3.063-0.511-4.5-0.737-0.049-0.999-0.081-1.725-0.092-2.175l-0.048-2.123 3.585 0.695 3.531 0.837 0.473-2.968 0.572-3.012c-2.357-0.495-3.885-0.805-4.586-0.934-1.242-0.282-2.338-0.525-3.294-0.729l0.087-3.999 4.83 0.896 4.78 0.895 0.711-3.922 0.661-3.923c-2.495-0.276-5.287-0.725-8.376-1.349-3.119-0.689-6.554-1.523-10.302-2.498-0.111 1.731-0.26 4.263-0.444 7.599l-0.452 7.743c-0.373 6.734-0.657 11.832-0.846 15.295l8.566 1.406 8.616 1.407 0.709-3.873 0.71-3.921c-1.727-0.209-3.357-0.411-4.891-0.61"
           fill="#fff200" /></g><g
         id="g20674"
         transform="translate(873.6 492.92)"><path
           id="path20676"
           d="m0 0c-2.365-8.725-4.005-18.541-4.919-29.449l-8.626-2.227-2.468 13.871-1.265-13.415-7.822-0.842c-1.629 9.603-4.232 19.368-7.804 29.298l8.434 2.172 3.321-14.555 1.063 15.72 7.047 0.903 2.856-17.085 1.827 16.962 8.356-1.353z"
           fill="#fff200" /></g><g
         id="g20678"
         transform="translate(893.89 495.25)"><path
           id="path20680"
           d="m0 0c-0.318-5.673-0.433-10.532-0.344-14.58l4.202 0.916-0.665 12.412 9.512 1.835c-0.579-11.922-0.309-22.004 0.808-30.247l-8.761-2.427-0.596 11.931c-0.953-0.236-2.385-0.575-4.294-1.016 0.259-3.557 0.575-6.58 0.947-9.07l-8.665-2.423-1.607 30.836 9.463 1.833z"
           fill="#fff200" /></g><g
         id="g20682"
         transform="translate(908.82 494.49)"><path
           id="path20684"
           d="m0 0 4.441 0.927 4.349 0.876c-0.314-5.77-0.405-11.126-0.275-16.071 0.13-4.946 0.45-9.48 0.961-13.603l-3.994-1.244-4.048-1.101-1.434 30.216z"
           fill="#fff200" /></g><g
         id="g20686"
         transform="translate(927.03 465.43)"><path
           id="path20688"
           d="m0 0c-1.577 0.762-2.948 1.89-4.108 3.38-0.586 0.841-1.123 1.685-1.611 2.53-0.398 0.946-0.73 1.88-0.997 2.8-0.238 0.985-0.397 1.99-0.476 3.015-0.082 1.089-0.1 2.181-0.054 3.277 0.137 1.935 0.501 3.816 1.092 5.644 0.687 1.832 1.572 3.575 2.654 5.232 1.415 2.059 3.016 3.612 4.801 4.658 1.784 1.046 3.766 1.619 5.949 1.719 1.893 0.087 3.627-0.236 5.204-0.967 1.544-0.733 2.933-1.924 4.166-3.571l-2.241-2.658-2.338-2.662c-1.656 1.788-3.513 2.297-5.566 1.529-1.8-0.726-3.353-2.277-4.658-4.65-1.485-2.673-1.937-5.426-1.357-8.261 0.358-1.494 0.989-2.639 1.894-3.433 1.07-0.915 2.501-1.283 4.294-1.105 1.504 0.133 2.812 0.724 3.92 1.771 1.048 0.981 1.73 2.233 2.046 3.759-1.114-0.244-2.402-0.545-3.865-0.901-0.953-0.236-2.143-0.581-3.568-1.031l-0.001 3.182 0.001 3.135 7.254 1.635 7.261 1.49c0.268-0.921 0.41-1.927 0.428-3.018 0.047-1.028-0.014-2.155-0.183-3.385-0.241-1.041-0.532-2.049-0.874-3.03-0.339-0.98-0.763-1.916-1.268-2.807-1.394-2.603-3.135-4.58-5.226-5.929-2.123-1.384-4.58-2.138-7.371-2.266-1.86-0.085-3.596 0.22-5.202 0.918"
           fill="#fff200" /></g><g
         id="g20690"
         transform="translate(956.68 498.13)"><path
           id="path20692"
           d="m0 0c-0.319-5.673-0.433-10.532-0.344-14.58l4.201 0.916-0.665 12.412 9.512 1.835c-0.579-11.922-0.309-22.004 0.809-30.247l-8.762-2.427-0.596 11.931c-0.953-0.236-2.384-0.575-4.293-1.016 0.259-3.557 0.575-6.58 0.946-9.071l-8.664-2.422-1.607 30.836 9.463 1.833z"
           fill="#fff200" /></g><g
         id="g20694"
         transform="translate(826.95 448.12)"><path
           id="path20696"
           d="m0 0c0.363-1.504 0.687-3.208 0.972-5.108-1.159-0.448-3.039-1.17-5.644-2.174l-5.646-2.1c-0.486 1.99-1.511 2.949-3.078 2.877-1.91-0.087-3.659-1.05-5.242-2.891-1.012-1.469-1.27-2.806-0.772-4.01 0.378-0.768 1.571-1.106 3.58-1.014 1.028 0.048 2.272 0.226 3.73 0.539 2.333 0.5 4.429 0.792 6.291 0.878 4.505 0.206 7.454-0.935 8.844-3.423 0.478-0.763 0.858-1.581 1.145-2.451 0.712-2.717 0.139-5.735-1.72-9.06-2.205-4.373-5.986-8.105-11.34-11.196-2.723-1.646-5.652-2.542-8.786-2.685-2.841-0.13-5.783 0.347-8.826 1.435 0.612 2.679 1.78 6.634 3.505 11.866 2.007-0.987 3.966-1.437 5.877-1.349 0.833 0.038 1.706 0.251 2.622 0.636 1.603 0.368 3.074 0.925 4.415 1.675 1.819 0.966 2.609 1.935 2.369 2.906-0.251 1.167-1.502 1.698-3.754 1.595-1.471-0.068-3.59-0.412-6.358-1.028-2.763-0.765-4.905-1.182-6.422-1.251-2.009-0.093-3.592 0.203-4.753 0.886-2.499 0.965-3.853 2.67-4.063 5.115-0.609 4.731 1.732 10.41 7.024 17.034 5.43 6.777 10.735 10.432 15.915 10.964 5.082 0.479 8.454-2.411 10.115-8.666"
           fill="#fff200" /></g><g
         id="g20698"
         transform="translate(834.6 419.46)"><path
           id="path20700"
           d="m0 0c-2.206 4.216-3.393 8.703-3.562 13.456-0.108 4.511 0.605 8.74 2.142 12.689 1.532 4.045 3.67 7.21 6.412 9.496 3.029 2.446 6.392 3.484 10.092 3.114 4.088-0.353 8.355-2.415 12.799-6.187l-3.174-4.636-3.248-4.641c-4.343 2.647-7.756 2.688-10.24 0.119-2.158-2.159-3.087-5.468-2.783-9.919 0.444-4.347 1.814-7.475 4.111-9.383 2.708-2.331 6.024-1.882 9.951 1.34l6.766-7.861c-3.126-4.611-6.704-7.4-10.733-8.37-3.495-0.848-6.985-0.199-10.47 1.95-3.282 1.959-5.968 4.902-8.063 8.833"
           fill="#fff200" /></g><g
         id="g20702"
         transform="translate(886.04 442.44)"><path
           id="path20704"
           d="m0 0c-1.359 2.882-3.093 4.275-5.197 4.179-2.45-0.113-4.3-2.038-5.552-5.778-0.999-2.842-1.553-5.74-1.662-8.689 0.015-1.423 0.272-2.737 0.768-3.941 0.528-1.841 1.325-3.178 2.393-4.013 1.226-1.025 2.743-1.494 4.556-1.411 2.499 0.115 4.333 1.303 5.506 3.566 0.944 1.907 1.374 4.284 1.292 7.127-0.094 3.136-0.795 6.123-2.104 8.96m-20.073 7.472c3.501 6.05 8.362 9.218 14.583 9.504 5.339 0.244 9.884-1.977 13.633-6.664 2.079-2.555 3.552-5.237 4.418-8.043 0.864-2.807 1.325-5.902 1.382-9.288 0.067-5.739-1.404-11.107-4.416-16.105-3.548-6.102-8.407-9.294-14.58-9.576-5.436-0.25-10.007 2.018-13.711 6.807-1.762 2.029-3.154 4.568-4.177 7.612-0.923 3-1.387 6.17-1.394 9.507 0.025 5.891 1.445 11.305 4.262 16.246"
           fill="#fff200" /></g><g
         id="g20706"
         transform="translate(912.71 445.13)"><path
           id="path20708"
           d="m0 0-0.004-4.712c1.678 0.863 3.273 1.919 4.787 3.165 2.504 2.127 3.575 3.918 3.214 5.376-0.294 1.064-1.203 1.612-2.726 1.641-1.324-0.012-3.078-0.314-5.259-0.905-0.074-1.622-0.076-3.144-0.012-4.565m7.262 16.678c7.443 0.342 11.86-2.327 13.25-8.006 0.852-6.833-2.072-12.611-8.776-17.336 1.154-1.616 5.399-6.429 12.736-14.437-2.724-2.676-6.203-6.001-10.438-9.974l-13.559 17.931c0.221-5.929 0.64-11.308 1.254-16.14l-11.98-3.642c-0.395 23.59-1.218 39.407-2.471 47.448 7.984 2.525 14.644 3.912 19.984 4.156"
           fill="#fff200" /></g><g
         id="g20710"
         transform="translate(956.63 450.61)"><path
           id="path20712"
           d="m0 0c-2.387-0.405-4.676-0.78-6.87-1.125-0.075-1.527-0.125-2.632-0.142-3.321l-0.072-3.241 5.473 1.061 5.39 1.277 0.724-4.532 0.873-4.599c-3.599-0.753-5.934-1.228-7.002-1.424-1.895-0.431-3.572-0.803-5.03-1.114l0.133-6.106 7.373 1.37 7.299 1.365 1.085-5.988 1.012-5.99c-3.81-0.421-8.074-1.106-12.791-2.06-4.762-1.053-10.005-2.324-15.726-3.813-0.171 2.644-0.398 6.509-0.68 11.602l-0.69 11.822c-0.571 10.281-1.001 18.065-1.292 23.353l13.08 2.146 13.155 2.149 1.081-5.913 1.084-5.988c-2.636-0.318-5.124-0.629-7.467-0.931"
           fill="#fff200" /></g><g
         id="restart-btn"
         transform="translate(776.66 265.17)"><path
           id="path20716"
           d="m0 0c-0.732-1.669-2.352-2.762-3.979-3.583-12.666-6.396-28.003-1.216-42.036-3.318-4.774-0.715-10.872-1.733-13.355 2.406-0.729 1.214-0.944 2.659-1.136 4.062-2.012 14.651-3.198 29.416-3.551 44.201-0.028 1.165-0.044 2.366 0.39 3.447 1.171 2.918 4.88 3.667 8.006 4 13.396 1.425 26.792 2.849 40.188 4.274 2.301 0.245 4.737 0.469 6.831-0.516 3.837-1.805 4.865-6.691 5.381-10.9 1.617-13.19 2.846-26.428 3.685-39.69 0.093-1.48 0.171-3.025-0.424-4.383"
           fill="#459737" /></g><g
         id="g20718"
         transform="translate(753.76 286.04)"><path
           id="path20720"
           d="m0 0c2.395 1.985 5.286 3.719 7.506 5.754 0.925-4.295 3.33-8.029 5.218-11.935 3.525-7.289-3.56-0.258-4.289-1.462-1.505-2.487-2.147-4.977-4.449-6.889-2-1.66-4.537-2.964-7.106-3.434-6.108-1.117-12.403 1.292-17.453 4.907-1.131 0.81-2.231 1.694-3.068 2.806-1.551 2.061-2.063 4.727-2.161 7.305-0.199 5.292 1.249 10.729 4.532 14.885 3.284 4.156 8.487 6.883 13.779 6.666 5.292-0.218 10.458-3.618 12.273-8.594 0.32-0.877 0.538-1.843 0.278-2.74s-1.135-1.67-2.058-1.531c-2.5 5.119-8.887 7.98-14.371 6.436s-9.441-7.316-8.902-12.988c0.372-3.927 2.736-7.584 6.093-9.655 3.357-2.072 7.618-2.556 11.397-1.425 2.615 0.783 6.72 2.741 7.606 5.554-1.657 1.205-3.589 2.15-5.372 3.184-0.584 0.339-1.147 0.63-1.627 1.083 0.642 0.731 1.381 1.416 2.174 2.073"
           fill="#fff200" /></g><g
         id="leader-board"><g
           id="g20722"
           transform="translate(840.56 272.26)"><path
             id="path20724"
             d="m0 0c-0.758-1.567-2.344-2.554-3.926-3.281-12.321-5.657-26.782-0.167-40.256-1.676-4.584-0.513-10.443-1.269-12.667 2.772-0.653 1.185-0.807 2.572-0.941 3.918-1.401 14.061-2.01 28.202-1.822 42.332 0.014 1.113 0.042 2.261 0.494 3.278 1.223 2.744 4.79 3.328 7.787 3.534 12.842 0.886 25.684 1.771 38.525 2.656 2.206 0.152 4.54 0.279 6.505-0.736 3.6-1.859 4.408-6.561 4.751-10.598 1.076-12.652 1.779-25.336 2.11-38.029 0.037-1.416 0.057-2.895-0.56-4.17"
             fill="#ef2e32" /></g><g
           id="g20726"
           transform="translate(792.88 314.56)"><path
             id="path20728"
             d="m0 0c0.572-0.657 0.801-1.598 0.594-2.445-0.286-1.175-1.433-2.082-2.643-2.09-1.21-0.007-2.369 0.887-2.669 2.059-0.283 1.106 0.213 2.367 1.174 2.983 1.095 0.703 2.69 0.474 3.544-0.507"
             fill="#fff" /></g><g
           id="g20730"
           transform="translate(829.66 313.9)"><path
             id="path20732"
             d="m0 0c-0.253-0.375-0.729-0.519-1.169-0.627-3.434-0.844-6.985-1.064-10.514-1.28l-15.039-0.924c-1.742-0.107-3.587-0.194-5.131 0.622-0.854 0.452-1.615 1.536-1.059 2.327 0.432 0.616 1.33 0.586 2.083 0.588 1.832 0.007 3.606 0.588 5.386 1.025 7.506 1.846 15.372 1.174 23.071 0.49 0.657-0.058 1.347-0.128 1.888-0.505 0.542-0.376 0.853-1.17 0.484-1.716"
             fill="#fff" /></g><g
           id="g20734"
           transform="translate(792.88 303.33)"><path
             id="path20736"
             d="m0 0c0.572-0.657 0.801-1.598 0.594-2.445-0.286-1.175-1.433-2.082-2.643-2.09-1.21-0.007-2.369 0.887-2.669 2.059-0.283 1.106 0.213 2.367 1.174 2.983 1.095 0.703 2.69 0.474 3.544-0.507"
             fill="#fff" /></g><g
           id="g20738"
           transform="translate(829.66 302.67)"><path
             id="path20740"
             d="m0 0c-0.253-0.375-0.729-0.519-1.169-0.627-3.434-0.844-6.985-1.064-10.514-1.28l-15.039-0.924c-1.742-0.107-3.587-0.194-5.131 0.622-0.854 0.452-1.615 1.536-1.059 2.327 0.432 0.616 1.33 0.586 2.083 0.588 1.832 0.007 3.606 0.588 5.386 1.025 7.506 1.846 15.372 1.174 23.071 0.49 0.657-0.058 1.347-0.128 1.888-0.505 0.542-0.376 0.853-1.17 0.484-1.716"
             fill="#fff" /></g><g
           id="g20742"
           transform="translate(793.55 293.87)"><path
             id="path20744"
             d="m0 0c0.572-0.657 0.801-1.598 0.594-2.445-0.286-1.175-1.433-2.082-2.643-2.09-1.21-0.007-2.369 0.887-2.669 2.059-0.283 1.106 0.213 2.367 1.174 2.983 1.095 0.703 2.69 0.474 3.544-0.507"
             fill="#fff" /></g><g
           id="g20746"
           transform="translate(830.33 293.2)"><path
             id="path20748"
             d="m0 0c-0.253-0.375-0.729-0.519-1.169-0.627-3.434-0.844-6.985-1.064-10.515-1.28-5.012-0.308-10.025-0.616-15.038-0.924-1.742-0.107-3.587-0.194-5.131 0.622-0.854 0.452-1.615 1.536-1.059 2.327 0.432 0.616 1.33 0.586 2.083 0.588 1.832 0.007 3.606 0.588 5.386 1.025 7.506 1.846 15.372 1.174 23.071 0.49 0.657-0.058 1.347-0.128 1.888-0.505 0.542-0.376 0.853-1.17 0.484-1.716"
             fill="#fff" /></g><g
           id="g20750"
           transform="translate(794.96 275.35)"><path
             id="path20752"
             d="m0 0c0.572-0.657 0.801-1.598 0.594-2.445-0.286-1.175-1.433-2.082-2.643-2.09-1.21-0.007-2.369 0.887-2.669 2.059-0.283 1.106 0.213 2.367 1.174 2.983 1.095 0.703 2.69 0.474 3.544-0.507"
             fill="#fff" /></g><g
           id="g20754"
           transform="translate(831.74 274.68)"><path
             id="path20756"
             d="m0 0c-0.253-0.375-0.729-0.519-1.169-0.627-3.434-0.843-6.985-1.064-10.514-1.28l-15.039-0.924c-1.742-0.107-3.587-0.194-5.131 0.622-0.854 0.452-1.615 1.536-1.059 2.327 0.432 0.616 1.33 0.586 2.083 0.588 1.832 0.007 3.606 0.588 5.386 1.025 7.506 1.846 15.372 1.174 23.071 0.49 0.657-0.058 1.347-0.128 1.888-0.505 0.542-0.376 0.853-1.17 0.484-1.716"
             fill="#fff" /></g><g
           id="g20758"
           transform="translate(793.55 284.76)"><path
             id="path20760"
             d="m0 0c0.572-0.657 0.801-1.598 0.594-2.445-0.286-1.175-1.433-2.082-2.643-2.09-1.21-0.007-2.369 0.887-2.669 2.059-0.283 1.106 0.213 2.367 1.174 2.983 1.095 0.703 2.69 0.474 3.544-0.507"
             fill="#fff" /></g><g
           id="g20762"
           transform="translate(830.33 284.09)"><path
             id="path20764"
             d="m0 0c-0.253-0.375-0.729-0.519-1.169-0.627-3.434-0.844-6.985-1.064-10.515-1.28-5.012-0.308-10.025-0.616-15.038-0.924-1.742-0.107-3.587-0.194-5.131 0.622-0.854 0.452-1.615 1.536-1.059 2.327 0.432 0.616 1.33 0.586 2.083 0.588 1.832 0.007 3.606 0.588 5.386 1.025 7.506 1.846 15.372 1.174 23.071 0.49 0.657-0.058 1.347-0.128 1.888-0.505 0.542-0.376 0.853-1.17 0.484-1.716"
             fill="#fff" /></g></g></g></g><g
     id="pledge-project"
     transform="translate(175.23 -67.812)"><g
       id="g20766"
       transform="matrix(1.25 0 0 -1.25 389.02 650.79)"><path
         id="path20768"
         d="m0 0c1.777 17.411 1.58 35.022-0.585 52.389-0.109 0.871-0.252 1.805-0.858 2.439-0.692 0.723-1.782 0.851-2.778 0.937-38.302 3.287-77.86 5.461-116.1-1.203-3.293-0.574-6.819-1.417-8.976-3.969-2.499-2.956-2.395-7.249-2.084-11.106 0.594-7.366 2.58-15.127 2.439-22.479-0.099-5.175-2.75-10.621-0.257-15.732 4.313-8.832 25.652-1.839 33.264-2.142 9.003 0.628 18.023 1.255 27.044 0.99 11.013-0.324 21.938-1.977 32.915-2.928 10.286-0.892 27.951-5.695 35.958 2.658 0.009 0.049 0.014 0.097 0.019 0.146"
         fill="#50ade5" /></g><text
       id="text20770"
       font-size="20.263px"
       transform="matrix(0.99999,0.0037199,-0.0037199,0.99999,0,0)"
       y="612.2832"
       x="248.83308"
       style="font-size:20.26300049px;font-family:ObelixPro;fill:#ffffff" />
<text
       xml:space="preserve"
       style="font-style:normal;font-weight:normal;font-size:20px;line-height:125%;font-family:sans-serif;letter-spacing:0px;word-spacing:0px;fill:#ffffff;fill-opacity:1;stroke:none;stroke-width:1px;stroke-linecap:butt;stroke-linejoin:miter;stroke-opacity:1"
       x="258.4296"
       y="607.63428"
       id="text39793"
       sodipodi:linespacing="125%"><tspan
         sodipodi:role="line"
         id="tspan39795"
         x="258.4296"
         y="607.63428">pledge to </tspan><tspan
         sodipodi:role="line"
         x="258.4296"
         y="632.63428"
         id="tspan39797">a project</tspan></text>
</g><g
     id="g20776"
     transform="matrix(1.25 0 0 -1.25 -758.36 928.96)"><g
       id="g20778"
       clip-path="url(#clipPath20780)"><g
         id="g20784"
         transform="translate(1048.6 326.46)"><path
           id="path20786"
           d="m0 0c1.34 0.461 2.521-1.059 2.91-2.422 1.098-3.849-0.038-8.099 1.221-11.899 0.3-0.906 0.731-1.766 1.016-2.678 0.507-1.624 0.531-3.353 0.551-5.054 0.093-7.925 0.186-15.85 0.279-23.774 0.013-1.092 0.008-2.25-0.568-3.178-0.576-0.927-1.947-1.444-2.79-0.752 0.43 7.119 0.844 14.401-1.121 21.257-0.783 2.731-1.95 5.497-1.526 8.306 0.146 0.972 0.483 1.926 0.441 2.907-0.043 1.007-0.478 1.947-0.833 2.89-1.735 4.608-1.581 9.897 0.42 14.397"
           fill="#7fd1eb" /></g></g></g><g
     id="g20788"
     transform="matrix(1.25 0 0 -1.25 -758.36 928.96)"><g
       id="g20790"><g
         id="g20796"><g
           id="g20798"><path
             id="path20810"
             fill="url(#linearGradient20800)"
             d="m818.63 559.32s0.416 2.251-0.849 2.781c-1.266 0.53-3.453 1.423-10.968-4.993 0 0 0.862 1.95-0.745 2.646-1.607 0.697-3.082 0.663-8.65-4.378-5.568-5.04-12.295 0.089-10.499 3.614 0 0-3.91-0.215-3.55-4.872 0 0-4.543 1.445-3.284 7.346 0 0-2.168-0.808-2.71-4.013-0.541-3.205 0.463-4.792 1.603-6.276 0 0-2.074-0.092-3.215 1.392 0 0-0.48-5.518 4.187-6.008 0 0-2.648-3.536 5.09-4.672 0 0-0.802-4.263 7.682-5.255 0 0-2.243-3.223 5.194-4.806 0 0 2.282-0.178 2.332-1.64 0.051-1.463 3.005-3.912 7.841-1.272 0 0-2.325-2-1.216-3.722 1.108-1.723 6.887-1.147 11.64 2.72 0 0-1.568-2.707-0.469-3.579s5.934 1.769 8.334 6.187c0 0-1.207-4.573 4.978-0.896 6.184 3.678 8.285 10.439 8.285 10.439s-0.375-2.863 0.952-2.916c1.328-0.052 6.173 1.739 9.118 14.941 2 1.321-0.496 4.661-4.593 2.05-6.981-4.448-16.151-0.178-16.573 4.003 0 0 3.539 2.933-0.661 4.212-0.542 0.165-1.099 0.237-1.657 0.237-3.764 0-7.597-3.27-7.597-3.27" /></g></g></g></g><g
     id="g20812"
     transform="matrix(1.25 0 0 -1.25 -758.36 928.96)"><g
       id="g20814"
       clip-path="url(#clipPath20816)"><g
         id="g20820"><g
           id="g20846"><g
             id="g20848"
             clip-path="url(#clipPath20824)"><g
               id="g20850"><g
                 id="g20852"><g
                   id="g20854"><g
                     id="g20856"><path
                       id="path20858"
                       fill="url(#linearGradient20832)"
                       d="m854.94 552.51c1.292 2.019-2.342 4.06-5.029 0.013-4.58-6.897-14.693-6.709-16.774-3.059 0 0 2.047 4.116-2.311 3.583-4.358-0.534-7.231-6.524-7.231-6.524s-0.532 2.227-1.903 2.198c-1.371-0.028-3.734-0.098-8.003-9.008 0 0-0.002 2.131-1.754 2.116-1.751-0.015-1.762 0.62-6.276-5.382-2.866-3.81-7.149-3.799-7.146 4.096 0 0-3.922 0.255-5.297-2.512 0 0-2.594 1.043-1.755 4.711 0 0-3.312-0.023-4.641-2.509-0.984 1.419-0.071 3.224-0.071 3.224s-7.347-0.492 0.915-8.495c2.334-2.261 1.34-11.061 2.984-11.956 0 0-1.86-0.924-3.503-0.029 0 0 1.796-5.24 6.262-3.797 0 0-0.987-4.305 6.546-2.208 0 0 0.995-4.222 9.153-1.689 0 0-0.743-3.857 6.696-2.289 0 0 2.158 0.762 2.798-0.555 0.639-1.316 4.333-2.359 7.682 2.016 0 0-1.314-2.77 0.397-3.896 1.712-1.125 6.761 1.743 9.54 7.204 0 0-0.337-3.11 1.021-3.461 1.358-0.352 4.708 4.022 5.111 9.033 0 0 0.751-4.67 4.914 1.199 4.164 5.869 3.343 12.901 3.343 12.901s0.817-2.769 2.052-2.279 4.939 4.091 2.28 17.354" /></g></g></g></g></g></g></g><g
         id="g20860"><g
           id="g20886"><g
             id="g20888"
             clip-path="url(#clipPath20864)"><g
               id="g20890"><g
                 id="g20892"><g
                   id="g20894"><g
                     id="g20896"><path
                       id="path20898"
                       fill="url(#linearGradient20872)"
                       d="m870.87 549.67c1.999 1.321-0.496 4.661-4.593 2.05-6.981-4.449-16.151-0.178-16.573 4.002 0 0 3.539 2.933-0.661 4.212s-9.255-3.032-9.255-3.032 0.417 2.25-0.849 2.78c-1.265 0.53-3.453 1.424-10.967-4.991 0 0 0.862 1.949-0.745 2.645-1.608 0.696-3.083 0.662-8.65-4.378-5.568-5.041-12.296 0.088-10.499 3.614 0 0-3.911-0.215-3.551-4.873 0 0-4.542 1.445-3.283 7.347 0 0-2.168-0.808-2.71-4.013s0.463-4.792 1.603-6.277c0 0-2.074-0.091-3.214 1.393 0 0-0.482-5.518 4.186-6.009 0 0-2.648-3.535 5.09-4.671 0 0-0.802-4.263 7.682-5.255 0 0-2.243-3.224 5.193-4.806 0 0 2.282-0.178 2.333-1.641 0.051-1.462 3.005-3.912 7.841-1.271 0 0-2.325-2-1.216-3.723 1.108-1.722 6.886-1.146 11.64 2.72 0 0-1.569-2.706-0.47-3.578s5.935 1.769 8.334 6.186c0 0-1.207-4.573 4.978-0.895 6.185 3.677 8.286 10.439 8.286 10.439s-0.376-2.863 0.952-2.915c1.327-0.053 6.173 1.738 9.118 14.94" /></g></g></g></g></g></g></g><g
         id="g20900"><g
           id="g20926"><g
             id="g20928"
             clip-path="url(#clipPath20904)"><g
               id="g20930"><g
                 id="g20932"><g
                   id="g20934"><g
                     id="g20936"><path
                       id="path20938"
                       fill="url(#linearGradient20912)"
                       d="m833.01 561.41c0.184-0.631-7.908 2.601-13.622-8.146-5.714-10.749-15.092-5.758-18.091-0.496 0 0 0.274-8.706 10.552-10.994s12.083 4.045 13.693 7.888c0 0 1.125-8.546-6.643-12.044 0 0 14.505-4.966 18.515 10.115 0 0-2.47-8.188-1.104-12.167s-1.839-10.973-8.6-9.714c0 0 8.788-6.639 12.759 0.546s0.711 16.263 8.331 19.348c0 0-1.712-2.178 0.697-9.091 0 0 7.281 3.44 1.578 14.79s-13.981 12.922-12.936 25.575c0 0-8.475-4.174-5.129-15.61" /></g></g></g></g></g></g></g></g></g><g
     id="g20940"
     transform="matrix(1.25 0 0 -1.25 -758.36 928.96)"><g
       id="g20942"><g
         id="g20948"><g
           id="g20950"><path
             id="path20962"
             fill="url(#linearGradient20952)"
             d="m971.73 560.98c0.122 4.669-3.794 4.686-3.794 4.686 1.973-3.43-4.485-8.895-10.302-4.145s-7.292 4.71-8.861 3.932c-1.57-0.777-0.61-2.679-0.61-2.679-7.831 6.024-9.971 5.02-11.207 4.426-1.237-0.593-0.707-2.82-0.707-2.82s-5.267 4.049-9.397 2.557c-4.129-1.49-0.445-4.24-0.445-4.24-0.209-4.196-9.15-8.928-16.349-4.84-4.224 2.399-6.546-1.064-4.482-2.281 3.614-13.036 8.544-14.578 9.867-14.458 1.324 0.121 0.803 2.961 0.803 2.961s2.441-6.646 8.805-10.004c6.365-3.358 4.927 1.148 4.927 1.148 2.621-4.29 7.585-6.682 8.638-5.755s-0.651 3.55-0.651 3.55c4.944-3.619 10.744-3.9 11.763-2.123 1.02 1.777-1.403 3.656-1.403 3.656 4.963-2.392 7.789 0.205 7.766 1.668-0.025 1.464 2.245 1.758 2.245 1.758 7.346 1.958 4.942 5.064 4.942 5.064 8.423 1.422 7.405 5.639 7.405 5.639 7.669 1.529 4.846 4.925 4.846 4.925 4.636 0.727 3.874 6.214 3.874 6.214-1.063-1.541-3.139-1.554-3.139-1.554 1.063 1.54 1.985 3.177 1.282 6.349-0.705 3.174-2.912 3.869-2.912 3.869 1.559-5.829-2.904-7.503-2.904-7.503" /></g></g></g></g><g
     id="g20964"
     transform="matrix(1.25 0 0 -1.25 -758.36 928.96)"><g
       id="g20966"
       clip-path="url(#clipPath20968)"><g
         id="g20972"><g
           id="g20998"><g
             id="g21000"
             clip-path="url(#clipPath20976)"><g
               id="g21002"><g
                 id="g21004"><g
                   id="g21006"><g
                     id="g21008"><path
                       id="path21010"
                       fill="url(#linearGradient20984)"
                       d="m900.33 555.73c-1.393 1.95 2.133 4.174 5.023 0.269 4.925-6.654 15.016-5.952 16.907-2.2 0 0-2.253 4.005 2.126 3.695 4.379-0.311 7.554-6.147 7.554-6.147s0.417 2.251 1.789 2.292c1.371 0.042 3.734 0.093 8.451-8.589 0 0-0.106 2.129 1.643 2.203 1.75 0.074 1.729 0.709 6.543-5.056 3.056-3.659 7.332-3.43 6.927 4.455 0 0 3.905 0.454 5.419-2.239 0 0 2.537 1.173 1.512 4.794 0 0 3.309 0.145 4.764-2.269 0.91 1.467-0.094 3.223-0.094 3.223s7.363-0.118-0.481-8.53c-2.216-2.378-0.775-11.115-2.372-12.093 0 0 1.905-0.829 3.501 0.149 0 0-1.528-5.324-6.061-4.111 0 0 1.205-4.249-6.426-2.538 0 0-0.778-4.267-9.054-2.153 0 0 0.938-3.814-6.571-2.627 0 0-2.194 0.651-2.766-0.696-0.571-1.347-4.207-2.577-7.775 1.622 0 0 1.454-2.7-0.198-3.911-1.652-1.212-6.841 1.396-9.894 6.708 0 0 0.495-3.088-0.844-3.508-1.338-0.421-4.907 3.777-5.564 8.761 0 0-0.512-4.702-4.969 0.947-4.457 5.65-3.996 12.714-3.996 12.714s-0.674-2.806-1.933-2.38c-1.258 0.426-5.141 3.834-3.161 17.215" /></g></g></g></g></g></g></g><g
         id="g21012"><g
           id="g21038"><g
             id="g21040"
             clip-path="url(#clipPath21016)"><g
               id="g21042"><g
                 id="g21044"><g
                   id="g21046"><g
                     id="g21048"><path
                       id="path21050"
                       fill="url(#linearGradient21024)"
                       d="m884.57 552.09c-2.064 1.218 0.258 4.68 4.482 2.281 7.199-4.087 16.14 0.644 16.348 4.841 0 0-3.684 2.749 0.446 4.24 4.129 1.491 9.397-2.557 9.397-2.557s-0.531 2.226 0.706 2.82c1.236 0.593 3.376 1.597 11.208-4.427 0 0-0.961 1.903 0.609 2.68s3.045 0.818 8.862-3.932 12.275 0.714 10.301 4.144c0 0 3.916-0.016 3.794-4.686 0 0 4.463 1.675 2.905 7.504 0 0 2.207-0.696 2.911-3.869s-0.219-4.81-1.282-6.35c0 0 2.077 0.014 3.14 1.554 0 0 0.761-5.486-3.875-6.214 0 0 2.824-3.396-4.845-4.924 0 0 1.017-4.217-7.405-5.639 0 0 2.403-3.106-4.942-5.065 0 0-2.27-0.294-2.246-1.757s-2.802-4.061-7.766-1.669c0 0 2.423-1.879 1.404-3.656s-6.819-1.495-11.763 2.123c0 0 1.704-2.622 0.65-3.549-1.053-0.927-6.017 1.465-8.638 5.754 0 0 1.439-4.506-4.926-1.148-6.364 3.358-8.806 10.004-8.806 10.004s0.521-2.84-0.802-2.96c-1.324-0.12-6.254 1.422-9.867 14.457" /></g></g></g></g></g></g></g><g
         id="g21052"><g
           id="g21078"><g
             id="g21080"
             clip-path="url(#clipPath21056)"><g
               id="g21082"><g
                 id="g21084"><g
                   id="g21086"><g
                     id="g21088"><path
                       id="path21090"
                       fill="url(#linearGradient21064)"
                       d="m921.78 565.73c-0.152-0.639 7.766 3.001 14.019-7.442s15.366-4.982 18.093 0.426c0 0 0.17-8.709-9.979-11.517-10.148-2.808-12.273 3.424-14.077 7.181 0 0-0.688-8.592 7.248-11.69 0 0-14.234-5.698-19.006 9.159 0 0 2.884-8.052 1.722-12.095-1.161-4.044 2.396-10.866 9.083-9.264 0 0-8.438-7.078-12.77-0.104-4.331 6.973-1.538 16.206-9.305 18.899 0 0 1.821-2.088-0.233-9.115 0 0-7.447 3.065-2.329 14.691 5.118 11.625 13.305 13.616 11.617 26.2 0 0 8.677-3.737 5.917-15.329" /></g></g></g></g></g></g></g></g></g><g
     id="g21092"
     transform="matrix(1.25 0 0 -1.25 -758.36 928.96)"><g
       id="g21094"
       clip-path="url(#clipPath21096)"><g
         id="g21100"
         transform="translate(877.82 591.21)"><path
           id="path21102"
           d="m0 0c-10.059 0-19.281-3.58-26.465-9.533-2.186 3.213-5.271 5.815-8.832 7.375-2.541 1.114-5.731 1.625-7.915-0.086-0.798-0.624-1.375-1.489-1.843-2.387-0.927-1.783-1.476-3.856-1.019-5.813 0.456-1.957 2.111-3.711 4.117-3.827 0.989-0.057 1.958 0.269 2.878 0.638 0.661 0.266 1.337 0.574 1.792 1.122 0.704 0.848 0.721 2.063 0.592 3.158-0.132 1.124-0.477 2.37-1.469 2.913-0.725 0.397-1.669 0.294-2.347-0.178-0.678-0.473-1.092-1.272-1.183-2.094-0.1-0.907 0.239-1.924 1.04-2.361s2.024 0.014 2.132 0.92c0.029 0.239-0.207 0.564-0.381 0.397 0.091-0.263 0.043-0.57-0.122-0.794-0.687-0.038-1.349 0.542-1.402 1.228s0.513 1.36 1.198 1.427c1.197 0.117 1.934-1.32 2.008-2.521 0.052-0.827-0.09-1.756-0.738-2.273-0.468-0.373-1.11-0.451-1.706-0.395-2.62 0.243-4.601 2.906-4.583 5.538 0.006 0.981 0.259 1.993 0.893 2.742 1.257 1.485 3.584 1.491 5.415 0.833 4.029-1.448 6.843-5.582 7.016-9.859-6.576-7.344-10.58-17.04-10.58-27.675 0-22.922 16.792-43.74 37.455-41.504 35.768 3.871 45.554 18.582 45.554 41.504 0 22.923-18.583 41.505-41.505 41.505"
           fill="#4abc39" /></g><g
         id="g21104"><g
           id="g21160"><g
             id="g21162"
             clip-path="url(#clipPath21108)"><g
               id="g21164"><g
                 id="g21166"
                 clip-path="url(#clipPath21112)"><g
                   id="g21168"><g
                     id="g21172"
                     mask="url(#mask21134)"><g
                       id="g21174"><path
                         id="path21176"
                         fill="url(#radialGradient21146)"
                         d="m966.06 553.11c0-48.735-39.508-88.244-88.243-88.244-48.736 0-88.245 39.509-88.245 88.244s39.509 88.243 88.245 88.243c48.735 0 88.243-39.508 88.243-88.243" /></g></g></g></g></g></g></g></g><g
         id="g21178"
         transform="translate(875.31 552.34)"><path
           id="path21180"
           d="m0 0c0-7.66-6.209-12.754-13.869-12.754s-13.869 6.209-13.869 13.869c0 7.659 5.405 13.184 13.064 13.184 7.66 0 14.674-6.639 14.674-14.299"
           fill="#fff" /></g><g
         id="g21182"
         transform="translate(872.63 553.45)"><path
           id="path21184"
           d="m0 0c0-6.182-5.011-11.193-11.193-11.193s-11.194 5.011-11.194 11.193 5.012 11.193 11.194 11.193 11.193-5.011 11.193-11.193"
           fill="#100f0d" /></g><g
         id="g21186"
         transform="translate(866.64 556.34)"><path
           id="path21188"
           d="m0 0c0-2.873-2.329-5.203-5.203-5.203-2.873 0-5.203 2.33-5.203 5.203s2.33 5.203 5.203 5.203c2.874 0 5.203-2.33 5.203-5.203"
           fill="#fff" /></g><g
         id="g21190"
         transform="translate(870.07 550.33)"><path
           id="path21192"
           d="m0 0c-0.008-1.372-1.127-2.478-2.499-2.471-1.372 0.008-2.478 1.127-2.471 2.499 0.008 1.373 1.127 2.479 2.499 2.471 1.373-0.008 2.479-1.127 2.471-2.499"
           fill="#fff" /></g><g
         id="g21194"
         transform="translate(877.33 603.19)"><path
           id="path21196"
           d="m0 0c-19.799 0-35.849 2.957-35.849 6.604s16.05 6.603 35.849 6.603 35.849-2.956 35.849-6.603-16.05-6.604-35.849-6.604m0.489 15.933c-22.307 0-40.391-4.975-40.391-11.111 0-6.137 18.084-11.111 40.391-11.111s40.391 4.974 40.391 11.111c0 6.136-18.084 11.111-40.391 11.111"
           fill="#fff200" /></g></g></g><g
     id="g21198"
     transform="matrix(1.25 0 0 -1.25 -758.36 928.96)"><g
       id="g21200"
       clip-path="url(#clipPath21202)"><g
         id="g21206"
         transform="translate(882.58 607.1)"><path
           id="path21208"
           d="m0 0-3.773-12.299h8.175l2.307 11.6-6.709 0.699z"
           fill="#fff" /></g></g></g><g
     id="g21210"
     transform="matrix(1.25 0 0 -1.25 -758.36 928.96)"><g
       id="g21212"
       clip-path="url(#clipPath21214)"><g
         id="g21218"
         transform="translate(906.79 554.61)"><path
           id="path21220"
           d="m0 0c0-7.66-6.209-13.869-13.869-13.869s-13.751 4.428-13.751 12.088 6.091 14.492 13.751 14.492 13.869-5.051 13.869-12.711"
           fill="#fff" /></g><g
         id="g21222"
         transform="translate(903.89 554.61)"><path
           id="path21224"
           d="m0 0c0-6.06-4.913-10.973-10.973-10.973s-10.973 4.913-10.973 10.973 4.913 10.973 10.973 10.973 10.973-4.913 10.973-10.973"
           fill="#100f0d" /></g><g
         id="g21226"
         transform="translate(898.02 557.44)"><path
           id="path21228"
           d="m0 0c0-2.817-2.284-5.1-5.1-5.1-2.817 0-5.101 2.283-5.101 5.1s2.284 5.1 5.101 5.1c2.816 0 5.1-2.283 5.1-5.1"
           fill="#fff" /></g><g
         id="g21230"
         transform="translate(901.38 551.57)"><path
           id="path21232"
           d="m0 0c0-1.345-1.091-2.436-2.436-2.436s-2.436 1.091-2.436 2.436 1.091 2.436 2.436 2.436 2.436-1.091 2.436-2.436"
           fill="#fff" /></g><g
         id="g21234"><g
           id="g21254"><g
             id="g21256"
             opacity=".32001"
             clip-path="url(#clipPath21238)"><g
               id="g21258"><g
                 id="g21260"><g
                   id="g21262"><g
                     id="g21264"><path
                       id="path21266"
                       fill="url(#radialGradient21246)"
                       d="m877.82 619.12c-22.307 0-40.391-4.974-40.391-11.111 0-4.568 10.03-8.488 24.358-10.193 1.299-0.155 2.427 0.941 2.275 2.239-0.073 0.621-0.129 1.244-0.17 1.867-0.066 1.001-0.85 1.808-1.85 1.895-12.151 1.057-20.559 3.335-20.559 5.974 0 3.647 16.05 6.604 35.848 6.604 19.799 0 35.849-2.957 35.849-6.604 0-2.431-7.139-4.554-17.765-5.699-0.947-0.102-1.705-0.846-1.809-1.792-0.064-0.589-0.159-1.27-0.26-1.925-0.207-1.347 0.95-2.516 2.3-2.333 13.365 1.811 22.565 5.592 22.565 9.967 0 6.137-18.083 11.111-40.391 11.111" /></g></g></g></g></g></g></g><g
         id="g21268"
         transform="translate(877.82 591.21)"><path
           id="path21270"
           d="m0 0s35.587-10.59 35.364-40.223c-0.262-34.764-35.364-41.947-35.364-41.947s43.91 0.283 41.505 43.34c-1.953 34.944-37.273 39.043-41.505 38.83"
           fill="#7dcb29" /></g><g
         id="g21272"
         transform="translate(900.71 579.13)"><path
           id="path21274"
           d="m0 0c0.424-0.742 0.679-1.713 0.2-2.42-0.165-0.243-0.403-0.429-0.654-0.582-1.007-0.615-2.301-0.737-3.406-0.322-1.689 0.635-2.707 2.311-3.701 3.817-1.361 2.062-2.969 4.055-5.14 5.232 1.581-0.136 3.163-0.272 4.744-0.409 0.835-0.072 1.684-0.147 2.466-0.449 0.9-0.348 1.659-0.977 2.4-1.595 1.159-0.966 2.343-1.962 3.091-3.272"
           fill="#fff" /></g><g
         id="g21276"
         transform="translate(903.26 571.9)"><path
           id="path21278"
           d="m0 0c0.505 0.317 0.803 0.937 0.734 1.53s-0.501 1.128-1.066 1.321c-0.277 0.094-0.574 0.111-0.857 0.187-0.201 0.053-0.398 0.138-0.606 0.133-0.511-0.013-0.852-0.556-0.927-1.061-0.106-0.712 0.15-1.485 0.706-1.942 0.556-0.458 1.406-0.551 2.016-0.168"
           fill="#fff" /></g><g
         id="g21280"
         transform="translate(906.71 569.8)"><path
           id="path21282"
           d="m0 0c-0.009-0.181-0.077-0.358-0.193-0.497-0.224-0.271-0.629-0.374-0.956-0.245-0.571 0.226-0.662 1.155-0.146 1.488s1.324-0.133 1.295-0.746"
           fill="#fff" /></g><g
         id="g21284"
         transform="translate(850.78 578.01)"><path
           id="path21286"
           d="m0 0c2.372 2.959 5.044 5.909 8.601 7.224 1.718 0.635 3.953 0.716 5.076-0.732 1.118-1.44 0.453-3.656-0.876-4.903-1.33-1.248-3.134-1.819-4.805-2.546-5.82-2.534-10.568-7.434-12.917-13.33-0.438-1.101-0.828-2.283-1.704-3.081-0.875-0.798-2.433-0.997-3.161-0.063-0.617 0.791-0.358 1.939 0.029 2.864 0.52 1.241 1.215 2.399 1.928 3.539 2.392 3.824 5.007 7.509 7.829 11.028"
           fill="#7dcb29" /></g><g
         id="g21288"
         transform="translate(850.21 581.6)"><path
           id="path21290"
           d="m0 0c0.017-0.31 0.034-0.62 0.05-0.931 0.019-0.35-0.233-0.864-0.513-0.652-0.199 0.898-0.686 1.73-1.372 2.344-0.386 0.345-0.85 0.646-1.049 1.124-0.091 0.215-0.121 0.456-0.245 0.654-0.234 0.376-0.725 0.488-1.066 0.769-0.565 0.465-0.652 1.324-1.177 1.833-0.249 0.242-0.576 0.384-0.895 0.52-1.068 0.458-2.137 0.916-3.205 1.374-0.487 0.209-0.986 0.421-1.516 0.458-0.933 0.067-1.925-0.407-2.771-0.007 1.596 0.343 3.298 0.546 4.833-0.012 0.263-0.096 0.518-0.214 0.779-0.316 0.204-0.079 0.412-0.15 0.615-0.233 0.447-0.184 0.867-0.428 1.284-0.671 0.546-0.318 1.092-0.637 1.602-1.009 1.103-0.805 2.022-1.856 2.703-3.04 0.294-0.511 0.589-1.088 1.135-1.31 0.22-0.089 0.48-0.121 0.638-0.298 0.14-0.158 0.159-0.386 0.17-0.597"
           fill="#7dcb29" /></g><g
         id="g21292"
         transform="translate(1047.7 542.81)"><path
           id="path21294"
           d="m0 0c3.777 6.852 8.445 13.434 14.897 17.862 6.451 4.427 14.953 6.415 22.278 3.663 6.727-2.528 11.759-8.651 18.686-10.564 10.026-2.769 21.435 6.158 21.159 16.555-1.271-6.819-10.407-9.182-16.952-6.885s-11.641 7.482-17.788 10.695c-14.2 7.424-33.696 2.152-42.219-11.417-3.818-6.078-5.157-14.854-0.061-19.909"
           fill="#fff200" /></g><g
         id="g21296"
         transform="translate(637.89 480.23)"><path
           id="path21298"
           d="m0 0c1.865 5.212 4.058 10.306 6.56 15.243 0.972 1.916 2.079 3.903 3.934 4.986 3.294 1.922 7.596 0.215 10.416-2.353 2.819-2.567 4.872-5.941 7.931-8.219 6.39-4.759 16.648-2.937 21.008 3.732 0.559 2.384 1.118 4.769 1.678 7.153-2.469-4.482-8.954-5.321-13.564-3.1-4.61 2.22-7.739 6.604-10.548 10.881-1.104 1.682-2.23 3.417-3.871 4.579-3.14 2.225-7.611 1.812-10.9-0.185-3.289-1.998-5.572-5.301-7.338-8.719-3.804-7.36-5.653-15.72-5.306-23.998"
           fill="#fff200" /></g><g
         id="g21300"
         transform="translate(1044.1 582.06)"><path
           id="path21302"
           d="m0 0c7.014 6.846 17.959 9.344 27.249 6.219-4.54 5.539-12.097 8.892-19.057 7.205s-12.392-9.149-10.702-16.109c0.816 0.914 1.633 1.829 2.51 2.685"
           fill="#fff200" /></g><g
         id="g21304"
         transform="translate(659.55 473.59)"><path
           id="path21306"
           d="m0 0c4.857-1.869 9.247-4.863 14.206-6.442 13.703-4.364 30.138 4.666 33.803 18.573-0.714-9.506-6.012-18.562-13.947-23.843-7.936-5.281-18.335-6.671-27.379-3.66-5.405 1.8-10.48 5.097-16.175 5.197-10.011 0.175-17.4-9.462-20.843-18.863-3.882-10.598-4.928-22.696-0.399-33.035 4.529-10.338 15.497-18.221 26.707-16.908 11.211 1.313 20.506 13.59 16.841 24.265-1.511 4.401-5.281 8.252-9.906 8.762s-9.602-3.226-9.472-7.877c1.911-0.081 3.773-0.979 5.027-2.424-4.461-0.364-8.24 4.466-7.577 8.892s4.839 7.788 9.269 8.427c4.43 0.638 8.939-1.034 12.599-3.611 9.038-6.365 13.449-18.659 10.449-29.299-2.999-10.64-13.231-18.836-24.273-19.37-3.395-0.165-6.786 0.327-10.129 0.941-9.057 1.665-18.181 4.359-25.481 9.973-9.325 7.172-14.807 18.676-15.944 30.386-1.138 11.709 1.787 23.571 6.915 34.159 3.28 6.771 7.798 13.413 14.595 16.637 5.903 2.8 12.76 2.658 19.242 1.843 4.038-0.508 8.073-1.261 11.872-2.723"
           fill="#fff200" /></g><g
         id="fb-btn"><g
           id="g21308"
           transform="translate(850.92 274.5)"><path
             id="path21310"
             d="m0 0c-0.358 0.38-0.679 0.811-0.958 1.299-4.139 7.247-3.896 16.522-1.55 24.178 2.586 8.441 15.309 10.107 22.551 8.275 9.419-2.383 10.658-12.408 10.625-20.65-0.015-3.929 0.259-9.276-2.578-12.468-2.538-2.856-7.261-2.79-10.764-2.853-5.301-0.096-13.147-2.217-17.326 2.219"
             fill="#2c3792" /></g><g
           id="g21312"
           transform="translate(866.06 296.24)"><path
             id="path21314"
             d="m0 0c-0.293 0.003-0.584-0.013-0.867-0.078-0.231-0.052-0.479-0.115-0.629-0.298-0.157-0.191-0.164-0.46-0.161-0.707 0.016-1.412 0.124-2.824 0.324-4.223 0.013-0.092 0.028-0.188 0.081-0.265 0.087-0.123 0.25-0.164 0.4-0.179 0.909-0.092 1.792 0.427 2.704 0.363 0.956-0.067 1.985-0.889 1.907-1.922-0.221-2.911-5.785-0.484-5.707-3.355 0.057-2.112 0.669-4.164 1.04-6.244 0.107-0.596 0.155-1.31-0.304-1.704-0.215-0.184-0.502-0.257-0.78-0.307-0.561-0.1-1.61-0.299-2.085 0.061-0.386 0.292-0.638 1.317-0.801 1.758-0.626 1.701-0.337 5.889-2.099 6.773-0.7 0.352-1.519 0.362-2.301 0.324-0.332-0.017-0.701-0.028-0.953 0.188-0.138 0.119-0.22 0.29-0.282 0.462-0.341 0.942-0.202 2.045 0.362 2.873 4.961 0.274 3.298 2.181 3.291 6.192-0.002 0.782 0.036 1.599 0.42 2.28 0.398 0.704 1.127 1.173 1.897 1.423 0.769 0.249 1.586 0.305 2.393 0.358 0.866 0.058 1.733 0.113 2.599 0.172 0.543 0.038 1.445 0.328 1.969 0.154 1.205-0.4 1.439-2.454 0.733-3.324-0.875-1.077-2.028-0.786-3.151-0.775"
             fill="#fff" /></g></g><g
         id="g21316"
         transform="translate(749.43 639.81)"><path
           id="path21318"
           d="m0 0-1.365 2.211-2.504 4.055 1.108-4.852 0.635-2.781c-3.566-2.271-6.984-4.345-9.912-6.081-1.327-0.787-2.691-1.749-4.081-2.846l-2.361 2.064-3.825 3.345 2.788-4.097 1.79-2.631c-0.73-0.621-1.467-1.287-2.208-1.973l-2.07 2.528-4.556 5.564 3.147-7.047 1.367-3.062c-3.91-3.864-7.925-8.452-11.869-13.176l-2.267 0.807-6.785 2.412 5.558-3.934 1.827-1.293c-0.757-0.917-1.509-1.835-2.257-2.752l-2.132 0.873-7.453 3.052 6.204-4.592 1.77-1.311c-2.6-3.201-5.13-6.336-7.533-9.224l-1.857 1.294-8.511 5.928 7.08-7.61 1.556-1.673c-2.984-3.519-5.743-6.566-8.158-8.752-11.344-10.27-27.101-12.642-34.514-3.455-6.757 8.373-4.056 22.964 8.576 39.769l3.064-0.132 12.056-0.521-10.619 2.447-2.639 0.608c0.834 1.044 1.705 2.096 2.613 3.154l2.412-0.701 11.272-3.278-9.208 5.804-1.833 1.156c2.799 3.059 5.906 6.165 9.324 9.298l1.403-0.734 11.457-5.997-9.486 7.922-1.065 0.889c2.425 2.143 4.993 4.297 7.709 6.453 3.702 2.94 7.535 5.563 11.431 7.894l0.833-0.595 8.607-6.144-7.043 7.039-0.696 0.696c0.987 0.567 1.978 1.112 2.97 1.642l0.704-0.748 8.118-8.628-5.53 9.897-0.511 0.914c11.948 5.961 24.075 9.378 34.499 10.904l0.535-2.139 1.196-4.775 1.105 5.026 0.511 2.322c13.939 1.559 24.187-0.39 25.671-4.097 2.465-6.157-12.377-17.464-26.048-26.336"
           fill="#5faa9a" /></g><g
         id="g21320"
         transform="translate(746.67 641.22)"><path
           id="path21322"
           d="m0 0c-5.66-3.243-11.694-6.792-15.719-9.643l-3.826 3.345 2.788-4.097c-0.859-0.641-1.599-1.24-2.178-1.779-0.098-0.091-0.202-0.191-0.31-0.298l-4.555 5.565 3.146-7.047c-2.907-3.204-7.641-9.073-12.768-15.432l-6.786 2.413 5.558-3.935c-0.848-1.052-1.704-2.112-2.562-3.171l-7.452 3.052 6.204-4.593c-2.617-3.224-5.216-6.394-7.621-9.241l-8.51 5.928 7.08-7.61c-3.767-4.393-6.922-7.786-8.696-9.007-5.32-3.659-13.233-8.275-20.157-4.664-2.711 1.414-3.534 4.912-1.764 7.406 6.68 9.413 25.423 34.239 46.627 48.33 26.54 17.637 55.514 28.791 57.136 27.17 1.621-1.62-6.684-11.147-11.749-14.593-2.082-1.417-7.006-4.17-12.491-7.301l-2.503 4.054 1.108-4.852z"
           fill="#4b978b" /></g><g
         id="g21324"
         transform="translate(671.12 622.36)"><path
           id="path21326"
           d="m0 0c0.767 1.01 1.562 2.032 2.385 3.061l11.273-3.278-9.208 5.804c2.711 3.243 5.686 6.523 8.893 9.72l11.457-5.997-9.485 7.921c4.225 4.041 8.822 7.904 13.735 11.331 1.682 1.173 3.41 2.276 5.172 3.311l8.608-6.144-7.043 7.039c0.984 0.55 1.977 1.08 2.978 1.59l8.118-8.628-5.531 9.897c11.635 5.481 24.07 8.431 34.524 9.679l1.195-4.775 1.106 5.025c10.802 1.065 19.122 0.273 21.589-1.371 1.214-0.81-41.334-14.196-64.226-33.453-22.656-19.059-36.057-41.349-40.92-43.782-2.724-1.363-10.538 2.428-7.906 10.737 1.222 3.859 5.391 11.584 11.849 20.386l12.056-0.52-10.619 2.447z"
           fill="#4b978b" /></g></g></g><g
     id="g21328"
     transform="matrix(1.25 0 0 -1.25 -758.36 928.96)"><g
       id="g21330"
       clip-path="url(#clipPath21332)"><g
         id="g21336"><g
           id="g21344"><g
             id="g21346"
             clip-path="url(#clipPath21340)"><g
               id="g21348"
               transform="translate(654.08 599.75)"><path
                 id="path21350"
                 d="m0 0s7.702-6.482 10.237-12.054c0 0 8.613-4.354 16.721-13.065l-4.153-2.534-15.911 11.241-9.528 14.385 2.634 2.027z"
                 fill="#d4d8cf" /></g></g></g></g><g
         id="g21352"><g
           id="g21360"><g
             id="g21362"
             clip-path="url(#clipPath21356)"><g
               id="g21364"
               transform="translate(733.19 670.59)"><path
                 id="path21366"
                 d="m0 0s18.645-6.884 7.3-18.64c0 0 13.645-1.077 12.028-15.262 0 0 34.84 14.492 27.076 31.687-7.763 17.194-46.404 2.215-46.404 2.215"
                 fill="#d4d8cf" /></g></g></g></g></g></g><g
     id="g21376"
     transform="matrix(1.25 0 0 -1.25 588.9 332.28)"><path
       id="path21378"
       d="m0 0 7.657-1.694 4.004-0.886c0.281 1.766 0.532 3.448 0.752 5.034l-4.174 0.823-8.035 1.585 8.197-0.076 4.312-0.039c0.947 7.834 1.091 16.381 0.351 24.562l-4.534 0.373-10.541 0.869 10.18 1.565 4.522 0.695c-0.618 5.001-1.583 9.798-2.913 14.137l-5.723-0.863-9.564-1.442 8.475 3.672 5.522 2.393c-4.191 10.927-11.101 17.932-21.127 15.902-12.752-2.582-18.263-16.784-19.96-33.008l2.58-0.934 15.365-5.56-15.711 2.52-2.54 0.407c-0.602-8.55-0.245-17.445 0.597-25.367l3.801-1.148 12.9-3.897-12.378 1.089-3.901 0.343c0.194-1.502 0.406-2.946 0.628-4.343l4.158-0.296 11.425-0.812-11.049-0.952-4.128-0.356c0.356-2.002 0.732-3.877 1.121-5.555 1.193-5.145 1.196-12.512 0.748-20.707l3.319-0.243 7.172-0.525-7.305-0.948-3.312-0.43c-0.256-4.081-0.604-8.331-0.959-12.589l3.019-0.293 5.892-0.57-6.045-1.069-3.073-0.543c-1.821-21.821-3.379-42.988 7.015-41.427 8.794 1.321 16.912 18.216 23.272 38.261l-2.357 1.35-7.978 4.569 8.868-1.422 2.72-0.436c1.398 4.665 2.701 9.449 3.895 14.207l-2.95 1.029-8.474 2.957 8.949-0.787 3.194-0.28c2.187 9.024 3.971 17.838 5.263 25.426l-3.756 1.931-7.386 3.798z"
       fill="#5188c1" /></g><g
     id="g21380"
     transform="matrix(1.25 0 0 -1.25 598.47 334.39)"><path
       id="path21382"
       d="m0 0c0.209 1.661 0.402 3.319 0.582 4.971l-8.035 1.585 8.197-0.076c0.135 1.299 0.262 2.594 0.378 3.883 0.731 8.085 0.538 15.044-0.249 21.013l-10.541 0.869 10.18 1.565c-0.931 5.582-2.396 10.21-4.113 13.969l-9.565-1.442 8.476 3.672c-4.841 9.123-11.024 12.183-12.943 10.959-7.697-4.908 1.667-27.905 1.237-59.312-0.272-19.939-22.902-85.382-12.184-85.565 5.746-0.099 12.726 14.389 18.578 34.611l-7.977 4.569 8.867-1.421c1.295 4.697 2.525 9.665 3.665 14.8l-8.474 2.956 8.949-0.786c1.882 8.751 3.493 17.94 4.701 27.076l-7.386 3.8 7.657-1.694z"
       fill="#487aac" /></g><path
     id="path21386"
     d="m550.95 295.24c-0.325 3.7088-0.395 7.6638-0.11125 11.858 0.60001 8.8188 1.49 15.389 2.435 20.778l16.125 4.87-15.474-1.36c0.37375 1.91 0.74625 3.6813 1.1062 5.3688l14.281 1.015-13.811 1.1912c1.2638 5.9713 2.2638 11.246 2.31 18.918 0.0175 2.75-0.39501 8.0975-0.98376 14.659l8.965 0.655-9.1326 1.185c-0.46875 5.1225-1.0262 10.866-1.565 16.64l7.365 0.71375-7.555 1.335c-1.5688 17.009-2.8588 33.651-1.1025 34.703 3.2838 1.9663 22.458-90.684 21.633-101.25-2.44-31.279-5.1463-68.834-9.815-66.71-2.135 0.97126-11.55 12.514-14.236 31.633l19.205 6.95-19.639-3.1488z"
     fill="#487aac" /><g
     id="g21388"
     transform="matrix(1.25 0 0 -1.25 171.4 271.09)"><path
       id="path21390"
       d="m0 0c-23.379 1.947-45.583 15.041-58.6 34.558-2.462 3.691-4.687 7.991-3.959 12.368 0.812 4.885 5.096 8.454 9.526 10.667 3.737 1.866 7.993 3.118 12.084 2.276s7.848-4.261 7.99-8.435c0.141-4.175-4.449-8.107-8.301-6.493-0.362 1.581-0.723 3.162-1.084 4.743 0.046-4.096 1.292-8.897 5.125-10.341 1.121-0.422 2.353-0.494 3.542-0.352 7.894 0.94 11.915 11.46 8.338 18.559s-12.166 10.479-20.113 10.301c-7.681-0.173-15.394-3.253-20.57-8.93-5.177-5.678-7.535-13.999-5.439-21.39 3.353-11.827 16.115-18.093 27.885-21.64 11.771-3.548 35.63-6.511 43.576-15.891"
       fill="#fff200" /></g><g
     id="g21392"
     transform="matrix(1.25 0 0 -1.25 453.74 265.58)"><path
       id="path21394"
       d="m0 0c0.589-2.068 2.003-3.803 3.566-5.28 5.231-4.942 13.738-7.421 19.669-3.344 2.338 1.607 4.002 4.034 5.225 6.593 3.217 6.729 3.604 14.83 0.707 21.702s-9.129 12.329-16.409 13.949c-2.991 0.666-6.168 0.697-9.077-0.267-2.966-0.983-5.5-2.93-7.971-4.842-4.838-3.746-9.772-7.593-13.1-12.728-4.908-7.575-5.75-17.03-5.894-26.054-0.193-12.128 0.623-24.271 2.438-36.263 5.589 20.621-2.284 44.325 8.101 62.997 2.751 4.947 6.812 9.309 11.978 11.623 5.166 2.313 11.495 2.347 16.299-0.646 4.663-2.905 7.357-8.182 8.752-13.495 1.445-5.499 1.643-11.673-1.268-16.557-2.912-4.885-9.658-7.706-14.595-4.884-2.726 1.557-4.426 4.449-5.526 7.39-0.896 2.394-1.434 5.223-0.086 7.395 1.567 2.523 5.628 2.952 7.687 0.813 2.06-2.139 1.476-6.181-1.105-7.65-0.314 1.296 1.411 2.537 2.54 1.827 0.053 2.071 0.106 4.141 0.16 6.212-2.616 1.882-6.427 1.905-9.064 0.053s-3.91-5.445-3.027-8.544"
       fill="#fff200" /></g><g
     id="g21396"
     transform="matrix(1.25 0 0 -1.25 162.55 316.01)"><path
       id="path21398"
       d="m0 0c-2.461-1.746-4.921-3.492-7.382-5.239-1.899-1.347-3.898-2.821-4.725-4.997-0.827-2.177 0.182-5.198 2.48-5.576 5.656 3.912 11.441 7.638 17.341 11.17-1.604 1.468-3.207 2.936-4.811 4.404-0.439 0.403-0.937 0.829-1.532 0.833-0.507 0.004-0.958-0.302-1.371-0.595"
       fill="#fff200" /></g><g
     id="g21400"
     transform="matrix(1.25 0 0 -1.25 451.36 179.61)"><path
       id="path21402"
       d="m0 0c-12.665-4.629-24.137-12.482-33.037-22.612 5.173 13.194 18.866 22.566 33.037 22.612"
       fill="#fff200" /></g><g
     id="g21404"
     transform="matrix(1.25 0 0 -1.25 155.02 287.51)"><path
       id="path21406"
       d="m0 0c-22.65 5.352-48.154-5.099-60.534-24.808 17.444 13.529 38.613 22.205 60.534 24.808"
       fill="#fff200" /></g><g
     id="g21408"
     transform="matrix(1.25 0 0 -1.25 116.45 329.74)"><path
       id="path21410"
       d="m0 0c6.278 5.282 12.557 10.563 18.835 15.845-7.912-2.779-14.743-8.525-18.835-15.845"
       fill="#fff200" /></g><g
     id="g21412"
     transform="matrix(1.25 0 0 -1.25 475.16 198.73)"><path
       id="path21414"
       d="m0 0c-13.879-2.443-27.565-5.983-40.888-10.574 11.599 8.583 26.582 12.458 40.888 10.574"
       fill="#fff200" /></g><g
     id="g21416"
     transform="matrix(1.25 0 0 -1.25 452.12 311.2)"><path
       id="path21418"
       d="m0 0c-3.904 0.586-8.234 4.258-6.476 7.792 2.937-2.762 7.019-4.268 11.047-4.074 2.496 0.12 4.927 0.859 7.418 1.058 6.626 0.53 13.403-3.149 16.567-8.994s2.54-13.532-1.527-18.789c-1.425-1.844-3.336-3.447-5.624-3.892-4.907-0.954-9.552 5.141-7.33 9.62 1.104 2.228 5.334 2.923 5.424 0.438-2.452 2.233-6.451 2.533-9.209 0.692s-4.014-5.649-2.893-8.769c0.576-1.603 1.697-2.98 3.059-4.001 4.331-3.248 10.791-2.602 15.134 0.631 4.342 3.233 6.757 8.547 7.589 13.896 0.647 4.164 0.31 8.791-2.399 12.019-3.444 4.102-9.554 4.673-14.863 3.962-5.309-0.71-10.62-2.384-15.917-1.589"
       fill="#fff200" /></g><text
     id="high-score"
     style="font-style:normal;font-variant:normal;font-weight:normal;font-stretch:normal;font-size:40px;line-height:125%;font-family:Hero;-inkscape-font-specification:Hero;letter-spacing:0px;word-spacing:0px;fill:#40bb6a"
     xml:space="preserve"
     font-size="40px"
     y="493.2431"
     x="279.08762"
     line-height="125%"
     sodipodi:linespacing="125%"><tspan
       id="tspan27140"
       font-size="70px"
       y="493.2431"
       x="279.08762"
       style="font-style:normal;font-variant:normal;font-weight:normal;font-stretch:normal;font-size:70px;font-family:Hero;-inkscape-font-specification:Hero;fill:#40bb6a"></tspan></text>
</svg>
