<?xml version="1.0" encoding="UTF-8" standalone="no"?>
<!-- Created with Inkscape (http://www.inkscape.org/) -->
<svg
  id="svg2"
  xmlns:rdf="http://www.w3.org/1999/02/22-rdf-syntax-ns#"
  xmlns="http://www.w3.org/2000/svg"
  xml:space="preserve"
  height="905.77"
  viewBox="0 0 564.69274 905.76715"
  width="564.69"
  version="1.1"
  xmlns:cc="http://creativecommons.org/ns#"
  xmlns:dc="http://purl.org/dc/elements/1.1/">
  <metadata id="metadata8">
    <rdf:RDF>
      <cc:Work rdf:about="">
        <dc:format>image/svg+xml</dc:format><dc:type rdf:resource="http://purl.org/dc/dcmitype/StillImage"/><dc:title/></cc:Work>
    </rdf:RDF>
  </metadata>
  <defs id="defs6">
    <clipPath id="clipPath16" clipPathUnits="userSpaceOnUse"><path id="path18" d="m0 724.61h470.27v-724.61h-470.27v724.61z"/></clipPath>
    <clipPath id="clipPath148" clipPathUnits="userSpaceOnUse"><path id="path150" d="m373.69 75.262c16.969-7.178 31.979-0.652 31.979-0.652-3.914 9.79-13.053 62.002-13.053 62.002l-7.179 1.305-11.747-62.655z"/></clipPath>
    <clipPath id="clipPath172" clipPathUnits="userSpaceOnUse"><path id="path174" d="m0 724.61h470.27v-724.61h-470.27v724.61z"/></clipPath>
    <clipPath id="clipPath412" clipPathUnits="userSpaceOnUse"><path id="path414" d="m0 724.61h470.27v-724.61h-470.27v724.61z"/></clipPath>
    <clipPath id="clipPath486" clipPathUnits="userSpaceOnUse"><path id="path488" d="m0 724.61h470.27v-724.61h-470.27v724.61z"/></clipPath>
  </defs>
  <g id="g10" transform="matrix(1.25 0 0 -1.25 -8.3405 905.77)">
    <g id="g12">
      <g id="g14" clip-path="url(#clipPath16)">
        <g id="g20" transform="translate(291.69 616.13)"><path
          id="path22"
          d="m0 0c1.969 3.922 4.414 7.583 6.871 11.22 9.61 14.227 19.812 28.569 33.93 38.341 14.117 9.772 33.094 14.239 48.717 7.117 15.103-6.885 23.911-22.688 30.22-38.041-5.103 8.333-11.83 15.88-20.372 20.624-8.544 4.744-19.042 6.439-28.271 3.231-4.062-1.412-7.974-3.919-9.894-7.766-3.1-6.212-0.213-13.607 2.672-19.922 2.221-4.864 4.441-9.728 6.662-14.593-4.942 4.833-10.203 9.83-16.871 11.649-9.11 2.483-19.506-2.116-24.259-10.275-4.752-8.159-3.804-19.112 1.847-26.676-3.709 4.842-10.025 7.193-16.123 7.212-6.099 0.019-12.027-2.035-17.534-4.653-2.759 4.706 3.491 10.31 2.47 15.669-0.262 1.385-1.016 2.69-0.964 4.099 0.036 0.976 0.459 1.891 0.897 2.764"
          fill="#58595b"/></g>
        <g id="g24" transform="translate(358.62 660.12)"><path id="path26" d="m0 0c-4.665-3.116-8.175-8.114-8.735-13.696-0.562-5.582 1.591-11.8 3.102-17.203-3.102 5.211-5.307 11.218-4.714 17.254 0.595 6.036 4.511 11.995 10.347 13.645" fill="#808285"/></g>
        <g id="g28" transform="translate(371.11 663.71)"><path
          id="path30"
          d="m0 0c-1.975-0.187-3.874-0.842-5.711-1.592 13.315 2.49 27.774-2.424 36.813-12.512-1.329 1.39-2.656 2.781-3.984 4.172-2.835 2.969-5.829 6.041-9.718 7.359-2.32 0.786-4.808 0.889-7.23 1.27-3.388 0.534-6.755 1.626-10.17 1.303"
          fill="#808285"/></g>
        <g id="g32" transform="translate(341.02 668.95)"><path
          id="path34"
          d="m0 0c-2.137-1.116-15.566-11.361-19.649-15.867-1.568-1.73-3.136-3.46-4.704-5.191 8.575 8.365 17.419 16.914 28.443 21.602 4.299 1.828 8.857 3.029 13.488 3.64 8.974 1.186 18.524 0.032 26.162-4.823-5.961 4.873-23.777 11.066-43.74 0.639"
          fill="#808285"/></g>
        <g id="g36" transform="translate(317.68 598.51)"><path
          id="path38"
          d="m0 0c-3.031 4.84-3.111 11.041-1.717 16.579 0.756 3.003 1.945 5.956 3.935 8.329 1.989 2.373 4.862 4.118 7.955 4.276-1.595-0.855-3.099-1.879-4.48-3.05 1.434 0.599 2.867 1.198 4.299 1.798-8.445-6.223-12.574-17.764-9.992-27.932"
          fill="#808285"/></g>
        <g id="g40" transform="translate(165.11 609.67)"><path
          id="path42"
          d="m0 0c-2.359 3.701-5.163 7.094-7.977 10.462-11.009 13.177-22.615 26.406-37.654 34.691-15.038 8.286-34.371 10.798-49.188 2.124-14.325-8.385-21.48-25.003-26.194-40.918 4.228 8.809 10.153 17.001 18.168 22.589 8.015 5.589 18.286 8.343 27.794 6.091 4.184-0.992 8.331-3.088 10.633-6.72 3.715-5.864 1.595-13.515-0.631-20.09-1.715-5.065-3.43-10.13-5.145-15.195 4.426 5.311 9.15 10.817 15.6 13.305 8.81 3.397 19.62-0.121 25.178-7.754 5.557-7.633 5.729-18.626 0.876-26.725 3.197 5.193 9.241 8.176 15.306 8.815s12.171-0.802 17.917-2.846c2.265 4.963-4.523 9.901-4.053 15.336 0.122 1.405 0.739 2.78 0.543 4.176-0.14 0.967-0.653 1.836-1.178 2.659"
          fill="#414142"/></g>
        <g id="g44" transform="translate(94.05 646.63)"><path id="path46" d="m0 0c4.958-2.625 8.958-7.241 10.084-12.736 1.126-5.496-0.383-11.901-1.337-17.43 2.557 5.5 4.139 11.701 2.934 17.645-1.205 5.943-5.707 11.474-11.681 12.521" fill="#58595b"/></g>
        <g id="g48" transform="translate(81.259 648.92)"><path id="path50" d="m0 0c1.983 0.015 3.94-0.444 5.843-1.003-13.499 1.123-27.382-5.237-35.349-16.192l3.539 4.556c2.518 3.242 5.184 6.603 8.918 8.309 2.229 1.019 4.694 1.374 7.064 1.999 3.316 0.876 6.555 2.305 9.985 2.331" fill="#58595b"/></g>
        <g id="g52" transform="translate(110.65 657.2)"><path
          id="path54"
          d="m0 0c2.24-0.893 16.642-9.718 21.162-13.785 1.736-1.562 3.471-3.124 5.207-4.686-9.38 7.449-19.05 15.054-30.492 18.596-4.463 1.381-9.12 2.112-13.789 2.249-9.047 0.267-18.431-1.852-25.535-7.459 5.434 5.454 22.526 13.427 43.447 5.085"
          fill="#58595b"/></g>
        <g id="g56" transform="translate(141.05 589.5)"><path
          id="path58"
          d="m0 0c2.524 5.123 1.972 11.3 0.022 16.667-1.058 2.911-2.54 5.728-4.762 7.886-2.221 2.159-5.255 3.602-8.348 3.445 1.674-0.689 3.274-1.555 4.766-2.579-1.487 0.45-2.973 0.901-4.46 1.351 9.036-5.331 14.317-16.392 12.782-26.77"
          fill="#808285"/></g>
        <g id="g60" transform="translate(297.76 601.15)"><path id="path62" d="m0 0c0.772-40.979-29.687-88.827-68.357-89.556s-70.91 45.938-71.682 86.917 29.95 74.79 68.621 75.518c38.672 0.729 70.647-31.9 71.419-72.879" fill="#58595b"/></g>
        <g id="g64" transform="translate(296.33 614.74)"><path
          id="path66"
          d="m0 0c4.845-19.779-0.055-36.681-7.337-55.698-2.306-6.022-4.913-11.982-8.58-17.286-6.73-9.736-16.63-16.739-26.32-23.535-0.781-0.547-2.25-0.821-2.342 0.128 5.403 6.366 10.435 13.049 15.059 20.003 4.208 6.327 8.093 12.907 10.951 19.948 6.037 14.882 7.264 31.228 7.857 47.277 0.445 12.06 0.469 24.628-4.708 35.529-5.885 12.392-17.59 20.818-28.821 28.695 3.142-2.318 33.539-11.375 44.241-55.061"
          fill="#808285"/></g>
        <g id="g68" transform="translate(279.9 673.05)"><path
          id="path70"
          d="m0 0c-0.914-1.435-1.924-2.867-3.029-4.291-3.701-4.773-7.668-9.411-12.209-13.412-1.983-1.746-3.428-2.326-2.836-5.208 0.458-2.233 2.58-4.239 4.744-4.785 3.684-0.932 7.535 0.885 10.492 3.274 9.513 7.689 17.164 20.432 19.666 32.406 3.224 15.441-12.799 32.047-15.461 34.058-5.203 3.93-10.758 7.563-16.977 9.519 4.454-1.019 7.294-5.087 10.565-8.278 13.662-13.325 14.438-28.539 5.045-43.283"
          fill="#58595b"/></g>
        <g id="g72" transform="translate(168.19 666.52)"><path
          id="path74"
          d="m0 0c1.226-1.401 2.605-2.743 4.143-4.013 2.956-2.441 6.309-4.356 9.346-6.695 4.25-3.275 11.856-12.143 2.953-15.286-3.584-1.265-7.585 0.191-10.748 2.299-10.177 6.785-18.966 18.773-22.553 30.467-4.626 15.08 9.806 33.085 12.272 35.331 4.822 4.391 10.019 8.518 16.034 11.036-4.341-1.423-6.797-5.734-9.762-9.211-11.245-13.186-12.933-31.069-1.685-43.928"
          fill="#58595b"/></g>
        <g id="g76" transform="translate(292.59 682.56)"><path
          id="path78"
          d="m0 0c0.264 0.995 0.576 2.061 1.388 2.694 1.321-3.284 0.128-6.998-1.207-10.278-4.189-10.287-10.111-20.354-19.368-26.492-0.344-0.229-0.729-0.461-1.141-0.421s-0.791 0.503-0.59 0.865c0.094 0.171 0.281 0.265 0.455 0.353 3.094 1.557 5.439 4.244 7.701 6.865 1.971 2.283 3.949 4.576 5.574 7.116 3.714 5.808 5.424 12.633 7.188 19.298"
          fill="#808285"/></g>
        <g id="g80" transform="translate(277.1 641.2)"><path
          id="path82"
          d="m0 0c0.479-1.042 0.928-2.163 0.794-3.303-0.503-0.22-1.042 0.22-1.368 0.661-0.953 1.288-1.422 2.861-1.871 4.398-0.416 1.418-0.832 2.836-1.246 4.254 0.752-0.614 1.281-1.455 1.766-2.295 0.699-1.207 1.342-2.448 1.925-3.715"
          fill="#808285"/></g>
        <g id="g84" transform="translate(176.6 656.64)"><path id="path86" d="m0 0c-4.53 3.226-8.812 6.897-12.092 11.389-3.279 4.491-5.515 9.869-5.634 15.428 0.799-1.169 1.163-2.571 1.584-3.923 3.138-10.053 10.382-18.758 19.698-23.67-1.078-0.717-2.501 0.025-3.556 0.776" fill="#808285"/></g>
        <g id="g88" transform="translate(188.66 610.85)"><path
          id="path90"
          d="m0 0c-5.013-10.978-6.558-23.508-4.362-35.375 0.981-5.296 3.11-10.977 7.906-13.428 4.934-2.522 11.2-0.634 15.331 3.059s6.599 8.847 8.962 13.859c2.463 5.222 4.926 10.445 7.389 15.667-11.369 5.545-22.739 11.09-34.108 16.636-0.202 0.098-0.429 0.2-0.645 0.133-0.238-0.074-0.369-0.324-0.473-0.551"
          fill="#414142"/></g>
        <g id="g92" transform="translate(267.12 612.33)"><path
          id="path94"
          d="m0 0c5.423-10.781 7.439-23.245 5.691-35.186-0.78-5.329-2.693-11.086-7.393-13.716-4.836-2.706-11.169-1.055-15.437 2.479-4.266 3.535-6.925 8.593-9.477 13.512-2.657 5.125-5.316 10.251-7.974 15.377 11.152 5.97 22.305 11.94 33.457 17.909 0.197 0.107 0.422 0.216 0.639 0.158 0.242-0.065 0.382-0.31 0.494-0.533"
          fill="#414142"/></g>
        <g id="g96" transform="translate(262.81 587.56)"><path id="path98" d="m0 0c-2.941-1.993-6.444-3.407-9.996-3.456-8.013-0.111-20.259 9.137-20.259 9.137s22.623 15.281 32.41 21.874c2.453-2.97 4.078-6.618 4.646-10.428 0.953-6.408-1.439-13.493-6.801-17.127" fill="#d1d3d4"/></g>
        <g id="g100" transform="translate(259.77 591.89)"><path id="path102" d="m0 0c-2.228-1.509-4.879-2.637-7.568-2.616-6.586 0.051-12.286 4.402-13.584 5.437-0.315 0.251-1.863 1.402-1.863 1.402s17.236 11.646 24.646 16.638c1.857-2.249 3.088-5.01 3.516-7.895 0.722-4.851-1.087-10.215-5.147-12.966"/></g>
        <g id="g104" transform="translate(259.57 607.84)"><path
          id="path106"
          d="m0 0c-0.039 0.369-0.062 0.786 0.185 1.063 0.308 0.349 0.909 0.274 1.254-0.039 0.344-0.314 0.491-0.786 0.598-1.239 0.197-0.835 0.311-1.691 0.336-2.549 0.018-0.587-0.013-1.202-0.301-1.714-0.224-0.399-0.724-0.726-1.128-0.511-0.324 0.172-0.41 0.589-0.459 0.952-0.18 1.343-0.342 2.689-0.485 4.037"
          fill="#fff"/></g>
        <g id="g108" transform="translate(259.78 596.98)"><path id="path110" d="m0 0c-0.442 0.396-0.395 1.089-0.311 1.676 0.069 0.488 0.147 0.997 0.436 1.396s0.861 0.639 1.29 0.397c0.366-0.208 0.493-0.668 0.56-1.084 0.107-0.671 0.13-1.405-0.233-1.98-0.361-0.574-1.236-0.858-1.742-0.405" fill="#fff"/></g>
        <g id="g112" transform="translate(194.55 585.09)"><path id="path114" d="m0 0c3.126-1.689 6.752-2.745 10.292-2.439 7.983 0.691 19.243 11.118 19.243 11.118s-24.037 12.941-34.435 18.522c-2.145-3.2-3.396-6.992-3.579-10.84-0.308-6.471 2.779-13.281 8.479-16.361" fill="#d1d3d4"/></g>
        <g id="g116" transform="translate(197.15 589.71)"><path id="path118" d="m0 0c2.366-1.279 5.117-2.136 7.791-1.846 6.548 0.709 11.784 5.609 12.972 6.769 0.288 0.28 1.713 1.581 1.713 1.581s-18.314 9.863-26.186 14.089c-1.623-2.423-2.571-5.294-2.709-8.207-0.233-4.899 2.104-10.055 6.419-12.386"/></g>
        <g id="g120" transform="translate(195.75 605.6)"><path
          id="path122"
          d="m0 0c0.002 0.371-0.017 0.788-0.29 1.04-0.342 0.316-0.932 0.181-1.244-0.165-0.311-0.347-0.41-0.831-0.471-1.293-0.113-0.85-0.14-1.713-0.079-2.569 0.041-0.586 0.132-1.195 0.47-1.676 0.264-0.374 0.793-0.65 1.174-0.395 0.305 0.203 0.349 0.626 0.361 0.993 0.046 1.355 0.073 2.71 0.079 4.065"
          fill="#fff"/></g>
        <g id="g124" transform="translate(196.63 594.77)"><path
          id="path126"
          d="m0 0c0.4 0.438 0.283 1.123 0.142 1.699-0.118 0.478-0.246 0.977-0.574 1.345-0.327 0.368-0.92 0.55-1.322 0.266-0.345-0.243-0.426-0.714-0.45-1.135-0.039-0.678 0.011-1.411 0.429-1.946 0.418-0.536 1.317-0.731 1.775-0.229"
          fill="#fff"/></g>
        <g id="g128" transform="translate(261.04 651.94)"><path
          id="path130"
          d="m0 0c4.638-4.952 7.381-11.418 9.008-18.005 0.674-2.728 1.171-5.604 0.492-8.331s-2.808-5.266-5.597-5.618c-2.985-0.378-5.814 1.861-7.073 4.595s-1.285 5.856-1.212 8.864c0.072 3.009 0.213 6.098-0.76 8.946-1.508 4.422-5.401 7.516-9.027 10.461-1.314 1.066-2.66 2.202-3.356 3.743-0.697 1.542-0.535 3.61 0.82 4.624 1.856 1.39 4.462 0.1 6.392-1.188 3.642-2.432 7.319-4.894 10.313-8.091"
          fill="#808285"/></g>
        <g id="g132" transform="translate(217.6 140.64)"><path
          id="path134"
          d="m0 0c-33.042 0-59.923 11.951-79.898 35.521-33.947 40.062-41.918 107.33-42.626 156.7-0.766 53.303 6.527 97.82 6.601 98.264 0.197 1.191 1.334 1.996 2.513 1.797 1.19-0.199 1.994-1.324 1.796-2.514-0.291-1.755-28.456-176.49 35.053-251.43 19.102-22.54 44.861-33.972 76.557-33.972 46.902 0 84.432 15.827 111.55 47.041 68.783 79.177 49.649 233.18 48.593 241.2-5.101 10.82-13.758 10.475-14.13 10.453-1.168-0.066-2.234 0.849-2.309 2.047-0.074 1.198 0.825 2.232 2.023 2.314 0.484 0.033 12.141 0.676 18.523-13.287l0.132-0.289 0.044-0.314c0.056-0.403 5.664-40.97 2.389-91.105-3.03-46.39-14.5-110.76-51.96-153.88-27.987-32.207-66.627-48.54-114.85-48.54"
          fill="#b59b70"/></g>
        <g id="g136" transform="translate(388.7 152.28)"><path
          id="path138"
          d="m0 0c0.036 0 0.074 0.001 0.112 0.003 1.08 0.062 1.906 0.987 1.845 2.066-0.798 13.946-2.518 28.918-4.693 47.875-2.639 22.988-5.924 51.596-9.236 92.276-6.001 73.74 18.228 220.7 18.472 222.18l0.158 0.95-0.658 0.71c-8.029 8.605-6.449 13.964-6.433 14.017 0.325 1.014-0.215 2.122-1.223 2.468s-2.096-0.155-2.465-1.154c-0.27-0.733-2.322-7.316 6.604-17.288-2.08-12.79-24.145-151.1-18.358-222.2 3.317-40.74 6.606-69.387 9.248-92.403 2.168-18.893 3.883-33.818 4.674-47.651 0.058-1.04 0.922-1.846 1.953-1.846"
          fill="#b59b70"/></g>
        <g id="g140" transform="translate(392.61 136.61)"><path id="path142" d="m0 0s9.138-52.212 13.054-62.001c0 0-15.011-6.526-31.98 0.652l11.747 62.655 7.179-1.306z" fill="#a68963"/></g>
      </g>
    </g>
    <g id="g144">
      <g id="g146" clip-path="url(#clipPath148)">
        <g id="g152" transform="translate(392.61 136.61)"><path id="path154" d="m0 0 7.407-68.258 2.591 0.331-9.998 67.927z" fill="#e8c07b"/></g>
        <g id="g156" transform="translate(390.44 138.57)"><path id="path158" d="m0 0 1.306-68.795 2.609 0.1l-3.915 68.695z" fill="#e8c07b"/></g>
        <g id="g160" transform="translate(389.13 138.13)"><path id="path162" d="m0 0-3.48-70.446 2.609-0.08l0.871 70.526z" fill="#e8c07b"/></g>
        <g id="g164" transform="translate(386.96 139)"><path id="path166" d="m0 0-10.431-68.137 2.589-0.346 7.842 68.483z" fill="#e8c07b"/></g>
      </g>
    </g>
    <g id="g168">
      <g id="g170" clip-path="url(#clipPath172)">
        <g id="g176" transform="translate(400.28 140.67)"><path
          id="path178"
          d="m0 0c0.509 1.393 0.985 3.09 1.293 5.071 0.705 4.537-1.946 8.944-6.271 10.492-2.796 1.002-6.482 1.704-11.043 1.305-4.396-0.384-7.984-3.767-8.617-8.134-0.3-2.077-0.384-4.505 0.046-7.11 0.666-4.042 3.888-7.177 7.929-7.853 2.726-0.457 6.146-0.649 9.713 0.099 3.221 0.676 5.822 3.037 6.95 6.13"
          fill="#365490"/></g>
        <g id="g180" transform="translate(389.13 155.54)"><path id="path182" d="m0 0s-10.441 1.088-11.965-7.179c-1.206-6.546-0.218-10.442 7.832-11.748 0 0-3.916 4.134-2.829 9.79 1.088 5.657 6.962 9.137 6.962 9.137" fill="#2b467b"/></g>
        <g id="g184" transform="translate(396.64 152.55)"><path id="path186" d="m0 0c-4.375 1.642-5.711-6.689-1.143-7.995 4.569-1.305 5.059 6.527 1.143 7.995" fill="#5073b9"/></g>
        <g id="g188" transform="translate(395.5 143.41)"><path id="path190" d="m0 0c-2.326 0.776-3.916-2.938-1.305-3.753 2.61-0.816 2.774 3.264 1.305 3.753" fill="#5073b9"/></g>
        <g id="g192" transform="translate(119.92 76.886)"><path
          id="path194"
          d="m0 0c-0.854 0-1.642 0.558-1.898 1.418-9.781 32.898-10.671 97.937-11.531 160.83-0.87 63.484-5.233 112.1-5.277 112.58-0.098 1.091 0.704 2.055 1.795 2.153 1.065 0.103 2.052-0.703 2.153-1.794 0.044-0.485 4.42-49.254 5.292-112.89 0.857-62.62 1.743-127.38 11.366-159.75 0.313-1.052-0.285-2.154-1.334-2.467-0.188-0.056-0.379-0.083-0.566-0.083"
          fill="#b59b70"/></g>
        <g id="g196" transform="translate(133.35 7.748)"><path id="path198" d="m0 0-11.89 63.414-7.266-1.321s-9.248-52.845-13.211-62.754" fill="#a68963"/></g>
        <g id="g200" transform="translate(104.08 1.0898)"><path id="path202" d="m0 0 10.118 68.751-7.497-69.086" fill="#e8c07b"/></g>
        <g id="g204" transform="translate(112.44 2.2939)"><path id="path206" d="m0 0 3.962 69.528-1.322-69.629" fill="#e8c07b"/></g>
        <g id="g208" transform="translate(118.6)"><path id="path210" d="m0 0-0.881 71.382 3.522-71.3" fill="#e8c07b"/></g>
        <g id="g212" transform="translate(127.86 2.9492)"><path id="path214" d="m0 0-7.939 69.313 10.557-68.963" fill="#e8c07b"/></g>
        <g id="g216" transform="translate(106.44 73.947)"><path
          id="path218"
          d="m0 0c-0.514 1.41-0.997 3.127-1.308 5.132-0.714 4.594 1.969 9.053 6.346 10.621 2.83 1.013 6.561 1.723 11.178 1.32 4.449-0.388 8.08-3.813 8.721-8.232 0.304-2.103 0.388-4.56-0.046-7.197-0.675-4.091-3.936-7.264-8.026-7.948-2.759-0.462-6.22-0.657-9.83 0.1-3.261 0.684-5.894 3.074-7.035 6.204"
          fill="#365490"/></g>
        <g id="g220" transform="translate(117.72 88.997)"><path id="path222" d="m0 0s10.569 1.102 12.11-7.266c1.221-6.625 0.221-10.569-7.926-11.89 0 0 3.963 4.183 2.862 9.908-1.101 5.726-7.046 9.248-7.046 9.248" fill="#2b467b"/></g>
        <g id="g224" transform="translate(110.12 85.97)"><path id="path226" d="m0 0c4.428 1.66 5.78-6.771 1.156-8.092s-5.119 6.606-1.156 8.092" fill="#5073b9"/></g>
        <g id="g228" transform="translate(111.28 76.722)"><path id="path230" d="m0 0c2.355 0.785 3.963-2.973 1.321-3.798-2.642-0.826-2.807 3.303-1.321 3.798" fill="#5073b9"/></g>
        <g id="g232" transform="translate(221.8 117.44)"><path
          id="path234"
          d="m0 0c-31.217-0.001-56.763 11.405-75.957 33.923-36.348 42.64-43.551 118.53-43.192 174.68 0.388 60.625 9.415 111.94 9.506 112.46 0.212 1.188 1.359 1.978 2.534 1.768 1.189-0.213 1.979-1.348 1.768-2.535-0.362-2.027-35.345-203.71 32.712-283.54 18.768-22.015 43.903-32.9 74.817-32.365 45.343 0.79 81.089 16.968 106.25 48.087 36.618 45.291 44.558 114.84 44.769 165.2 0.229 54.736-8.364 99.221-8.45 99.664-0.232 1.184 0.539 2.332 1.724 2.564 1.183 0.227 2.332-0.54 2.563-1.722 0.088-0.449 8.763-45.36 8.531-100.53-0.21-51.05-8.32-121.64-45.74-167.92-26.005-32.171-62.87-48.896-109.57-49.71-0.754-0.013-1.509-0.02-2.26-0.02"
          fill="#b59b70"/></g>
        <g id="g236" transform="translate(22.01 648.99)"><path
          id="path238"
          d="m0 0c11.235 13.965 26.753 14.881 41.107 15.276 102.96 2.834 205.86 10.649 308.5 23.43 12.465 1.552 25.163 3.153 37.348-1.228 12.188-4.382 24.008-15.808 29.023-33.708 3.541-12.641 3.362-26.952 3.215-40.75-1.041-97.683 2.596-195.48 10.87-292.32 1.902-22.273 3.173-44.584 5.726-67.03 0.72-6.318 1.373-13.041-1.43-18.748-3.048-6.205-9.732-9.969-16.516-11.293-6.786-1.323-13.78-0.573-20.663 0.076-45.545 4.283-91.387 3.858-137.13 3.428-12.262-0.115-24.578-0.234-36.681-2.19-13.315-2.15-26.194-6.496-39.491-8.745-14.772-2.499-29.845-2.379-44.826-2.252-18.164 0.155-36.328 0.309-54.493 0.463-15.785 0.135-31.656 0.149-47.384 1.674-8.557 0.83-23.304 1.155-27.789 9.708-2.424 4.622-2.907 10.943-3.294 16.888-6.77 104.05-13.538 208.11-20.306 312.17-2.204 33.884-2.852 73.947 14.206 95.15"
          fill="#58595b"/></g>
        <g id="g240" transform="translate(449.51 280.04)"><path
          id="path242"
          d="m0 0c0.336-8.817 0.259-17.784-1.526-25.632-2.09-9.183-8.037-18.062-16.981-21.018-4.986-1.649-10.381-1.336-15.623-1.005-11.324 0.714-22.658 1.428-33.92 2.83-8.818 1.096-17.586 2.614-26.436 3.432-12.082 1.117-24.247 0.921-36.371 0.453-43.844-1.696-87.483-6.962-130.74-14.209-41.045-6.876-82.248-13.163-124.04-7.939-8.892 1.111-18.86 3.7-23.986 15.106-3.116 6.93-3.755 15.773-4.3 24.202-5.239 81.164-10.479 162.33-15.719 243.49-0.98 15.177-1.96 30.439-1.277 45.654 0.433 9.661 1.535 19.389 0.601 28.964-0.763 7.825-2.863 15.228-3.553 23.07-2.087 23.713 9.506 46.185 23.489 55.961s29.849 9.766 45.167 9.631c105.32-0.927 210.85 0.309 315.62 17.137 10.1 1.622 21.701 2.613 28.879-8.604 3.914-6.117 5.666-14.761 7.072-23.127 16.517-98.18 3.355-202.33 9.703-303.36 0.999-15.915 2.498-31.797 3.097-47.73 0.205-5.438 0.621-11.334 0.849-17.3"
          fill="#b5b5b6"/></g>
        <g id="g244" transform="translate(372.62 590.34)"><path
          id="path246"
          d="m0 0c-9.779 5.724-17.02 15.556-27.601 19.612-19.053 7.306-43.005-6.24-59.928 5.162-8.487 5.717-12.57 16.355-20.901 22.297-12.958 9.242-30.81 4.185-46.583 6.318-12.805 1.732-24.826 8.691-32.707 18.934 71.941-2.081 144.04 1.215 215.49 9.853 3.459 0.418 6.981 0.847 10.407 0.21 8.097-1.505 14.099-8.804 16.625-16.643 2.526-7.838 2.254-16.258 2.219-24.494-0.27-60.713 13.592-121.86 3.316-181.7-1.174-6.833-3.953-14.957-10.771-16.224-5.358-0.996-10.587 3.29-12.458 8.409-1.87 5.119-1.167 10.787-0.191 16.148 2.305 12.655 6.008 25.089 7.084 37.906 1.074 12.818-0.785 26.482-8.533 36.749-2.233 2.957-4.942 5.629-6.441 9.018-4.007 9.062 1.796 20.083-1.713 29.349-4.043 10.65-17.476 13.331-27.314 19.088"
          fill="#808285"/></g>
        <g id="g248" transform="translate(259.06 585.52)"><path
          id="path250"
          d="m0 0c0.718 1.538 1.621 2.98 2.529 4.414 3.553 5.607 7.334 11.265 12.68 15.201s12.629 5.876 18.746 3.3c5.916-2.49 9.498-8.498 12.11-14.36-2.067 3.163-4.752 6.003-8.106 7.74-3.355 1.737-7.432 2.274-10.961 0.93-1.555-0.592-3.037-1.605-3.736-3.113-1.128-2.436 0.07-5.261 1.257-7.669 0.914-1.855 1.827-3.71 2.74-5.565-1.966 1.812-4.054 3.684-6.653 4.311-3.548 0.857-7.513-1.038-9.258-4.244-1.744-3.207-1.254-7.429 1.015-10.289-1.488 1.829-3.955 2.667-6.312 2.605-2.358-0.061-4.625-0.922-6.725-1.996-1.119 1.788 1.234 4.024 0.778 6.083-0.118 0.533-0.423 1.028-0.418 1.574 0.002 0.377 0.155 0.736 0.314 1.078"
          fill="#58595b"/></g>
        <g id="g252" transform="translate(284.43 603.28)"><path id="path254" d="m0 0c-1.769-1.257-3.068-3.228-3.222-5.392-0.153-2.163 0.748-4.542 1.394-6.613-1.258 1.979-2.179 4.276-2.017 6.615 0.161 2.339 1.607 4.687 3.845 5.39" fill="#808285"/></g>
        <g id="g256" transform="translate(289.22 604.81)"><path
          id="path258"
          d="m0 0c-0.761-0.094-1.487-0.369-2.188-0.68 5.117 1.113 10.76-0.623 14.367-4.419-0.529 0.522-1.058 1.044-1.586 1.567-1.129 1.115-2.321 2.269-3.838 2.734-0.906 0.278-1.869 0.289-2.81 0.409-1.315 0.168-2.629 0.552-3.945 0.389"
          fill="#808285"/></g>
        <g id="g260" transform="translate(277.53 606.5)"><path
          id="path262"
          d="m0 0c-0.813-0.456-5.888-4.566-7.414-6.354-0.586-0.686-1.172-1.373-1.76-2.059 3.219 3.329 6.541 6.733 10.748 8.669 1.641 0.755 3.389 1.271 5.172 1.56 3.454 0.559 7.158 0.221 10.165-1.569-2.358 1.816-9.313 4.008-16.911-0.247"
          fill="#808285"/></g>
        <g id="g264" transform="translate(269.3 579.01)"><path id="path266" d="m0 0c-1.227 1.836-1.328 4.232-0.852 6.388 0.258 1.169 0.684 2.324 1.426 3.263 0.743 0.94 1.834 1.647 3.027 1.743-0.607-0.349-1.177-0.762-1.697-1.23l1.641 0.744c-3.193-2.501-4.658-7.007-3.545-10.908" fill="#808285"/></g>
        <g id="g268" transform="translate(210.21 581.6)"><path
          id="path270"
          d="m0 0c-0.953 1.404-2.076 2.683-3.201 3.953-4.403 4.968-9.038 9.95-14.944 12.982-5.905 3.032-13.405 3.785-19.033 0.265-5.442-3.402-8.019-9.906-9.661-16.109 1.534 3.452 3.731 6.685 6.766 8.935 3.034 2.25 6.973 3.431 10.672 2.667 1.629-0.335 3.255-1.098 4.186-2.476 1.502-2.224 0.769-5.205-0.017-7.771-0.606-1.977-1.211-3.954-1.817-5.931 1.651 2.102 3.414 4.284 5.879 5.318 3.366 1.412 7.584 0.175 9.818-2.712s2.424-7.134 0.64-10.319c1.177 2.044 3.479 3.264 5.816 3.58 2.337 0.315 4.712-0.172 6.956-0.897 0.82 1.943-1.86 3.775-1.739 5.881 0.031 0.544 0.254 1.082 0.162 1.62-0.063 0.372-0.271 0.701-0.483 1.014"
          fill="#414142"/></g>
        <g id="g272" transform="translate(182.33 595.08)"><path id="path274" d="m0 0c1.946-0.958 3.544-2.697 4.041-4.808 0.497-2.112-0.014-4.604-0.32-6.751 0.926 2.154 1.468 4.568 0.935 6.852-0.533 2.283-2.335 4.37-4.656 4.707" fill="#58595b"/></g>
        <g id="g276" transform="translate(177.36 595.82)"><path
          id="path278"
          d="m0 0c0.766 0.028 1.528-0.127 2.269-0.322-5.229 0.282-10.523-2.333-13.478-6.657 0.439 0.601 0.878 1.201 1.316 1.801 0.937 1.281 1.929 2.61 3.353 3.312 0.85 0.419 1.798 0.584 2.707 0.853 1.272 0.375 2.508 0.964 3.833 1.013"
          fill="#58595b"/></g>
        <g id="g280" transform="translate(188.63 599.35)"><path
          id="path282"
          d="m0 0c0.876-0.32 6.541-3.568 8.334-5.089 0.689-0.584 1.377-1.168 2.065-1.752-3.709 2.773-7.532 5.603-11.994 6.843-1.74 0.483-3.548 0.713-5.354 0.713-3.5 0.001-7.102-0.924-9.785-3.171 2.039 2.169 8.555 5.444 16.734 2.456"
          fill="#58595b"/></g>
        <g id="g284" transform="translate(201.14 573.53)"><path id="path286" d="m0 0c0.917 2.008 0.635 4.389-0.18 6.442-0.442 1.113-1.046 2.185-1.929 2.994s-2.072 1.332-3.265 1.236c0.654-0.247 1.283-0.563 1.871-0.943-0.58 0.158-1.16 0.315-1.739 0.472 3.552-1.958 5.718-6.173 5.242-10.201" fill="#808285"/></g>
        <g id="g288" transform="translate(261.58 579.8)"><path id="path290" d="m0 0c0.761-15.828-10.469-34.664-25.405-35.383-14.938-0.718-27.924 16.953-28.686 32.781-0.761 15.829 10.73 29.242 25.667 29.961 14.937 0.718 27.663-11.531 28.424-27.359" fill="#58595b"/></g>
        <g id="g292" transform="translate(260.87 585.04)"><path
          id="path294"
          d="m0 0c2.097-7.589 0.394-14.177-2.206-21.608-0.824-2.354-1.764-4.686-3.121-6.778-2.49-3.838-6.238-6.657-9.906-9.392-0.295-0.221-0.86-0.343-0.907 0.023 2.017 2.521 3.886 5.16 5.595 7.9 1.554 2.493 2.982 5.08 4.006 7.833 2.165 5.82 2.455 12.151 2.503 18.36 0.035 4.666-0.097 9.523-2.221 13.678-2.414 4.722-7.033 7.846-11.463 10.764 1.241-0.861 13.091-4.018 17.72-20.78"
          fill="#808285"/></g>
        <g id="g296" transform="translate(253.86 607.39)"><path
          id="path298"
          d="m0 0c-0.337-0.565-0.712-1.13-1.122-1.693-1.377-1.886-2.857-3.723-4.566-5.321-0.749-0.697-1.299-0.938-1.038-2.045 0.202-0.857 1.043-1.608 1.887-1.795 1.435-0.319 2.902 0.427 4.018 1.384 3.59 3.079 6.403 8.09 7.234 12.746 1.07 6.003-5.309 12.24-6.36 12.987-2.055 1.46-4.241 2.802-6.669 3.487 1.732-0.343 2.877-1.883 4.178-3.079 5.429-4.996 5.901-10.867 2.438-16.671"
          fill="#58595b"/></g>
        <g id="g300" transform="translate(210.76 603.6)"><path
          id="path302"
          d="m0 0c0.49-0.528 1.038-1.031 1.646-1.504 1.17-0.91 2.488-1.612 3.688-2.482 1.68-1.218 4.719-4.559 1.314-5.874-1.371-0.529-2.934-0.012-4.18 0.767-4.01 2.507-7.542 7.041-9.06 11.52-1.958 5.776 3.416 12.897 4.344 13.793 1.814 1.751 3.776 3.405 6.072 4.446-1.662-0.599-2.562-2.293-3.669-3.67-4.197-5.223-4.647-12.153-0.155-16.996"
          fill="#58595b"/></g>
        <g id="g304" transform="translate(258.66 611.21)"><path
          id="path306"
          d="m0 0c0.091 0.388 0.198 0.803 0.506 1.057 0.548-1.255 0.128-2.703-0.351-3.986-1.502-4.023-3.677-7.98-7.185-10.457-0.131-0.092-0.278-0.186-0.438-0.175-0.158 0.01-0.31 0.185-0.237 0.327 0.035 0.067 0.106 0.106 0.173 0.142 1.178 0.636 2.053 1.701 2.898 2.74 0.737 0.904 1.474 1.813 2.074 2.813 1.37 2.286 1.954 4.943 2.56 7.539"
          fill="#808285"/></g>
        <g id="g308" transform="translate(253.14 595.05)"><path
          id="path310"
          d="m0 0c0.197-0.397 0.383-0.826 0.344-1.267-0.192-0.091-0.405 0.073-0.535 0.24-0.384 0.486-0.582 1.089-0.774 1.678-0.178 0.544-0.353 1.087-0.53 1.63 0.298-0.229 0.513-0.548 0.709-0.867 0.284-0.459 0.546-0.931 0.786-1.414"
          fill="#808285"/></g>
        <g id="g312" transform="translate(214.12 599.88)"><path id="path314" d="m0 0c-1.787 1.196-3.484 2.566-4.802 4.265s-2.243 3.751-2.351 5.899c0.322-0.443 0.478-0.981 0.656-1.498 1.326-3.85 4.224-7.133 7.88-8.926-0.408-0.289-0.967-0.018-1.383 0.26" fill="#808285"/></g>
        <g id="g316" transform="translate(219.3 582.32)"><path
          id="path318"
          d="m0 0c-1.813-4.299-2.269-9.159-1.286-13.721 0.439-2.035 1.326-4.207 3.207-5.1 1.935-0.919 4.335-0.118 5.89 1.356 1.555 1.473 2.45 3.493 3.307 5.457l2.679 6.138c-4.457 2.015-8.913 4.029-13.37 6.044-0.079 0.036-0.168 0.072-0.25 0.044-0.092-0.031-0.139-0.129-0.177-0.218"
          fill="#414142"/></g>
        <g id="g320" transform="translate(249.61 583.78)"><path
          id="path322"
          d="m0 0c2.219-4.105 3.139-8.899 2.598-13.534-0.243-2.068-0.916-4.315-2.703-5.384-1.838-1.101-4.305-0.534-5.994 0.784-1.689 1.317-2.774 3.242-3.815 5.114-1.086 1.951-2.171 3.902-3.256 5.853 4.243 2.433 8.484 4.866 12.729 7.299 0.074 0.044 0.16 0.088 0.244 0.068 0.093-0.022 0.151-0.115 0.197-0.2"
          fill="#414142"/></g>
        <g id="g324" transform="translate(248.22 574.16)"><path id="path326" d="m0 0c-1.113-0.803-2.451-1.389-3.823-1.449-3.095-0.133-7.933 3.303-7.933 3.303s8.57 6.161 12.278 8.82c0.982-1.121 1.652-2.512 1.914-3.978 0.441-2.466-0.403-5.231-2.436-6.696" fill="#d1d3d4"/></g>
        <g id="g328" transform="translate(247 575.8)"><path id="path330" d="m0 0c-0.843-0.608-1.854-1.074-2.895-1.097-2.545-0.054-4.797 1.563-5.311 1.948-0.125 0.094-0.736 0.521-0.736 0.521s6.531 4.696 9.338 6.708c0.742-0.848 1.25-1.901 1.447-3.011 0.334-1.867-0.305-3.96-1.843-5.069"/></g>
        <g id="g332" transform="translate(246.74 581.96)"><path
          id="path334"
          d="m0 0c-0.019 0.142-0.033 0.303 0.059 0.413 0.117 0.138 0.349 0.116 0.486-0.001s0.198-0.298 0.245-0.472c0.085-0.321 0.14-0.65 0.158-0.981 0.015-0.227 0.009-0.465-0.096-0.666-0.082-0.157-0.272-0.289-0.43-0.21-0.127 0.062-0.166 0.222-0.189 0.362-0.085 0.517-0.163 1.036-0.233 1.555"
          fill="#fff"/></g>
        <g id="g336" transform="translate(246.94 577.76)"><path id="path338" d="m0 0c-0.175 0.148-0.164 0.416-0.139 0.644 0.022 0.19 0.045 0.387 0.154 0.545 0.106 0.157 0.325 0.256 0.493 0.168 0.144-0.076 0.199-0.253 0.229-0.413 0.048-0.258 0.066-0.542-0.067-0.768s-0.469-0.345-0.67-0.176" fill="#fff"/></g>
        <g id="g340" transform="translate(221.87 572.43)"><path id="path342" d="m0 0c1.227-0.617 2.641-0.985 4.005-0.826 3.077 0.357 7.311 4.514 7.311 4.514s-9.436 4.729-13.517 6.769c-0.793-1.261-1.234-2.741-1.261-4.23-0.046-2.504 1.225-5.101 3.462-6.227" fill="#d1d3d4"/></g>
        <g id="g344" transform="translate(222.82 574.24)"><path id="path346" d="m0 0c0.929-0.467 2.002-0.768 3.032-0.626 2.522 0.349 4.491 2.301 4.937 2.763 0.108 0.112 0.644 0.63 0.644 0.63s-7.189 3.605-10.279 5.15c-0.6-0.955-0.934-2.075-0.955-3.203-0.034-1.896 0.927-3.862 2.621-4.714"/></g>
        <g id="g348" transform="translate(222.1 580.37)"><path
          id="path350"
          d="m0 0c-0.004 0.143-0.015 0.304-0.124 0.398-0.135 0.119-0.362 0.06-0.479-0.077-0.116-0.138-0.149-0.326-0.167-0.505-0.034-0.33-0.035-0.664-0.002-0.994 0.023-0.226 0.065-0.46 0.201-0.642 0.106-0.142 0.314-0.243 0.458-0.14 0.116 0.082 0.128 0.246 0.129 0.388 0.002 0.524-0.003 1.048-0.016 1.572"
          fill="#fff"/></g>
        <g id="g352" transform="translate(222.56 576.2)"><path
          id="path354"
          d="m0 0c0.15 0.174 0.097 0.437 0.036 0.658-0.051 0.184-0.106 0.375-0.237 0.514-0.131 0.138-0.362 0.202-0.514 0.087-0.131-0.098-0.157-0.28-0.161-0.443-0.008-0.263 0.02-0.545 0.187-0.748 0.168-0.202 0.518-0.267 0.689-0.068"
          fill="#fff"/></g>
        <g id="g356" transform="translate(246.81 599.02)"><path
          id="path358"
          d="m0 0c1.849-1.862 2.981-4.329 3.686-6.857 0.291-1.046 0.515-2.152 0.284-3.214-0.232-1.061-1.027-2.067-2.099-2.234-1.15-0.18-2.269 0.654-2.787 1.696-0.516 1.042-0.563 2.248-0.568 3.412s0.013 2.359-0.395 3.449c-0.633 1.691-2.172 2.843-3.606 3.94-0.521 0.398-1.053 0.821-1.339 1.409-0.287 0.588-0.248 1.389 0.263 1.796 0.703 0.558 1.725 0.089 2.485-0.387 1.434-0.899 2.884-1.808 4.076-3.01"
          fill="#808285"/></g>
        <g id="g360" transform="translate(51.716 351.75)"><path
          id="path362"
          d="m0 0c-0.632 0.679-1.012 1.549-1.353 2.41-2.171 5.49-3.228 11.418-3.089 17.319 0.142 6.019 1.59 12.107 1.088 18.13-0.259 3.113-5.877 13.228-1.892 13.853 1.639 0.257 3.344-0.441 4.953-0.036 0.207 0.052 5.89-33.228 7.137-36.545 1.389-3.697 3.103-7.625 2.128-11.453-0.974-3.828-6.281-6.571-8.972-3.678"
          fill="#808285"/></g>
        <g id="g364" transform="translate(380.44 555.21)"><path id="path366" d="m0 0c-3.197 0.65-4.846 4.319-4.986 7.579s0.701 6.549 0.158 9.766c6.045 2.249 12.848-4.307 12.073-10.71-0.442-3.656-3.636-7.368-7.245-6.635" fill="#808285"/></g>
        <g id="g368" transform="translate(392.35 521.87)"><path id="path370" d="m0 0c0.661-3.168 0.899-6.659-0.72-9.461s-5.699-4.33-8.233-2.316c-7.116 7.587-6.237 21.176 1.797 27.784 3.493-4.742 5.952-10.242 7.156-16.007" fill="#808285"/></g>
        <g id="g372" transform="translate(404.37 517.48)"><path id="path374" d="m0 0c-1.461 0.953 0.68 3.379 2.257 2.635 1.578-0.745 1.995-2.755 2.218-4.485 0.322-2.498 0.629-5.135-0.353-7.455-0.981-2.321-3.742-4.09-6.05-3.077-1.889 5.979-2.717 14.411 3.119 16.701" fill="#808285"/></g>
        <g id="g376" transform="translate(425.64 424.01)"><path
          id="path378"
          d="m0 0c3.264-8.753 5.795-17.859 6.408-27.18 0.303-4.606 0.137-9.227-0.031-13.839-0.604-16.729-1.209-33.455-1.813-50.184-0.115-3.169-1.986-7.578-4.908-6.349-1.859 9.344-2.688 18.858-3.514 28.347l-4.392 50.457c-0.278 3.202 0.203 7.48 3.361 8.069 1.631 3.559 3.26 7.119 4.889 10.679"
          fill="#808285"/></g>
        <g id="g380" transform="translate(401.29 472.9)"><path id="path382" d="m0 0c-3.178-2.245-6.714 2.901-6.232 6.762 0.607 4.85 3.657 9.331 7.946 11.674 1.352-4.922 1.393-10.198 0.12-15.141-0.321-1.244-0.785-2.554-1.834-3.295" fill="#808285"/></g>
        <g id="g384" transform="translate(439.85 292.64)"><path id="path386" d="m0 0c-4.775-0.217-9.543 2.736-11.473 7.111-1.931 4.373-0.902 9.886 2.477 13.268 4.176-0.249 7.507-3.922 8.716-7.926 1.21-4.004 0.75-8.297 0.28-12.453" fill="#808285"/></g>
        <g id="g388" transform="translate(173.14 417.85)"><path
          id="path390"
          d="m0 0c1.486-13.254 2.972-26.508 4.457-39.761 11.23-1.726 22.68-0.543 33.979 0.645 34.97 3.672 69.939 7.345 104.91 11.017 0.916 17.676-1.201 35.506-6.23 52.475-43.18-5.046-86.354-10.094-129.53-15.143-2.482-0.29-5.26-0.746-6.725-2.773-1.304-1.803-1.113-4.248-0.865-6.46"
          fill="#808285"/></g>
      </g>
    </g>
    <g font-family="&apos;Myriad Pro&apos;" fill="#231f20">
      <text id="current-score" transform="matrix(.99895 .045811 .045811 -.99895 0 0)" font-size="52.577px" y="-435.55786" x="214.61954">
        <tspan id="current-score-span" y="-435.55786" x="214.61954 241.5916 268.56366"></tspan>
      </text>
      <text id="text396" transform="matrix(.99895 .045811 .045811 -.99895 192.3 385.38)" font-size="38.135px">
        <tspan id="tspan4749" x="0" y="0">best</tspan>
      </text>
      <text id="text400" transform="matrix(.99895 .045811 .045811 -.99895 184.32 502.87)" font-size="29.43px">
        <tspan id="tspan402" y="0" x="0 14.508792 31.577957 51.85495 67.688072">SCORE</tspan>
      </text>
      <text id="high-score" transform="matrix(.99895 .045811 .045811 -.99895 0 0)" font-size="38.135px" y="-315.72873" x="215.80081">
        <tspan id="high-score-span" y="-315.72873" x="215.80081 235.36414 254.92746 274.49078 294.05411"></tspan>
      </text>
    </g>
    <g id="g408">
      <g id="g410" clip-path="url(#clipPath412)">
        <g id="g416" transform="translate(425.49 414.26)"><path id="path418" d="m0 0c0.851 1.431 2.344 2.777 3.978 2.463 1.582-0.305 2.459-1.977 3.021-3.485 1.863-5.002 2.781-10.355 2.688-15.692-3.915-0.062-7.786 2.127-9.749 5.515-1.962 3.386-1.938 7.835 0.062 11.199" fill="#808285"/></g>
        <g id="restart-btn">
          <g id="g420" transform="translate(126.32 238.86)"><path
            id="path422"
            d="m0 0c-0.891-2.033-2.866-3.365-4.847-4.366-15.432-7.793-34.119-1.481-51.216-4.042-5.816-0.871-13.246-2.112-16.271 2.932-0.888 1.479-1.15 3.239-1.384 4.948-2.451 17.851-3.896 35.841-4.327 53.853-0.033 1.419-0.053 2.883 0.476 4.2 1.427 3.555 5.945 4.468 9.754 4.873 16.321 1.736 32.642 3.472 48.963 5.208 2.804 0.298 5.772 0.57 8.323-0.629 4.675-2.2 5.927-8.153 6.556-13.28 1.969-16.071 3.467-32.199 4.489-48.357 0.114-1.803 0.209-3.686-0.516-5.34"
            fill="#4b9443"/></g>
          <g id="g424" transform="translate(98.425 264.29)"><path
            id="path426"
            d="m0 0c2.918 2.418 6.44 4.531 9.145 7.01 1.126-5.233 4.057-9.781 6.358-14.54 4.294-8.882-4.338-0.315-5.226-1.782-1.834-3.03-2.616-6.064-5.421-8.393-2.436-2.022-5.527-3.611-8.657-4.184-7.443-1.361-15.112 1.576-21.264 5.979-1.378 0.986-2.719 2.063-3.738 3.418-1.89 2.512-2.514 5.76-2.633 8.9-0.243 6.448 1.522 13.072 5.522 18.136 4 5.063 10.34 8.386 16.787 8.121s12.742-4.408 14.953-10.47c0.39-1.069 0.656-2.246 0.339-3.339-0.316-1.093-1.383-2.034-2.508-1.865-3.045 6.238-10.827 9.722-17.509 7.841-6.681-1.881-11.502-8.914-10.846-15.824 0.454-4.783 3.335-9.239 7.424-11.764 4.09-2.523 9.282-3.113 13.886-1.735 3.186 0.953 8.187 3.339 9.267 6.766-2.02 1.468-4.373 2.621-6.546 3.88-0.712 0.412-1.397 0.767-1.982 1.32 0.783 0.891 1.683 1.724 2.649 2.525"
            fill="#fff200"/></g>
        </g>
        <g id="leader-board" transform="translate(210.62 241.37)"><path
          id="path430"
          d="m0 0c-0.966-1.998-2.989-3.257-5.006-4.183-15.711-7.213-34.15-0.213-51.33-2.136-5.845-0.656-13.316-1.619-16.152 3.532-0.832 1.513-1.028 3.28-1.199 4.997-1.786 17.93-2.563 35.959-2.324 53.977 0.019 1.418 0.054 2.882 0.631 4.179 1.559 3.499 6.107 4.244 9.929 4.507 16.374 1.129 32.748 2.257 49.123 3.386 2.812 0.194 5.789 0.356 8.294-0.938 4.589-2.371 5.62-8.366 6.057-13.513 1.372-16.133 2.269-32.306 2.691-48.491 0.047-1.806 0.072-3.691-0.714-5.317"
          fill="#ef4136"/></g>
        <g id="g432" transform="translate(149.82 295.3)"><path id="path434" d="m0 0c0.729-0.838 1.021-2.038 0.758-3.116-0.365-1.499-1.828-2.656-3.371-2.665-1.543-0.01-3.02 1.13-3.402 2.625-0.362 1.409 0.271 3.017 1.496 3.803 1.396 0.896 3.43 0.604 4.519-0.647" fill="#fff"/></g>
        <g id="g436" transform="translate(196.72 294.45)"><path
          id="path438"
          d="m0 0c-0.323-0.479-0.929-0.662-1.49-0.801-4.379-1.074-8.907-1.355-13.407-1.632-6.392-0.392-12.784-0.785-19.175-1.177-2.223-0.136-4.575-0.247-6.543 0.794-1.09 0.576-2.059 1.957-1.351 2.965 0.551 0.787 1.696 0.747 2.656 0.751 2.337 0.008 4.599 0.748 6.868 1.307 9.571 2.354 19.6 1.497 29.417 0.625 0.838-0.074 1.718-0.163 2.408-0.644 0.69-0.48 1.088-1.492 0.617-2.188"
          fill="#fff"/></g>
        <g id="g440" transform="translate(149.82 280.99)"><path id="path442" d="m0 0c0.729-0.838 1.021-2.038 0.758-3.117-0.365-1.499-1.828-2.656-3.371-2.665s-3.02 1.13-3.402 2.625c-0.362 1.41 0.271 3.018 1.496 3.803 1.396 0.897 3.43 0.605 4.519-0.646" fill="#fff"/></g>
        <g id="g444" transform="translate(196.72 280.14)"><path
          id="path446"
          d="m0 0c-0.323-0.479-0.929-0.662-1.49-0.8-4.379-1.075-8.907-1.356-13.407-1.632-6.392-0.393-12.784-0.785-19.175-1.178-2.223-0.136-4.575-0.246-6.543 0.795-1.09 0.575-2.059 1.956-1.351 2.965 0.551 0.787 1.696 0.747 2.656 0.751 2.337 0.008 4.599 0.748 6.868 1.306 9.571 2.355 19.6 1.497 29.417 0.625 0.838-0.074 1.718-0.163 2.408-0.644 0.69-0.48 1.088-1.491 0.617-2.188"
          fill="#fff"/></g>
        <g id="g448" transform="translate(150.68 268.91)"><path id="path450" d="m0 0c0.729-0.838 1.021-2.038 0.758-3.116-0.365-1.499-1.828-2.656-3.371-2.665-1.543-0.01-3.02 1.13-3.402 2.625-0.362 1.409 0.271 3.017 1.496 3.803 1.396 0.896 3.43 0.604 4.519-0.647" fill="#fff"/></g>
        <g id="g452" transform="translate(197.57 268.07)"><path
          id="path454"
          d="m0 0c-0.323-0.479-0.929-0.662-1.49-0.801-4.379-1.074-8.907-1.355-13.407-1.632-6.392-0.392-12.784-0.785-19.175-1.177-2.223-0.136-4.575-0.247-6.543 0.794-1.09 0.576-2.059 1.957-1.351 2.965 0.551 0.787 1.696 0.747 2.656 0.751 2.337 0.008 4.599 0.748 6.868 1.307 9.571 2.354 19.6 1.496 29.417 0.625 0.838-0.074 1.718-0.163 2.408-0.644 0.69-0.48 1.088-1.492 0.617-2.188"
          fill="#fff"/></g>
        <g id="g456" transform="translate(152.47 245.3)"><path id="path458" d="m0 0c0.729-0.838 1.021-2.037 0.758-3.116-0.365-1.499-1.828-2.656-3.371-2.665-1.543-0.01-3.02 1.13-3.402 2.625-0.362 1.41 0.271 3.017 1.496 3.803 1.396 0.896 3.43 0.604 4.519-0.647" fill="#fff"/></g>
        <g id="g460" transform="translate(199.36 244.45)"><path
          id="path462"
          d="m0 0c-0.323-0.479-0.929-0.662-1.49-0.801-4.379-1.074-8.907-1.355-13.407-1.632-6.392-0.392-12.784-0.785-19.175-1.177-2.223-0.136-4.575-0.247-6.543 0.794-1.09 0.576-2.059 1.957-1.351 2.965 0.551 0.787 1.696 0.747 2.656 0.751 2.337 0.008 4.599 0.748 6.868 1.307 9.571 2.354 19.6 1.497 29.417 0.625 0.838-0.074 1.718-0.163 2.408-0.644 0.69-0.48 1.088-1.492 0.617-2.188"
          fill="#fff"/></g>
        <g id="g464" transform="translate(150.68 257.3)"><path id="path466" d="m0 0c0.729-0.838 1.021-2.037 0.758-3.116-0.365-1.499-1.828-2.656-3.371-2.665-1.543-0.01-3.02 1.13-3.402 2.625-0.362 1.41 0.271 3.017 1.496 3.803 1.396 0.896 3.43 0.604 4.519-0.647" fill="#fff"/></g>
        <g id="g468" transform="translate(197.57 256.45)"><path
          id="path470"
          d="m0 0c-0.323-0.479-0.929-0.662-1.49-0.801-4.379-1.074-8.907-1.355-13.407-1.632-6.392-0.392-12.784-0.785-19.175-1.177-2.223-0.136-4.575-0.247-6.543 0.794-1.09 0.576-2.059 1.957-1.351 2.965 0.551 0.787 1.696 0.747 2.656 0.751 2.337 0.008 4.599 0.748 6.868 1.307 9.571 2.354 19.6 1.497 29.417 0.625 0.838-0.074 1.718-0.163 2.408-0.644 0.69-0.48 1.088-1.492 0.617-2.188"
          fill="#fff"/></g>
        <g id="pledge-project" transform="translate(422.34 249.72)"><path
          id="path474"
          d="m0 0c1.974 19.333 1.754 38.89-0.649 58.174-0.122 0.968-0.28 2.004-0.954 2.708-0.767 0.803-1.978 0.945-3.084 1.04-42.531 3.65-86.457 6.064-128.92-1.336-3.656-0.637-7.571-1.573-9.967-4.407-2.775-3.282-2.659-8.049-2.313-12.333 0.659-8.179 2.864-16.797 2.708-24.96-0.11-5.745-3.054-11.794-0.285-17.469 4.789-9.807 28.484-2.042 36.938-2.378 9.996 0.696 20.011 1.394 30.028 1.099 12.229-0.36 24.36-2.195 36.549-3.252 11.423-0.99 31.037-6.324 39.928 2.952 0.004 0.055 0.01 0.108 0.015 0.162"
          fill="#28aae2"/></g>
      </g>
    </g>
    <text id="text476" transform="matrix(.99999 -.0037222 -.0037222 -.99999 295.8 283.11)" font-size="18px" font-family="&apos;Myriad Pro&apos;" fill="#ffffff">
      <tspan id="tspan478" y="0" x="0 10.169957 14.34594 23.291903 33.371861 43.36182 52.307781 56.069767 61.97374">pledge to</tspan>
      <tspan id="tspan480" y="21.005913" x="-2.1059911 6.497973 10.259957 20.429914 26.243891 36.053848 40.355831 49.301792 57.31176">a project</tspan>
    </text>
    <g id="g482">
      <g id="g484" clip-path="url(#clipPath486)">
        <g id="g490" transform="translate(411.77 304.89)"><path
          id="path492"
          d="m0 0c1.487 0.512 2.799-1.175 3.23-2.689 1.219-4.275-0.042-8.995 1.356-13.213 0.334-1.007 0.812-1.961 1.129-2.974 0.562-1.804 0.59-3.724 0.611-5.612 0.104-8.8 0.207-17.599 0.311-26.4 0.013-1.212 0.009-2.498-0.631-3.527-0.64-1.03-2.162-1.605-3.099-0.835 0.478 7.903 0.939 15.991-1.245 23.603-0.869 3.032-2.164 6.105-1.695 9.224 0.164 1.079 0.537 2.138 0.492 3.228-0.049 1.117-0.533 2.161-0.927 3.208-1.926 5.118-1.755 10.99 0.468 15.987"
          fill="#71c9e8"/></g>
        <g id="g494" transform="translate(385.17 486.01)"><path
          id="path496"
          d="m0 0c1.687-2.494 1.379-5.789 0.91-8.763-0.468-2.973-0.999-6.179 0.358-8.867 1.355-2.688 5.511-4.062 7.398-1.716 3.869-6.466 0.387-14.58-0.964-21.994-1.977-10.861 0.944-21.962 1.158-33 0.299-15.272-4.592-30.317-4.053-45.582 0.166-4.672 0.839-9.365 0.25-14.002-0.588-4.638-2.703-9.386-6.75-11.725-4.047-2.34-10.159-1.212-12.045 3.065-0.834 1.893-0.767 4.043-0.688 6.111 0.708 18.515 1.094 37.042 1.159 55.571 0.062 17.431-0.163 34.888-1.858 52.236-1.009 10.303-2.514 20.878 0.202 30.867 0.605 2.22 2.531 4.894 4.587 3.863-1.307-6.167 1.777-13.007 7.262-16.11-1.139 3.548 0.145 7.74 3.074 10.043"
          fill="#fff"/></g>
        <g id="g498" transform="translate(399.16 364.78)"><path
          id="path500"
          d="m0 0c-0.191 6.685-0.383 13.371-0.574 20.056-0.096 3.373 0.658 7.821 4.002 8.272 4.047-8.117 3.422-17.679 2.701-26.72-0.113-1.437-0.252-2.948-1.063-4.143-0.81-1.194-2.534-1.9-3.744-1.112-1.131 0.734-1.285 2.298-1.322 3.647"
          fill="#fff"/></g>
        <g id="g502" transform="translate(394.49 337.32)"><path id="path504" d="m0 0c-0.852 0.789-0.889 2.1-0.864 3.26 0.089 4.272 0.749 9.448 4.663 11.159 1.128-3.179 1.578-6.597 1.314-9.96-0.111-1.414-0.385-2.902-1.328-3.962-0.942-1.06-2.746-1.461-3.785-0.497" fill="#fff"/></g>
        <g id="g506" transform="translate(371.41 526.12)"><path
          id="path508"
          d="m0 0c0.294-2.418 1.432-4.683 1.634-7.11s-1.044-5.32-3.459-5.631c0.955 2.539-2.256 4.484-3.783 6.726-1.808 2.654-1.209 6.243-0.145 9.273 1.065 3.03 2.546 6.074 2.285 9.275-0.118 1.466-0.601 2.876-0.868 4.322-0.945 5.116 0.857 10.328 3.053 15.043 2.843-3.094 3.852-7.758 2.545-11.751 1.018-0.256 2.038-0.513 3.057-0.77 0.467-6.667-5.125-12.742-4.319-19.377"
          fill="#fff"/></g>
        <g id="g510" transform="translate(221.63 245.06)"><path
          id="path512"
          d="m0 0c-0.437 0.466-0.83 0.991-1.17 1.587-5.057 8.854-4.76 20.184-1.894 29.537 3.159 10.314 18.703 12.35 27.55 10.11 11.506-2.911 13.021-15.158 12.981-25.228-0.02-4.799 0.316-11.33-3.151-15.231-3.1-3.489-8.871-3.409-13.149-3.486-6.476-0.118-16.062-2.709-21.167 2.711"
          fill="#2a3890"/></g>
        <g id="fb-btn" transform="translate(233.2 254.43)"><path
          id="path516"
          d="m0 0c-0.093 0.517-0.172 1.037-0.242 1.557-0.358 2.672-0.43 5.372-0.555 8.063-0.114 2.446-0.65 4.751-0.655 7.222-0.001 0.956 0.044 1.955 0.514 2.786 0.486 0.861 1.377 1.433 2.317 1.738s1.938 0.373 2.924 0.438c1.057 0.07 2.116 0.137 3.175 0.211 0.663 0.045 1.765 0.399 2.406 0.187 1.47-0.488 1.757-2.998 0.894-4.06-1.068-1.317-2.477-0.961-3.849-0.947-0.358 0.003-0.713-0.017-1.059-0.096-0.282-0.064-0.586-0.141-0.767-0.364-0.194-0.233-0.202-0.562-0.198-0.863 0.019-1.726 0.151-3.451 0.395-5.159 0.017-0.113 0.035-0.231 0.099-0.324 0.107-0.151 0.306-0.201 0.489-0.219 1.111-0.113 2.189 0.521 3.304 0.444 1.168-0.082 2.424-1.087 2.329-2.349-0.269-3.556-7.067-0.591-6.972-4.099 0.069-2.58 0.817-5.087 1.272-7.628 0.129-0.728 0.188-1.601-0.373-2.082-0.261-0.226-0.612-0.314-0.952-0.374-0.684-0.122-1.968-0.366-2.548 0.074-0.47 0.357-0.779 1.609-0.978 2.148-0.866 2.353-1.214 4.917-1.739 7.362-1.166-0.135-2.401-0.147-3.45 0.38-1.048 0.527-1.833 1.733-1.535 2.868 1.702 1.254 3.841 1.901 5.952 1.804"
          fill="#fff"/></g>
      </g>
    </g>
  </g>

  <style>
    #restart-btn:hover, #fb-btn:hover, #leader-board:hover, #pledge-project:hover {
      cursor: pointer;
    }
  </style>
</svg>
