<?xml version="1.0" encoding="UTF-8" standalone="no"?>
<!-- Created with Inkscape (http://www.inkscape.org/) -->

<svg
   xmlns:dc="http://purl.org/dc/elements/1.1/"
   xmlns:cc="http://creativecommons.org/ns#"
   xmlns:rdf="http://www.w3.org/1999/02/22-rdf-syntax-ns#"
   xmlns:svg="http://www.w3.org/2000/svg"
   xmlns="http://www.w3.org/2000/svg"
   xmlns:sodipodi="http://sodipodi.sourceforge.net/DTD/sodipodi-0.dtd"
   xmlns:inkscape="http://www.inkscape.org/namespaces/inkscape"
   width="62.271473mm"
   height="53.951363mm"
   viewBox="0 0 220.64695 191.16624"
   id="svg25048"
   version="1.1"
   inkscape:version="0.91 r13725"
   sodipodi:docname="goodDream.svg">
  <defs
     id="defs25050">
    <clipPath
       clipPathUnits="userSpaceOnUse"
       id="clipPath24261">
      <path
         d="m 0,482.65 497.796,0 L 497.796,0 0,0 0,482.65 Z"
         id="path24263"
         inkscape:connector-curvature="0" />
    </clipPath>
    <clipPath
       clipPathUnits="userSpaceOnUse"
       id="clipPath24285">
      <path
         d="m 223.308,391.295 70,0 0,-18.473 -70,0 0,18.473 z"
         id="path24287"
         inkscape:connector-curvature="0" />
    </clipPath>
    <radialGradient
       fx="0"
       fy="0"
       cx="0"
       cy="0"
       r="1"
       gradientUnits="userSpaceOnUse"
       gradientTransform="matrix(25.637692,0,0,-25.637692,258.3082,381.7998)"
       spreadMethod="pad"
       id="radialGradient24293">
      <stop
         style="stop-opacity:1;stop-color:#ffffff"
         offset="0"
         id="stop24295" />
      <stop
         style="stop-opacity:1;stop-color:#ffffff"
         offset="0.14985505"
         id="stop24297" />
      <stop
         style="stop-opacity:1;stop-color:#868484"
         offset="1"
         id="stop24299" />
    </radialGradient>
    <clipPath
       clipPathUnits="userSpaceOnUse"
       id="clipPath24015">
      <path
         d="m 339.684,340.914 c 0.106,4.046 -3.288,4.06 -3.288,4.06 l 0,0 c 1.711,-2.972 -3.886,-7.707 -8.927,-3.591 l 0,0 c -5.039,4.116 -6.318,4.081 -7.678,3.407 l 0,0 c -1.36,-0.673 -0.529,-2.322 -0.529,-2.322 l 0,0 c -6.786,5.22 -8.64,4.351 -9.711,3.836 l 0,0 c -1.072,-0.514 -0.612,-2.444 -0.612,-2.444 l 0,0 c 0,0 -4.564,3.508 -8.143,2.216 l 0,0 c -3.578,-1.291 -0.386,-3.674 -0.386,-3.674 l 0,0 c -0.181,-3.637 -7.928,-7.737 -14.166,-4.195 l 0,0 c -3.661,2.078 -5.673,-0.921 -3.884,-1.977 l 0,0 c 3.131,-11.295 7.403,-12.631 8.55,-12.527 l 0,0 c 1.146,0.104 0.695,2.565 0.695,2.565 l 0,0 c 0,0 2.116,-5.759 7.631,-8.669 l 0,0 c 5.515,-2.91 4.268,0.995 4.268,0.995 l 0,0 c 2.272,-3.717 6.574,-5.789 7.486,-4.986 l 0,0 c 0.912,0.802 -0.565,3.076 -0.565,3.076 l 0,0 c 4.285,-3.136 9.311,-3.38 10.195,-1.84 l 0,0 c 0.883,1.539 -1.217,3.167 -1.217,3.167 l 0,0 c 4.301,-2.071 6.75,0.179 6.729,1.447 l 0,0 c -0.021,1.268 1.946,1.522 1.946,1.522 l 0,0 c 6.366,1.698 4.283,4.389 4.283,4.389 l 0,0 c 7.298,1.233 6.416,4.886 6.416,4.886 l 0,0 c 6.646,1.325 4.199,4.268 4.199,4.268 l 0,0 c 4.017,0.63 3.357,5.385 3.357,5.385 l 0,0 c -0.92,-1.335 -2.72,-1.347 -2.72,-1.347 l 0,0 c 0.921,1.334 1.721,2.752 1.11,5.503 l 0,0 c -0.61,2.749 -2.522,3.352 -2.522,3.352 l 0,0 c 1.351,-5.051 -2.517,-6.502 -2.517,-6.502"
         id="path24017"
         inkscape:connector-curvature="0" />
    </clipPath>
    <clipPath
       clipPathUnits="userSpaceOnUse"
       id="clipPath24023">
      <path
         d="m 277.337,338.465 62.608,0 0,-37.411 -62.608,0 0,37.411 z"
         id="path24025"
         inkscape:connector-curvature="0" />
    </clipPath>
    <linearGradient
       x1="0"
       y1="0"
       x2="1"
       y2="0"
       gradientUnits="userSpaceOnUse"
       gradientTransform="matrix(62.291653,-14.975812,-14.975812,-62.291653,275.10562,327.14069)"
       spreadMethod="pad"
       id="linearGradient24031">
      <stop
         style="stop-opacity:1;stop-color:#50b1cd"
         offset="0"
         id="stop24033" />
      <stop
         style="stop-opacity:1;stop-color:#80d3b7"
         offset="0.43903596"
         id="stop24035" />
      <stop
         style="stop-opacity:1;stop-color:#80d3b7"
         offset="0.502503"
         id="stop24037" />
      <stop
         style="stop-opacity:1;stop-color:#80d3b7"
         offset="0.52846614"
         id="stop24039" />
      <stop
         style="stop-opacity:1;stop-color:#c8e9b0"
         offset="0.994842"
         id="stop24041" />
      <stop
         style="stop-opacity:1;stop-color:#c8e9b0"
         offset="1"
         id="stop24043" />
    </linearGradient>
    <clipPath
       clipPathUnits="userSpaceOnUse"
       id="clipPath24063">
      <path
         d="m 263.492,344.396 64.677,0 0,-33.98 -64.677,0 0,33.98 z"
         id="path24065"
         inkscape:connector-curvature="0" />
    </clipPath>
    <linearGradient
       x1="0"
       y1="0"
       x2="1"
       y2="0"
       gradientUnits="userSpaceOnUse"
       gradientTransform="matrix(63.015812,11.555752,11.555752,-63.015812,265.67371,322.27368)"
       spreadMethod="pad"
       id="linearGradient24071">
      <stop
         style="stop-opacity:1;stop-color:#50b1cd"
         offset="0"
         id="stop24073" />
      <stop
         style="stop-opacity:1;stop-color:#80d3b7"
         offset="0.43903596"
         id="stop24075" />
      <stop
         style="stop-opacity:1;stop-color:#80d3b7"
         offset="0.502503"
         id="stop24077" />
      <stop
         style="stop-opacity:1;stop-color:#80d3b7"
         offset="0.52846614"
         id="stop24079" />
      <stop
         style="stop-opacity:1;stop-color:#c8e9b0"
         offset="0.994842"
         id="stop24081" />
      <stop
         style="stop-opacity:1;stop-color:#c8e9b0"
         offset="1"
         id="stop24083" />
    </linearGradient>
    <clipPath
       clipPathUnits="userSpaceOnUse"
       id="clipPath24103">
      <path
         d="m 279.651,358.319 44.577,0 0,-46.574 -44.577,0 0,46.574 z"
         id="path24105"
         inkscape:connector-curvature="0" />
    </clipPath>
    <linearGradient
       x1="0"
       y1="0"
       x2="1"
       y2="0"
       gradientUnits="userSpaceOnUse"
       gradientTransform="matrix(36.200729,-14.892098,-14.892098,-36.200729,282.71655,339.30508)"
       spreadMethod="pad"
       id="linearGradient24111">
      <stop
         style="stop-opacity:1;stop-color:#50b1cd"
         offset="0"
         id="stop24113" />
      <stop
         style="stop-opacity:1;stop-color:#80d3b7"
         offset="0.43903596"
         id="stop24115" />
      <stop
         style="stop-opacity:1;stop-color:#80d3b7"
         offset="0.502503"
         id="stop24117" />
      <stop
         style="stop-opacity:1;stop-color:#80d3b7"
         offset="0.52846614"
         id="stop24119" />
      <stop
         style="stop-opacity:1;stop-color:#c8e9b0"
         offset="0.994842"
         id="stop24121" />
      <stop
         style="stop-opacity:1;stop-color:#c8e9b0"
         offset="1"
         id="stop24123" />
    </linearGradient>
    <clipPath
       clipPathUnits="userSpaceOnUse"
       id="clipPath23863">
      <path
         d="m 207.013,339.475 c 0,0 0.361,1.951 -0.736,2.41 l 0,0 c -1.096,0.459 -2.992,1.234 -9.504,-4.326 l 0,0 c 0,0 0.747,1.69 -0.645,2.293 l 0,0 c -1.393,0.603 -2.671,0.573 -7.496,-3.795 l 0,0 c -4.824,-4.367 -10.654,0.078 -9.097,3.132 l 0,0 c 0,0 -3.389,-0.186 -3.077,-4.222 l 0,0 c 0,0 -3.936,1.252 -2.845,6.366 l 0,0 c 0,0 -1.88,-0.7 -2.348,-3.477 l 0,0 c -0.47,-2.777 0.401,-4.153 1.388,-5.439 l 0,0 c 0,0 -1.797,-0.079 -2.785,1.207 l 0,0 c 0,0 -0.417,-4.782 3.628,-5.207 l 0,0 c 0,0 -2.294,-3.063 4.41,-4.048 l 0,0 c 0,0 -0.695,-3.694 6.657,-4.553 l 0,0 c 0,0 -1.943,-2.795 4.501,-4.165 l 0,0 c 0,0 1.976,-0.154 2.02,-1.421 l 0,0 c 0.044,-1.268 2.605,-3.391 6.795,-1.102 l 0,0 c 0,0 -2.015,-1.733 -1.054,-3.226 l 0,0 c 0.961,-1.493 5.967,-0.993 10.087,2.357 l 0,0 c 0,0 -1.359,-2.346 -0.407,-3.102 l 0,0 c 0.952,-0.755 5.143,1.534 7.222,5.361 l 0,0 c 0,0 -1.046,-3.962 4.313,-0.775 l 0,0 c 5.36,3.187 7.18,9.046 7.18,9.046 l 0,0 c 0,0 -0.325,-2.481 0.825,-2.527 l 0,0 c 1.15,-0.046 5.35,1.507 7.901,12.947 l 0,0 c 1.732,1.145 -0.429,4.038 -3.98,1.776 l 0,0 c -6.049,-3.855 -13.996,-0.154 -14.361,3.468 l 0,0 c 0,0 3.066,2.542 -0.572,3.65 l 0,0 c -0.471,0.143 -0.954,0.205 -1.438,0.205 l 0,0 c -3.261,0 -6.582,-2.833 -6.582,-2.833"
         id="path23865"
         inkscape:connector-curvature="0" />
    </clipPath>
    <clipPath
       clipPathUnits="userSpaceOnUse"
       id="clipPath23871">
      <path
         d="m 176.779,335.605 62.512,0 0,-38.592 -62.512,0 0,38.592 z"
         id="path23873"
         inkscape:connector-curvature="0" />
    </clipPath>
    <linearGradient
       x1="0"
       y1="0"
       x2="1"
       y2="0"
       gradientUnits="userSpaceOnUse"
       gradientTransform="matrix(-61.448273,-18.127981,18.127981,-61.448273,241.65369,324.50021)"
       spreadMethod="pad"
       id="linearGradient23879">
      <stop
         style="stop-opacity:1;stop-color:#50b1cd"
         offset="0"
         id="stop23881" />
      <stop
         style="stop-opacity:1;stop-color:#80d3b7"
         offset="0.43903596"
         id="stop23883" />
      <stop
         style="stop-opacity:1;stop-color:#80d3b7"
         offset="0.502503"
         id="stop23885" />
      <stop
         style="stop-opacity:1;stop-color:#80d3b7"
         offset="0.52846614"
         id="stop23887" />
      <stop
         style="stop-opacity:1;stop-color:#c8e9b0"
         offset="0.994842"
         id="stop23889" />
      <stop
         style="stop-opacity:1;stop-color:#c8e9b0"
         offset="1"
         id="stop23891" />
    </linearGradient>
    <clipPath
       clipPathUnits="userSpaceOnUse"
       id="clipPath23911">
      <path
         d="m 188.191,340.219 64.699,0 0,-33.294 -64.699,0 0,33.294 z"
         id="path23913"
         inkscape:connector-curvature="0" />
    </clipPath>
    <linearGradient
       x1="0"
       y1="0"
       x2="1"
       y2="0"
       gradientUnits="userSpaceOnUse"
       gradientTransform="matrix(-63.522446,8.3322735,-8.3322735,-63.522446,251.3212,320.11972)"
       spreadMethod="pad"
       id="linearGradient23919">
      <stop
         style="stop-opacity:1;stop-color:#50b1cd"
         offset="0"
         id="stop23921" />
      <stop
         style="stop-opacity:1;stop-color:#80d3b7"
         offset="0.43903596"
         id="stop23923" />
      <stop
         style="stop-opacity:1;stop-color:#80d3b7"
         offset="0.502503"
         id="stop23925" />
      <stop
         style="stop-opacity:1;stop-color:#80d3b7"
         offset="0.52846614"
         id="stop23927" />
      <stop
         style="stop-opacity:1;stop-color:#c8e9b0"
         offset="0.994842"
         id="stop23929" />
      <stop
         style="stop-opacity:1;stop-color:#c8e9b0"
         offset="1"
         id="stop23931" />
    </linearGradient>
    <clipPath
       clipPathUnits="userSpaceOnUse"
       id="clipPath23951">
      <path
         d="m 191.994,354.815 45.025,0 0,-46.762 -45.025,0 0,46.762 z"
         id="path23953"
         inkscape:connector-curvature="0" />
    </clipPath>
    <linearGradient
       x1="0"
       y1="0"
       x2="1"
       y2="0"
       gradientUnits="userSpaceOnUse"
       gradientTransform="matrix(-35.395527,-16.715962,16.715962,-35.395527,233.43329,336.26129)"
       spreadMethod="pad"
       id="linearGradient23959">
      <stop
         style="stop-opacity:1;stop-color:#50b1cd"
         offset="0"
         id="stop23961" />
      <stop
         style="stop-opacity:1;stop-color:#80d3b7"
         offset="0.43903596"
         id="stop23963" />
      <stop
         style="stop-opacity:1;stop-color:#80d3b7"
         offset="0.502503"
         id="stop23965" />
      <stop
         style="stop-opacity:1;stop-color:#80d3b7"
         offset="0.52846614"
         id="stop23967" />
      <stop
         style="stop-opacity:1;stop-color:#c8e9b0"
         offset="0.994842"
         id="stop23969" />
      <stop
         style="stop-opacity:1;stop-color:#c8e9b0"
         offset="1"
         id="stop23971" />
    </linearGradient>
    <clipPath
       clipPathUnits="userSpaceOnUse"
       id="clipPath24249">
      <path
         d="m 223.308,381.667 c 0,-5.318 15.67,-9.628 35,-9.628 l 0,0 c 19.33,0 35,4.31 35,9.628 l 0,0 c 0,5.318 -15.67,9.629 -35,9.629 l 0,0 c -19.33,0 -35,-4.311 -35,-9.629 m 3.512,1.544 c 0,3.161 13.908,5.723 31.064,5.723 l 0,0 c 17.157,0 31.065,-2.562 31.065,-5.723 l 0,0 c 0,-3.16 -13.908,-5.722 -31.065,-5.722 l 0,0 c -17.156,0 -31.064,2.562 -31.064,5.722"
         id="path24251"
         inkscape:connector-curvature="0" />
    </clipPath>
    <clipPath
       clipPathUnits="userSpaceOnUse"
       id="clipPath24143">
      <path
         d="m 0,482.65 497.796,0 L 497.796,0 0,0 0,482.65 Z"
         id="path24145"
         inkscape:connector-curvature="0" />
    </clipPath>
    <clipPath
       clipPathUnits="userSpaceOnUse"
       id="clipPath24155">
      <path
         d="m 181.842,410.564 152.933,0 0,-152.933 -152.933,0 0,152.933 z"
         id="path24157"
         inkscape:connector-curvature="0" />
    </clipPath>
    <clipPath
       clipPathUnits="userSpaceOnUse"
       id="clipPath24159">
      <path
         d="m 334.775,334.098 c 0,-42.231 -34.236,-76.467 -76.466,-76.467 -42.232,0 -76.467,34.236 -76.467,76.467 0,42.231 34.235,76.466 76.467,76.466 42.23,0 76.466,-34.235 76.466,-76.466"
         id="path24161"
         inkscape:connector-curvature="0" />
    </clipPath>
    <mask
       maskUnits="userSpaceOnUse"
       x="0"
       y="0"
       width="1"
       height="1"
       id="mask24181">
      <g
         id="g24183">
        <g
           id="g24185">
          <g
             id="g24187">
            <g
               id="g24189">
              <path
                 d="m -32768,32767 65535,0 0,-65535 -65535,0 0,65535 z"
                 style="fill:url(#radialGradient24167);stroke:none"
                 id="path24191"
                 inkscape:connector-curvature="0" />
            </g>
          </g>
        </g>
      </g>
    </mask>
    <radialGradient
       fx="0"
       fy="0"
       cx="0"
       cy="0"
       r="1"
       gradientUnits="userSpaceOnUse"
       gradientTransform="matrix(76.466522,0,0,-76.466522,258.3082,334.09769)"
       spreadMethod="pad"
       id="radialGradient24167">
      <stop
         style="stop-opacity:0.95001144;stop-color:#ffffff"
         offset="0"
         id="stop24169" />
      <stop
         style="stop-opacity:0.95001144;stop-color:#ffffff"
         offset="0.0903351"
         id="stop24171" />
      <stop
         style="stop-opacity:0.6512398;stop-color:#ffffff"
         offset="0.202287"
         id="stop24173" />
      <stop
         style="stop-opacity:0;stop-color:#ffffff"
         offset="0.64820484"
         id="stop24175" />
      <stop
         style="stop-opacity:0;stop-color:#ffffff"
         offset="0.736559"
         id="stop24177" />
      <stop
         style="stop-opacity:0;stop-color:#ffffff"
         offset="1"
         id="stop24179" />
    </radialGradient>
    <radialGradient
       fx="0"
       fy="0"
       cx="0"
       cy="0"
       r="1"
       gradientUnits="userSpaceOnUse"
       gradientTransform="matrix(76.466522,0,0,-76.466522,258.3082,334.09769)"
       spreadMethod="pad"
       id="radialGradient24193">
      <stop
         style="stop-opacity:1;stop-color:#f9a72c"
         offset="0"
         id="stop24195" />
      <stop
         style="stop-opacity:1;stop-color:#f9a72c"
         offset="0.0903351"
         id="stop24197" />
      <stop
         style="stop-opacity:1;stop-color:#f9a72c"
         offset="0.202287"
         id="stop24199" />
      <stop
         style="stop-opacity:1;stop-color:#f9a72c"
         offset="0.64820484"
         id="stop24201" />
      <stop
         style="stop-opacity:1;stop-color:#f9a72c"
         offset="0.736559"
         id="stop24203" />
      <stop
         style="stop-opacity:1;stop-color:#f9a72c"
         offset="1"
         id="stop24205" />
    </radialGradient>
    <linearGradient
       x1="0"
       y1="0"
       x2="1"
       y2="0"
       gradientUnits="userSpaceOnUse"
       gradientTransform="matrix(63.015827,11.555755,11.555755,-63.015827,283.87839,325.29404)"
       spreadMethod="pad"
       id="linearGradient23999">
      <stop
         style="stop-opacity:1;stop-color:#d4daf1"
         offset="0"
         id="stop24001" />
      <stop
         style="stop-opacity:1;stop-color:#c4ead6"
         offset="0.86919165"
         id="stop24003" />
      <stop
         style="stop-opacity:1;stop-color:#c4ead6"
         offset="0.994842"
         id="stop24005" />
      <stop
         style="stop-opacity:1;stop-color:#c4ead6"
         offset="1"
         id="stop24007" />
    </linearGradient>
    <linearGradient
       x1="0"
       y1="0"
       x2="1"
       y2="0"
       gradientUnits="userSpaceOnUse"
       gradientTransform="matrix(-63.522469,8.3322763,-8.3322763,-63.522469,232.98628,322.20929)"
       spreadMethod="pad"
       id="linearGradient23847">
      <stop
         style="stop-opacity:1;stop-color:#d4daf1"
         offset="0"
         id="stop23849" />
      <stop
         style="stop-opacity:1;stop-color:#c4ead6"
         offset="0.86919165"
         id="stop23851" />
      <stop
         style="stop-opacity:1;stop-color:#c4ead6"
         offset="0.994842"
         id="stop23853" />
      <stop
         style="stop-opacity:1;stop-color:#c4ead6"
         offset="1"
         id="stop23855" />
    </linearGradient>
  </defs>
  <sodipodi:namedview
     id="base"
     pagecolor="#ffffff"
     bordercolor="#666666"
     borderopacity="1.0"
     inkscape:pageopacity="0.0"
     inkscape:pageshadow="2"
     inkscape:zoom="0.98994949"
     inkscape:cx="-35.833331"
     inkscape:cy="101.12805"
     inkscape:document-units="px"
     inkscape:current-layer="layer1"
     showgrid="false"
     fit-margin-top="0"
     fit-margin-left="0"
     fit-margin-right="0"
     fit-margin-bottom="0"
     inkscape:window-width="1366"
     inkscape:window-height="744"
     inkscape:window-x="0"
     inkscape:window-y="24"
     inkscape:window-maximized="1" />
  <metadata
     id="metadata25053">
    <rdf:RDF>
      <cc:Work
         rdf:about="">
        <dc:format>image/svg+xml</dc:format>
        <dc:type
           rdf:resource="http://purl.org/dc/dcmitype/StillImage" />
        <dc:title></dc:title>
      </cc:Work>
    </rdf:RDF>
  </metadata>
  <g
     inkscape:label="Layer 1"
     inkscape:groupmode="layer"
     id="layer1"
     transform="translate(430.32347,-231.06479)">
    <g
       id="g23835"
       transform="matrix(1.25,0,0,-1.25,-642.64324,744.26979)">
      <g
         id="g23837">
        <g
           id="g23843">
          <g
             id="g23845">
            <path
               d="m 207.013,339.475 c 0,0 0.361,1.951 -0.736,2.41 l 0,0 c -1.096,0.459 -2.992,1.234 -9.504,-4.326 l 0,0 c 0,0 0.747,1.69 -0.645,2.293 l 0,0 c -1.393,0.603 -2.671,0.573 -7.496,-3.795 l 0,0 c -4.824,-4.367 -10.654,0.078 -9.097,3.132 l 0,0 c 0,0 -3.389,-0.186 -3.077,-4.222 l 0,0 c 0,0 -3.936,1.252 -2.845,6.366 l 0,0 c 0,0 -1.88,-0.7 -2.348,-3.477 l 0,0 c -0.47,-2.777 0.401,-4.153 1.388,-5.439 l 0,0 c 0,0 -1.797,-0.079 -2.785,1.207 l 0,0 c 0,0 -0.417,-4.782 3.628,-5.207 l 0,0 c 0,0 -2.294,-3.063 4.41,-4.048 l 0,0 c 0,0 -0.695,-3.694 6.657,-4.553 l 0,0 c 0,0 -1.943,-2.795 4.501,-4.165 l 0,0 c 0,0 1.976,-0.154 2.02,-1.421 l 0,0 c 0.044,-1.268 2.605,-3.391 6.795,-1.102 l 0,0 c 0,0 -2.015,-1.733 -1.054,-3.226 l 0,0 c 0.961,-1.493 5.967,-0.993 10.087,2.357 l 0,0 c 0,0 -1.359,-2.346 -0.407,-3.102 l 0,0 c 0.952,-0.755 5.143,1.534 7.222,5.361 l 0,0 c 0,0 -1.046,-3.962 4.313,-0.775 l 0,0 c 5.36,3.187 7.18,9.046 7.18,9.046 l 0,0 c 0,0 -0.325,-2.481 0.825,-2.527 l 0,0 c 1.15,-0.046 5.35,1.507 7.901,12.947 l 0,0 c 1.732,1.145 -0.429,4.038 -3.98,1.776 l 0,0 c -6.049,-3.855 -13.996,-0.154 -14.361,3.468 l 0,0 c 0,0 3.066,2.542 -0.572,3.65 l 0,0 c -0.471,0.143 -0.954,0.205 -1.438,0.205 l 0,0 c -3.261,0 -6.582,-2.833 -6.582,-2.833"
               style="fill:url(#linearGradient23847);stroke:none"
               id="path23857"
               inkscape:connector-curvature="0" />
          </g>
        </g>
      </g>
    </g>
    <g
       id="g23859"
       transform="matrix(1.25,0,0,-1.25,-642.64324,744.26979)">
      <g
         id="g23861"
         clip-path="url(#clipPath23863)">
        <g
           id="g23867">
          <g
             id="g23869" />
          <g
             id="g23893">
            <g
               clip-path="url(#clipPath23871)"
               id="g23895">
              <g
                 id="g23897">
                <g
                   id="g23899">
                  <g
                     id="g23901">
                    <g
                       id="g23903">
                      <path
                         d="m 238.477,333.575 c 1.12,1.749 -2.029,3.518 -4.358,0.011 -3.968,-5.976 -12.732,-5.814 -14.535,-2.65 0,0 1.774,3.566 -2.003,3.104 -3.776,-0.462 -6.266,-5.653 -6.266,-5.653 0,0 -0.46,1.929 -1.649,1.905 -1.188,-0.025 -3.235,-0.085 -6.935,-7.806 0,0 -0.001,1.847 -1.519,1.834 -1.518,-0.013 -1.527,0.537 -5.439,-4.664 -2.483,-3.301 -6.194,-3.293 -6.192,3.549 0,0 -3.398,0.221 -4.59,-2.176 0,0 -2.248,0.903 -1.52,4.082 0,0 -2.871,-0.021 -4.022,-2.175 -0.853,1.23 -0.062,2.795 -0.062,2.795 0,0 -6.367,-0.427 0.793,-7.362 2.023,-1.959 1.161,-9.585 2.586,-10.36 0,0 -1.612,-0.801 -3.036,-0.026 0,0 1.557,-4.54 5.427,-3.29 0,0 -0.856,-3.73 5.672,-1.913 0,0 0.862,-3.658 7.931,-1.464 0,0 -0.644,-3.342 5.802,-1.983 0,0 1.871,0.66 2.425,-0.481 0.554,-1.14 3.755,-2.044 6.657,1.747 0,0 -1.139,-2.401 0.344,-3.376 1.483,-0.975 5.858,1.511 8.266,6.242 0,0 -0.292,-2.694 0.885,-2.999 1.177,-0.305 4.08,3.486 4.429,7.828 0,0 0.651,-4.047 4.259,1.039 3.607,5.085 2.897,11.179 2.897,11.179 0,0 0.707,-2.399 1.778,-1.975 1.07,0.424 4.279,3.545 1.975,15.038"
                         style="fill:url(#linearGradient23879);stroke:none"
                         id="path23905"
                         inkscape:connector-curvature="0" />
                    </g>
                  </g>
                </g>
              </g>
            </g>
          </g>
        </g>
        <g
           id="g23907">
          <g
             id="g23909" />
          <g
             id="g23933">
            <g
               clip-path="url(#clipPath23911)"
               id="g23935">
              <g
                 id="g23937">
                <g
                   id="g23939">
                  <g
                     id="g23941">
                    <g
                       id="g23943">
                      <path
                         d="m 252.281,331.119 c 1.733,1.145 -0.43,4.039 -3.98,1.777 -6.05,-3.855 -13.995,-0.155 -14.361,3.468 0,0 3.067,2.541 -0.573,3.65 -3.639,1.108 -8.019,-2.628 -8.019,-2.628 0,0 0.361,1.95 -0.736,2.409 -1.096,0.459 -2.992,1.234 -9.504,-4.325 0,0 0.747,1.689 -0.645,2.292 -1.393,0.604 -2.671,0.574 -7.496,-3.794 -4.824,-4.367 -10.654,0.077 -9.097,3.132 0,0 -3.389,-0.186 -3.078,-4.222 0,0 -3.935,1.252 -2.844,6.365 0,0 -1.879,-0.699 -2.349,-3.476 -0.469,-2.777 0.402,-4.153 1.389,-5.439 0,0 -1.797,-0.08 -2.785,1.206 0,0 -0.417,-4.782 3.628,-5.207 0,0 -2.295,-3.063 4.41,-4.048 0,0 -0.695,-3.694 6.657,-4.553 0,0 -1.943,-2.794 4.5,-4.164 0,0 1.977,-0.155 2.021,-1.422 0.045,-1.267 2.604,-3.391 6.795,-1.102 0,0 -2.015,-1.733 -1.054,-3.226 0.961,-1.493 5.968,-0.993 10.087,2.357 0,0 -1.359,-2.345 -0.407,-3.101 0.952,-0.755 5.143,1.533 7.222,5.361 0,0 -1.046,-3.963 4.313,-0.776 5.36,3.187 7.18,9.046 7.18,9.046 0,0 -0.325,-2.48 0.825,-2.526 1.15,-0.046 5.349,1.506 7.901,12.946"
                         style="fill:url(#linearGradient23919);stroke:none"
                         id="path23945"
                         inkscape:connector-curvature="0" />
                    </g>
                  </g>
                </g>
              </g>
            </g>
          </g>
        </g>
        <g
           id="g23947">
          <g
             id="g23949" />
          <g
             id="g23973">
            <g
               clip-path="url(#clipPath23951)"
               id="g23975">
              <g
                 id="g23977">
                <g
                   id="g23979">
                  <g
                     id="g23981">
                    <g
                       id="g23983">
                      <path
                         d="m 219.475,341.288 c 0.16,-0.547 -6.853,2.254 -11.804,-7.059 -4.951,-9.314 -13.078,-4.989 -15.677,-0.429 0,0 0.238,-7.545 9.144,-9.527 8.906,-1.983 10.47,3.505 11.866,6.835 0,0 0.974,-7.405 -5.757,-10.436 0,0 12.57,-4.304 16.044,8.765 0,0 -2.14,-7.096 -0.957,-10.544 1.184,-3.448 -1.593,-9.509 -7.451,-8.417 0,0 7.614,-5.753 11.055,0.473 3.442,6.225 0.616,14.092 7.219,16.766 0,0 -1.483,-1.888 0.604,-7.878 0,0 6.31,2.981 1.368,12.816 -4.942,9.835 -12.115,11.197 -11.209,22.162 0,0 -7.345,-3.617 -4.445,-13.527"
                         style="fill:url(#linearGradient23959);stroke:none"
                         id="path23985"
                         inkscape:connector-curvature="0" />
                    </g>
                  </g>
                </g>
              </g>
            </g>
          </g>
        </g>
      </g>
    </g>
    <g
       id="g23987"
       transform="matrix(1.25,0,0,-1.25,-642.64324,744.26979)">
      <g
         id="g23989">
        <g
           id="g23995">
          <g
             id="g23997">
            <path
               d="m 339.684,340.914 c 0.106,4.046 -3.288,4.06 -3.288,4.06 l 0,0 c 1.711,-2.972 -3.886,-7.707 -8.927,-3.591 l 0,0 c -5.039,4.116 -6.318,4.081 -7.678,3.407 l 0,0 c -1.36,-0.673 -0.529,-2.322 -0.529,-2.322 l 0,0 c -6.786,5.22 -8.64,4.351 -9.711,3.836 l 0,0 c -1.072,-0.514 -0.612,-2.444 -0.612,-2.444 l 0,0 c 0,0 -4.564,3.508 -8.143,2.216 l 0,0 c -3.578,-1.291 -0.386,-3.674 -0.386,-3.674 l 0,0 c -0.181,-3.637 -7.928,-7.737 -14.166,-4.195 l 0,0 c -3.661,2.078 -5.673,-0.921 -3.884,-1.977 l 0,0 c 3.131,-11.295 7.403,-12.631 8.55,-12.527 l 0,0 c 1.146,0.104 0.695,2.565 0.695,2.565 l 0,0 c 0,0 2.116,-5.759 7.631,-8.669 l 0,0 c 5.515,-2.91 4.268,0.995 4.268,0.995 l 0,0 c 2.272,-3.717 6.574,-5.789 7.486,-4.986 l 0,0 c 0.912,0.802 -0.565,3.076 -0.565,3.076 l 0,0 c 4.285,-3.136 9.311,-3.38 10.195,-1.84 l 0,0 c 0.883,1.539 -1.217,3.167 -1.217,3.167 l 0,0 c 4.301,-2.071 6.75,0.179 6.729,1.447 l 0,0 c -0.021,1.268 1.946,1.522 1.946,1.522 l 0,0 c 6.366,1.698 4.283,4.389 4.283,4.389 l 0,0 c 7.298,1.233 6.416,4.886 6.416,4.886 l 0,0 c 6.646,1.325 4.199,4.268 4.199,4.268 l 0,0 c 4.017,0.63 3.357,5.385 3.357,5.385 l 0,0 c -0.92,-1.335 -2.72,-1.347 -2.72,-1.347 l 0,0 c 0.921,1.334 1.721,2.752 1.11,5.503 l 0,0 c -0.61,2.749 -2.522,3.352 -2.522,3.352 l 0,0 c 1.351,-5.051 -2.517,-6.502 -2.517,-6.502"
               style="fill:url(#linearGradient23999);stroke:none"
               id="path24009"
               inkscape:connector-curvature="0" />
          </g>
        </g>
      </g>
    </g>
    <g
       id="g24011"
       transform="matrix(1.25,0,0,-1.25,-642.64324,744.26979)">
      <g
         id="g24013"
         clip-path="url(#clipPath24015)">
        <g
           id="g24019">
          <g
             id="g24021" />
          <g
             id="g24045">
            <g
               clip-path="url(#clipPath24023)"
               id="g24047">
              <g
                 id="g24049">
                <g
                   id="g24051">
                  <g
                     id="g24053">
                    <g
                       id="g24055">
                      <path
                         d="m 277.816,336.366 c -1.207,1.689 1.848,3.616 4.352,0.233 4.267,-5.767 13.012,-5.158 14.651,-1.907 0,0 -1.953,3.471 1.842,3.202 3.795,-0.269 6.546,-5.327 6.546,-5.327 0,0 0.361,1.951 1.55,1.987 1.187,0.036 3.235,0.08 7.323,-7.443 0,0 -0.092,1.844 1.424,1.909 1.516,0.064 1.498,0.614 5.669,-4.381 2.649,-3.171 6.354,-2.973 6.003,3.86 0,0 3.383,0.393 4.695,-1.94 0,0 2.199,1.016 1.311,4.154 0,0 2.868,0.126 4.128,-1.967 0.788,1.272 -0.081,2.794 -0.081,2.794 0,0 6.38,-0.103 -0.417,-7.392 -1.921,-2.06 -0.672,-9.632 -2.055,-10.479 0,0 1.65,-0.718 3.033,0.129 0,0 -1.324,-4.614 -5.252,-3.562 0,0 1.044,-3.682 -5.568,-2.199 0,0 -0.675,-3.698 -7.846,-1.866 0,0 0.813,-3.305 -5.694,-2.276 0,0 -1.901,0.563 -2.397,-0.604 -0.495,-1.167 -3.645,-2.233 -6.737,1.406 0,0 1.259,-2.34 -0.172,-3.389 -1.432,-1.05 -5.927,1.21 -8.573,5.813 0,0 0.429,-2.676 -0.731,-3.041 -1.16,-0.364 -4.253,3.274 -4.822,7.592 0,0 -0.444,-4.074 -4.306,0.821 -3.862,4.896 -3.462,11.018 -3.462,11.018 0,0 -0.585,-2.433 -1.675,-2.063 -1.091,0.369 -4.455,3.322 -2.739,14.918"
                         style="fill:url(#linearGradient24031);stroke:none"
                         id="path24057"
                         inkscape:connector-curvature="0" />
                    </g>
                  </g>
                </g>
              </g>
            </g>
          </g>
        </g>
        <g
           id="g24059">
          <g
             id="g24061" />
          <g
             id="g24085">
            <g
               clip-path="url(#clipPath24063)"
               id="g24087">
              <g
                 id="g24089">
                <g
                   id="g24091">
                  <g
                     id="g24093">
                    <g
                       id="g24095">
                      <path
                         d="m 264.155,333.21 c -1.789,1.055 0.224,4.056 3.884,1.977 6.238,-3.542 13.986,0.558 14.166,4.195 0,0 -3.192,2.382 0.387,3.674 3.578,1.292 8.143,-2.216 8.143,-2.216 0,0 -0.46,1.929 0.611,2.443 1.072,0.515 2.926,1.385 9.712,-3.835 0,0 -0.832,1.648 0.528,2.322 1.361,0.673 2.639,0.709 7.679,-3.408 5.041,-4.116 10.637,0.62 8.926,3.591 0,0 3.394,-0.013 3.289,-4.06 0,0 3.867,1.451 2.516,6.503 0,0 1.913,-0.604 2.523,-3.353 0.61,-2.75 -0.19,-4.168 -1.111,-5.503 0,0 1.8,0.012 2.721,1.347 0,0 0.66,-4.754 -3.358,-5.385 0,0 2.447,-2.942 -4.198,-4.267 0,0 0.881,-3.654 -6.417,-4.886 0,0 2.083,-2.692 -4.282,-4.389 0,0 -1.967,-0.255 -1.947,-1.522 0.021,-1.268 -2.428,-3.519 -6.729,-1.447 0,0 2.1,-1.628 1.217,-3.168 -0.884,-1.539 -5.91,-1.295 -10.194,1.84 0,0 1.477,-2.272 0.564,-3.076 -0.912,-0.803 -5.214,1.27 -7.485,4.987 0,0 1.246,-3.905 -4.269,-0.995 -5.515,2.91 -7.63,8.669 -7.63,8.669 0,0 0.451,-2.461 -0.696,-2.565 -1.147,-0.105 -5.419,1.231 -8.55,12.527"
                         style="fill:url(#linearGradient24071);stroke:none"
                         id="path24097"
                         inkscape:connector-curvature="0" />
                    </g>
                  </g>
                </g>
              </g>
            </g>
          </g>
        </g>
        <g
           id="g24099">
          <g
             id="g24101" />
          <g
             id="g24125">
            <g
               clip-path="url(#clipPath24103)"
               id="g24127">
              <g
                 id="g24129">
                <g
                   id="g24131">
                  <g
                     id="g24133">
                    <g
                       id="g24135">
                      <path
                         d="m 296.401,345.036 c -0.132,-0.554 6.729,2.6 12.148,-6.449 5.419,-9.049 13.315,-4.317 15.678,0.37 0,0 0.147,-7.547 -8.647,-9.981 -8.793,-2.433 -10.635,2.967 -12.198,6.223 0,0 -0.596,-7.446 6.281,-10.13 0,0 -12.335,-4.938 -16.47,7.937 0,0 2.499,-6.978 1.492,-10.481 -1.006,-3.504 2.076,-9.416 7.871,-8.027 0,0 -7.312,-6.134 -11.065,-0.091 -3.754,6.042 -1.333,14.043 -8.064,16.377 0,0 1.578,-1.81 -0.202,-7.898 0,0 -6.453,2.655 -2.018,12.729 4.435,10.074 11.529,11.8 10.066,22.704 0,0 7.519,-3.239 5.128,-13.283"
                         style="fill:url(#linearGradient24111);stroke:none"
                         id="path24137"
                         inkscape:connector-curvature="0" />
                    </g>
                  </g>
                </g>
              </g>
            </g>
          </g>
        </g>
      </g>
    </g>
    <g
       id="g24139"
       transform="matrix(1.25,0,0,-1.25,-642.64324,744.26979)">
      <g
         id="g24141"
         clip-path="url(#clipPath24143)">
        <g
           id="g24147"
           transform="translate(258.3082,367.1103)">
          <path
             d="m 0,0 c -8.716,0 -16.708,-3.102 -22.933,-8.261 -1.894,2.784 -4.567,5.039 -7.653,6.391 -2.202,0.965 -4.967,1.408 -6.859,-0.074 -0.691,-0.542 -1.191,-1.29 -1.597,-2.069 -0.803,-1.545 -1.279,-3.341 -0.883,-5.037 0.396,-1.696 1.829,-3.216 3.568,-3.316 0.857,-0.05 1.697,0.233 2.493,0.553 0.573,0.23 1.159,0.497 1.554,0.972 0.609,0.734 0.624,1.788 0.512,2.736 -0.114,0.974 -0.413,2.054 -1.273,2.525 -0.628,0.344 -1.446,0.255 -2.033,-0.155 -0.587,-0.41 -0.946,-1.102 -1.025,-1.814 -0.088,-0.786 0.206,-1.667 0.9,-2.046 0.695,-0.379 1.754,0.012 1.849,0.797 0.024,0.207 -0.18,0.488 -0.331,0.344 0.079,-0.228 0.038,-0.494 -0.106,-0.688 -0.595,-0.033 -1.169,0.47 -1.215,1.064 -0.045,0.594 0.445,1.179 1.039,1.237 1.037,0.101 1.675,-1.144 1.74,-2.184 0.044,-0.717 -0.078,-1.522 -0.64,-1.97 -0.405,-0.323 -0.962,-0.391 -1.478,-0.343 -2.271,0.211 -3.987,2.518 -3.972,4.799 0.006,0.85 0.225,1.727 0.774,2.376 1.089,1.287 3.106,1.292 4.692,0.722 3.492,-1.254 5.93,-4.837 6.08,-8.543 -5.699,-6.364 -9.168,-14.766 -9.168,-23.981 0,-19.863 14.551,-37.903 32.457,-35.965 30.994,3.354 39.473,16.102 39.473,35.965 C 35.965,-16.102 19.863,0 0,0"
             style="fill:#4abc39;fill-opacity:1;fill-rule:nonzero;stroke:none"
             id="path24149"
             inkscape:connector-curvature="0" />
        </g>
        <g
           id="g24151">
          <g
             id="g24153" />
          <g
             id="g24207">
            <g
               clip-path="url(#clipPath24155)"
               id="g24209">
              <g
                 id="g24211">
                <g
                   clip-path="url(#clipPath24159)"
                   id="g24213">
                  <g
                     id="g24215">
                    <g
                       id="g24217" />
                    <g
                       mask="url(#mask24181)"
                       id="g24219">
                      <g
                         id="g24221">
                        <path
                           d="m 334.775,334.098 c 0,-42.231 -34.236,-76.467 -76.466,-76.467 -42.232,0 -76.467,34.236 -76.467,76.467 0,42.231 34.235,76.466 76.467,76.466 42.23,0 76.466,-34.235 76.466,-76.466"
                           style="fill:url(#radialGradient24193);stroke:none"
                           id="path24223"
                           inkscape:connector-curvature="0" />
                      </g>
                    </g>
                  </g>
                </g>
              </g>
            </g>
          </g>
        </g>
        <g
           id="g24225"
           transform="translate(256.1311,333.4283)">
          <path
             d="m 0,0 c 0,-6.637 -5.381,-11.052 -12.018,-11.052 -6.637,0 -12.018,5.381 -12.018,12.018 0,6.637 4.683,11.425 11.321,11.425 C -6.078,12.391 0,6.637 0,0"
             style="fill:#ffffff;fill-opacity:1;fill-rule:nonzero;stroke:none"
             id="path24227"
             inkscape:connector-curvature="0" />
        </g>
        <g
           id="g24229"
           transform="translate(253.8125,334.3943)">
          <path
             d="m 0,0 c 0,-5.357 -4.343,-9.699 -9.699,-9.699 -5.357,0 -9.7,4.342 -9.7,9.699 0,5.357 4.343,9.699 9.7,9.699 C -4.343,9.699 0,5.357 0,0"
             style="fill:#100f0d;fill-opacity:1;fill-rule:nonzero;stroke:none"
             id="path24231"
             inkscape:connector-curvature="0" />
        </g>
        <g
           id="g24233"
           transform="translate(248.6215,336.8934)">
          <path
             d="m 0,0 c 0,-2.49 -2.019,-4.508 -4.508,-4.508 -2.49,0 -4.509,2.018 -4.509,4.508 0,2.49 2.019,4.508 4.509,4.508 C -2.019,4.508 0,2.49 0,0"
             style="fill:#ffffff;fill-opacity:1;fill-rule:nonzero;stroke:none"
             id="path24235"
             inkscape:connector-curvature="0" />
        </g>
        <g
           id="g24237"
           transform="translate(251.5934,331.6894)">
          <path
             d="m 0,0 c -0.007,-1.189 -0.976,-2.148 -2.165,-2.141 -1.19,0.007 -2.148,0.976 -2.141,2.165 0.006,1.19 0.976,2.148 2.165,2.141 C -0.952,2.159 0.007,1.189 0,0"
             style="fill:#ffffff;fill-opacity:1;fill-rule:nonzero;stroke:none"
             id="path24239"
             inkscape:connector-curvature="0" />
        </g>
        <g
           id="g24241"
           transform="translate(257.8843,377.489)">
          <path
             d="m 0,0 c -17.156,0 -31.064,2.562 -31.064,5.722 0,3.161 13.908,5.723 31.064,5.723 17.156,0 31.064,-2.562 31.064,-5.723 C 31.064,2.562 17.156,0 0,0 m 0.424,13.806 c -19.33,0 -35,-4.31 -35,-9.628 0,-5.317 15.67,-9.628 35,-9.628 19.33,0 35,4.311 35,9.628 0,5.318 -15.67,9.628 -35,9.628"
             style="fill:#fff200;fill-opacity:1;fill-rule:nonzero;stroke:none"
             id="path24243"
             inkscape:connector-curvature="0" />
        </g>
      </g>
    </g>
    <g
       id="g24245"
       transform="matrix(1.25,0,0,-1.25,-642.64324,744.26979)">
      <g
         id="g24247"
         clip-path="url(#clipPath24249)">
        <g
           id="g24253"
           transform="translate(262.4298,380.88)">
          <path
             d="m 0,0 -3.27,-10.658 7.085,0 L 5.813,-0.606 0,0 Z"
             style="fill:#ffffff;fill-opacity:1;fill-rule:nonzero;stroke:none"
             id="path24255"
             inkscape:connector-curvature="0" />
        </g>
      </g>
    </g>
    <g
       id="g24257"
       transform="matrix(1.25,0,0,-1.25,-642.64324,744.26979)">
      <g
         id="g24259"
         clip-path="url(#clipPath24261)">
        <g
           id="g24265"
           transform="translate(283.407,335.398)">
          <path
             d="m 0,0 c 0,-6.637 -5.381,-12.018 -12.018,-12.018 -6.637,0 -11.916,3.837 -11.916,10.475 0,6.637 5.279,12.557 11.916,12.557 C -5.381,11.014 0,6.637 0,0"
             style="fill:#ffffff;fill-opacity:1;fill-rule:nonzero;stroke:none"
             id="path24267"
             inkscape:connector-curvature="0" />
        </g>
        <g
           id="g24269"
           transform="translate(280.8975,335.398)">
          <path
             d="m 0,0 c 0,-5.251 -4.257,-9.508 -9.508,-9.508 -5.252,0 -9.509,4.257 -9.509,9.508 0,5.251 4.257,9.508 9.509,9.508 C -4.257,9.508 0,5.251 0,0"
             style="fill:#100f0d;fill-opacity:1;fill-rule:nonzero;stroke:none"
             id="path24271"
             inkscape:connector-curvature="0" />
        </g>
        <g
           id="g24273"
           transform="translate(275.8087,337.848)">
          <path
             d="m 0,0 c 0,-2.441 -1.979,-4.42 -4.42,-4.42 -2.441,0 -4.419,1.979 -4.419,4.42 0,2.441 1.978,4.42 4.419,4.42 C -1.979,4.42 0,2.441 0,0"
             style="fill:#ffffff;fill-opacity:1;fill-rule:nonzero;stroke:none"
             id="path24275"
             inkscape:connector-curvature="0" />
        </g>
        <g
           id="g24277"
           transform="translate(278.7221,332.7584)">
          <path
             d="m 0,0 c 0,-1.166 -0.945,-2.111 -2.111,-2.111 -1.166,0 -2.111,0.945 -2.111,2.111 0,1.166 0.945,2.111 2.111,2.111 C -0.945,2.111 0,1.166 0,0"
             style="fill:#ffffff;fill-opacity:1;fill-rule:nonzero;stroke:none"
             id="path24279"
             inkscape:connector-curvature="0" />
        </g>
        <g
           id="g24281">
          <g
             id="g24283" />
          <g
             id="g24301">
            <g
               clip-path="url(#clipPath24285)"
               id="g24303"
               style="opacity:0.32000703">
              <g
                 id="g24305">
                <g
                   id="g24307">
                  <g
                     id="g24309">
                    <g
                       id="g24311">
                      <path
                         d="m 258.308,391.295 c -19.33,0 -35,-4.31 -35,-9.628 0,-3.959 8.691,-7.355 21.107,-8.833 1.125,-0.134 2.103,0.815 1.971,1.941 -0.063,0.538 -0.112,1.077 -0.147,1.617 -0.057,0.868 -0.737,1.567 -1.603,1.643 -10.529,0.916 -17.816,2.889 -17.816,5.176 0,3.161 13.908,5.723 31.064,5.723 17.157,0 31.065,-2.562 31.065,-5.723 0,-2.107 -6.187,-3.946 -15.394,-4.938 -0.821,-0.089 -1.478,-0.733 -1.568,-1.553 -0.055,-0.511 -0.138,-1.101 -0.225,-1.668 -0.179,-1.168 0.823,-2.18 1.993,-2.022 11.581,1.569 19.553,4.846 19.553,8.637 0,5.318 -15.67,9.628 -35,9.628"
                         style="fill:url(#radialGradient24293);stroke:none"
                         id="path24313"
                         inkscape:connector-curvature="0" />
                    </g>
                  </g>
                </g>
              </g>
            </g>
          </g>
        </g>
        <g
           id="g24315"
           transform="translate(258.3082,367.1103)">
          <path
             d="M 0,0 C 0,0 30.838,-9.176 30.644,-34.855 30.417,-64.979 0,-71.204 0,-71.204 c 0,0 38.05,0.246 35.965,37.556 C 34.274,-3.367 3.667,0.185 0,0"
             style="fill:#7dcb29;fill-opacity:1;fill-rule:nonzero;stroke:none"
             id="path24317"
             inkscape:connector-curvature="0" />
        </g>
        <g
           id="g24319"
           transform="translate(278.1451,356.6458)">
          <path
             d="M 0,0 C 0.367,-0.643 0.589,-1.485 0.173,-2.097 0.03,-2.308 -0.176,-2.469 -0.393,-2.602 -1.266,-3.134 -2.387,-3.24 -3.345,-2.88 c -1.463,0.55 -2.346,2.002 -3.207,3.307 -1.179,1.787 -2.572,3.514 -4.454,4.534 1.37,-0.118 2.741,-0.236 4.111,-0.354 0.724,-0.063 1.459,-0.128 2.137,-0.39 C -3.979,3.916 -3.321,3.371 -2.679,2.835 -1.674,1.998 -0.648,1.135 0,0"
             style="fill:#ffffff;fill-opacity:1;fill-rule:nonzero;stroke:none"
             id="path24321"
             inkscape:connector-curvature="0" />
        </g>
        <g
           id="g24323"
           transform="translate(280.3532,350.3784)">
          <path
             d="M 0,0 C 0.438,0.275 0.696,0.812 0.636,1.326 0.576,1.839 0.202,2.303 -0.287,2.47 -0.527,2.552 -0.785,2.566 -1.03,2.632 -1.204,2.679 -1.375,2.752 -1.556,2.748 -1.998,2.737 -2.294,2.266 -2.359,1.828 -2.45,1.211 -2.229,0.542 -1.747,0.145 -1.265,-0.252 -0.529,-0.332 0,0"
             style="fill:#ffffff;fill-opacity:1;fill-rule:nonzero;stroke:none"
             id="path24325"
             inkscape:connector-curvature="0" />
        </g>
        <g
           id="g24327"
           transform="translate(283.3418,348.5585)">
          <path
             d="M 0,0 C -0.007,-0.157 -0.067,-0.31 -0.167,-0.431 -0.362,-0.665 -0.712,-0.755 -0.996,-0.643 -1.49,-0.447 -1.569,0.358 -1.122,0.646 -0.675,0.935 0.025,0.531 0,0"
             style="fill:#ffffff;fill-opacity:1;fill-rule:nonzero;stroke:none"
             id="path24329"
             inkscape:connector-curvature="0" />
        </g>
        <g
           id="g24331"
           transform="translate(234.8749,355.6701)">
          <path
             d="M 0,0 C 2.056,2.564 4.371,5.121 7.453,6.26 8.942,6.81 10.878,6.88 11.852,5.626 12.82,4.378 12.245,2.458 11.092,1.377 9.94,0.296 8.377,-0.199 6.929,-0.83 1.886,-3.025 -2.228,-7.271 -4.264,-12.381 c -0.38,-0.953 -0.718,-1.977 -1.476,-2.669 -0.759,-0.692 -2.109,-0.864 -2.74,-0.055 -0.534,0.686 -0.31,1.681 0.025,2.482 0.45,1.075 1.053,2.079 1.671,3.067 C -4.712,-6.242 -2.445,-3.049 0,0"
             style="fill:#7dcb29;fill-opacity:1;fill-rule:nonzero;stroke:none"
             id="path24333"
             inkscape:connector-curvature="0" />
        </g>
        <g
           id="g24335"
           transform="translate(234.3858,358.782)">
          <path
             d="m 0,0 0.044,-0.806 c 0.016,-0.304 -0.203,-0.75 -0.445,-0.566 -0.172,0.779 -0.595,1.5 -1.189,2.031 -0.334,0.3 -0.737,0.56 -0.91,0.974 C -2.578,1.82 -2.604,2.029 -2.711,2.201 -2.914,2.526 -3.339,2.623 -3.635,2.867 -4.125,3.27 -4.2,4.014 -4.655,4.455 -4.871,4.665 -5.154,4.787 -5.431,4.906 -6.356,5.303 -7.282,5.699 -8.208,6.096 -8.63,6.277 -9.063,6.461 -9.521,6.493 -10.33,6.551 -11.19,6.141 -11.923,6.487 -10.539,6.784 -9.065,6.96 -7.735,6.476 -7.507,6.393 -7.286,6.291 -7.06,6.203 -6.883,6.134 -6.703,6.073 -6.527,6.001 -6.139,5.842 -5.776,5.63 -5.414,5.419 -4.941,5.144 -4.468,4.867 -4.026,4.545 -3.07,3.847 -2.274,2.936 -1.684,1.911 -1.429,1.468 -1.173,0.968 -0.7,0.776 -0.51,0.698 -0.284,0.671 -0.148,0.517 -0.026,0.381 -0.01,0.183 0,0"
             style="fill:#7dcb29;fill-opacity:1;fill-rule:nonzero;stroke:none"
             id="path24337"
             inkscape:connector-curvature="0" />
        </g>
      </g>
    </g>
  </g>
</svg>
