<?xml version="1.0" encoding="UTF-8" standalone="no"?>
<!-- Created with Inkscape (http://www.inkscape.org/) -->
<svg id="svg4294" xmlns:rdf="http://www.w3.org/1999/02/22-rdf-syntax-ns#" xmlns="http://www.w3.org/2000/svg" height="181.53" viewBox="0 0 174 181.52637" width="174" version="1.1" xmlns:cc="http://creativecommons.org/ns#" xmlns:dc="http://purl.org/dc/elements/1.1/">
 <metadata id="metadata4300">
  <rdf:RDF>
   <cc:Work rdf:about="">
    <dc:format>image/svg+xml</dc:format>
    <dc:type rdf:resource="http://purl.org/dc/dcmitype/StillImage"/>
    <dc:title/>
   </cc:Work>
  </rdf:RDF>
 </metadata>
 <path id="path4844" d="m44.25 181.26-29.75-0.26488v-2.3246c0-1.5092 0.87697-2.7242 2.5-3.4637 3.2917-1.4998 3.2917-4.182 0-4.182h-2.5v-43.674-43.674l-2.3781 2.2341c-1.9192 1.803-3.3182 2.1743-7.25 1.9243l-4.872-0.314 39.392-40.5c21.666-22.275 40.805-41.968 42.53-43.763l3.138-3.263 44.47 43.96 44.47 43.959-5.4356 0.0536c-4.2524 0.0419-5.9393-0.41968-7.75-2.1207l-2.3144-2.1743v43.674 43.674h-44c-36.714 0-44 0.2282-44 1.378 0 0.75791 0.94009 2.0022 2.0891 2.7651 1.4024 0.93118 1.9776 2.2038 1.75 3.872l-0.339 2.48-29.75-0.27zm22.25-28.73c0-13.813-0.09439-14.5-1.9915-14.5-1.0953 0-2.5536-0.9-3.2405-2-1.1749-1.8814-2.332-2-19.508-2h-18.259v16.5 16.5h21.5 21.5v-14.5zm85.816-8.25-0.31642-2.75h-38.5-38.5l-0.31642 2.75-0.31642 2.75h39.133 39.133l-0.31642-2.75zm-40.816-26.25v-20h-15.5-15.5v20 20h15.5 15.5v-20zm37 0v-20h-17-17v20 20h17 17v-20zm-87.5 11c0.4056-1.2779 1.513-2 3.0674-2h2.4326v-14.5-14.5h-21.5-21.5v16.5 16.5h18.433c17.554 0 18.463-0.0953 19.067-2zm48.5-62c0-1.7333-0.66667-2-5-2h-5v-10.266c0-11.709-1.5254-15.942-6.8767-19.084-6.1919-3.6359-12.596-1.9105-17.562 4.7315-1.7254 2.3079-2.117 4.5415-2.4003 13.688l-0.33848 10.93h-4.9115c-4.649 0-6.2898 1.2884-4.2449 3.3333 0.36667 0.36667 10.942 0.66667 23.5 0.66667 22.167 0 22.833-0.05839 22.833-2zm27.73-19.769-11.73-11.765v-7.735-7.735h12.5 12.5v19.5c0 10.725-0.34453 19.5-0.76563 19.5s-6.0461-5.2943-12.5-11.765zm-15.73-30.735v-3.5h15.5 15.5l-0.0789 3.75c-0.0434 2.0625-0.30592 3.1875-0.58333 2.5-0.63531-1.5743-28.338-1.8187-28.338-0.25 0 0.55-0.45 1-1 1s-1-1.575-1-3.5z"/>
</svg>
