<?xml version="1.0" encoding="UTF-8" standalone="no"?>
<!-- Created with Inkscape (http://www.inkscape.org/) -->

<svg
   xmlns:dc="http://purl.org/dc/elements/1.1/"
   xmlns:cc="http://creativecommons.org/ns#"
   xmlns:rdf="http://www.w3.org/1999/02/22-rdf-syntax-ns#"
   xmlns:svg="http://www.w3.org/2000/svg"
   xmlns="http://www.w3.org/2000/svg"
   xmlns:sodipodi="http://sodipodi.sourceforge.net/DTD/sodipodi-0.dtd"
   xmlns:inkscape="http://www.inkscape.org/namespaces/inkscape"
   width="13.66179mm"
   height="19.757214mm"
   viewBox="0 0 48.407917 70.005875"
   id="svg17919"
   version="1.1"
   inkscape:version="0.91 r13725"
   sodipodi:docname="lifeLeft.svg">
  <defs
     id="defs17921" />
  <sodipodi:namedview
     id="base"
     pagecolor="#ffffff"
     bordercolor="#666666"
     borderopacity="1.0"
     inkscape:pageopacity="0.0"
     inkscape:pageshadow="2"
     inkscape:zoom="0.35"
     inkscape:cx="-189.3675"
     inkscape:cy="166.43152"
     inkscape:document-units="px"
     inkscape:current-layer="layer1"
     showgrid="false"
     fit-margin-top="0"
     fit-margin-left="0"
     fit-margin-right="0"
     fit-margin-bottom="0"
     inkscape:window-width="1366"
     inkscape:window-height="744"
     inkscape:window-x="0"
     inkscape:window-y="24"
     inkscape:window-maximized="1" />
  <metadata
     id="metadata17924">
    <rdf:RDF>
      <cc:Work
         rdf:about="">
        <dc:format>image/svg+xml</dc:format>
        <dc:type
           rdf:resource="http://purl.org/dc/dcmitype/StillImage" />
        <dc:title></dc:title>
      </cc:Work>
    </rdf:RDF>
  </metadata>
  <g
     inkscape:label="Layer 1"
     inkscape:groupmode="layer"
     id="layer1"
     transform="translate(-81.510361,-628.78785)">
    <g
       transform="matrix(1.25,0,0,-1.25,-1218.044,1671.6676)"
       id="g17836">
      <g
         transform="translate(1078.1113,801.5771)"
         id="g1228">
        <path
           inkscape:connector-curvature="0"
           id="path1230"
           style="fill:#6e122a;fill-opacity:1;fill-rule:nonzero;stroke:none"
           d="m 0,0 c 0,-10.811 -8.27,-23.278 -18.472,-23.278 -10.202,0 -18.472,12.467 -18.472,23.278 0,10.811 8.27,19.575 18.472,19.575 C -8.27,19.575 0,10.811 0,0" />
      </g>
      <g
         transform="translate(1077.7999,805.1691)"
         id="g1232">
        <path
           inkscape:connector-curvature="0"
           id="path1234"
           style="fill:#8b1533;fill-opacity:1;fill-rule:nonzero;stroke:none"
           d="m 0,0 c 1.179,-5.24 -0.197,-9.673 -2.212,-14.652 -0.638,-1.577 -1.355,-3.136 -2.348,-4.516 -1.824,-2.534 -4.469,-4.332 -7.059,-6.076 -0.208,-0.141 -0.597,-0.205 -0.617,0.045 1.457,1.652 2.817,3.39 4.071,5.201 1.142,1.647 2.199,3.363 2.987,5.206 1.666,3.895 2.071,8.199 2.307,12.429 0.178,3.178 0.246,6.492 -1.065,9.393 -1.49,3.297 -4.535,5.577 -7.458,7.711 C -10.576,14.114 -2.605,11.574 0,0" />
      </g>
      <g
         transform="translate(1073.7583,820.6288)"
         id="g1236">
        <path
           inkscape:connector-curvature="0"
           id="path1238"
           style="fill:#6e122a;fill-opacity:1;fill-rule:nonzero;stroke:none"
           d="m 0,0 c -0.248,-0.374 -0.522,-0.746 -0.82,-1.117 -1,-1.24 -2.069,-2.443 -3.287,-3.476 -0.531,-0.45 -0.915,-0.596 -0.773,-1.359 0.109,-0.591 0.659,-1.131 1.227,-1.286 0.967,-0.264 1.991,0.196 2.783,0.812 2.547,1.98 4.628,5.303 5.347,8.448 0.927,4.056 -3.216,8.515 -3.908,9.058 -1.352,1.063 -2.799,2.049 -4.43,2.595 1.17,-0.291 1.899,-1.378 2.746,-2.235 C 2.421,7.858 2.55,3.842 0,0" />
      </g>
      <g
         transform="translate(1044.2651,819.4615)"
         id="g1240">
        <path
           inkscape:connector-curvature="0"
           id="path1242"
           style="fill:#6e122a;fill-opacity:1;fill-rule:nonzero;stroke:none"
           d="m 0,0 c 0.316,-0.376 0.673,-0.736 1.073,-1.079 0.767,-0.658 1.642,-1.18 2.431,-1.812 1.105,-0.885 3.066,-3.261 0.703,-4.046 -0.952,-0.316 -1.999,0.088 -2.823,0.66 -2.65,1.84 -4.909,5.045 -5.796,8.147 -1.146,4 2.75,8.676 3.412,9.256 1.293,1.134 2.684,2.197 4.283,2.831 C 2.131,13.603 1.462,12.479 0.663,11.576 -2.368,8.155 -2.902,3.447 0,0" />
      </g>
      <g
         transform="translate(1077.151,823.0743)"
         id="g1244">
        <path
           inkscape:connector-curvature="0"
           id="path1246"
           style="fill:#8b1533;fill-opacity:1;fill-rule:nonzero;stroke:none"
           d="M 0,0 C 0.074,0.261 0.162,0.541 0.379,0.704 0.711,-0.169 0.378,-1.143 0.01,-2.001 c -1.156,-2.692 -2.768,-5.318 -5.239,-6.89 -0.093,-0.059 -0.195,-0.118 -0.303,-0.106 -0.109,0.013 -0.207,0.137 -0.152,0.231 0.026,0.045 0.076,0.069 0.122,0.091 0.823,0.395 1.455,1.092 2.065,1.773 0.531,0.592 1.064,1.187 1.505,1.848 C -0.983,-3.54 -0.498,-1.749 0,0" />
      </g>
      <g
         transform="translate(1072.8607,812.243)"
         id="g1248">
        <path
           inkscape:connector-curvature="0"
           id="path1250"
           style="fill:#8b1533;fill-opacity:1;fill-rule:nonzero;stroke:none"
           d="M 0,0 C 0.121,-0.277 0.234,-0.575 0.193,-0.875 0.059,-0.931 -0.081,-0.812 -0.165,-0.694 -0.41,-0.35 -0.525,0.068 -0.636,0.475 -0.739,0.851 -0.841,1.227 -0.944,1.603 -0.748,1.438 -0.613,1.213 -0.489,0.989 -0.311,0.667 -0.147,0.337 0,0" />
      </g>
      <g
         transform="translate(1046.4325,816.814)"
         id="g1252">
        <path
           inkscape:connector-curvature="0"
           id="path1254"
           style="fill:#8b1533;fill-opacity:1;fill-rule:nonzero;stroke:none"
           d="m 0,0 c -1.179,0.873 -2.29,1.863 -3.132,3.064 -0.843,1.2 -1.406,2.63 -1.409,4.096 0.204,-0.312 0.293,-0.683 0.398,-1.042 0.777,-2.667 2.644,-4.999 5.077,-6.34 C 0.646,-0.406 0.274,-0.203 0,0" />
      </g>
      <g
         transform="translate(1049.3868,804.6773)"
         id="g1256">
        <path
           inkscape:connector-curvature="0"
           id="path1258"
           style="fill:#511121;fill-opacity:1;fill-rule:nonzero;stroke:none"
           d="m 0,0 c -1.377,-2.87 -1.846,-6.167 -1.326,-9.307 0.232,-1.402 0.765,-2.911 2.018,-3.581 1.289,-0.69 2.951,-0.223 4.058,0.731 1.108,0.953 1.785,2.3 2.433,3.61 0.675,1.365 1.351,2.73 2.026,4.095 C 6.239,-2.933 3.268,-1.414 0.297,0.105 0.244,0.132 0.185,0.159 0.128,0.143 0.064,0.125 0.029,0.059 0,0" />
      </g>
      <g
         transform="translate(1070.0851,804.6773)"
         id="g1260">
        <path
           inkscape:connector-curvature="0"
           id="path1262"
           style="fill:#511121;fill-opacity:1;fill-rule:nonzero;stroke:none"
           d="m 0,0 c 1.377,-2.87 1.846,-6.167 1.326,-9.307 -0.232,-1.402 -0.765,-2.911 -2.018,-3.581 -1.289,-0.69 -2.951,-0.223 -4.058,0.731 -1.108,0.953 -1.785,2.3 -2.433,3.61 -0.675,1.365 -1.351,2.73 -2.026,4.095 2.97,1.519 5.941,3.038 8.912,4.557 0.053,0.027 0.112,0.054 0.169,0.038 C -0.064,0.125 -0.029,0.059 0,0" />
      </g>
      <g
         transform="translate(1068.8264,798.1675)"
         id="g1264">
        <path
           inkscape:connector-curvature="0"
           id="path1266"
           style="fill:#ed1c24;fill-opacity:1;fill-rule:nonzero;stroke:none"
           d="m 0,0 c -0.786,-0.511 -1.716,-0.866 -2.653,-0.862 -2.114,0.011 -5.298,2.511 -5.298,2.511 0,0 6.042,3.917 8.656,5.607 C 1.338,6.461 1.748,5.491 1.879,4.483 2.098,2.788 1.432,0.932 0,0" />
      </g>
      <g
         transform="translate(1068.0461,799.324)"
         id="g1268">
        <path
           inkscape:connector-curvature="0"
           id="path1270"
           style="fill:#100f0d;fill-opacity:1;fill-rule:nonzero;stroke:none"
           d="m 0,0 c -0.595,-0.387 -1.3,-0.671 -2.009,-0.652 -1.736,0.046 -3.218,1.222 -3.555,1.501 -0.082,0.068 -0.484,0.379 -0.484,0.379 0,0 4.603,2.986 6.582,4.265 C 1.013,4.891 1.323,4.157 1.422,3.394 1.588,2.111 1.084,0.705 0,0" />
      </g>
      <g
         transform="translate(1068.0731,803.5328)"
         id="g1272">
        <path
           inkscape:connector-curvature="0"
           id="path1274"
           style="fill:#ffffff;fill-opacity:1;fill-rule:nonzero;stroke:none"
           d="M 0,0 C -0.008,0.097 -0.012,0.208 0.054,0.28 0.137,0.37 0.295,0.347 0.385,0.263 0.474,0.178 0.51,0.053 0.536,-0.067 0.584,-0.288 0.609,-0.514 0.612,-0.741 0.614,-0.896 0.603,-1.058 0.524,-1.191 0.463,-1.295 0.33,-1.379 0.224,-1.32 0.14,-1.273 0.119,-1.163 0.108,-1.067 0.067,-0.712 0.031,-0.356 0,0" />
      </g>
      <g
         transform="translate(1068.0742,800.6678)"
         id="g1276">
        <path
           inkscape:connector-curvature="0"
           id="path1278"
           style="fill:#ffffff;fill-opacity:1;fill-rule:nonzero;stroke:none"
           d="M 0,0 C -0.115,0.107 -0.099,0.289 -0.074,0.444 -0.053,0.572 -0.03,0.706 0.048,0.81 0.126,0.913 0.278,0.974 0.39,0.908 0.486,0.851 0.517,0.729 0.533,0.619 0.558,0.442 0.56,0.248 0.462,0.098 0.363,-0.052 0.131,-0.122 0,0" />
      </g>
      <g
         transform="translate(1050.8127,797.8568)"
         id="g1280">
        <path
           inkscape:connector-curvature="0"
           id="path1282"
           style="fill:#ed1c24;fill-opacity:1;fill-rule:nonzero;stroke:none"
           d="m 0,0 c 0.816,-0.461 1.767,-0.758 2.702,-0.694 2.109,0.142 5.13,2.836 5.13,2.836 0,0 -6.275,3.532 -8.989,5.056 C -1.739,6.365 -2.088,5.371 -2.155,4.357 -2.268,2.652 -1.488,0.841 0,0" />
      </g>
      <g
         transform="translate(1051.5193,799.0597)"
         id="g1284">
        <path
           inkscape:connector-curvature="0"
           id="path1286"
           style="fill:#100f0d;fill-opacity:1;fill-rule:nonzero;stroke:none"
           d="m 0,0 c 0.618,-0.349 1.339,-0.589 2.046,-0.526 1.73,0.155 3.135,1.421 3.454,1.721 0.078,0.073 0.46,0.409 0.46,0.409 0,0 -4.781,2.692 -6.836,3.845 C -1.316,4.818 -1.58,4.066 -1.631,3.298 -1.717,2.008 -1.126,0.636 0,0" />
      </g>
      <g
         transform="translate(1051.2295,803.2586)"
         id="g1288">
        <path
           inkscape:connector-curvature="0"
           id="path1290"
           style="fill:#ffffff;fill-opacity:1;fill-rule:nonzero;stroke:none"
           d="M 0,0 C 0.002,0.098 -0.001,0.208 -0.071,0.276 -0.16,0.361 -0.316,0.328 -0.4,0.238 -0.484,0.148 -0.513,0.021 -0.531,-0.1 c -0.034,-0.224 -0.045,-0.451 -0.034,-0.677 0.008,-0.155 0.029,-0.316 0.116,-0.445 0.068,-0.1 0.206,-0.175 0.308,-0.11 0.081,0.052 0.095,0.164 0.1,0.26 C -0.022,-0.715 -0.008,-0.357 0,0" />
      </g>
      <g
         transform="translate(1051.4073,800.3991)"
         id="g1292">
        <path
           inkscape:connector-curvature="0"
           id="path1294"
           style="fill:#ffffff;fill-opacity:1;fill-rule:nonzero;stroke:none"
           d="M 0,0 C 0.108,0.114 0.08,0.295 0.046,0.447 0.017,0.574 -0.014,0.706 -0.099,0.805 -0.183,0.904 -0.339,0.955 -0.446,0.882 -0.538,0.819 -0.562,0.695 -0.57,0.585 -0.584,0.406 -0.575,0.212 -0.467,0.069 -0.359,-0.074 -0.123,-0.13 0,0" />
      </g>
      <g
         transform="translate(1068.6777,815.154)"
         id="g1296">
        <path
           inkscape:connector-curvature="0"
           id="path1298"
           style="fill:#8b1533;fill-opacity:1;fill-rule:nonzero;stroke:none"
           d="M 0,0 C 1.198,-1.329 1.89,-3.048 2.286,-4.793 2.45,-5.516 2.567,-6.277 2.375,-6.992 2.182,-7.708 1.608,-8.367 0.871,-8.446 c -0.79,-0.085 -1.525,0.519 -1.843,1.247 -0.318,0.727 -0.31,1.55 -0.276,2.343 0.035,0.793 0.087,1.607 -0.155,2.363 -0.376,1.174 -1.388,2.009 -2.329,2.804 -0.341,0.288 -0.691,0.594 -0.867,1.004 -0.176,0.41 -0.123,0.954 0.24,1.215 0.496,0.357 1.177,0.004 1.679,-0.345 C -1.731,1.525 -0.774,0.858 0,0" />
      </g>
    </g>
  </g>
</svg>
