<?xml version="1.0" encoding="UTF-8" standalone="no"?>
<!-- Created with Inkscape (http://www.inkscape.org/) -->
<svg id="svg4209" xmlns:rdf="http://www.w3.org/1999/02/22-rdf-syntax-ns#" xmlns="http://www.w3.org/2000/svg" height="2453.8" viewBox="0 0 3534.9678 2453.7781" width="3535" version="1.1" xmlns:cc="http://creativecommons.org/ns#" xmlns:dc="http://purl.org/dc/elements/1.1/">
 <metadata id="metadata4215">
  <rdf:RDF>
   <cc:Work rdf:about="">
    <dc:format>image/svg+xml</dc:format>
    <dc:type rdf:resource="http://purl.org/dc/dcmitype/StillImage"/>
    <dc:title/>
   </cc:Work>
  </rdf:RDF>
 </metadata>
 <path id="path4219" fill-opacity=".59748" d="m-0.0000032154 2148.2v-305.62h16.614 16.614v4.8441 4.8441h6.0094 6.0094v7.6343c0 4.1988 0.21098 16.882 0.46884 28.184l0.46884 20.55h3.4126 3.4126l0.18374 20.531 0.18374 20.531 12.019 2.0421 12.019 2.0421 0.21203 2.5284 0.21203 2.5282h4.9137 4.9137v3.0827 3.0826h-4.949-4.949v2.2019 2.2018h4.949 4.949v3.3028 3.3028h-4.949-4.949v2.2019 2.2019h4.949 4.949v3.0826 3.0826h-4.949-4.949v2.2019 2.2019h4.949 4.949v3.3028 3.3028h-4.949-4.949v2.2019 2.2018h4.949 4.949v3.0827 3.0826h-4.949-4.949v2.2019 2.2018h4.949 4.949v3.3028 3.3028h-4.949-4.949v2.2019 2.2019h4.963c4.0759 0 5.4635-0.1968 7.7629-1.1009 1.5399-0.6056 2.9798-1.101 3.1998-1.101 0.50327 0 4.976 6.0818 8.0965 11.009 1.3038 2.0588 2.4588 3.8145 2.5667 3.9016 0.10788 0.087 2.6619-0.7741 5.6757-1.9138 4.9622-1.8765 5.5611-2.0026 6.3439-1.3358 1.463 1.2463 11.169 15.456 15.873 23.238l4.4584 7.3762h12.95 12.95v-88.956-88.956h2.4745c2.4156 0 2.4745-0.042 2.4745-1.7615 0-1.7196-0.0589-1.7615-2.4745-1.7615h-2.4745v-4.8441-4.8441h47.015 47.015v4.8441 4.8441h-2.4745c-2.4156 0-2.4745 0.042-2.4745 1.7615s0.0589 1.7615 2.4745 1.7615h2.4745v37.212 37.212h6.7164 6.7164v-25.762-25.762h3.8885 3.8885v-13.652-13.652h4.242 4.242v-14.532-14.532h6.3629 6.363v-4.8441-4.8441h22.27 22.27v4.8441 4.8441h6.0094 6.0094v7.6343c0 4.1988 0.21097 16.882 0.46884 28.184l0.46883 20.55h3.4196 3.4196v5.945 5.9451h18.735 18.735v46.68 46.68h9.879 9.879l0.19565 6.4955 0.19564 6.4956 6.8932 0.126 6.8932 0.1261v5.9291 5.9291h8.8374 8.8374v-52.845-52.845h6.3629 6.3629v-23.34-23.34h4.5955 4.5955v-24.227-24.227l46.806 0.018 46.806 0.018 11.136-10.674c6.1246-5.871 11.726-10.811 12.448-10.977 1.025-0.2361 1.5043-1.1075 2.1896-3.9803 1.1034-4.6257 1.39-5.2194 2.5191-5.2194 0.70432 0 1.0208-2.1934 1.3823-9.5781 0.25782-5.2679 0.69407-11.164 0.96946-13.101l0.5007-3.5231 0.4737 3.7432c0.26054 2.0588 0.50528 5.8427 0.54387 8.4087 0.12808 8.5162 0.89423 14.05 1.9451 14.05 0.52417 0 0.9524 0.3468 0.95161 0.7707-0.00071 0.4239 0.50398 2.486 1.1217 4.5825 0.82608 2.8037 1.4358 3.8629 2.305 4.0044 0.65003 0.106 11.439 10.027 23.977 22.047 22.249 21.332 22.795 21.908 22.795 24.069 0 1.6751-0.25841 2.2148-1.0605 2.2148-0.65986 0-1.0605 0.4159-1.0605 1.1009 0 0.8074-0.37706 1.101-1.414 1.101-1.3824 0-1.414 0.2935-1.414 13.154v13.154l4.949 0.3037 4.949 0.3038v2.8358 2.8358h-2.4776-2.4775l0.17981 48.992 0.17983 48.992 6.8932 0.126 6.8932 0.1261v-37.228-37.228h9.1888 9.1888l0.1789-70.79 0.1789-70.79 10.075-0.1221 10.075-0.1223v-31.475-31.475h6.7164 6.7164v-4.1835c0-2.7998 0.26251-4.1836 0.79353-4.1836 0.55033 0 0.57133-0.1687 0.0686-0.5505-0.5482-0.416 6.1788-3.5339 27.548-12.768l28.274-12.218 28.196 12.189c22.193 9.5935 28.032 12.312 27.424 12.768-0.56058 0.4207-0.55471 0.5796 0.0212 0.5796 0.53102 0 0.79353 1.3838 0.79353 4.1836v4.1835h6.7164 6.7164v31.487 31.487h9.8979 9.8979v26.395 26.396l3.0047 0.2399c17.449 1.3932 40.596 3.7883 56.736 5.8707l2.828 0.3648 0.3535 3.7252 0.3535 3.7252 25.275 0.1156 25.275 0.1157v3.077 3.0771h-4.949-4.949v2.2018 2.2019h4.949 4.949v3.3028 3.3029h-4.949-4.949v2.2018 2.2019h4.949 4.949v3.0826 3.0826h-4.949-4.949v2.2019 2.2018h4.949 4.949v3.3029 3.3028h-4.949-4.949v2.2019 2.2019h4.949 4.949v3.0826 3.0826h-4.949-4.949v2.2018 2.2019h4.949 4.949v3.3028 3.3029h-4.949-4.949v2.2018 2.2019h4.949 4.949v3.0826 3.0826h-4.949-4.949v2.2019 2.2018h4.949 4.949v3.3029 3.3028h-4.949-4.949v2.2019 2.2019h4.949 4.949v3.0625 3.0624l-4.7722 0.1302-4.7722 0.1303-0.21549 2.0917-0.21549 2.0918h4.9877 4.9877v3.3028 3.3029h-4.949-4.949v2.422 2.422h4.949 4.949v3.3029 3.3028h-4.949-4.949v2.2018 2.2019h4.949 4.949v3.0826 3.0827h-4.949-4.949v2.2018 2.2019h4.949 4.949v3.3028 3.3028l-5.1257 0.095c-2.8191 0.052 0.60095 0.2007 7.6002 0.3303l12.726 0.2356 0.20651 3.4129 0.20644 3.4129h-2.1507c-1.9866 0-2.1508 0.1175-2.1508 1.5413 0 1.4189 0.16834 1.5413 2.121 1.5413h2.121v27.083c0 26.79 0.0156 27.083 1.414 27.083 1.2412 0 1.414-0.2935 1.414-2.4027v-2.4028l5.1257-0.1294 5.1257-0.1294 0.2154-2.0917 0.2155-2.0918h-5.3721-5.3722l0.20771-3.1927 0.20771-3.1928 5.1632-0.1298 5.1631-0.1299-0.2141-2.072-0.2142-2.072-5.1257-0.1293-5.1257-0.1295v-3.044-3.044l5.1257-0.1295 5.1257-0.1293 0.2154-2.0918 0.2155-2.0917h-5.3412-5.3411v-3.3029-3.3027h5.3411 5.3412l-0.2155-2.0919-0.2154-2.0917-5.1257-0.1294-5.1257-0.1294v-3.044-3.0441l5.1257-0.1294 5.1257-0.1294 0.2154-2.0917 0.2155-2.0918h-5.3412-5.3411v-3.3028-3.3028h5.3394 5.3393l-0.2136-2.312-0.2137-2.3119-5.1257-0.1295-5.1257-0.1293v-3.0441-3.044l5.1257-0.1294 5.1257-0.1293 0.2142-2.0721 0.2141-2.072-5.1631-0.1299-5.1632-0.1298-0.20771-3.1927-0.20771-3.1927h5.3334 5.3335v-2.2019-2.2019h-5.3335-5.3334l0.20771-3.1927 0.20771-3.1927 5.1256-0.1294 5.1258-0.1294v-1.9431-1.9431l-5.1258-0.1294-5.1256-0.1293-0.20771-3.1928-0.20771-3.1927h5.3334 5.3335v-2.2019-2.2018h-5.3335-5.3334l0.20771-3.1928 0.20771-3.1926 5.1632-0.1299 5.1631-0.1299-0.2141-2.072-0.2142-2.072-5.1257-0.1294-5.1257-0.1293v-3.0441-3.0441l5.1257-0.1293 5.1257-0.1294 0.2154-2.0918 0.2155-2.0918h-5.3412-5.3411v-3.3028-3.3028h5.3411 5.3412l-0.2155-2.0918-0.2154-2.0917-5.1257-0.1294-5.1257-0.1294v-3.0441-3.044l5.1257-0.1294 5.1257-0.1294 0.2154-2.0918 0.2155-2.0917h-5.3412-5.3411v-3.3029-3.3027h4.9489 4.949v-2.2019-2.2019h-4.949-4.9489v-3.0633-3.0634l5.1257-0.1293 5.1257-0.1294 0.208-2.4476 0.2079-2.4475 13.578-2.2845c17.501-2.9442 33.639-5.4282 47.65-7.3345 11.743-1.5976 31.033-3.7567 33.666-3.7682 3.4117-0.015 3.6413-0.4983 2.0778-4.3761l-1.4472-3.5894 2.7421-1.0782c2.377-0.9346 3.5771-1.0781 9.0146-1.0781h6.2726l0.4793-13.542c0.5322-15.034 1.691-31.624 2.4686-35.34 0.4801-2.294 0.5351-2.1659 1.0399 2.422 0.8305 7.549 1.8377 26.913 1.8583 35.725 0.01 4.39 0.2175 8.6011 0.4605 9.3579l0.4419 1.3763h5.5957c6.0029 0 11.195 1.1301 11.195 2.4365 0 0.3615-0.6363 2.0875-1.414 3.8355-1.6645 3.7414-1.6803 3.8565-0.5302 3.8569 1.964 0 10.246 2.7996 12.786 4.3207 4.4778 2.6821 5.6692 4.5475 6.1004 9.5507l0.3794 4.4038 5.4792 0.1286 5.4792 0.1286v3.0641 3.0641h-4.9489-4.949v2.2019 2.2019h4.949 4.9489v3.3027 3.3029h-4.9489-4.949v2.2018 2.2019h4.949 4.9489v3.0826 3.0827h-4.9489-4.949v2.2018 2.2019h4.949 4.9489v3.3028 3.3028h-4.9489-4.949v2.2019 2.2019h4.949 4.9489v3.0826 3.0826h-4.9489-4.949v2.2019 2.2019h4.949 4.9489v3.3027 3.3029h-4.9489-4.949v2.2018 2.2019h4.949 4.9489v3.3028 3.3028h-4.9489-4.949v1.9817 1.9817h4.949 4.9489v3.3028 3.3028l-5.1257 0.082c-4.4342 0.07-4.625 0.1033-1.4139 0.2432l3.7117 0.1617v1.9587c0 1.6651 0.2119 1.9587 1.414 1.9587 1.2882 0 1.4139 0.2936 1.4139 3.3028s-0.1257 3.3028-1.4139 3.3028c-1.2088 0-1.414 0.2936-1.414 2.0229 0 1.6525 0.2589 2.0651 1.414 2.2533 1.2412 0.2021 1.4139 0.6006 1.4139 3.2615 0 2.7377-0.1369 3.0313-1.4139 3.0313-1.2427 0-1.414 0.2936-1.414 2.422 0 2.1285 0.1713 2.4221 1.414 2.4221 1.2882 0 1.4139 0.2936 1.4139 3.3028s-0.1257 3.3028-1.4139 3.3028c-1.2088 0-1.414 0.2936-1.414 2.0229 0 1.6525 0.2589 2.0651 1.414 2.2533 1.2382 0.2017 1.4139 0.6006 1.4139 3.2102 0 2.6095-0.1757 3.0085-1.4139 3.2102-1.1551 0.1881-1.414 0.6007-1.414 2.2532v2.023h13.786 13.786v-10.789-10.789h25.452 25.452v7.7065 7.7066h2.1209 2.121v-20.037-20.037h3.8885 3.8884v-13.652-13.652h4.242 4.242v-14.532-14.532h6.3629 6.363v-4.8346-4.8346l13.61-0.1196 13.61-0.1196 0.1847-17.725 0.1849-17.725h31.807 31.807v39.627 39.627l20.68 0.1168 20.68 0.1167 0.1863 14.642 0.1863 14.642h15.898 15.898v-2.8624-2.8625h7.0699 7.0699v-22.019-22.019h4.5955 4.5954l0.05-2.7523c0.028-1.5138 0.2659-3.0865 0.5303-3.4948 0.2642-0.4084 9.1998-4.5102 19.857-9.1152l19.376-8.3729 8.9343 3.8307c4.9139 2.107 13.756 5.9116 19.649 8.4547l10.714 4.624 0.2134 3.3028 0.2134 3.3028 4.7722 0.1302 4.7722 0.1302v21.999 21.998h6.7165 6.7164v31.487 31.487h6.7164 6.7165v-53.506-53.506h3.8884 3.8885v-2.6422-2.6423h-3.8885-3.8884v-7.046-7.046h12.019c10.212 0 12.019-0.099 12.019-0.6605 0-0.4991 0.864-0.6606 3.5349-0.6606h3.535v-11.23-11.23h4.5954 4.5955v-3.7432-3.7432h16.939 16.939l0.2054 3.6331 0.2053 3.6331 4.7722 0.1302 4.7722 0.1302v11.87 11.87h7.0699 7.07v-136.96-136.96h7.0699 7.0699v-52.845-52.845h11.665 11.665v-9.2478-9.2479h16.924 16.925l0.3641-1.8716c0.2002-1.0294 0.7091-10.393 1.1309-20.808 0.8492-20.974 1.8461-37.343 2.6016-42.716 0.4737-3.369 0.5191-3.4404 1.0387-1.6333 0.7253 2.5222 1.7755 19.384 2.8376 45.561l0.871 21.468h20.366 20.366v9.2479 9.2478h11.665 11.665v27.289 27.289l8.3071 0.1241 8.3072 0.1241 0.1825 25.432 0.1825 25.432h6.7098 6.7097l0.1776 159.97 0.1778 159.97 4.7722 0.1303 4.7722 0.1302v-10.589-10.589h3.8885 3.8884v-13.652-13.652h4.242 4.2419v-14.532-14.532h6.363 6.3629v-4.8317-4.8317l9.7212-0.1225 9.7212-0.1225 0.1781-110.37 0.1781-110.37 64.612-26.518 64.612-26.518 0.4525-9.7542c0.249-5.3648 0.9197-22.338 1.4906-37.718 2.8603-77.063 4.6927-104.23 6.2087-92.038 1.0509 8.448 3.2158 56.364 4.815 106.57 0.4591 14.411 1.0535 26.359 1.321 26.55 0.2674 0.1914 8.1718-2.8255 17.565-6.7044l17.079-7.0524 0.1782 99.462 0.1783 99.462 8.5357-3.2446 8.5356-3.2446 1.5684-4.961c0.8627-2.7284 2.8413-7.3388 4.3969-10.245 2.8524-5.3294 9.3508-14.128 11.961-16.195 0.7766-0.615 15.699-6.5159 33.16-13.113l31.748-11.995 0.4305-5.7707c0.2368-3.1739 0.9162-14.094 1.5098-24.266 2.2418-38.419 3.9939-56.316 5.2982-54.12 1.3083 2.2028 2.5832 17.524 4.6784 56.224 0.8323 15.374 1.4748 22.742 1.9723 22.618 0.4059-0.1011 12.828-4.7639 27.604-10.362l26.866-10.178 2.3642 3.1935c2.0554 2.7763 8.7977 12.823 10.73 15.988l0.6638 1.0874 7.448-2.8404 7.448-2.8403 1.7515 2.1529c13.035 16.023 32.709 49.76 43.132 73.965 17.97 41.73 24.901 77.046 22.97 117.05-0.9001 18.653-4.158 48.58-6.0394 55.478l-0.3903 1.4312h13.111 13.111v1.9817 1.9817h12.372 12.372v3.7431 3.7432h3.5606 3.5605l-0.2023 4.2937-0.2024 4.2937-3.3582 0.1342-3.3582 0.1342v2.8383 2.8383h3.535 3.5349v4.1835 4.1836h-3.5349-3.535v2.8383 2.8383l3.3582 0.1342 3.3582 0.1343 0.2024 4.2936 0.2023 4.2937h-3.5605-3.5606v2.8624 2.8624h3.535 3.5349v4.4038 4.4038h-3.5349-3.535v2.8624 2.8624h3.535 3.5349v4.1835 4.1836h-3.5349-3.535v3.0827 3.0825h3.535 3.5349v4.1836 4.1836h-3.5349-3.535v2.8383 2.8382l3.3582 0.1343 3.3582 0.1342 0.2024 4.2936 0.2023 4.2937h-3.5605-3.5606v2.8625 2.8624h3.535 3.5349v3.7432 3.7432h5.3025 5.3024v-262.68-262.68h27.62c25.977 0 27.598-0.046 27.246-0.7707-0.7294-1.4995-19.531-56.175-19.348-56.265 0.1021-0.05 4.8604-2.1005 10.574-4.556l10.388-4.4645h25.396 25.396l0.4713-12c1.8036-45.93 7.4058-117.55 8.9957-115.01 0.7289 1.1666 3.3904 30.188 5.186 56.549 0.9235 13.557 1.4337 23.996 2.9436 60.221l0.4268 10.239h24.322 24.322l9.3583 4.0148c5.1471 2.2081 9.8874 4.3385 10.534 4.7341 1.0949 0.6698 0.5012 2.6556-8.6414 28.903-5.3993 15.501-9.8256 28.234-9.8362 28.294-0.011 0.061 12.229 0.1101 27.2 0.1101h27.219v184.53 184.53l6.1861-0.1273 6.1862-0.1273 0.1822-26.973 0.1822-26.973h5.6505 5.6505l0.01-3.1927c0.01-1.756 0.2026-3.6412 0.4383-4.1892 0.2812-0.6536 4.1968-2.6149 11.376-5.6983 6.0209-2.5859 11.101-4.9516 11.289-5.2571 0.3636-0.5903-0.3862-9.7756-2.6375-32.306-3.6139-36.168-8.215-72.896-13.504-107.79-1.2215-8.0598-2.0683-14.749-1.8818-14.865 0.1865-0.1162 3.9693 0.8534 8.4062 2.1546 15.621 4.5813 38.027 9.5807 56.319 12.566 9.3119 1.5197 8.6845 1.9855 6.5529-4.8639-0.7704-2.4755-1.3272-4.546-1.2373-4.6011 0.09-0.055 4.2025 0.2675 9.139 0.717 27.961 2.5461 52.882 2.539 82.177-0.023 5.0736-0.4438 9.3186-0.7485 9.4332-0.6771 0.1147 0.071-0.4125 2.2862-1.1715 4.9218-0.759 2.6355-1.253 4.871-1.0978 4.9677 0.3703 0.2306 12.605-1.824 23.287-3.9107 11.999-2.3442 28.571-6.1647 39.115-9.018 4.9567-1.3412 9.1652-2.4386 9.3524-2.4386 0.1871 0-0.6841 6.6882-1.9361 14.863-12.53 81.808-21.404 180.47-21.428 238.24l-0.01 13.321h27.219 27.219v3.523 3.523h-2.121c-1.8853 0-2.121 0.1468-2.121 1.3211 0 1.1744 0.2357 1.3211 2.121 1.3211h2.121v27.303 27.303h18.028 18.028v-14.532-14.532h34.643 34.643v34.129 34.129h7.4234c6.1273 0 7.4235 0.1153 7.4235 0.6605 0 0.5071 0.9034 0.6606 3.8884 0.6606h3.8885v-1.9817-1.9816h-3.8885-3.8884v-2.6423-2.6422h3.8884 3.8885v-1.5413-1.5414h-3.8885-3.8884v-2.6422-2.6423h3.8884 3.8885v-1.7615-1.7614h-3.8885-3.8884v-2.4221-2.4221h3.8884 3.8885v-1.7614-1.7616h-3.8885-3.8884v-2.6422-2.6423h3.9311 3.9311l-0.2193-1.6514-0.2195-1.6513-3.7117-0.1332-3.7117-0.1331v-2.399-2.3991h3.8884 3.8885v-1.7615-1.7615h-3.8885-3.8884v-2.4221-2.422h3.8884 3.8885v-1.7615-1.7615h-3.8885-3.8884v-2.6422-2.6422h3.8884 3.8885v-1.7616-1.7615h-3.8885-3.8884v-2.4221-2.422h3.8884 3.8885v-1.7615-1.7615h-3.8885-3.8884v-2.422-2.4221h3.8884 3.8885v-1.7615-1.7615h-3.8885-3.8884v-2.6423-2.6422h3.8884 3.8885v-1.8913-1.8912l13.763-2.3117c17.54-2.946 38.361-5.9275 50.574-7.2416l9.5444-1.0271 0.1883-11.755 0.1884-11.755h8.0124 8.0125l0.5297-9.1378c0.2914-5.0257 0.745-10.525 1.008-12.22l0.4783-3.0825 0.4959 3.5229c0.2728 1.9377 0.7113 7.4369 0.9746 12.22l0.4787 8.6974h14.738 14.738v-36.992-36.991h30.754 30.754v-4.8441-4.8441h6.7165 6.7164v-21.558-21.558l4.7722-0.1302 4.7722-0.1302 0.2267-3.3028 0.2266-3.3028 18.552-8.0093c10.204-4.405 18.891-8.0711 19.304-8.1469 0.8267-0.1513 36.8 15.185 38.222 16.295 0.512 0.3997 0.8837 1.9512 0.8837 3.6884v2.9985h4.5955 4.5954v21.578 21.578h6.7165 6.7164v25.982 25.982h19.089 19.089v4.8442 4.8441h6.0094 6.0094v7.6343c0 4.1987 0.211 16.882 0.4688 28.184l0.4689 20.55h3.4097 3.4097l0.1867 13.785 0.1867 13.785 21.917-8.284 21.917-8.2838 0.4858-7.1526c0.2673-3.9338 0.9969-15.376 1.6213-25.428 1.2649-20.36 2.2862-30.427 3.1414-30.965 1.0647-0.6702 2.267 12.626 3.6161 39.993 0.4418 8.9617 1.0141 17.027 1.2718 17.924l0.4685 1.6299 13.433-5.0783c7.388-2.7932 14.467-5.475 15.731-5.9595l2.2977-0.881v248.63 248.63h-1767.5-1767.5v-305.62zm3082.5-90.8v-1.7615h-3.8884-3.8885v1.7615 1.7615h3.8885 3.8884v-1.7615zm372.59-1250v-2.45l2.2978 0.138c2.1124 0.12687 2.2977 0.26227 2.2977 1.6793 0 1.2631-0.2871 1.5667-1.5907 1.682-0.875 0.0774-1.5908 0.4242-1.5908 0.77066s-0.3181 0.62993-0.707 0.62993c-0.3888 0-0.707-1.1025-0.707-2.45zm3.8885-0.63266c0-0.56514-0.3976-1.1101-0.8834-1.211-1.0838-0.22504-1.898 0.95829-1.3129 1.9081 0.622 1.0096 2.1963 0.50981 2.1963-0.69718zm12.512 0.77066c0.2082-2.2532 0.2719-2.3155 2.505-2.4497 2.1229-0.12758 2.2473-0.0635 1.6917 0.87204-0.3298 0.55537-1.3609 1.1425-2.2913 1.3048-1.4774 0.2577-1.508 0.30065-0.2424 0.33898 3.5287 0.10688 3.7245 2.2458 0.2056 2.2458-2.0678 0-2.0808-0.0161-1.8686-2.312zm3.3951 1.4312c0-0.24221-0.6362-0.44038-1.4139-0.44038s-1.414 0.19817-1.414 0.44038c0 0.2422 0.6363 0.44037 1.414 0.44037s1.4139-0.19817 1.4139-0.44037zm-0.7069-2.8624c0-0.36331-0.3182-0.66056-0.707-0.66056-0.3889 0-0.707 0.29725-0.707 0.66056s0.3181 0.66056 0.707 0.66056c0.3888 0 0.707-0.29725 0.707-0.66056zm12.115 1.5273c-0.091-2.2914 0.01-2.4415 1.6514-2.5262 2.2739-0.11721 3.5901 1.2649 2.4587 2.5818-0.5105 0.59408-1.2602 0.84607-2.1067 0.70817-0.9289-0.1513-1.4013 0.0625-1.6107 0.72915-0.163 0.51878-0.3397-0.153-0.3927-1.4929zm3.0852-0.86671c0-1.207-1.5742-1.7067-2.1963-0.69718-0.5851 0.94985 0.2291 2.1332 1.3129 1.9081 0.4859-0.10088 0.8834-0.64581 0.8834-1.211zm-60.396 0.13486c-0.8837-1.9935-0.3971-2.4884 0.734-0.7464 0.8101 1.2477 0.8342 1.2526 1.257 0.25527 0.237-0.55926 0.7492-1.0168 1.138-1.0168 0.3889 0 0.901 0.45757 1.1381 1.0168 0.4228 0.99733 0.4469 0.99244 1.257-0.25527 1.1505-1.772 1.6185-1.232 0.6448 0.74403-0.9535 1.9351-1.7721 2.0766-2.4391 0.42136l-0.4866-1.2076-0.6462 1.2076c-0.8844 1.6525-1.74 1.5144-2.597-0.41899zm8.5006 0.2398c-0.9632-1.7212-0.983-2.2678-0.069-1.916 0.3888 0.14969 0.707 0.6685 0.707 1.1529 0 0.48441 0.3181 0.75827 0.707 0.60858 0.3888-0.14969 0.707-0.65681 0.707-1.1269 0-1.2558 1.1919-1.0408 1.9749 0.35628l0.6787 1.211 0.5173-1.211c0.2846-0.66607 0.7672-1.211 1.0725-1.211 0.3054 0 0.2289 0.8005-0.1697 1.7789-0.7841 1.924-1.9987 2.0986-2.7155 0.39035l-0.4483-1.0683-0.5315 1.211c-0.6971 1.5877-1.4748 1.5314-2.4303-0.17581zm8.3973 0.25724c-1.0505-1.7211-0.7347-2.8386 0.3652-1.2925l0.9399 1.3211 0.4933-1.211c0.2714-0.66607 0.7425-1.211 1.0471-1.211s0.7876 0.54497 1.0734 1.211l0.5197 1.211 0.9391-1.3211c1.0892-1.5325 1.3588-0.42048 0.3133 1.2925-0.8192 1.342-2.1385 1.4955-2.1385 0.24885 0-0.48441-0.3182-0.88075-0.707-0.88075-0.3889 0-0.707 0.39634-0.707 0.88075 0 1.2467-1.3193 1.0932-2.1385-0.24885zm16.455 0.82604c1.5165-0.24686 1.6129-0.95541 0.1768-1.2987-1.747-0.41754-1.3182-1.929 0.5302-1.8697 1.1971 0.0384 1.2845 0.10094 0.3535 0.25248-1.6134 0.26263-1.565 0.6782 0.157 1.3481 1.7483 0.68011 1.1239 1.8899-0.9396 1.8203-1.1951-0.0403-1.2538-0.0936-0.2779-0.25247zm3.3531-0.58314c-0.968-1.1266 0.2356-2.6363 2.1018-2.6363 0.8275 0 1.4571-0.37896 1.6464-0.99084 0.1684-0.54496 0.3496 0.20449 0.4026 1.6654 0.092 2.5256 0.011 2.6607-1.6514 2.7464-1.1223 0.0579-2.0168-0.22299-2.4994-0.7847zm3.1866-0.8748c0-1.207-1.5743-1.7067-2.1963-0.69718-0.5851 0.94985 0.2291 2.1332 1.3129 1.9081 0.4859-0.10088 0.8834-0.64581 0.8834-1.211zm8.2028 0.1101c-0.064-1.6626 0.1053-1.8708 1.5184-1.8648 1.1555 0.005 1.3297 0.10978 0.6363 0.38345-0.5248 0.20718-1.2081 1.0464-1.5183 1.8648l-0.5641 1.4881-0.072-1.8716zm3.24 1.0445c-0.4285-0.69546 0.7736-1.595 2.1315-1.595 0.5055 0 0.9191-0.22128 0.9191-0.49174 0-0.27492-0.6235-0.39018-1.414-0.26141-0.7777 0.12667-1.414 0.0507-1.414-0.16883s0.7614-0.39915 1.6918-0.39915c1.7978 0 2.5502 0.72524 2.5502 2.4581 0 0.88091-0.3535 1.0649-2.0454 1.0649-1.1249 0-2.2136-0.2731-2.4192-0.6069zm3.0506-0.53073c0-0.3835-0.3778-0.61882-0.8396-0.52295-1.3109 0.27219-1.5284 1.2202-0.2798 1.2202 0.6156 0 1.1194-0.31377 1.1194-0.69726zm8.4839-1.5306c0-1.6667 0.2654-2.5661 0.707-2.3961 0.3888 0.14968 0.707 0.55771 0.707 0.90673s0.6023 0.63457 1.3383 0.63457c0.7361 0 1.5315 0.31346 1.7675 0.69658 0.673 1.0924 0.5025 2.8264-0.2778 2.8264-0.3889 0-0.707-0.69359-0.707-1.5413 0-1.0765-0.3199-1.5413-1.0605-1.5413-0.7407 0-1.0605 0.46484-1.0605 1.5413 0 0.84772-0.3182 1.5413-0.707 1.5413-0.3935 0-0.707-1.183-0.707-2.6682zm5.6559 0.90674c0-0.96882 0.3182-1.7615 0.707-1.7615 0.3889 0 0.707 0.79268 0.707 1.7615s-0.3181 1.7615-0.707 1.7615c-0.3888 0-0.707-0.79268-0.707-1.7615zm2.828 0.88075c-0.9839-1.1452 0.2319-2.6422 2.1459-2.6422 0.764 0 1.3891 0.17616 1.3891 0.39145s-0.5568 0.36392-1.2373 0.33028c-0.8745-0.0432-1.2372 0.26155-1.2372 1.0398 0 0.77823 0.3627 1.083 1.2372 1.0398 0.6805-0.0337 1.2373 0.11498 1.2373 0.33027 0 0.76383-2.7901 0.37763-3.535-0.4893zm4.242 0.48161c0-0.21954 0.6363-0.29551 1.414-0.16883 1.879 0.30607 1.8046-0.48418-0.1207-1.2804-1.8135-0.75001-1.2028-1.6977 1.0461-1.6235 1.1961 0.0394 1.2672 0.097 0.3118 0.25248-1.5171 0.24695-1.6054 0.83533-0.1767 1.1768 0.5832 0.13941 1.0604 0.65604 1.0604 1.148 0 0.66062-0.4622 0.89457-1.7674 0.89457-0.9722 0-1.7675-0.17962-1.7675-0.39914zm4.9489-0.0413c0-0.24221 0.3182-0.44037 0.707-0.44037 0.3889 0 0.707 0.19816 0.707 0.44037 0 0.2422-0.3181 0.44037-0.707 0.44037-0.3888 0-0.707-0.19817-0.707-0.44037zm2.4745-0.44037c-0.7337-1.4399 0.2532-2.6422 2.1686-2.6422 0.9459 0 1.7199 0.17961 1.7199 0.39914 0 0.21954-0.6617 0.29138-1.4704 0.15965-1.2716-0.20713-1.4388-0.0677-1.2372 1.0321 0.1637 0.8927 0.6017 1.2533 1.4703 1.2104 0.6805-0.0336 1.2373 0.11498 1.2373 0.33028 0 0.82145-3.4412 0.38842-3.8885-0.4893zm4.889 0.2817c-0.2229-0.36191-0.3007-1.1183-0.1727-1.6809 0.1844-0.81074 0.6726-1.0229 2.3536-1.0229 1.9527 0 2.121 0.12233 2.121 1.5413 0 1.3548-0.2357 1.5582-1.9482 1.6809-1.2364 0.0886-2.0964-0.10087-2.3537-0.51844zm3.4971-0.50189c0.5621-0.9124-0.2009-1.9817-1.414-1.9817s-1.9761 1.0693-1.414 1.9817c0.2238 0.36331 0.8601 0.66056 1.414 0.66056s1.1901-0.29725 1.414-0.66056zm2.6653-0.46093-0.093-1.7821 3.346-0.0598c1.9046-0.034 3.5751 0.16452 3.8776 0.46093 0.7818 0.76575 0.6682 2.9428-0.1537 2.9428-0.3888 0-0.7069-0.71011-0.7069-1.578 0-1.9898-1.669-1.8381-1.9891 0.1807-0.3037 1.9154-1.5459 1.7702-1.5459-0.1807 0-2.0259-1.5932-1.815-2.2047 0.29189l-0.4371 1.5063-0.093-1.782z"/>
</svg>
