<?xml version="1.0" encoding="UTF-8" standalone="no"?>
<!-- Created with Inkscape (http://www.inkscape.org/) -->

<svg
   xmlns:dc="http://purl.org/dc/elements/1.1/"
   xmlns:cc="http://creativecommons.org/ns#"
   xmlns:rdf="http://www.w3.org/1999/02/22-rdf-syntax-ns#"
   xmlns:svg="http://www.w3.org/2000/svg"
   xmlns="http://www.w3.org/2000/svg"
   xmlns:sodipodi="http://sodipodi.sourceforge.net/DTD/sodipodi-0.dtd"
   xmlns:inkscape="http://www.inkscape.org/namespaces/inkscape"
   width="419.92056mm"
   height="296.60645mm"
   viewBox="0 0 1487.9075 1050.9677"
   id="svg15429"
   version="1.1"
   inkscape:version="0.91 r13725"
   sodipodi:docname="skyline.svg">
  <defs
     id="defs15431">
    <clipPath
       clipPathUnits="userSpaceOnUse"
       id="clipPath18">
      <path
         d="m 0,840.779 1190.325,0 L 1190.325,0 0,0 0,840.779 Z"
         id="path20"
         inkscape:connector-curvature="0" />
    </clipPath>
    <clipPath
       clipPathUnits="userSpaceOnUse"
       id="clipPath26">
      <path
         d="m 3.49709,840.779 1186.83291,0 0,-838.7792 -1186.83291,0 0,838.7792 z"
         id="path28"
         inkscape:connector-curvature="0" />
    </clipPath>
    <clipPath
       clipPathUnits="userSpaceOnUse"
       id="clipPath44">
      <path
         d="m 3.49709,840.779 1186.83291,0 0,-331.584 -1186.83291,0 0,331.584 z"
         id="path46"
         inkscape:connector-curvature="0" />
    </clipPath>
    <clipPath
       clipPathUnits="userSpaceOnUse"
       id="clipPath60">
      <path
         d="m 2.81036,282.22 1188.50964,0 0,-281.728499 -1188.50964,0 0,281.728499 z"
         id="path62"
         inkscape:connector-curvature="0" />
    </clipPath>
    <clipPath
       clipPathUnits="userSpaceOnUse"
       id="clipPath80">
      <path
         d="m 72.7871,620.692 155.4779,0 0,-154.51 -155.4779,0 0,154.51 z"
         id="path82"
         inkscape:connector-curvature="0" />
    </clipPath>
    <clipPath
       clipPathUnits="userSpaceOnUse"
       id="clipPath100">
      <path
         d="m 133.36,603.395 90.449,0 0,-132.4 -90.449,0 0,132.4 z"
         id="path102"
         inkscape:connector-curvature="0" />
    </clipPath>
    <clipPath
       clipPathUnits="userSpaceOnUse"
       id="clipPath116">
      <path
         d="m 98.8917,580.122 36.5973,0 0,-37.004 -36.5973,0 0,37.004 z"
         id="path118"
         inkscape:connector-curvature="0" />
    </clipPath>
    <clipPath
       clipPathUnits="userSpaceOnUse"
       id="clipPath136">
      <path
         d="m 102.048,576.976 30.093,0 0,-30.427 -30.093,0 0,30.427 z"
         id="path138"
         inkscape:connector-curvature="0" />
    </clipPath>
    <clipPath
       clipPathUnits="userSpaceOnUse"
       id="clipPath156">
      <path
         d="m 139.993,536.815 7.403,0 0,-7.486 -7.403,0 0,7.486 z"
         id="path158"
         inkscape:connector-curvature="0" />
    </clipPath>
    <clipPath
       clipPathUnits="userSpaceOnUse"
       id="clipPath176">
      <path
         d="m 198.085,528.097 9.134,0 0,-9.237 -9.134,0 0,9.237 z"
         id="path178"
         inkscape:connector-curvature="0" />
    </clipPath>
    <clipPath
       clipPathUnits="userSpaceOnUse"
       id="clipPath196">
      <path
         d="m 166.92,569.983 44.931,0 0,-39.337 -44.931,0 0,39.337 z"
         id="path198"
         inkscape:connector-curvature="0" />
    </clipPath>
    <clipPath
       clipPathUnits="userSpaceOnUse"
       id="clipPath224">
      <path
         d="m 159.663,518.727 29.723,0 0,-28.876 -29.723,0 0,28.876 z"
         id="path226"
         inkscape:connector-curvature="0" />
    </clipPath>
    <clipPath
       clipPathUnits="userSpaceOnUse"
       id="clipPath244">
      <path
         d="m 161.789,516.445 25.133,0 0,-24.418 -25.133,0 0,24.418 z"
         id="path246"
         inkscape:connector-curvature="0" />
    </clipPath>
    <clipPath
       clipPathUnits="userSpaceOnUse"
       id="clipPath264">
      <path
         d="m 126.123,500.051 17.534,0 0,-12.379 -17.534,0 0,12.379 z"
         id="path266"
         inkscape:connector-curvature="0" />
    </clipPath>
    <clipPath
       clipPathUnits="userSpaceOnUse"
       id="clipPath288">
      <path
         d="m 158.726,593.761 23.161,0 0,-16.35 -23.161,0 0,16.35 z"
         id="path290"
         inkscape:connector-curvature="0" />
    </clipPath>
    <clipPath
       clipPathUnits="userSpaceOnUse"
       id="clipPath308">
      <path
         d="m 160.522,592.489 19.588,0 0,-13.824 -19.588,0 0,13.824 z"
         id="path310"
         inkscape:connector-curvature="0" />
    </clipPath>
    <clipPath
       clipPathUnits="userSpaceOnUse"
       id="clipPath328">
      <path
         d="m 97.8952,533.92 12.1338,0 0,-10.441 -12.1338,0 0,10.441 z"
         id="path330"
         inkscape:connector-curvature="0" />
    </clipPath>
    <clipPath
       clipPathUnits="userSpaceOnUse"
       id="clipPath356">
      <path
         d="m 137.969,595.649 7.323,0 0,-6.3 -7.323,0 0,6.3 z"
         id="path358"
         inkscape:connector-curvature="0" />
    </clipPath>
    <clipPath
       clipPathUnits="userSpaceOnUse"
       id="clipPath380">
      <path
         d="m 210.426,666.444 23.148,0 0,-23.003 -23.148,0 0,23.003 z"
         id="path382"
         inkscape:connector-curvature="0" />
    </clipPath>
    <clipPath
       clipPathUnits="userSpaceOnUse"
       id="clipPath400">
      <path
         d="m 740.04,464.098 19.92,0 0,-19.797 -19.92,0 0,19.797 z"
         id="path402"
         inkscape:connector-curvature="0" />
    </clipPath>
    <clipPath
       clipPathUnits="userSpaceOnUse"
       id="clipPath420">
      <path
         d="m 894.798,554.772 12.404,0 0,-12.327 -12.404,0 0,12.327 z"
         id="path422"
         inkscape:connector-curvature="0" />
    </clipPath>
    <clipPath
       clipPathUnits="userSpaceOnUse"
       id="clipPath440">
      <path
         d="m 875.537,719.998 18.926,0 0,-18.808 -18.926,0 0,18.808 z"
         id="path442"
         inkscape:connector-curvature="0" />
    </clipPath>
    <clipPath
       clipPathUnits="userSpaceOnUse"
       id="clipPath460">
      <path
         d="m 1057.8,462.351 12.4,0 0,-12.328 -12.4,0 0,12.328 z"
         id="path462"
         inkscape:connector-curvature="0" />
    </clipPath>
    <clipPath
       clipPathUnits="userSpaceOnUse"
       id="clipPath480">
      <path
         d="m 425.426,777.747 23.148,0 0,-23.003 -23.148,0 0,23.003 z"
         id="path482"
         inkscape:connector-curvature="0" />
    </clipPath>
    <clipPath
       clipPathUnits="userSpaceOnUse"
       id="clipPath500">
      <path
         d="m 1043.43,710.17 23.14,0 0,-23.003 -23.14,0 0,23.003 z"
         id="path502"
         inkscape:connector-curvature="0" />
    </clipPath>
    <clipPath
       clipPathUnits="userSpaceOnUse"
       id="clipPath520">
      <path
         d="m 473.798,606.449 12.404,0 0,-12.328 -12.404,0 0,12.328 z"
         id="path522"
         inkscape:connector-curvature="0" />
    </clipPath>
    <clipPath
       clipPathUnits="userSpaceOnUse"
       id="clipPath576">
      <path
         d="m 103.798,407.693 12.404,0 0,-12.327 -12.404,0 0,12.327 z"
         id="path578"
         inkscape:connector-curvature="0" />
    </clipPath>
    <clipPath
       clipPathUnits="userSpaceOnUse"
       id="clipPath596">
      <path
         d="m 52.7976,737.627 12.4049,0 0,-12.327 -12.4049,0 0,12.327 z"
         id="path598"
         inkscape:connector-curvature="0" />
    </clipPath>
  </defs>
  <sodipodi:namedview
     id="base"
     pagecolor="#ffffff"
     bordercolor="#666666"
     borderopacity="1.0"
     inkscape:pageopacity="0.0"
     inkscape:pageshadow="2"
     inkscape:zoom="0.35"
     inkscape:cx="1070.3854"
     inkscape:cy="431.19826"
     inkscape:document-units="px"
     inkscape:current-layer="layer1"
     showgrid="false"
     fit-margin-top="0"
     fit-margin-left="0"
     fit-margin-right="0"
     fit-margin-bottom="0"
     inkscape:window-width="1366"
     inkscape:window-height="744"
     inkscape:window-x="0"
     inkscape:window-y="24"
     inkscape:window-maximized="1" />
  <metadata
     id="metadata15434">
    <rdf:RDF>
      <cc:Work
         rdf:about="">
        <dc:format>image/svg+xml</dc:format>
        <dc:type
           rdf:resource="http://purl.org/dc/dcmitype/StillImage" />
        <dc:title></dc:title>
      </cc:Work>
    </rdf:RDF>
  </metadata>
  <g
     inkscape:label="Layer 1"
     inkscape:groupmode="layer"
     id="layer1"
     transform="translate(1178.2425,87.407319)">
    <path
       d="m -1178.2425,957.20575 1487.9075,0 0,-1044.433804 -1487.9075,0 0,1044.433804 z"
       style="fill:#343687;fill-opacity:1;fill-rule:nonzero;stroke:none"
       id="path12"
       inkscape:connector-curvature="0" />
    <g
       id="g14874"
       transform="matrix(1.25,0,0,-1.25,-1179.3318,963.56637)">
      <g
         id="g14">
        <g
           clip-path="url(#clipPath18)"
           id="g16">
          <g
             id="g22">
            <g
               id="g24" />
            <g
               id="g30">
              <g
                 style="opacity:0.5"
                 id="g32"
                 clip-path="url(#clipPath26)">
                <path
                   inkscape:connector-curvature="0"
                   id="path34"
                   style="fill:#40439b;fill-opacity:1;fill-rule:nonzero;stroke:none"
                   d="m 3.497,2 1186.828,0 0,838.779 -1186.828,0 L 3.497,2 Z" />
              </g>
            </g>
          </g>
          <g
             transform="translate(1188.5767,317.098)"
             id="g36">
            <path
               inkscape:connector-curvature="0"
               id="path38"
               style="fill:#4345a3;fill-opacity:1;fill-rule:nonzero;stroke:none"
               d="M 0,0 C -95.169,3.291 -297.598,16.193 -422.307,66.769 -588.48,134.16 -998.651,185.761 -1186.828,-39.993 l 0,-274.336 L 0,-314.329 0,0 Z" />
          </g>
          <g
             id="g40">
            <g
               id="g42" />
            <g
               id="g48">
              <g
                 style="opacity:0.5"
                 id="g50"
                 clip-path="url(#clipPath44)">
                <g
                   id="g52"
                   transform="translate(3.4971,533.8881)">
                  <path
                     inkscape:connector-curvature="0"
                     id="path54"
                     style="fill:#2c317b;fill-opacity:1;fill-rule:nonzero;stroke:none"
                     d="m 0,0 c 281.745,343.186 681.496,140.434 911.439,28.936 143.399,-69.533 229.985,-58.771 275.389,-37.805 l 0,315.76 L 0,306.891 0,0 Z" />
                </g>
              </g>
            </g>
          </g>
          <g
             id="g56">
            <g
               id="g58" />
            <g
               id="g64">
              <g
                 style="opacity:0.69999701"
                 id="g66"
                 clip-path="url(#clipPath60)">
                <g
                   id="g68"
                   transform="translate(688.2084,240.4165)">
                  <path
                     inkscape:connector-curvature="0"
                     id="path70"
                     style="fill:#252a63;fill-opacity:1;fill-rule:nonzero;stroke:none"
                     d="m 0,0 c 21.382,0.62 42.884,-2.662 63.047,-9.769 74.777,-26.36 126.436,-101.561 203.787,-119.113 37.237,-8.45 75.608,-2.348 112.971,1.849 19.041,2.138 38.213,3.944 57.397,3.186 9.768,-0.385 19.408,-1.537 29.002,-3.386 9.282,-1.789 16.198,-7.072 24.183,-12.056 4.971,-3.102 10.309,-2.769 12.194,-8.535 1.192,-3.646 -0.01,-9.726 -0.01,-13.543 0,-11.787 0.118,-23.524 -0.672,-35.288 -0.2,-2.992 -3.257,-41.596 -0.469,-41.762 -97.687,5.798 -151.537,13.539 -249.21,7.504 -33.688,-2.081 -67.333,-4.865 -101.041,-6.615 -98.04,-5.09 -196.282,-1.4 -294.181,4.774 -44.183,2.787 -89.761,3.479 -133.388,8.531 -47.962,5.553 -94.033,15.102 -142.729,12.127 -47.376,-2.895 -93.711,-15.281 -141.004,-19.295 -47.293,-4.015 -87.585,-0.304 -125.275,28.367 35.801,-6.044 53.185,21.07 80.087,45.31 47.933,43.188 97.455,85.673 154.746,115.552 2.662,1.388 12.385,3.977 11.28,8.298 -0.455,1.781 -1.997,3.046 -3.451,4.181 -0.551,0.43 -1.138,0.876 -1.832,0.972 -0.966,0.132 -1.868,-0.437 -2.785,-0.764 -4.04,-1.441 -8.15,1.798 -11.023,4.966 -0.875,0.965 -1.757,1.994 -2.099,3.248 -0.603,2.203 0.876,4.752 3.096,5.339 2.22,0.587 4.777,-0.895 5.356,-3.105 -2.408,1.02 -4.348,2.867 -6.229,4.676 -2.963,2.847 -5.925,5.694 -8.888,8.54 -2.162,2.078 -4.364,4.209 -5.72,6.877 -1.355,2.668 -1.729,6.021 -0.192,8.59 1.832,3.063 6.076,4.19 9.458,3.005 3.382,-1.185 5.847,-4.281 6.919,-7.681 0.698,-2.212 0.894,-4.605 2.007,-6.642 1.113,-2.037 3.632,-3.629 5.757,-2.672 1.724,2.225 0.476,5.51 -1.322,7.677 -1.797,2.168 -4.172,4.064 -4.891,6.78 -0.954,3.601 1.765,7.588 5.405,8.47 3.64,0.882 7.645,-1.086 9.582,-4.273 1.936,-3.187 1.938,-7.32 0.477,-10.748 1.293,3.733 3.391,7.403 6.804,9.424 3.413,2.021 8.345,1.853 10.875,-1.19 2.531,-3.044 0.943,-8.749 -2.997,-9.252 0.69,1.157 2.148,1.662 3.501,1.651 3.374,-0.028 6.484,-3.34 5.85,-6.633 -0.634,-3.293 -5.325,-5.127 -7.807,-2.857 2.321,-1.718 2.502,-5.615 0.351,-7.539 -2.151,-1.924 -6.032,-1.335 -7.507,1.139 -0.404,-2.927 -3.222,-5.326 -6.195,-5.272 0.483,-1.099 0.966,-2.198 1.449,-3.296 -1.902,-0.875 -4.149,-0.981 -6.125,-0.289 0.75,-0.333 1.559,-0.72 1.92,-1.454 1.216,-2.476 -2.492,-8.381 1.555,-11.14 3.34,-2.277 8.203,1.103 11.332,2.42 10.989,4.624 22.034,8.991 33.397,12.636 9.867,3.166 19.883,5.879 30.015,8.071 5.915,1.279 20.276,0.359 22.986,7.207 0.733,1.851 0.483,3.924 0.223,5.896 -0.397,3.006 0.024,9.576 -1.587,12.079 -2.142,3.327 -4.401,2.088 -8.948,1.755 -0.742,2.938 1.273,6.009 3.927,7.499 2.654,1.489 5.802,1.762 8.84,2.003 13.244,1.052 26.488,2.103 39.731,3.155 1.102,-2.592 2.89,-4.892 5.136,-6.606 -1.735,0.554 -3.729,0.437 -5.263,-0.542 -1.533,-0.978 -2.493,-2.876 -2.135,-4.656 0.619,-3.059 0.859,-5.335 1.237,-8.405 0.471,-3.831 1.015,-7.852 3.32,-10.959 3.381,-4.557 7.831,-3.1 12.564,-3.078 6.521,0.03 13.522,-1.581 19.914,-2.761 44.042,-8.13 86.591,-29.546 131.197,-25.455 33.646,3.085 64.188,20.449 97.047,28.27 8.647,2.058 17.436,3.398 26.295,4.134 C -2.216,0.07 3.291,0.502 1.36,8.872 -0.338,8.727 -2.305,8.51 -4.02,8.849 c -1.819,0.359 -3.599,1.499 -4.185,3.248 -0.591,1.765 0.283,3.895 1.948,4.746 1.664,0.851 3.916,0.318 5.017,-1.187 -0.962,2.635 -4.533,3.181 -6.38,5.299 -1.629,1.868 -1.603,4.817 -0.303,6.925 1.299,2.108 3.648,3.423 6.081,3.94 2.656,0.564 5.582,0.221 7.806,-1.328 2.225,-1.549 3.582,-4.408 2.965,-7.037 -0.474,2.748 -0.948,5.495 -1.422,8.243 -0.431,2.496 -0.816,5.25 0.522,7.406 1.854,2.987 6.316,3.354 9.479,1.793 3.063,-1.512 5.34,-4.507 5.967,-7.848 0.626,-3.341 -0.412,-6.95 -2.722,-9.457 1.794,1.679 4.089,3.005 6.554,3.003 2.464,-10e-4 5.018,-1.658 5.422,-4.074 0.201,-1.203 -0.128,-2.435 -0.6,-3.561 -1.082,-2.579 -3.018,-4.88 -5.594,-6.002 -2.576,-1.121 -5.802,-0.9 -7.959,0.893 1.173,-0.742 2.39,-1.53 3.087,-2.726 C 22.361,9.93 22.345,8.201 21.249,7.35 20.603,6.848 19.733,6.748 18.912,6.733 15.5,6.675 12.08,7.817 9.396,9.912 7.755,5.078 6.62,0.075 6.014,-4.991" />
                </g>
              </g>
            </g>
          </g>
          <g
             transform="translate(539.9197,162.5822)"
             id="g72">
            <path
               inkscape:connector-curvature="0"
               id="path74"
               style="fill:#24265d;fill-opacity:1;fill-rule:nonzero;stroke:none"
               d="m 0,0 c 0,3.738 -4.635,6.768 -10.352,6.768 -5.716,0 -10.351,-3.03 -10.351,-6.768 0,-3.299 3.615,-6.039 8.395,-6.639 l -1.04,-64.829 6.265,0 -1.04,64.866 C -3.48,-5.934 0,-3.236 0,0" />
          </g>
          <g
             id="g76">
            <g
               id="g78" />
            <g
               id="g84">
              <g
                 style="opacity:0.10000598"
                 id="g86"
                 clip-path="url(#clipPath80)">
                <g
                   id="g88"
                   transform="translate(72.7871,543.436)">
                  <path
                     inkscape:connector-curvature="0"
                     id="path90"
                     style="fill:#fbfbfa;fill-opacity:1;fill-rule:nonzero;stroke:none"
                     d="m 0,0 c 0,42.667 34.805,77.256 77.738,77.256 42.934,0 77.74,-34.589 77.74,-77.256 0,-42.667 -34.806,-77.254 -77.74,-77.254 C 34.805,-77.254 0,-42.667 0,0" />
                </g>
              </g>
            </g>
          </g>
          <g
             transform="translate(77.37,543.436)"
             id="g92">
            <path
               inkscape:connector-curvature="0"
               id="path94"
               style="fill:#ebeae9;fill-opacity:1;fill-rule:nonzero;stroke:none"
               d="m 0,0 c 0,40.151 32.753,72.701 73.155,72.701 40.403,0 73.155,-32.55 73.155,-72.701 0,-40.152 -32.752,-72.699 -73.155,-72.699 C 32.753,-72.699 0,-40.152 0,0" />
          </g>
          <g
             id="g96">
            <g
               id="g98" />
            <g
               id="g104">
              <g
                 style="opacity:0.19999701"
                 id="g106"
                 clip-path="url(#clipPath100)">
                <g
                   id="g108"
                   transform="translate(191.9001,603.3953)">
                  <path
                     inkscape:connector-curvature="0"
                     id="path110"
                     style="fill:#c5c2c1;fill-opacity:1;fill-rule:nonzero;stroke:none"
                     d="m 0,0 c 0,0 51.318,-104.307 -58.54,-130.641 0,0 63.816,-16.364 87.529,50.725 0,0 16.511,46.928 -28.989,79.916" />
                </g>
              </g>
            </g>
          </g>
          <g
             id="g112">
            <g
               id="g114" />
            <g
               id="g120">
              <g
                 style="opacity:0.25"
                 id="g122"
                 clip-path="url(#clipPath116)">
                <g
                   id="g124"
                   transform="translate(100.6568,551.0762)">
                  <path
                     inkscape:connector-curvature="0"
                     id="path126"
                     style="fill:#110f0d;fill-opacity:1;fill-rule:nonzero;stroke:none"
                     d="m 0,0 c -3.922,9.129 -1.313,23.548 7.873,27.449 9.186,3.897 21.848,0.52 25.772,-8.608 C 37.568,9.711 31.268,-1.716 22.08,-5.613 12.895,-9.511 3.923,-9.13 0,0" />
                </g>
              </g>
            </g>
          </g>
          <g
             transform="translate(99.1264,551.0762)"
             id="g128">
            <path
               inkscape:connector-curvature="0"
               id="path130"
               style="fill:#bcbdbd;fill-opacity:1;fill-rule:nonzero;stroke:none"
               d="m 0,0 c -3.922,9.129 -1.313,23.548 7.873,27.449 9.186,3.897 21.848,0.52 25.772,-8.608 C 37.568,9.711 31.268,-1.716 22.08,-5.613 12.895,-9.511 3.923,-9.13 0,0" />
          </g>
          <g
             id="g132">
            <g
               id="g134" />
            <g
               id="g140">
              <g
                 style="opacity:0.25"
                 id="g142"
                 clip-path="url(#clipPath136)">
                <g
                   id="g144"
                   transform="translate(103.5,553.0922)">
                  <path
                     inkscape:connector-curvature="0"
                     id="path146"
                     style="fill:#110f0d;fill-opacity:1;fill-rule:nonzero;stroke:none"
                     d="m 0,0 c -3.226,7.509 -1.081,19.364 6.473,22.57 7.552,3.206 17.966,0.429 21.191,-7.077 C 30.891,7.987 25.708,-1.409 18.156,-4.614 10.602,-7.822 3.226,-7.504 0,0" />
                </g>
              </g>
            </g>
          </g>
          <g
             transform="translate(101.9696,553.0922)"
             id="g148">
            <path
               inkscape:connector-curvature="0"
               id="path150"
               style="fill:#a8abac;fill-opacity:1;fill-rule:nonzero;stroke:none"
               d="m 0,0 c -3.226,7.509 -1.081,19.364 6.473,22.57 7.552,3.206 17.966,0.429 21.191,-7.077 C 30.891,7.987 25.708,-1.409 18.156,-4.614 10.602,-7.822 3.226,-7.504 0,0" />
          </g>
          <g
             id="g152">
            <g
               id="g154" />
            <g
               id="g160">
              <g
                 style="opacity:0.25"
                 id="g162"
                 clip-path="url(#clipPath156)">
                <g
                   id="g164"
                   transform="translate(140.3508,530.9393)">
                  <path
                     inkscape:connector-curvature="0"
                     id="path166"
                     style="fill:#110f0d;fill-opacity:1;fill-rule:nonzero;stroke:none"
                     d="M 0,0 C -0.795,1.846 -0.267,4.764 1.592,5.552 3.45,6.342 6.011,5.659 6.804,3.812 7.601,1.965 6.325,-0.347 4.465,-1.137 2.606,-1.924 0.79,-1.846 0,0" />
                </g>
              </g>
            </g>
          </g>
          <g
             transform="translate(138.8204,530.9393)"
             id="g168">
            <path
               inkscape:connector-curvature="0"
               id="path170"
               style="fill:#bcbdbd;fill-opacity:1;fill-rule:nonzero;stroke:none"
               d="M 0,0 C -0.795,1.846 -0.267,4.764 1.592,5.552 3.45,6.342 6.011,5.659 6.804,3.812 7.601,1.965 6.325,-0.347 4.465,-1.137 2.606,-1.924 0.79,-1.846 0,0" />
          </g>
          <g
             id="g172">
            <g
               id="g174" />
            <g
               id="g180">
              <g
                 style="opacity:0.25"
                 id="g182"
                 clip-path="url(#clipPath176)">
                <g
                   id="g184"
                   transform="translate(198.5258,520.8473)">
                  <path
                     inkscape:connector-curvature="0"
                     id="path186"
                     style="fill:#110f0d;fill-opacity:1;fill-rule:nonzero;stroke:none"
                     d="M 0,0 C -0.98,2.278 -0.327,5.877 1.964,6.851 4.257,7.825 7.419,6.981 8.396,4.703 9.379,2.424 7.802,-0.427 5.51,-1.402 3.217,-2.375 0.979,-2.28 0,0" />
                </g>
              </g>
            </g>
          </g>
          <g
             transform="translate(196.9954,520.8473)"
             id="g188">
            <path
               inkscape:connector-curvature="0"
               id="path190"
               style="fill:#bcbdbd;fill-opacity:1;fill-rule:nonzero;stroke:none"
               d="M 0,0 C -0.98,2.278 -0.327,5.877 1.964,6.851 4.257,7.825 7.419,6.981 8.395,4.703 9.379,2.424 7.802,-0.427 5.51,-1.402 3.217,-2.375 0.979,-2.28 0,0" />
          </g>
          <g
             id="g192">
            <g
               id="g194" />
            <g
               id="g200">
              <g
                 style="opacity:0.25"
                 id="g202"
                 clip-path="url(#clipPath196)">
                <g
                   id="g204"
                   transform="translate(168.7531,538.0137)">
                  <path
                     inkscape:connector-curvature="0"
                     id="path206"
                     style="fill:#110f0d;fill-opacity:1;fill-rule:nonzero;stroke:none"
                     d="m 0,0 c -4.78,11.125 0.046,23.579 11.48,28.431 11.43,4.85 25.652,6.037 30.432,-5.087 C 46.695,12.222 36.219,2.103 24.79,-2.748 13.356,-7.599 4.779,-11.122 0,0" />
                </g>
                <g
                   id="g208"
                   transform="translate(171.8563,540.1242)">
                  <path
                     inkscape:connector-curvature="0"
                     id="path210"
                     style="fill:#110f0d;fill-opacity:1;fill-rule:nonzero;stroke:none"
                     d="m 0,0 c -4.043,9.406 0.041,19.938 9.708,24.041 9.665,4.102 21.69,5.105 25.731,-4.301 C 39.485,10.336 30.624,1.78 20.962,-2.324 11.293,-6.425 4.04,-9.404 0,0" />
                </g>
              </g>
            </g>
          </g>
          <g
             transform="translate(167.2227,538.0137)"
             id="g212">
            <path
               inkscape:connector-curvature="0"
               id="path214"
               style="fill:#bcbdbd;fill-opacity:1;fill-rule:nonzero;stroke:none"
               d="m 0,0 c -4.78,11.125 0.046,23.579 11.48,28.431 11.43,4.85 25.652,6.037 30.432,-5.087 C 46.695,12.222 36.219,2.103 24.79,-2.748 13.356,-7.599 4.779,-11.122 0,0" />
          </g>
          <g
             transform="translate(170.3259,540.1242)"
             id="g216">
            <path
               inkscape:connector-curvature="0"
               id="path218"
               style="fill:#a8abac;fill-opacity:1;fill-rule:nonzero;stroke:none"
               d="M 0,0 C -4.043,9.406 0.041,19.938 9.707,24.041 19.373,28.143 31.398,29.146 35.439,19.74 39.485,10.336 30.624,1.78 20.962,-2.324 11.293,-6.425 4.04,-9.404 0,0" />
          </g>
          <g
             id="g220">
            <g
               id="g222" />
            <g
               id="g228">
              <g
                 style="opacity:0.25"
                 id="g230"
                 clip-path="url(#clipPath224)">
                <g
                   id="g232"
                   transform="translate(185.7889,492.8649)">
                  <path
                     inkscape:connector-curvature="0"
                     id="path234"
                     style="fill:#110f0d;fill-opacity:1;fill-rule:nonzero;stroke:none"
                     d="m 0,0 c -6.671,-4.932 -15.765,-3.734 -20.836,3.034 -5.069,6.768 -8.132,15.966 -1.462,20.894 6.667,4.938 15.102,-0.36 20.173,-7.127 C 2.945,10.031 6.669,4.932 0,0" />
                </g>
              </g>
            </g>
          </g>
          <g
             transform="translate(184.2585,492.8649)"
             id="g236">
            <path
               inkscape:connector-curvature="0"
               id="path238"
               style="fill:#bcbdbd;fill-opacity:1;fill-rule:nonzero;stroke:none"
               d="m 0,0 c -6.671,-4.932 -15.765,-3.734 -20.836,3.034 -5.069,6.768 -8.132,15.966 -1.462,20.894 6.667,4.938 15.102,-0.36 20.173,-7.127 C 2.945,10.031 6.669,4.932 0,0" />
          </g>
          <g
             id="g240">
            <g
               id="g242" />
            <g
               id="g248">
              <g
                 style="opacity:0.25"
                 id="g250"
                 clip-path="url(#clipPath244)">
                <g
                   id="g252"
                   transform="translate(183.8806,494.5755)">
                  <path
                     inkscape:connector-curvature="0"
                     id="path254"
                     style="fill:#110f0d;fill-opacity:1;fill-rule:nonzero;stroke:none"
                     d="m 0,0 c -5.64,-4.172 -13.328,-3.158 -17.616,2.567 -4.285,5.723 -6.88,13.497 -1.24,17.668 5.64,4.174 12.775,-0.306 17.059,-6.029 C 2.49,8.482 5.639,4.171 0,0" />
                </g>
              </g>
            </g>
          </g>
          <g
             transform="translate(182.3502,494.5755)"
             id="g256">
            <path
               inkscape:connector-curvature="0"
               id="path258"
               style="fill:#a8abac;fill-opacity:1;fill-rule:nonzero;stroke:none"
               d="m 0,0 c -5.64,-4.172 -13.328,-3.158 -17.616,2.567 -4.285,5.723 -6.88,13.497 -1.24,17.668 5.64,4.174 12.775,-0.306 17.059,-6.029 C 2.49,8.482 5.639,4.171 0,0" />
          </g>
          <g
             id="g260">
            <g
               id="g262" />
            <g
               id="g268">
              <g
                 style="opacity:0.25"
                 id="g270"
                 clip-path="url(#clipPath264)">
                <g
                   id="g272"
                   transform="translate(126.1375,492.6007)">
                  <path
                     inkscape:connector-curvature="0"
                     id="path274"
                     style="fill:#110f0d;fill-opacity:1;fill-rule:nonzero;stroke:none"
                     d="M 0,0 C 0.257,4.409 3.87,7.696 8.398,7.436 12.928,7.175 17.77,5.266 17.51,0.859 17.256,-3.548 12.177,-5.162 7.649,-4.902 3.119,-4.64 -0.26,-4.405 0,0" />
                </g>
              </g>
            </g>
          </g>
          <g
             transform="translate(124.6071,492.6007)"
             id="g276">
            <path
               inkscape:connector-curvature="0"
               id="path278"
               style="fill:#bcbdbd;fill-opacity:1;fill-rule:nonzero;stroke:none"
               d="M 0,0 C 0.257,4.409 3.87,7.696 8.398,7.436 12.928,7.175 17.77,5.266 17.51,0.859 17.256,-3.548 12.177,-5.162 7.649,-4.902 3.119,-4.64 -0.26,-4.405 0,0" />
          </g>
          <g
             transform="translate(125.9628,492.7907)"
             id="g280">
            <path
               inkscape:connector-curvature="0"
               id="path282"
               style="fill:#a8abac;fill-opacity:1;fill-rule:nonzero;stroke:none"
               d="M 0,0 C 0.219,3.725 3.277,6.507 7.107,6.286 10.936,6.064 15.028,4.451 14.811,0.725 14.594,-3.002 10.299,-4.366 6.472,-4.146 2.644,-3.925 -0.215,-3.726 0,0" />
          </g>
          <g
             id="g284">
            <g
               id="g286" />
            <g
               id="g292">
              <g
                 style="opacity:0.25"
                 id="g294"
                 clip-path="url(#clipPath288)">
                <g
                   id="g296"
                   transform="translate(158.7448,583.9196)">
                  <path
                     inkscape:connector-curvature="0"
                     id="path298"
                     style="fill:#110f0d;fill-opacity:1;fill-rule:nonzero;stroke:none"
                     d="M 0,0 C 0.338,5.822 5.113,10.165 11.093,9.823 17.076,9.478 23.472,6.956 23.129,1.135 22.793,-4.686 16.082,-6.816 10.104,-6.473 4.12,-6.13 -0.342,-5.817 0,0" />
                </g>
              </g>
            </g>
          </g>
          <g
             transform="translate(157.2144,583.9196)"
             id="g300">
            <path
               inkscape:connector-curvature="0"
               id="path302"
               style="fill:#bcbdbd;fill-opacity:1;fill-rule:nonzero;stroke:none"
               d="M 0,0 C 0.338,5.822 5.113,10.165 11.093,9.823 17.076,9.478 23.472,6.956 23.129,1.135 22.793,-4.686 16.082,-6.816 10.104,-6.473 4.12,-6.13 -0.342,-5.817 0,0" />
          </g>
          <g
             id="g304">
            <g
               id="g306" />
            <g
               id="g312">
              <g
                 style="opacity:0.25"
                 id="g314"
                 clip-path="url(#clipPath308)">
                <g
                   id="g316"
                   transform="translate(160.5368,584.1696)">
                  <path
                     inkscape:connector-curvature="0"
                     id="path318"
                     style="fill:#110f0d;fill-opacity:1;fill-rule:nonzero;stroke:none"
                     d="M 0,0 C 0.289,4.921 4.327,8.595 9.385,8.303 14.443,8.011 19.847,5.88 19.563,0.958 19.276,-3.966 13.603,-5.765 8.547,-5.475 3.49,-5.185 -0.285,-4.921 0,0" />
                </g>
              </g>
            </g>
          </g>
          <g
             transform="translate(159.0065,584.1696)"
             id="g320">
            <path
               inkscape:connector-curvature="0"
               id="path322"
               style="fill:#a8abac;fill-opacity:1;fill-rule:nonzero;stroke:none"
               d="M 0,0 C 0.289,4.921 4.327,8.595 9.385,8.303 14.443,8.011 19.847,5.88 19.563,0.958 19.276,-3.966 13.603,-5.765 8.547,-5.475 3.49,-5.185 -0.285,-4.921 0,0" />
          </g>
          <g
             id="g324">
            <g
               id="g326" />
            <g
               id="g332">
              <g
                 style="opacity:0.25"
                 id="g334"
                 clip-path="url(#clipPath328)">
                <g
                   id="g336"
                   transform="translate(98.8209,531.9472)">
                  <path
                     inkscape:connector-curvature="0"
                     id="path338"
                     style="fill:#110f0d;fill-opacity:1;fill-rule:nonzero;stroke:none"
                     d="M 0,0 C 2.103,2.385 5.611,2.663 8.061,0.53 10.51,-1.605 12.405,-4.811 10.302,-7.193 8.201,-9.579 4.607,-8.265 2.158,-6.132 -0.294,-3.997 -2.104,-2.381 0,0" />
                </g>
              </g>
            </g>
          </g>
          <g
             transform="translate(97.2905,531.9472)"
             id="g340">
            <path
               inkscape:connector-curvature="0"
               id="path342"
               style="fill:#bcbdbd;fill-opacity:1;fill-rule:nonzero;stroke:none"
               d="M 0,0 C 2.103,2.385 5.611,2.663 8.061,0.53 10.51,-1.605 12.405,-4.811 10.302,-7.193 8.201,-9.579 4.607,-8.265 2.158,-6.132 -0.294,-3.997 -2.104,-2.381 0,0" />
          </g>
          <g
             transform="translate(98.1431,531.4601)"
             id="g344">
            <path
               inkscape:connector-curvature="0"
               id="path346"
               style="fill:#a8abac;fill-opacity:1;fill-rule:nonzero;stroke:none"
               d="M 0,0 C 1.78,2.014 4.745,2.25 6.818,0.446 8.89,-1.36 10.491,-4.07 8.714,-6.086 6.936,-8.102 3.897,-6.991 1.824,-5.187 -0.247,-3.382 -1.777,-2.016 0,0" />
          </g>
          <g
             transform="translate(136.389,594.8077)"
             id="g348">
            <path
               inkscape:connector-curvature="0"
               id="path350"
               style="fill:#bcbdbd;fill-opacity:1;fill-rule:nonzero;stroke:none"
               d="M 0,0 C 1.5,1.701 4.003,1.9 5.75,0.377 7.499,-1.144 8.851,-3.432 7.351,-5.134 5.85,-6.835 3.286,-5.898 1.54,-4.377 -0.208,-2.853 -1.5,-1.7 0,0" />
          </g>
          <g
             id="g352">
            <g
               id="g354" />
            <g
               id="g360">
              <g
                 style="opacity:0.25"
                 id="g362"
                 clip-path="url(#clipPath356)">
                <g
                   id="g364"
                   transform="translate(138.5273,594.4609)">
                  <path
                     inkscape:connector-curvature="0"
                     id="path366"
                     style="fill:#110f0d;fill-opacity:1;fill-rule:nonzero;stroke:none"
                     d="M 0,0 C 1.27,1.435 3.386,1.605 4.864,0.317 6.343,-0.972 7.486,-2.905 6.218,-4.343 4.948,-5.782 2.782,-4.99 1.304,-3.701 -0.175,-2.414 -1.269,-1.439 0,0" />
                </g>
              </g>
            </g>
          </g>
          <g
             transform="translate(136.9969,594.4609)"
             id="g368">
            <path
               inkscape:connector-curvature="0"
               id="path370"
               style="fill:#a8abac;fill-opacity:1;fill-rule:nonzero;stroke:none"
               d="M 0,0 C 1.27,1.435 3.386,1.605 4.865,0.317 6.343,-0.972 7.486,-2.905 6.218,-4.343 4.948,-5.782 2.782,-4.99 1.304,-3.701 -0.175,-2.414 -1.269,-1.439 0,0" />
          </g>
          <g
             transform="translate(226.0836,672.3431)"
             id="g372">
            <path
               inkscape:connector-curvature="0"
               id="path374"
               style="fill:#ffffff;fill-opacity:1;fill-rule:nonzero;stroke:none"
               d="m 0,0 -0.128,-14.957 13.554,-6.501 -15.05,0.127 -6.543,-13.47 0.127,14.957 -13.553,6.501 15.05,-0.127 L 0,0 Z" />
          </g>
          <g
             id="g376">
            <g
               id="g378" />
            <g
               id="g384">
              <g
                 style="opacity:0.16999799"
                 id="g386"
                 clip-path="url(#clipPath380)">
                <g
                   id="g388"
                   transform="translate(210.4264,654.9426)">
                  <path
                     inkscape:connector-curvature="0"
                     id="path390"
                     style="fill:#ffffff;fill-opacity:1;fill-rule:nonzero;stroke:none"
                     d="m 0,0 c 0,6.352 5.182,11.502 11.574,11.502 6.391,0 11.573,-5.15 11.573,-11.502 0,-6.352 -5.182,-11.502 -11.573,-11.502 C 5.182,-11.502 0,-6.352 0,0" />
                </g>
              </g>
            </g>
          </g>
          <g
             transform="translate(753.5144,469.1746)"
             id="g392">
            <path
               inkscape:connector-curvature="0"
               id="path394"
               style="fill:#ffffff;fill-opacity:1;fill-rule:nonzero;stroke:none"
               d="m 0,0 -0.11,-12.872 11.664,-5.595 -12.952,0.109 -5.631,-11.592 0.11,12.872 -11.664,5.595 12.952,-0.109 L 0,0 Z" />
          </g>
          <g
             id="g396">
            <g
               id="g398" />
            <g
               id="g404">
              <g
                 style="opacity:0.16999799"
                 id="g406"
                 clip-path="url(#clipPath400)">
                <g
                   id="g408"
                   transform="translate(740.0397,454.1996)">
                  <path
                     inkscape:connector-curvature="0"
                     id="path410"
                     style="fill:#ffffff;fill-opacity:1;fill-rule:nonzero;stroke:none"
                     d="m 0,0 c 0,5.467 4.459,9.898 9.96,9.898 5.501,0 9.96,-4.431 9.96,-9.898 0,-5.467 -4.459,-9.898 -9.96,-9.898 C 4.459,-9.898 0,-5.467 0,0" />
                </g>
              </g>
            </g>
          </g>
          <g
             transform="translate(903.1885,557.9336)"
             id="g412">
            <path
               inkscape:connector-curvature="0"
               id="path414"
               style="fill:#ffffff;fill-opacity:1;fill-rule:nonzero;stroke:none"
               d="m 0,0 -0.068,-8.016 7.263,-3.484 -8.065,0.068 -3.507,-7.218 0.068,8.015 -7.263,3.484 8.065,-0.068 L 0,0 Z" />
          </g>
          <g
             id="g416">
            <g
               id="g418" />
            <g
               id="g424">
              <g
                 style="opacity:0.16999799"
                 id="g426"
                 clip-path="url(#clipPath420)">
                <g
                   id="g428"
                   transform="translate(894.7976,548.6084)">
                  <path
                     inkscape:connector-curvature="0"
                     id="path430"
                     style="fill:#ffffff;fill-opacity:1;fill-rule:nonzero;stroke:none"
                     d="m 0,0 c 0,3.404 2.777,6.164 6.202,6.164 3.426,0 6.203,-2.76 6.203,-6.164 0,-3.404 -2.777,-6.164 -6.203,-6.164 C 2.777,-6.164 0,-3.404 0,0" />
                </g>
              </g>
            </g>
          </g>
          <g
             transform="translate(888.3391,724.8218)"
             id="g432">
            <path
               inkscape:connector-curvature="0"
               id="path434"
               style="fill:#ffffff;fill-opacity:1;fill-rule:nonzero;stroke:none"
               d="m 0,0 -0.104,-12.23 11.082,-5.315 -12.306,0.103 -5.35,-11.013 0.104,12.229 -11.082,5.316 L -5.35,-11.014 0,0 Z" />
          </g>
          <g
             id="g436">
            <g
               id="g438" />
            <g
               id="g444">
              <g
                 style="opacity:0.16999799"
                 id="g446"
                 clip-path="url(#clipPath440)">
                <g
                   id="g448"
                   transform="translate(875.5367,710.5941)">
                  <path
                     inkscape:connector-curvature="0"
                     id="path450"
                     style="fill:#ffffff;fill-opacity:1;fill-rule:nonzero;stroke:none"
                     d="m 0,0 c 0,5.194 4.237,9.404 9.463,9.404 5.227,0 9.463,-4.21 9.463,-9.404 0,-5.194 -4.236,-9.404 -9.463,-9.404 C 4.237,-9.404 0,-5.194 0,0" />
                </g>
              </g>
            </g>
          </g>
          <g
             transform="translate(1066.1885,465.5123)"
             id="g452">
            <path
               inkscape:connector-curvature="0"
               id="path454"
               style="fill:#ffffff;fill-opacity:1;fill-rule:nonzero;stroke:none"
               d="m 0,0 -0.068,-8.016 7.263,-3.484 -8.065,0.068 -3.507,-7.218 0.068,8.015 -7.263,3.484 8.065,-0.068 L 0,0 Z" />
          </g>
          <g
             id="g456">
            <g
               id="g458" />
            <g
               id="g464">
              <g
                 style="opacity:0.16999799"
                 id="g466"
                 clip-path="url(#clipPath460)">
                <g
                   id="g468"
                   transform="translate(1057.7975,456.1871)">
                  <path
                     inkscape:connector-curvature="0"
                     id="path470"
                     style="fill:#ffffff;fill-opacity:1;fill-rule:nonzero;stroke:none"
                     d="m 0,0 c 0,3.404 2.777,6.164 6.203,6.164 3.425,0 6.202,-2.76 6.202,-6.164 0,-3.404 -2.777,-6.164 -6.202,-6.164 C 2.777,-6.164 0,-3.404 0,0" />
                </g>
              </g>
            </g>
          </g>
          <g
             transform="translate(441.0836,783.6461)"
             id="g472">
            <path
               inkscape:connector-curvature="0"
               id="path474"
               style="fill:#ffffff;fill-opacity:1;fill-rule:nonzero;stroke:none"
               d="m 0,0 -0.128,-14.957 13.554,-6.501 -15.05,0.127 -6.543,-13.47 0.127,14.957 -13.553,6.501 15.05,-0.127 L 0,0 Z" />
          </g>
          <g
             id="g476">
            <g
               id="g478" />
            <g
               id="g484">
              <g
                 style="opacity:0.16999799"
                 id="g486"
                 clip-path="url(#clipPath480)">
                <g
                   id="g488"
                   transform="translate(425.4264,766.2456)">
                  <path
                     inkscape:connector-curvature="0"
                     id="path490"
                     style="fill:#ffffff;fill-opacity:1;fill-rule:nonzero;stroke:none"
                     d="m 0,0 c 0,6.352 5.182,11.502 11.574,11.502 6.391,0 11.573,-5.15 11.573,-11.502 0,-6.352 -5.182,-11.502 -11.573,-11.502 C 5.182,-11.502 0,-6.352 0,0" />
                </g>
              </g>
            </g>
          </g>
          <g
             transform="translate(1059.0836,716.0693)"
             id="g492">
            <path
               inkscape:connector-curvature="0"
               id="path494"
               style="fill:#ffffff;fill-opacity:1;fill-rule:nonzero;stroke:none"
               d="m 0,0 -0.128,-14.957 13.554,-6.501 -15.05,0.127 -6.543,-13.47 0.127,14.957 -13.553,6.501 15.05,-0.127 L 0,0 Z" />
          </g>
          <g
             id="g496">
            <g
               id="g498" />
            <g
               id="g504">
              <g
                 style="opacity:0.16999799"
                 id="g506"
                 clip-path="url(#clipPath500)">
                <g
                   id="g508"
                   transform="translate(1043.4264,698.6688)">
                  <path
                     inkscape:connector-curvature="0"
                     id="path510"
                     style="fill:#ffffff;fill-opacity:1;fill-rule:nonzero;stroke:none"
                     d="m 0,0 c 0,6.352 5.182,11.502 11.574,11.502 6.391,0 11.573,-5.15 11.573,-11.502 0,-6.352 -5.182,-11.502 -11.573,-11.502 C 5.182,-11.502 0,-6.352 0,0" />
                </g>
              </g>
            </g>
          </g>
          <g
             transform="translate(482.1885,609.61)"
             id="g512">
            <path
               inkscape:connector-curvature="0"
               id="path514"
               style="fill:#ffffff;fill-opacity:1;fill-rule:nonzero;stroke:none"
               d="m 0,0 -0.068,-8.016 7.263,-3.484 -8.065,0.068 -3.507,-7.218 0.068,8.015 -7.263,3.484 8.065,-0.068 L 0,0 Z" />
          </g>
          <g
             id="g516">
            <g
               id="g518" />
            <g
               id="g524">
              <g
                 style="opacity:0.16999799"
                 id="g526"
                 clip-path="url(#clipPath520)">
                <g
                   id="g528"
                   transform="translate(473.7976,600.2848)">
                  <path
                     inkscape:connector-curvature="0"
                     id="path530"
                     style="fill:#ffffff;fill-opacity:1;fill-rule:nonzero;stroke:none"
                     d="m 0,0 c 0,3.404 2.777,6.164 6.202,6.164 3.426,0 6.203,-2.76 6.203,-6.164 0,-3.404 -2.777,-6.164 -6.203,-6.164 C 2.777,-6.164 0,-3.404 0,0" />
                </g>
              </g>
            </g>
          </g>
          <g
             transform="translate(552.4838,90.9585)"
             id="g532">
            <path
               inkscape:connector-curvature="0"
               id="path534"
               style="fill:#171a3b;fill-opacity:1;fill-rule:nonzero;stroke:none"
               d="m 0,0 0,60.358 c 0,0 -7.654,0.678 -11.482,0.678 -3.827,0 23.92,54.254 31.575,52.898 7.654,-1.356 14.352,-15.598 14.352,-15.598 l 0,10.173 13.395,0 0,-28.484 c 0,0 10.525,-15.598 9.568,-18.311 C 56.451,59.002 45.927,59.002 45.927,59.002 L 44.013,-3.391 0,0 Z" />
          </g>
          <g
             transform="translate(429.6806,92.6807)"
             id="g536">
            <path
               inkscape:connector-curvature="0"
               id="path538"
               style="fill:#171a3b;fill-opacity:1;fill-rule:nonzero;stroke:none"
               d="m 0,0 84.513,0 0,26.411 c 0,0 4.783,-1.057 7.972,1.584 3.189,2.642 -21.261,34.863 -24.981,36.448 -3.721,1.584 -27.108,0 -27.108,0 0,0 1.063,7.923 0.531,10.564 -0.531,2.641 -12.225,1.585 -12.756,-1.057 -0.532,-2.641 -0.532,-8.979 -0.532,-8.979 0,0 -6.378,0 -8.504,-1.585 -2.126,-1.585 -29.234,-32.749 -29.765,-34.334 -0.532,-1.585 6.909,-1.057 6.909,-1.057 L 0,2.113" />
          </g>
          <g
             transform="translate(627.0397,95.1183)"
             id="g540">
            <path
               inkscape:connector-curvature="0"
               id="path542"
               style="fill:#171a3b;fill-opacity:1;fill-rule:nonzero;stroke:none"
               d="m 0,0 0,36.447 c 0,0 -9.036,0.528 -10.099,2.641 -1.063,2.113 14.883,12.149 14.883,12.149 l 0,14.79 8.504,0 0,-12.149 c 0,0 16.478,11.093 19.135,11.093 2.658,0 22.324,-22.185 22.856,-24.826 0.531,-2.642 -5.847,-2.113 -5.847,-2.113 l 0,-34.334 L 0,0 Z" />
          </g>
          <g
             transform="translate(718.441,90.1263)"
             id="g544">
            <path
               inkscape:connector-curvature="0"
               id="path546"
               style="fill:#171a3b;fill-opacity:1;fill-rule:nonzero;stroke:none"
               d="m 0,0 0,40.673 c 0,0 -1.595,-0.528 -5.315,0.528 -3.721,1.056 13.288,33.806 17.009,38.032 3.72,4.225 21.792,3.169 21.792,3.169 l 0,11.092 c 0,2.906 10.099,2.378 10.099,0 l 0,-11.884 c 0,0 3.987,0.264 6.113,-1.057 C 51.824,79.233 62.986,44.37 61.923,42.522 60.86,40.673 55.81,41.729 55.81,41.729 l 0,-43.842 C 55.81,-2.113 10.365,-7.131 0,0" />
          </g>
          <g
             transform="translate(296.6228,89.0218)"
             id="g548">
            <path
               inkscape:connector-curvature="0"
               id="path550"
               style="fill:#171a3b;fill-opacity:1;fill-rule:nonzero;stroke:none"
               d="m 0,0 0,25.09 c 0,0 -8.239,-0.792 -10.896,1.849 -2.658,2.641 11.162,15.583 13.288,16.375 2.126,0.792 7.707,0.264 7.707,0.264 l 0,29.052 -6.113,0 c -1.86,0 5.582,15.318 6.91,16.375 1.329,1.056 28.703,0 28.703,0 l 0,11.885 c 0,2.377 8.238,2.905 8.77,0.792 0.531,-2.113 0,-12.941 0,-12.941 0,0 6.112,-0.529 7.176,-0.529 1.062,0 7.175,-13.733 7.175,-15.318 0,-1.585 -4.518,-1.056 -4.518,-1.056 l 0,-29.845 c 0,0 7.441,0 9.302,0.264 1.86,0.265 12.491,-14.261 12.225,-16.374 -0.266,-2.113 -8.504,-1.585 -8.504,-1.585 l 0,-24.562 C 71.225,-0.264 34.549,-4.49 0,0" />
          </g>
          <g
             transform="translate(819.5185,160.3187)"
             id="g552">
            <path
               inkscape:connector-curvature="0"
               id="path554"
               style="fill:#171a3b;fill-opacity:1;fill-rule:nonzero;stroke:none"
               d="m 0,0 c 0,3.738 -4.635,6.768 -10.352,6.768 -5.717,0 -10.351,-3.03 -10.351,-6.768 0,-3.299 3.615,-6.04 8.395,-6.639 l -1.04,-64.829 6.265,0 -1.04,64.866 C -3.48,-5.934 0,-3.236 0,0" />
          </g>
          <g
             transform="translate(395.2801,155.7914)"
             id="g556">
            <path
               inkscape:connector-curvature="0"
               id="path558"
               style="fill:#171a3b;fill-opacity:1;fill-rule:nonzero;stroke:none"
               d="m 0,0 c 0,3.738 -4.635,6.768 -10.352,6.768 -5.716,0 -10.351,-3.03 -10.351,-6.768 0,-3.299 3.615,-6.039 8.395,-6.639 l -1.04,-64.829 6.265,0 -1.04,64.866 C -3.48,-5.934 0,-3.236 0,0" />
          </g>
          <g
             transform="translate(284.2378,136.3421)"
             id="g560">
            <path
               inkscape:connector-curvature="0"
               id="path562"
               style="fill:#171a3b;fill-opacity:1;fill-rule:nonzero;stroke:none"
               d="m 0,0 c 0,3.224 -3.997,5.838 -8.928,5.838 -4.931,0 -8.928,-2.614 -8.928,-5.838 0,-2.846 3.118,-5.209 7.24,-5.726 l -0.896,-55.913 5.403,0 -0.897,55.945 C -3.001,-5.118 0,-2.791 0,0" />
          </g>
          <g
             transform="translate(211.7717,146.4198)"
             id="g564">
            <path
               inkscape:connector-curvature="0"
               id="path566"
               style="fill:#171a3b;fill-opacity:1;fill-rule:nonzero;stroke:none"
               d="M 0,0 C 1.553,-2.119 2.999,-4.297 3.885,-6.69 1.836,-5.04 0.955,-2.501 0,0 m 839.831,-94.279 c -18.709,1.822 -37.219,5.151 -55.622,8.904 -9.697,1.977 -19.633,5.043 -29.468,6.034 -4.91,0.494 -5.315,-1.282 -5.551,4.427 -0.199,4.841 1.694,10.576 2.463,15.375 2.162,-4.109 5.318,-8.821 9.979,-8.607 -0.064,2.801 -1.102,5.571 -2.898,7.731 2.636,-3.748 8.087,-5.668 12.107,-3.443 4.019,2.224 4.813,8.924 0.91,11.346 -2.604,1.029 -5.476,-0.389 -8.269,-0.606 -2.794,-0.217 -6.28,2.414 -4.767,4.759 4.33,-1.523 9.737,-0.483 12.442,3.206 2.705,3.689 1.491,9.871 -2.785,11.538 -4.254,1.657 -9.303,-1.317 -13.533,0.398 0.891,4.52 0.425,9.295 -1.324,13.56 -1.553,1.803 -4.821,0.971 -6.035,-1.073 -1.215,-2.043 -0.855,-4.659 -0.02,-6.883 0.835,-2.223 2.103,-4.292 2.668,-6.598 -3.527,0.838 -4.453,5.293 -4.856,8.875 -0.55,4.877 -1.47,9.86 -4.093,14.017 -2.624,4.158 -7.296,7.35 -12.22,6.975 -5.322,-0.406 -9.692,-4.97 -11.035,-10.104 -1.343,-5.134 -0.129,-10.637 2.07,-15.471 3.467,-7.625 9.413,-14.114 16.729,-18.257 -2.848,1.887 -5.929,3.75 -9.349,3.887 -3.42,0.138 -7.177,-2.111 -7.467,-5.5 -0.228,-2.666 1.647,-5.033 3.597,-6.878 5.723,-5.412 14.531,-9.073 21.484,-5.347 -0.438,-3.507 0.003,-9.551 -1.572,-12.675 -1.844,-3.655 -1.456,-2.5 -4.993,-1.673 -6.1,1.426 -12.359,3.275 -18.655,4.537 -15.187,3.044 -30.419,5.865 -45.701,8.401 0.952,12.294 1.903,24.587 2.855,36.881 0.838,-2.053 4.017,-2.623 5.526,-0.991 -2.442,1.544 -4.636,4.015 -4.556,6.89 0.08,2.876 3.556,5.461 5.97,3.874 -0.888,-3.042 0.383,-6.582 3.008,-8.379 2.625,-1.796 6.407,-1.714 8.95,0.196 -0.44,2.912 -0.88,5.824 -1.32,8.736 3.216,-0.812 6.515,3.046 5.19,6.069 -0.723,1.651 -2.456,2.898 -2.547,4.697 -0.139,2.752 3.453,4.093 4.672,6.569 2.109,4.281 -3.492,8.145 -8.023,9.707 4.303,4.142 8.828,10.81 4.964,15.361 -1.995,2.349 -5.586,2.807 -8.547,1.916 -2.961,-0.89 -5.445,-2.871 -7.848,-4.808 -2.41,3.641 -1.026,8.426 -0.467,12.748 0.558,4.323 -0.846,9.951 -5.188,10.561 -1.751,0.246 -3.493,-0.462 -5.039,-1.314 -4.423,-2.441 -8.331,-7.99 -5.588,-12.214 1.267,-1.95 3.729,-3.126 4.357,-5.361 1.019,-3.625 -4.184,-6.482 -7.588,-4.834 -3.404,1.649 -4.886,5.651 -5.571,9.352 -0.686,3.701 -0.962,7.661 -3.125,10.75 -4.223,6.028 -13.407,5.787 -20.281,3.086 -4.797,-1.885 -9.697,-5.28 -10.463,-10.349 -0.974,-6.448 5.09,-11.705 10.881,-14.77 5.791,-3.064 12.55,-5.944 14.952,-12.012 -8.009,-1.236 -14.619,9.427 -22.455,7.365 -6.05,-1.592 -7.52,-10.233 -4.149,-15.475 3.371,-5.241 9.575,-7.822 15.399,-10.102 3.175,-1.243 6.35,-2.485 9.524,-3.728 -3.536,0.622 -7.618,-2.684 -7.649,-6.508 -0.037,-4.504 4.155,-8.233 8.626,-8.972 3.312,-0.548 6.829,0.242 9.583,2.151 4.508,3.125 6.795,8.892 11.642,11.466 -0.129,-12.433 -0.258,-24.866 -0.388,-37.298 -0.036,-3.486 -0.154,-7.203 -1.824,-10.196 -67.76,10.887 -160.449,20.218 -302.638,20.218 -26.228,0 -52.455,-0.399 -78.672,-1.159 -51.521,-1.493 -103,-4.373 -154.378,-8.446 -23.472,-1.86 -46.923,-3.971 -70.349,-6.323 -9.602,-0.964 -52.63,-11.7 -55.23,0.461 -0.981,4.589 1.977,9.41 0.733,13.936 1.188,-0.662 2.613,-0.892 3.951,-0.639 0.287,1.35 0.087,2.797 -0.556,4.02 2.055,-1.172 4.851,-1.519 6.677,-0.017 1.391,1.145 1.516,3.519 0.471,4.799 2.336,-1.136 5.306,-0.989 7.431,0.528 0.012,1.971 -0.459,3.943 -1.362,5.698 1.578,-0.213 3.157,-0.426 4.736,-0.639 0.527,3.076 -1.655,6.325 -4.646,7.17 3.704,-0.815 7.752,0.008 10.795,2.264 0.557,4.016 -3.03,7.809 -6.949,8.302 1.861,0.796 3.329,2.666 3.39,4.717 0.091,3.066 -2.656,5.837 -5.731,6.101 -2.556,0.219 -5.073,-1.157 -6.565,-3.238 3.1,5.557 4.436,12.217 2.676,18.3 -1.902,6.578 -7.867,12.123 -14.745,12.465 -6.879,0.341 -13.794,-5.45 -13.638,-12.293 0.053,-2.305 0.792,-4.39 1.864,-6.376 -5.382,4.109 -13.6,4.763 -19.113,0.641 -7.214,-5.394 -7.831,-17.487 -1.202,-23.578 4.918,-4.52 12.172,-5.419 17.869,-8.922 -7.896,3.928 -19.412,3.629 -23.5,-4.149 -3.628,-6.903 1.426,-16.061 8.821,-18.638 7.395,-2.577 15.788,0.144 22.011,4.878 -1.506,-3.214 -0.599,-6.978 0.309,-10.406 0.908,-3.429 1.763,-7.219 0.173,-10.393 -2.377,-4.747 -12.668,-3.25 -17.15,-3.778 -7.945,-0.934 -15.878,-1.988 -23.81,-3.024 -40.989,-5.353 -81.891,-11.408 -122.632,-18.39 -2.474,-0.424 -44.866,-6.599 -44.866,-8.199 l 0,-49.946 1186.828,0 0,61.83 c 0,0 -46.471,-18.675 -138.722,-9.694" />
          </g>
          <g
             transform="translate(112.1885,410.8546)"
             id="g568">
            <path
               inkscape:connector-curvature="0"
               id="path570"
               style="fill:#ffffff;fill-opacity:1;fill-rule:nonzero;stroke:none"
               d="m 0,0 -0.068,-8.016 7.263,-3.484 -8.065,0.068 -3.507,-7.218 0.068,8.015 -7.263,3.484 8.065,-0.068 L 0,0 Z" />
          </g>
          <g
             id="g572">
            <g
               id="g574" />
            <g
               id="g580">
              <g
                 style="opacity:0.16999799"
                 id="g582"
                 clip-path="url(#clipPath576)">
                <g
                   id="g584"
                   transform="translate(103.7976,401.5294)">
                  <path
                     inkscape:connector-curvature="0"
                     id="path586"
                     style="fill:#ffffff;fill-opacity:1;fill-rule:nonzero;stroke:none"
                     d="m 0,0 c 0,3.404 2.777,6.164 6.202,6.164 3.426,0 6.203,-2.76 6.203,-6.164 0,-3.404 -2.777,-6.164 -6.203,-6.164 C 2.777,-6.164 0,-3.404 0,0" />
                </g>
              </g>
            </g>
          </g>
          <g
             transform="translate(61.1885,740.7886)"
             id="g588">
            <path
               inkscape:connector-curvature="0"
               id="path590"
               style="fill:#ffffff;fill-opacity:1;fill-rule:nonzero;stroke:none"
               d="m 0,0 -0.068,-8.016 7.263,-3.484 -8.065,0.068 -3.507,-7.218 0.068,8.015 -7.263,3.484 8.065,-0.068 L 0,0 Z" />
          </g>
          <g
             id="g592">
            <g
               id="g594" />
            <g
               id="g600">
              <g
                 style="opacity:0.16999799"
                 id="g602"
                 clip-path="url(#clipPath596)">
                <g
                   id="g604"
                   transform="translate(52.7976,731.4634)">
                  <path
                     inkscape:connector-curvature="0"
                     id="path606"
                     style="fill:#ffffff;fill-opacity:1;fill-rule:nonzero;stroke:none"
                     d="m 0,0 c 0,3.404 2.777,6.164 6.202,6.164 3.426,0 6.203,-2.76 6.203,-6.164 0,-3.404 -2.777,-6.164 -6.203,-6.164 C 2.777,-6.164 0,-3.404 0,0" />
                </g>
              </g>
            </g>
          </g>
          <g
             transform="translate(1101.942,306.1197)"
             id="g608">
            <path
               inkscape:connector-curvature="0"
               id="path610"
               style="fill:#ffffff;fill-opacity:1;fill-rule:nonzero;stroke:none"
               d="m 0,0 c -0.834,1.49 -2.538,2.23 -4.135,2.837 -9.881,3.755 -20.65,6.743 -31.229,7.565 -3.24,0.251 -6.952,-0.866 -9.746,1.039 -3.646,2.487 -4.866,8.963 -6.337,12.807 -1.164,3.044 -2.798,6.207 -5.736,7.617 -3.212,1.541 -7.193,0.486 -9.991,-1.719 -1.495,-1.179 -5.985,-9.015 -6.537,-8.981 -0.8,0.05 -1.415,0.786 -1.625,1.56 -0.21,0.774 -0.115,1.592 -0.086,2.394 0.091,2.494 -0.554,5.124 -2.294,6.914 -1.74,1.789 -4.721,2.469 -6.823,1.124 -3.135,-2.006 -8.489,-9.882 -8.635,-1.018 -0.1,6.047 4.466,12.075 6.572,17.515 6.699,17.307 -1.489,38.153 -16.505,49.057 -15.017,10.905 -35.261,12.808 -53.275,8.346 -6.214,-1.54 -12.56,-3.988 -16.615,-8.942 -5.792,-7.074 -5.413,-17.513 -2.288,-26.106 3.125,-8.592 8.567,-16.141 12.353,-24.464 1.456,-3.202 2.445,-7.514 -0.228,-9.802 -4.01,-3.431 -9.298,1.947 -13.402,5.265 -15.405,12.459 -35.14,-4.998 -39.145,-20.157 -1.412,-5.345 -1.012,-10.868 -0.207,-16.272 0.453,-3.034 2.77,-11.365 -3.209,-7.205 -2.524,1.755 -5.888,2.237 -8.803,1.26 -0.671,-0.225 -1.335,-0.533 -1.829,-1.041 -1.685,-1.73 -0.673,-4.711 -1.645,-6.922 -0.706,-1.605 -2.369,-2.576 -4.027,-3.146 -4.683,-1.612 -7.589,0.226 -11.924,0.935 -4.265,0.696 -9.736,-0.821 -13.778,-2.078 -0.842,-0.998 -0.231,-2.649 0.877,-3.338 1.109,-0.689 2.496,-0.69 3.801,-0.668 14.763,0.25 29.426,2.321 44.177,2.855 8.819,0.316 18.751,-0.435 27.266,-2.631 2.088,-0.538 4.176,-1.077 6.285,-1.525 4.717,-1.003 9.531,-1.55 14.353,-1.633 15.972,-0.275 32.154,8.443 47.564,11.774 9.428,2.039 19.183,1.742 28.824,1.437 25.851,-0.821 51.703,-1.641 77.554,-2.461 C -5.106,-7.977 2.6,-4.647 0,0" />
          </g>
        </g>
      </g>
      <path
         d="m 356.0901,494.2434 c -0.027,0 -0.054,0 -0.081,10e-4 -1.535,0.012 -3.091,0.01 -4.574,-0.387 -1.482,-0.398 -2.906,-1.244 -3.679,-2.57 -1.047,-1.797 -0.718,-4.053 -0.258,-6.081 0.408,-1.802 0.923,-3.643 2.071,-5.091 0.949,-1.196 2.394,-2.357 2.149,-3.864 -0.552,-3.407 -4.356,-0.1 -5.702,0.501 -2.599,1.159 -5.755,1.717 -8.578,1.334 -9.298,-1.261 -14.3,-12.369 -23.427,-14.512 -3.713,-0.872 -7.6,-0.114 -11.418,-0.178 -3.442,-0.058 -7.26,-1.092 -9.183,-3.758 -0.313,-0.434 -0.092,-1.053 0.428,-1.181 8.963,-2.202 18.157,-3.511 27.391,-3.9 6.463,-0.273 12.953,-0.095 19.367,0.723 7.19,0.918 14.261,2.636 21.474,3.358 7.432,0.744 14.928,0.422 22.391,0.099 27.865,-1.205 55.73,-2.409 83.594,-3.614 5.334,-0.231 10.768,-0.452 15.921,0.906 5.154,1.358 10.078,4.571 12.072,9.402 0.841,2.038 1.126,4.254 1.217,6.449 0.213,5.142 -0.698,10.544 -3.871,14.656 -3.172,4.112 -8.997,6.538 -13.938,4.734 -3.062,-1.118 -5.402,-3.629 -8.41,-4.877 -3.009,-1.248 -7.506,-0.344 -7.972,2.813 -0.247,1.669 0.753,3.237 1.567,4.725 7.125,13.027 -0.25,31.462 -14.537,36.34 -3.753,1.281 -7.94,1.704 -11.698,0.435 -5.986,-2.022 -9.832,-8.072 -10.68,-14.197 -0.847,-6.124 0.819,-12.314 2.986,-18.121 -4.555,21.03 -22.124,38.845 -43.492,44.099 -7.776,1.913 -16.68,2.06 -23.104,-2.623 -7.504,-5.47 -9.317,-15.981 -7.402,-24.927 1.135,-5.3 3.33,-10.276 5.648,-15.149 1.16,-2.437 2.574,-4.838 3.553,-7.354 0.123,-0.315 2.154,-4.929 -0.097,-3.956 -0.198,0.086 -0.339,0.265 -0.469,0.437 -1.342,1.779 -2.668,3.732 -4.703,4.639 -1.413,0.63 -3.007,0.675 -4.556,0.689"
         style="fill:#ffffff;fill-opacity:1;fill-rule:nonzero;stroke:none"
         id="path1446"
         inkscape:connector-curvature="0" />
    </g>
  </g>
</svg>
